{
 "cells": [
  {
   "cell_type": "code",
   "execution_count": 3,
   "outputs": [
    {
     "name": "stdout",
     "text": [
      "Nothing done.\n"
     ],
     "output_type": "stream"
    }
   ],
   "source": [
    "%reset\n",
    "# Alt shift + b/a"
   ],
   "metadata": {
    "collapsed": false,
    "pycharm": {
     "name": "#%%\n",
     "is_executing": false
    }
   }
  },
  {
   "cell_type": "code",
   "execution_count": 4,
   "outputs": [
    {
     "name": "stdout",
     "text": [
      "True\n",
      "False\n",
      "4\n"
     ],
     "output_type": "stream"
    }
   ],
   "source": [
    "import mingus.core.notes as notes\n",
    "\n",
    "qwer = notes.is_valid_note(\"C\");\n",
    "sdfgsdfg = notes.is_valid_note(\"qwerqwer\")\n",
    "print(qwer)\n",
    "print(sdfgsdfg)\n",
    "\n",
    "print(notes.note_to_int(\"E\"))"
   ],
   "metadata": {
    "collapsed": false,
    "pycharm": {
     "name": "#%%\n",
     "is_executing": false
    }
   }
  },
  {
   "cell_type": "code",
   "execution_count": 5,
   "outputs": [
    {
     "name": "stdout",
     "text": [
      "['C', 'D', 'E', 'F', 'G', 'A', 'B']\n",
      "['E', 'G', 'B']\n"
     ],
     "output_type": "stream"
    },
    {
     "data": {
      "text/plain": "['C augmented major seventh', 'EM|Caug']"
     },
     "metadata": {},
     "output_type": "execute_result",
     "execution_count": 5
    }
   ],
   "source": [
    "import mingus.core.scales as scales\n",
    "import mingus.core.chords as chords\n",
    "print(scales.get_notes(\"C\"))\n",
    "print(chords.triad(\"E\", \"C\"))\n",
    "\n",
    "chords.determine(chords.augmented_major_seventh(\"C\"))"
   ],
   "metadata": {
    "collapsed": false,
    "pycharm": {
     "name": "#%%\n",
     "is_executing": false
    }
   }
  },
  {
   "cell_type": "code",
   "execution_count": 6,
   "outputs": [],
   "source": [
    "class Song:\n",
    "    key_signature = None;\n",
    "    time_signature = None;\n",
    "    "
   ],
   "metadata": {
    "collapsed": false,
    "pycharm": {
     "name": "#%%\n",
     "is_executing": false
    }
   }
  },
  {
   "cell_type": "code",
   "execution_count": 8,
   "outputs": [
    {
     "name": "stdout",
     "text": [
      "Track 0: \n",
      "<meta message smpte_offset frame_rate=24 hours=0 minutes=0 seconds=0 frames=0 sub_frames=0 time=0>\n",
      "<meta message time_signature numerator=4 denominator=4 clocks_per_click=24 notated_32nd_notes_per_beat=8 time=0>\n",
      "<meta message key_signature key='C' time=0>\n",
      "<meta message set_tempo tempo=499999 time=0>\n",
      "<meta message set_tempo tempo=428756 time=0>\n",
      "<meta message set_tempo tempo=300129 time=8192>\n",
      "<meta message set_tempo tempo=500215 time=65536>\n",
      "<meta message set_tempo tempo=428756 time=192512>\n",
      "<meta message set_tempo tempo=428756 time=32768>\n",
      "<meta message set_tempo tempo=750323 time=204800>\n",
      "<meta message set_tempo tempo=428756 time=4096>\n",
      "<meta message set_tempo tempo=500215 time=163840>\n",
      "<meta message set_tempo tempo=428756 time=98304>\n",
      "<meta message set_tempo tempo=370530 time=188416>\n",
      "<meta message set_tempo tempo=600258 time=221184>\n",
      "<meta message set_tempo tempo=400172 time=217088>\n",
      "<meta message set_tempo tempo=545689 time=24576>\n",
      "<meta message end_of_track time=349014>\n",
      "Track 1: Acoustic Grand Piano\n",
      "<meta message device_name name='SmartMusic SoftSynth 1' time=0>\n",
      "<meta message track_name name='Acoustic Grand Piano' time=0>\n",
      "program_change channel=0 program=0 time=0\n",
      "control_change channel=0 control=7 value=101 time=0\n",
      "control_change channel=0 control=10 value=64 time=0\n",
      "control_change channel=0 control=10 value=64 time=0\n",
      "control_change channel=0 control=7 value=127 time=0\n",
      "note_on channel=0 note=76 velocity=110 time=0\n",
      "note_off channel=0 note=76 velocity=0 time=501\n",
      "note_on channel=0 note=76 velocity=110 time=11\n",
      "note_off channel=0 note=76 velocity=0 time=501\n",
      "note_on channel=0 note=76 velocity=110 time=523\n",
      "note_off channel=0 note=76 velocity=0 time=501\n",
      "note_on channel=0 note=72 velocity=110 time=523\n",
      "note_off channel=0 note=72 velocity=0 time=501\n",
      "note_on channel=0 note=76 velocity=110 time=11\n",
      "note_off channel=0 note=76 velocity=0 time=853\n",
      "note_on channel=0 note=79 velocity=110 time=171\n",
      "note_off channel=0 note=79 velocity=0 time=853\n",
      "note_on channel=0 note=67 velocity=110 time=1195\n",
      "note_off channel=0 note=67 velocity=0 time=853\n",
      "note_on channel=0 note=67 velocity=110 time=1195\n",
      "note_off channel=0 note=67 velocity=0 time=501\n",
      "note_on channel=0 note=74 velocity=110 time=11\n",
      "note_off channel=0 note=74 velocity=0 time=501\n",
      "note_on channel=0 note=74 velocity=110 time=11\n",
      "note_off channel=0 note=74 velocity=0 time=501\n",
      "note_on channel=0 note=69 velocity=110 time=11\n",
      "note_off channel=0 note=69 velocity=0 time=501\n",
      "note_on channel=0 note=74 velocity=110 time=523\n",
      "note_off channel=0 note=74 velocity=0 time=501\n",
      "note_on channel=0 note=71 velocity=110 time=11\n",
      "note_off channel=0 note=71 velocity=0 time=1877\n",
      "note_on channel=0 note=74 velocity=110 time=683\n",
      "note_off channel=0 note=74 velocity=0 time=501\n",
      "note_on channel=0 note=71 velocity=110 time=11\n",
      "note_off channel=0 note=71 velocity=0 time=501\n",
      "note_on channel=0 note=72 velocity=110 time=11\n",
      "note_off channel=0 note=72 velocity=0 time=501\n",
      "note_on channel=0 note=74 velocity=110 time=11\n",
      "note_off channel=0 note=74 velocity=0 time=853\n",
      "note_on channel=0 note=67 velocity=110 time=171\n",
      "note_off channel=0 note=67 velocity=0 time=501\n",
      "note_on channel=0 note=74 velocity=110 time=11\n",
      "note_off channel=0 note=74 velocity=0 time=501\n",
      "note_on channel=0 note=74 velocity=110 time=11\n",
      "note_off channel=0 note=74 velocity=0 time=501\n",
      "note_on channel=0 note=69 velocity=110 time=11\n",
      "note_off channel=0 note=69 velocity=0 time=501\n",
      "note_on channel=0 note=74 velocity=110 time=523\n",
      "note_off channel=0 note=74 velocity=0 time=501\n",
      "note_on channel=0 note=71 velocity=110 time=11\n",
      "note_off channel=0 note=71 velocity=0 time=1877\n",
      "note_on channel=0 note=67 velocity=110 time=3243\n",
      "note_off channel=0 note=67 velocity=0 time=501\n",
      "note_on channel=0 note=74 velocity=110 time=11\n",
      "note_off channel=0 note=74 velocity=0 time=501\n",
      "note_on channel=0 note=74 velocity=110 time=11\n",
      "note_off channel=0 note=74 velocity=0 time=501\n",
      "note_on channel=0 note=69 velocity=110 time=11\n",
      "note_off channel=0 note=69 velocity=0 time=501\n",
      "note_on channel=0 note=74 velocity=110 time=523\n",
      "note_off channel=0 note=74 velocity=0 time=501\n",
      "note_on channel=0 note=71 velocity=110 time=11\n",
      "note_off channel=0 note=71 velocity=0 time=1877\n",
      "note_on channel=0 note=74 velocity=110 time=683\n",
      "note_off channel=0 note=74 velocity=0 time=501\n",
      "note_on channel=0 note=71 velocity=110 time=11\n",
      "note_off channel=0 note=71 velocity=0 time=501\n",
      "note_on channel=0 note=72 velocity=110 time=11\n",
      "note_off channel=0 note=72 velocity=0 time=501\n",
      "note_on channel=0 note=74 velocity=110 time=11\n",
      "note_off channel=0 note=74 velocity=0 time=853\n",
      "note_on channel=0 note=67 velocity=110 time=171\n",
      "note_off channel=0 note=67 velocity=0 time=501\n",
      "note_on channel=0 note=74 velocity=110 time=11\n",
      "note_off channel=0 note=74 velocity=0 time=501\n",
      "note_on channel=0 note=74 velocity=110 time=11\n",
      "note_off channel=0 note=74 velocity=0 time=501\n",
      "note_on channel=0 note=69 velocity=110 time=11\n",
      "note_off channel=0 note=69 velocity=0 time=501\n",
      "note_on channel=0 note=74 velocity=110 time=523\n",
      "note_off channel=0 note=74 velocity=0 time=501\n",
      "note_on channel=0 note=71 velocity=110 time=11\n",
      "note_off channel=0 note=71 velocity=0 time=1877\n",
      "note_on channel=0 note=74 velocity=110 time=3243\n",
      "note_off channel=0 note=74 velocity=0 time=501\n",
      "note_on channel=0 note=72 velocity=110 time=11\n",
      "note_off channel=0 note=72 velocity=0 time=501\n",
      "note_on channel=0 note=74 velocity=110 time=11\n",
      "note_off channel=0 note=74 velocity=0 time=501\n",
      "note_on channel=0 note=71 velocity=110 time=11\n",
      "note_off channel=0 note=71 velocity=0 time=501\n",
      "note_on channel=0 note=74 velocity=110 time=523\n",
      "note_off channel=0 note=74 velocity=0 time=501\n",
      "note_on channel=0 note=79 velocity=110 time=11\n",
      "note_off channel=0 note=79 velocity=0 time=2816\n",
      "note_on channel=0 note=74 velocity=110 time=2304\n",
      "note_off channel=0 note=74 velocity=0 time=501\n",
      "note_on channel=0 note=72 velocity=110 time=11\n",
      "note_off channel=0 note=72 velocity=0 time=501\n",
      "note_on channel=0 note=74 velocity=110 time=11\n",
      "note_off channel=0 note=74 velocity=0 time=501\n",
      "note_on channel=0 note=71 velocity=110 time=11\n",
      "note_off channel=0 note=71 velocity=0 time=501\n",
      "note_on channel=0 note=74 velocity=110 time=523\n",
      "note_off channel=0 note=74 velocity=0 time=501\n",
      "note_on channel=0 note=72 velocity=110 time=11\n",
      "note_off channel=0 note=72 velocity=0 time=2816\n",
      "note_on channel=0 note=74 velocity=110 time=2304\n",
      "note_off channel=0 note=74 velocity=0 time=501\n",
      "note_on channel=0 note=72 velocity=110 time=11\n",
      "note_off channel=0 note=72 velocity=0 time=501\n",
      "note_on channel=0 note=74 velocity=110 time=11\n",
      "note_off channel=0 note=74 velocity=0 time=501\n",
      "note_on channel=0 note=71 velocity=110 time=11\n",
      "note_off channel=0 note=71 velocity=0 time=501\n",
      "note_on channel=0 note=74 velocity=110 time=523\n",
      "note_off channel=0 note=74 velocity=0 time=501\n",
      "note_on channel=0 note=79 velocity=110 time=11\n",
      "note_off channel=0 note=79 velocity=0 time=2816\n",
      "note_on channel=0 note=81 velocity=110 time=2304\n",
      "note_off channel=0 note=81 velocity=0 time=501\n",
      "note_on channel=0 note=79 velocity=110 time=11\n",
      "note_off channel=0 note=79 velocity=0 time=501\n",
      "note_on channel=0 note=81 velocity=110 time=11\n",
      "note_off channel=0 note=81 velocity=0 time=501\n",
      "note_on channel=0 note=79 velocity=110 time=11\n",
      "note_off channel=0 note=79 velocity=0 time=501\n",
      "note_on channel=0 note=83 velocity=110 time=523\n",
      "note_off channel=0 note=83 velocity=0 time=501\n",
      "note_on channel=0 note=79 velocity=110 time=11\n",
      "note_off channel=0 note=79 velocity=0 time=2816\n",
      "note_on channel=0 note=64 velocity=110 time=6400\n",
      "note_off channel=0 note=64 velocity=0 time=501\n",
      "note_on channel=0 note=64 velocity=110 time=11\n",
      "note_off channel=0 note=64 velocity=0 time=501\n",
      "note_on channel=0 note=64 velocity=110 time=1547\n",
      "note_off channel=0 note=64 velocity=0 time=501\n",
      "note_on channel=0 note=64 velocity=110 time=11\n",
      "note_off channel=0 note=64 velocity=0 time=501\n",
      "note_on channel=0 note=64 velocity=110 time=11\n",
      "note_off channel=0 note=64 velocity=0 time=245\n",
      "note_on channel=0 note=64 velocity=110 time=11\n",
      "note_off channel=0 note=64 velocity=0 time=245\n",
      "note_on channel=0 note=65 velocity=110 time=11\n",
      "note_off channel=0 note=65 velocity=0 time=501\n",
      "note_on channel=0 note=65 velocity=110 time=11\n",
      "note_off channel=0 note=65 velocity=0 time=501\n",
      "note_on channel=0 note=65 velocity=110 time=1547\n",
      "note_off channel=0 note=65 velocity=0 time=501\n",
      "note_on channel=0 note=65 velocity=110 time=11\n",
      "note_off channel=0 note=65 velocity=0 time=501\n",
      "note_on channel=0 note=65 velocity=110 time=11\n",
      "note_off channel=0 note=65 velocity=0 time=245\n",
      "note_on channel=0 note=65 velocity=110 time=11\n",
      "note_off channel=0 note=65 velocity=0 time=245\n",
      "note_on channel=0 note=67 velocity=110 time=11\n",
      "note_off channel=0 note=67 velocity=0 time=501\n",
      "note_on channel=0 note=67 velocity=110 time=11\n",
      "note_off channel=0 note=67 velocity=0 time=501\n",
      "note_on channel=0 note=67 velocity=110 time=1547\n",
      "note_off channel=0 note=67 velocity=0 time=501\n",
      "note_on channel=0 note=67 velocity=110 time=11\n",
      "note_off channel=0 note=67 velocity=0 time=501\n",
      "note_on channel=0 note=67 velocity=110 time=11\n",
      "note_off channel=0 note=67 velocity=0 time=245\n",
      "note_on channel=0 note=67 velocity=110 time=11\n",
      "note_off channel=0 note=67 velocity=0 time=245\n",
      "note_on channel=0 note=65 velocity=110 time=11\n",
      "note_off channel=0 note=65 velocity=0 time=501\n",
      "note_on channel=0 note=65 velocity=110 time=11\n",
      "note_off channel=0 note=65 velocity=0 time=501\n",
      "note_on channel=0 note=65 velocity=110 time=1547\n",
      "note_off channel=0 note=65 velocity=0 time=501\n",
      "note_on channel=0 note=65 velocity=110 time=11\n",
      "note_off channel=0 note=65 velocity=0 time=501\n",
      "note_on channel=0 note=65 velocity=110 time=11\n",
      "note_off channel=0 note=65 velocity=0 time=245\n",
      "note_on channel=0 note=65 velocity=110 time=11\n",
      "note_off channel=0 note=65 velocity=0 time=245\n",
      "note_on channel=0 note=64 velocity=110 time=11\n",
      "note_off channel=0 note=64 velocity=0 time=1365\n",
      "note_on channel=0 note=64 velocity=110 time=171\n",
      "note_off channel=0 note=64 velocity=0 time=1013\n",
      "note_on channel=0 note=67 velocity=110 time=11\n",
      "note_off channel=0 note=67 velocity=0 time=501\n",
      "note_on channel=0 note=69 velocity=110 time=11\n",
      "note_off channel=0 note=69 velocity=0 time=501\n",
      "note_on channel=0 note=67 velocity=110 time=11\n",
      "note_off channel=0 note=67 velocity=0 time=501\n",
      "note_on channel=0 note=60 velocity=110 time=11\n",
      "note_off channel=0 note=60 velocity=0 time=3840\n",
      "note_on channel=0 note=65 velocity=110 time=256\n",
      "note_off channel=0 note=65 velocity=0 time=1365\n",
      "note_on channel=0 note=65 velocity=110 time=171\n",
      "note_off channel=0 note=65 velocity=0 time=1013\n",
      "note_on channel=0 note=69 velocity=110 time=11\n",
      "note_off channel=0 note=69 velocity=0 time=501\n",
      "note_on channel=0 note=71 velocity=110 time=11\n",
      "note_off channel=0 note=71 velocity=0 time=501\n",
      "note_on channel=0 note=69 velocity=110 time=11\n",
      "note_off channel=0 note=69 velocity=0 time=501\n",
      "note_on channel=0 note=63 velocity=110 time=11\n",
      "note_off channel=0 note=63 velocity=0 time=3840\n",
      "note_on channel=0 note=67 velocity=110 time=256\n",
      "note_off channel=0 note=67 velocity=0 time=1365\n",
      "note_on channel=0 note=67 velocity=110 time=171\n",
      "note_off channel=0 note=67 velocity=0 time=1013\n",
      "note_on channel=0 note=72 velocity=110 time=11\n",
      "note_off channel=0 note=72 velocity=0 time=501\n",
      "note_on channel=0 note=74 velocity=110 time=11\n",
      "note_off channel=0 note=74 velocity=0 time=501\n",
      "note_on channel=0 note=72 velocity=110 time=11\n",
      "note_off channel=0 note=72 velocity=0 time=501\n",
      "note_on channel=0 note=79 velocity=110 time=11\n",
      "note_off channel=0 note=79 velocity=0 time=1365\n",
      "note_on channel=0 note=77 velocity=110 time=171\n",
      "note_off channel=0 note=77 velocity=0 time=1013\n",
      "note_on channel=0 note=72 velocity=110 time=11\n",
      "note_off channel=0 note=72 velocity=0 time=501\n",
      "note_on channel=0 note=67 velocity=110 time=11\n",
      "note_off channel=0 note=67 velocity=0 time=501\n",
      "note_on channel=0 note=65 velocity=110 time=11\n",
      "note_off channel=0 note=65 velocity=0 time=501\n",
      "note_on channel=0 note=76 velocity=110 time=11\n",
      "note_off channel=0 note=76 velocity=0 time=1365\n",
      "note_on channel=0 note=72 velocity=110 time=171\n",
      "note_off channel=0 note=72 velocity=0 time=1013\n",
      "note_on channel=0 note=69 velocity=110 time=11\n",
      "note_off channel=0 note=69 velocity=0 time=501\n",
      "note_on channel=0 note=65 velocity=110 time=11\n",
      "note_off channel=0 note=65 velocity=0 time=501\n",
      "note_on channel=0 note=64 velocity=110 time=11\n",
      "note_off channel=0 note=64 velocity=0 time=501\n",
      "note_on channel=0 note=63 velocity=110 time=11\n",
      "note_off channel=0 note=63 velocity=0 time=2816\n",
      "note_on channel=0 note=61 velocity=110 time=256\n",
      "note_off channel=0 note=61 velocity=0 time=4864\n",
      "note_on channel=0 note=62 velocity=110 time=7936\n",
      "note_off channel=0 note=62 velocity=0 time=373\n",
      "note_on channel=0 note=64 velocity=110 time=139\n",
      "note_off channel=0 note=64 velocity=0 time=245\n",
      "note_on channel=0 note=63 velocity=110 time=11\n",
      "note_off channel=0 note=63 velocity=0 time=245\n",
      "note_on channel=0 note=64 velocity=110 time=11\n",
      "note_off channel=0 note=64 velocity=0 time=245\n",
      "note_on channel=0 note=67 velocity=110 time=11\n",
      "note_off channel=0 note=67 velocity=0 time=501\n",
      "note_on channel=0 note=69 velocity=110 time=11\n",
      "note_off channel=0 note=69 velocity=0 time=245\n",
      "note_on channel=0 note=67 velocity=110 time=11\n",
      "note_off channel=0 note=67 velocity=0 time=501\n",
      "note_on channel=0 note=60 velocity=110 time=11\n",
      "note_off channel=0 note=60 velocity=0 time=853\n",
      "note_on channel=0 note=55 velocity=110 time=683\n",
      "note_off channel=0 note=55 velocity=0 time=245\n",
      "note_on channel=0 note=56 velocity=110 time=11\n",
      "note_off channel=0 note=56 velocity=0 time=245\n",
      "note_on channel=0 note=57 velocity=110 time=11\n",
      "note_off channel=0 note=57 velocity=0 time=245\n",
      "note_on channel=0 note=56 velocity=110 time=11\n",
      "note_off channel=0 note=56 velocity=0 time=245\n",
      "note_on channel=0 note=57 velocity=110 time=11\n",
      "note_off channel=0 note=57 velocity=0 time=245\n",
      "note_on channel=0 note=60 velocity=110 time=11\n",
      "note_off channel=0 note=60 velocity=0 time=501\n",
      "note_on channel=0 note=62 velocity=110 time=11\n",
      "note_off channel=0 note=62 velocity=0 time=245\n",
      "note_on channel=0 note=60 velocity=110 time=11\n",
      "note_off channel=0 note=60 velocity=0 time=501\n",
      "note_on channel=0 note=57 velocity=110 time=11\n",
      "note_off channel=0 note=57 velocity=0 time=853\n",
      "note_on channel=0 note=57 velocity=110 time=683\n",
      "note_off channel=0 note=57 velocity=0 time=501\n",
      "note_on channel=0 note=55 velocity=110 time=11\n",
      "note_off channel=0 note=55 velocity=0 time=245\n",
      "note_on channel=0 note=52 velocity=110 time=11\n",
      "note_off channel=0 note=52 velocity=0 time=245\n",
      "note_on channel=0 note=53 velocity=110 time=11\n",
      "note_off channel=0 note=53 velocity=0 time=245\n",
      "note_on channel=0 note=67 velocity=110 time=11\n",
      "note_off channel=0 note=67 velocity=0 time=757\n",
      "note_on channel=0 note=55 velocity=110 time=11\n",
      "note_off channel=0 note=55 velocity=0 time=245\n",
      "note_on channel=0 note=52 velocity=110 time=11\n",
      "note_off channel=0 note=52 velocity=0 time=245\n",
      "note_on channel=0 note=53 velocity=110 time=11\n",
      "note_off channel=0 note=53 velocity=0 time=245\n",
      "note_on channel=0 note=67 velocity=110 time=11\n",
      "note_off channel=0 note=67 velocity=0 time=757\n",
      "note_on channel=0 note=55 velocity=110 time=11\n",
      "note_off channel=0 note=55 velocity=0 time=630\n",
      "note_on channel=0 note=67 velocity=110 time=11\n",
      "note_off channel=0 note=67 velocity=0 time=372\n",
      "note_on channel=0 note=65 velocity=110 time=11\n",
      "note_off channel=0 note=65 velocity=0 time=501\n",
      "note_on channel=0 note=67 velocity=110 time=11\n",
      "note_off channel=0 note=67 velocity=0 time=501\n",
      "note_on channel=0 note=69 velocity=110 time=11\n",
      "note_off channel=0 note=69 velocity=0 time=245\n",
      "note_on channel=0 note=67 velocity=110 time=11\n",
      "note_off channel=0 note=67 velocity=0 time=501\n",
      "note_on channel=0 note=62 velocity=110 time=11\n",
      "note_off channel=0 note=62 velocity=0 time=1109\n",
      "note_on channel=0 note=62 velocity=110 time=683\n",
      "note_off channel=0 note=62 velocity=0 time=373\n",
      "note_on channel=0 note=64 velocity=110 time=139\n",
      "note_off channel=0 note=64 velocity=0 time=245\n",
      "note_on channel=0 note=63 velocity=110 time=11\n",
      "note_off channel=0 note=63 velocity=0 time=245\n",
      "note_on channel=0 note=64 velocity=110 time=11\n",
      "note_off channel=0 note=64 velocity=0 time=245\n",
      "note_on channel=0 note=67 velocity=110 time=11\n",
      "note_off channel=0 note=67 velocity=0 time=501\n",
      "note_on channel=0 note=69 velocity=110 time=11\n",
      "note_off channel=0 note=69 velocity=0 time=245\n",
      "note_on channel=0 note=67 velocity=110 time=11\n",
      "note_off channel=0 note=67 velocity=0 time=501\n",
      "note_on channel=0 note=70 velocity=110 time=11\n",
      "note_off channel=0 note=70 velocity=0 time=853\n",
      "note_on channel=0 note=68 velocity=110 time=683\n",
      "note_off channel=0 note=68 velocity=0 time=501\n",
      "note_on channel=0 note=69 velocity=110 time=11\n",
      "note_off channel=0 note=69 velocity=0 time=245\n",
      "note_on channel=0 note=68 velocity=110 time=11\n",
      "note_off channel=0 note=68 velocity=0 time=245\n",
      "note_on channel=0 note=69 velocity=110 time=11\n",
      "note_off channel=0 note=69 velocity=0 time=245\n",
      "note_on channel=0 note=72 velocity=110 time=11\n",
      "note_off channel=0 note=72 velocity=0 time=501\n",
      "note_on channel=0 note=74 velocity=110 time=11\n",
      "note_off channel=0 note=74 velocity=0 time=245\n",
      "note_on channel=0 note=72 velocity=110 time=11\n",
      "note_off channel=0 note=72 velocity=0 time=501\n",
      "note_on channel=0 note=69 velocity=110 time=11\n",
      "note_off channel=0 note=69 velocity=0 time=853\n",
      "note_on channel=0 note=69 velocity=110 time=683\n",
      "note_off channel=0 note=69 velocity=0 time=501\n",
      "note_on channel=0 note=67 velocity=110 time=11\n",
      "note_off channel=0 note=67 velocity=0 time=245\n",
      "note_on channel=0 note=66 velocity=110 time=11\n",
      "note_off channel=0 note=66 velocity=0 time=245\n",
      "note_on channel=0 note=67 velocity=110 time=11\n",
      "note_off channel=0 note=67 velocity=0 time=245\n",
      "note_on channel=0 note=55 velocity=110 time=11\n",
      "note_off channel=0 note=55 velocity=0 time=757\n",
      "note_on channel=0 note=67 velocity=110 time=11\n",
      "note_off channel=0 note=67 velocity=0 time=245\n",
      "note_on channel=0 note=66 velocity=110 time=11\n",
      "note_off channel=0 note=66 velocity=0 time=245\n",
      "note_on channel=0 note=67 velocity=110 time=11\n",
      "note_off channel=0 note=67 velocity=0 time=245\n",
      "note_on channel=0 note=55 velocity=110 time=11\n",
      "note_off channel=0 note=55 velocity=0 time=501\n",
      "note_on channel=0 note=55 velocity=110 time=11\n",
      "note_off channel=0 note=55 velocity=0 time=245\n",
      "note_on channel=0 note=62 velocity=110 time=11\n",
      "note_on channel=0 note=65 velocity=110 time=0\n",
      "note_off channel=0 note=62 velocity=0 time=501\n",
      "note_off channel=0 note=65 velocity=0 time=0\n",
      "note_on channel=0 note=64 velocity=110 time=11\n",
      "note_off channel=0 note=64 velocity=0 time=501\n",
      "note_on channel=0 note=52 velocity=110 time=11\n",
      "note_on channel=0 note=60 velocity=110 time=0\n",
      "note_off channel=0 note=52 velocity=0 time=2816\n",
      "note_off channel=0 note=60 velocity=0 time=0\n",
      "note_on channel=0 note=62 velocity=110 time=768\n",
      "note_off channel=0 note=62 velocity=0 time=245\n",
      "note_on channel=0 note=63 velocity=110 time=11\n",
      "note_off channel=0 note=63 velocity=0 time=245\n",
      "note_on channel=0 note=64 velocity=110 time=11\n",
      "note_off channel=0 note=64 velocity=0 time=245\n",
      "note_on channel=0 note=63 velocity=110 time=11\n",
      "note_off channel=0 note=63 velocity=0 time=245\n",
      "note_on channel=0 note=64 velocity=110 time=11\n",
      "note_off channel=0 note=64 velocity=0 time=245\n",
      "note_on channel=0 note=67 velocity=110 time=11\n",
      "note_off channel=0 note=67 velocity=0 time=501\n",
      "note_on channel=0 note=69 velocity=110 time=11\n",
      "note_off channel=0 note=69 velocity=0 time=245\n",
      "note_on channel=0 note=67 velocity=110 time=11\n",
      "note_off channel=0 note=67 velocity=0 time=501\n",
      "note_on channel=0 note=60 velocity=110 time=11\n",
      "note_off channel=0 note=60 velocity=0 time=853\n",
      "note_on channel=0 note=55 velocity=110 time=683\n",
      "note_off channel=0 note=55 velocity=0 time=245\n",
      "note_on channel=0 note=56 velocity=110 time=11\n",
      "note_off channel=0 note=56 velocity=0 time=245\n",
      "note_on channel=0 note=57 velocity=110 time=11\n",
      "note_off channel=0 note=57 velocity=0 time=245\n",
      "note_on channel=0 note=56 velocity=110 time=11\n",
      "note_off channel=0 note=56 velocity=0 time=245\n",
      "note_on channel=0 note=57 velocity=110 time=11\n",
      "note_off channel=0 note=57 velocity=0 time=245\n",
      "note_on channel=0 note=60 velocity=110 time=11\n",
      "note_off channel=0 note=60 velocity=0 time=501\n",
      "note_on channel=0 note=62 velocity=110 time=11\n",
      "note_off channel=0 note=62 velocity=0 time=245\n",
      "note_on channel=0 note=60 velocity=110 time=11\n",
      "note_off channel=0 note=60 velocity=0 time=501\n",
      "note_on channel=0 note=57 velocity=110 time=11\n",
      "note_off channel=0 note=57 velocity=0 time=853\n",
      "note_on channel=0 note=57 velocity=110 time=683\n",
      "note_off channel=0 note=57 velocity=0 time=501\n",
      "note_on channel=0 note=55 velocity=110 time=11\n",
      "note_off channel=0 note=55 velocity=0 time=245\n",
      "note_on channel=0 note=52 velocity=110 time=11\n",
      "note_off channel=0 note=52 velocity=0 time=245\n",
      "note_on channel=0 note=53 velocity=110 time=11\n",
      "note_off channel=0 note=53 velocity=0 time=245\n",
      "note_on channel=0 note=67 velocity=110 time=11\n",
      "note_off channel=0 note=67 velocity=0 time=885\n",
      "note_on channel=0 note=55 velocity=110 time=11\n",
      "note_off channel=0 note=55 velocity=0 time=117\n",
      "note_on channel=0 note=53 velocity=110 time=11\n",
      "note_off channel=0 note=53 velocity=0 time=245\n",
      "note_on channel=0 note=52 velocity=110 time=11\n",
      "note_off channel=0 note=52 velocity=0 time=245\n",
      "note_on channel=0 note=55 velocity=110 time=11\n",
      "note_off channel=0 note=55 velocity=0 time=757\n",
      "note_on channel=0 note=55 velocity=110 time=11\n",
      "note_off channel=0 note=55 velocity=0 time=630\n",
      "note_on channel=0 note=67 velocity=110 time=11\n",
      "note_off channel=0 note=67 velocity=0 time=372\n",
      "note_on channel=0 note=65 velocity=110 time=11\n",
      "note_off channel=0 note=65 velocity=0 time=501\n",
      "note_on channel=0 note=67 velocity=110 time=11\n",
      "note_off channel=0 note=67 velocity=0 time=501\n",
      "note_on channel=0 note=69 velocity=110 time=11\n",
      "note_off channel=0 note=69 velocity=0 time=245\n",
      "note_on channel=0 note=67 velocity=110 time=11\n",
      "note_off channel=0 note=67 velocity=0 time=501\n",
      "note_on channel=0 note=62 velocity=110 time=11\n",
      "note_off channel=0 note=62 velocity=0 time=1109\n",
      "note_on channel=0 note=62 velocity=110 time=683\n",
      "note_off channel=0 note=62 velocity=0 time=373\n",
      "note_on channel=0 note=64 velocity=110 time=139\n",
      "note_off channel=0 note=64 velocity=0 time=245\n",
      "note_on channel=0 note=63 velocity=110 time=11\n",
      "note_off channel=0 note=63 velocity=0 time=245\n",
      "note_on channel=0 note=64 velocity=110 time=11\n",
      "note_off channel=0 note=64 velocity=0 time=245\n",
      "note_on channel=0 note=67 velocity=110 time=11\n",
      "note_off channel=0 note=67 velocity=0 time=501\n",
      "note_on channel=0 note=69 velocity=110 time=11\n",
      "note_off channel=0 note=69 velocity=0 time=245\n",
      "note_on channel=0 note=67 velocity=110 time=11\n",
      "note_off channel=0 note=67 velocity=0 time=501\n",
      "note_on channel=0 note=70 velocity=110 time=11\n",
      "note_off channel=0 note=70 velocity=0 time=853\n",
      "note_on channel=0 note=68 velocity=110 time=683\n",
      "note_off channel=0 note=68 velocity=0 time=501\n",
      "note_on channel=0 note=69 velocity=110 time=11\n",
      "note_off channel=0 note=69 velocity=0 time=245\n",
      "note_on channel=0 note=68 velocity=110 time=11\n",
      "note_off channel=0 note=68 velocity=0 time=245\n",
      "note_on channel=0 note=69 velocity=110 time=11\n",
      "note_off channel=0 note=69 velocity=0 time=245\n",
      "note_on channel=0 note=72 velocity=110 time=11\n",
      "note_off channel=0 note=72 velocity=0 time=245\n",
      "note_on channel=0 note=74 velocity=110 time=267\n",
      "note_off channel=0 note=74 velocity=0 time=245\n",
      "note_on channel=0 note=72 velocity=110 time=11\n",
      "note_off channel=0 note=72 velocity=0 time=501\n",
      "note_on channel=0 note=69 velocity=110 time=11\n",
      "note_off channel=0 note=69 velocity=0 time=853\n",
      "note_on channel=0 note=69 velocity=110 time=683\n",
      "note_off channel=0 note=69 velocity=0 time=501\n",
      "note_on channel=0 note=67 velocity=110 time=11\n",
      "note_off channel=0 note=67 velocity=0 time=245\n",
      "note_on channel=0 note=66 velocity=110 time=11\n",
      "note_off channel=0 note=66 velocity=0 time=245\n",
      "note_on channel=0 note=67 velocity=110 time=11\n",
      "note_off channel=0 note=67 velocity=0 time=245\n",
      "note_on channel=0 note=55 velocity=110 time=11\n",
      "note_off channel=0 note=55 velocity=0 time=757\n",
      "note_on channel=0 note=67 velocity=110 time=11\n",
      "note_off channel=0 note=67 velocity=0 time=245\n",
      "note_on channel=0 note=66 velocity=110 time=11\n",
      "note_off channel=0 note=66 velocity=0 time=245\n",
      "note_on channel=0 note=67 velocity=110 time=11\n",
      "note_off channel=0 note=67 velocity=0 time=245\n",
      "note_on channel=0 note=55 velocity=110 time=11\n",
      "note_off channel=0 note=55 velocity=0 time=501\n",
      "note_on channel=0 note=55 velocity=110 time=11\n",
      "note_off channel=0 note=55 velocity=0 time=245\n",
      "note_on channel=0 note=65 velocity=110 time=11\n",
      "note_off channel=0 note=65 velocity=0 time=501\n",
      "note_on channel=0 note=64 velocity=110 time=11\n",
      "note_off channel=0 note=64 velocity=0 time=501\n",
      "note_on channel=0 note=60 velocity=110 time=11\n",
      "note_off channel=0 note=60 velocity=0 time=3840\n",
      "note_on channel=0 note=77 velocity=110 time=256\n",
      "note_on channel=0 note=81 velocity=110 time=0\n",
      "note_off channel=0 note=77 velocity=0 time=1365\n",
      "note_off channel=0 note=81 velocity=0 time=0\n",
      "note_on channel=0 note=72 velocity=110 time=171\n",
      "note_on channel=0 note=77 velocity=110 time=0\n",
      "note_off channel=0 note=72 velocity=0 time=501\n",
      "note_off channel=0 note=77 velocity=0 time=0\n",
      "note_on channel=0 note=76 velocity=110 time=11\n",
      "note_on channel=0 note=79 velocity=110 time=0\n",
      "note_off channel=0 note=76 velocity=0 time=1365\n",
      "note_off channel=0 note=79 velocity=0 time=0\n",
      "note_on channel=0 note=72 velocity=110 time=171\n",
      "note_on channel=0 note=76 velocity=110 time=0\n",
      "note_off channel=0 note=72 velocity=0 time=501\n",
      "note_off channel=0 note=76 velocity=0 time=0\n",
      "note_on channel=0 note=77 velocity=110 time=11\n",
      "note_off channel=0 note=77 velocity=0 time=757\n",
      "note_on channel=0 note=79 velocity=110 time=11\n",
      "note_off channel=0 note=79 velocity=0 time=245\n",
      "note_on channel=0 note=76 velocity=110 time=652\n",
      "note_off channel=0 note=76 velocity=0 time=212\n",
      "note_on channel=0 note=76 velocity=110 time=171\n",
      "note_off channel=0 note=76 velocity=0 time=373\n",
      "note_on channel=0 note=77 velocity=110 time=11\n",
      "note_off channel=0 note=77 velocity=0 time=117\n",
      "note_on channel=0 note=79 velocity=110 time=11\n",
      "note_off channel=0 note=79 velocity=0 time=245\n",
      "note_on channel=0 note=80 velocity=110 time=11\n",
      "note_off channel=0 note=80 velocity=0 time=245\n",
      "note_on channel=0 note=77 velocity=110 time=1035\n",
      "note_on channel=0 note=81 velocity=110 time=0\n",
      "note_off channel=0 note=77 velocity=0 time=1365\n",
      "note_off channel=0 note=81 velocity=0 time=0\n",
      "note_on channel=0 note=77 velocity=110 time=171\n",
      "note_on channel=0 note=80 velocity=110 time=0\n",
      "note_off channel=0 note=77 velocity=0 time=501\n",
      "note_off channel=0 note=80 velocity=0 time=0\n",
      "note_on channel=0 note=76 velocity=110 time=11\n",
      "note_on channel=0 note=79 velocity=110 time=0\n",
      "note_off channel=0 note=76 velocity=0 time=1365\n",
      "note_off channel=0 note=79 velocity=0 time=0\n",
      "note_on channel=0 note=78 velocity=110 time=171\n",
      "note_off channel=0 note=78 velocity=0 time=501\n",
      "note_on channel=0 note=77 velocity=110 time=11\n",
      "note_off channel=0 note=77 velocity=0 time=757\n",
      "note_on channel=0 note=76 velocity=110 time=11\n",
      "note_off channel=0 note=76 velocity=0 time=757\n",
      "note_on channel=0 note=72 velocity=110 time=11\n",
      "note_off channel=0 note=72 velocity=0 time=1365\n",
      "note_on channel=0 note=77 velocity=110 time=1195\n",
      "note_on channel=0 note=81 velocity=110 time=0\n",
      "note_off channel=0 note=77 velocity=0 time=501\n",
      "note_off channel=0 note=81 velocity=0 time=0\n",
      "note_on channel=0 note=77 velocity=110 time=11\n",
      "note_on channel=0 note=81 velocity=110 time=0\n",
      "note_off channel=0 note=77 velocity=0 time=501\n",
      "note_off channel=0 note=81 velocity=0 time=0\n",
      "note_on channel=0 note=77 velocity=110 time=11\n",
      "note_on channel=0 note=80 velocity=110 time=0\n",
      "note_off channel=0 note=77 velocity=0 time=501\n",
      "note_off channel=0 note=80 velocity=0 time=0\n",
      "note_on channel=0 note=77 velocity=110 time=11\n",
      "note_on channel=0 note=80 velocity=110 time=0\n",
      "note_off channel=0 note=77 velocity=0 time=501\n",
      "note_off channel=0 note=80 velocity=0 time=0\n",
      "note_on channel=0 note=76 velocity=110 time=11\n",
      "note_on channel=0 note=79 velocity=110 time=0\n",
      "note_off channel=0 note=76 velocity=0 time=501\n",
      "note_off channel=0 note=79 velocity=0 time=0\n",
      "note_on channel=0 note=76 velocity=110 time=11\n",
      "note_on channel=0 note=79 velocity=110 time=0\n",
      "note_off channel=0 note=76 velocity=0 time=501\n",
      "note_off channel=0 note=79 velocity=0 time=0\n",
      "note_on channel=0 note=75 velocity=110 time=11\n",
      "note_on channel=0 note=78 velocity=110 time=0\n",
      "note_off channel=0 note=75 velocity=0 time=501\n",
      "note_off channel=0 note=78 velocity=0 time=0\n",
      "note_on channel=0 note=75 velocity=110 time=11\n",
      "note_on channel=0 note=78 velocity=110 time=0\n",
      "note_off channel=0 note=75 velocity=0 time=501\n",
      "note_off channel=0 note=78 velocity=0 time=0\n",
      "note_on channel=0 note=74 velocity=110 time=11\n",
      "note_on channel=0 note=77 velocity=110 time=0\n",
      "note_off channel=0 note=74 velocity=0 time=757\n",
      "note_off channel=0 note=77 velocity=0 time=0\n",
      "note_on channel=0 note=76 velocity=110 time=11\n",
      "note_on channel=0 note=79 velocity=110 time=0\n",
      "note_off channel=0 note=76 velocity=0 time=245\n",
      "note_off channel=0 note=79 velocity=0 time=0\n",
      "note_on channel=0 note=72 velocity=110 time=523\n",
      "note_on channel=0 note=76 velocity=110 time=0\n",
      "note_off channel=0 note=72 velocity=0 time=2304\n",
      "note_off channel=0 note=76 velocity=0 time=0\n",
      "note_on channel=0 note=77 velocity=110 time=256\n",
      "note_on channel=0 note=81 velocity=110 time=0\n",
      "note_off channel=0 note=77 velocity=0 time=501\n",
      "note_off channel=0 note=81 velocity=0 time=0\n",
      "note_on channel=0 note=77 velocity=110 time=11\n",
      "note_on channel=0 note=81 velocity=110 time=0\n",
      "note_off channel=0 note=77 velocity=0 time=501\n",
      "note_off channel=0 note=81 velocity=0 time=0\n",
      "note_on channel=0 note=77 velocity=110 time=11\n",
      "note_on channel=0 note=80 velocity=110 time=0\n",
      "note_off channel=0 note=77 velocity=0 time=501\n",
      "note_off channel=0 note=80 velocity=0 time=0\n",
      "note_on channel=0 note=77 velocity=110 time=11\n",
      "note_on channel=0 note=80 velocity=110 time=0\n",
      "note_off channel=0 note=77 velocity=0 time=501\n",
      "note_off channel=0 note=80 velocity=0 time=0\n",
      "note_on channel=0 note=76 velocity=110 time=11\n",
      "note_on channel=0 note=79 velocity=110 time=0\n",
      "note_off channel=0 note=76 velocity=0 time=501\n",
      "note_off channel=0 note=79 velocity=0 time=0\n",
      "note_on channel=0 note=76 velocity=110 time=11\n",
      "note_on channel=0 note=79 velocity=110 time=0\n",
      "note_off channel=0 note=76 velocity=0 time=501\n",
      "note_off channel=0 note=79 velocity=0 time=0\n",
      "note_on channel=0 note=75 velocity=110 time=11\n",
      "note_on channel=0 note=78 velocity=110 time=0\n",
      "note_off channel=0 note=75 velocity=0 time=501\n",
      "note_off channel=0 note=78 velocity=0 time=0\n",
      "note_on channel=0 note=75 velocity=110 time=11\n",
      "note_on channel=0 note=78 velocity=110 time=0\n",
      "note_off channel=0 note=75 velocity=0 time=501\n",
      "note_off channel=0 note=78 velocity=0 time=0\n",
      "note_on channel=0 note=74 velocity=110 time=11\n",
      "note_on channel=0 note=77 velocity=110 time=0\n",
      "note_off channel=0 note=74 velocity=0 time=757\n",
      "note_off channel=0 note=77 velocity=0 time=0\n",
      "note_on channel=0 note=72 velocity=110 time=11\n",
      "note_on channel=0 note=76 velocity=110 time=0\n",
      "note_off channel=0 note=72 velocity=0 time=245\n",
      "note_off channel=0 note=76 velocity=0 time=0\n",
      "note_on channel=0 note=67 velocity=110 time=523\n",
      "note_on channel=0 note=72 velocity=110 time=0\n",
      "note_off channel=0 note=67 velocity=0 time=2304\n",
      "note_off channel=0 note=72 velocity=0 time=0\n",
      "note_on channel=0 note=72 velocity=110 time=256\n",
      "note_off channel=0 note=72 velocity=0 time=245\n",
      "note_on channel=0 note=64 velocity=110 time=11\n",
      "note_off channel=0 note=64 velocity=0 time=501\n",
      "note_on channel=0 note=70 velocity=110 time=11\n",
      "note_off channel=0 note=70 velocity=0 time=245\n",
      "note_on channel=0 note=72 velocity=110 time=1035\n",
      "note_off channel=0 note=72 velocity=0 time=245\n",
      "note_on channel=0 note=64 velocity=110 time=11\n",
      "note_off channel=0 note=64 velocity=0 time=501\n",
      "note_on channel=0 note=70 velocity=110 time=11\n",
      "note_off channel=0 note=70 velocity=0 time=245\n",
      "note_on channel=0 note=69 velocity=110 time=1035\n",
      "note_off channel=0 note=69 velocity=0 time=245\n",
      "note_on channel=0 note=60 velocity=110 time=11\n",
      "note_off channel=0 note=60 velocity=0 time=501\n",
      "note_on channel=0 note=63 velocity=110 time=11\n",
      "note_off channel=0 note=63 velocity=0 time=245\n",
      "note_on channel=0 note=69 velocity=110 time=1035\n",
      "note_off channel=0 note=69 velocity=0 time=245\n",
      "note_on channel=0 note=60 velocity=110 time=11\n",
      "note_off channel=0 note=60 velocity=0 time=501\n",
      "note_on channel=0 note=63 velocity=110 time=11\n",
      "note_off channel=0 note=63 velocity=0 time=245\n",
      "note_on channel=0 note=72 velocity=110 time=1035\n",
      "note_off channel=0 note=72 velocity=0 time=245\n",
      "note_on channel=0 note=64 velocity=110 time=11\n",
      "note_off channel=0 note=64 velocity=0 time=501\n",
      "note_on channel=0 note=70 velocity=110 time=11\n",
      "note_off channel=0 note=70 velocity=0 time=245\n",
      "note_on channel=0 note=72 velocity=110 time=1035\n",
      "note_off channel=0 note=72 velocity=0 time=245\n",
      "note_on channel=0 note=64 velocity=110 time=11\n",
      "note_off channel=0 note=64 velocity=0 time=501\n",
      "note_on channel=0 note=70 velocity=110 time=11\n",
      "note_off channel=0 note=70 velocity=0 time=245\n",
      "note_on channel=0 note=65 velocity=110 time=1035\n",
      "note_on channel=0 note=69 velocity=110 time=0\n",
      "note_off channel=0 note=65 velocity=0 time=501\n",
      "note_off channel=0 note=69 velocity=0 time=0\n",
      "note_on channel=0 note=65 velocity=110 time=11\n",
      "note_on channel=0 note=69 velocity=110 time=0\n",
      "note_off channel=0 note=65 velocity=0 time=501\n",
      "note_off channel=0 note=69 velocity=0 time=0\n",
      "note_on channel=0 note=65 velocity=110 time=11\n",
      "note_on channel=0 note=69 velocity=110 time=0\n",
      "note_off channel=0 note=65 velocity=0 time=501\n",
      "note_off channel=0 note=69 velocity=0 time=0\n",
      "note_on channel=0 note=65 velocity=110 time=11\n",
      "note_on channel=0 note=69 velocity=110 time=0\n",
      "note_off channel=0 note=65 velocity=0 time=501\n",
      "note_off channel=0 note=69 velocity=0 time=0\n",
      "note_on channel=0 note=65 velocity=110 time=11\n",
      "note_on channel=0 note=68 velocity=110 time=0\n",
      "note_off channel=0 note=65 velocity=0 time=853\n",
      "note_off channel=0 note=68 velocity=0 time=0\n",
      "note_on channel=0 note=67 velocity=110 time=171\n",
      "note_off channel=0 note=67 velocity=0 time=117\n",
      "note_on channel=0 note=65 velocity=110 time=11\n",
      "note_off channel=0 note=65 velocity=0 time=117\n",
      "note_on channel=0 note=64 velocity=110 time=11\n",
      "note_off channel=0 note=64 velocity=0 time=117\n",
      "note_on channel=0 note=62 velocity=110 time=11\n",
      "note_off channel=0 note=62 velocity=0 time=117\n",
      "note_on channel=0 note=60 velocity=110 time=11\n",
      "note_off channel=0 note=60 velocity=0 time=117\n",
      "note_on channel=0 note=58 velocity=110 time=11\n",
      "note_off channel=0 note=58 velocity=0 time=117\n",
      "note_on channel=0 note=55 velocity=110 time=11\n",
      "note_off channel=0 note=55 velocity=0 time=245\n",
      "note_on channel=0 note=72 velocity=110 time=11\n",
      "note_off channel=0 note=72 velocity=0 time=245\n",
      "note_on channel=0 note=64 velocity=110 time=11\n",
      "note_off channel=0 note=64 velocity=0 time=501\n",
      "note_on channel=0 note=70 velocity=110 time=11\n",
      "note_off channel=0 note=70 velocity=0 time=245\n",
      "note_on channel=0 note=72 velocity=110 time=1035\n",
      "note_off channel=0 note=72 velocity=0 time=245\n",
      "note_on channel=0 note=64 velocity=110 time=11\n",
      "note_off channel=0 note=64 velocity=0 time=501\n",
      "note_on channel=0 note=70 velocity=110 time=11\n",
      "note_off channel=0 note=70 velocity=0 time=245\n",
      "note_on channel=0 note=69 velocity=110 time=1035\n",
      "note_off channel=0 note=69 velocity=0 time=245\n",
      "note_on channel=0 note=60 velocity=110 time=11\n",
      "note_off channel=0 note=60 velocity=0 time=501\n",
      "note_on channel=0 note=63 velocity=110 time=11\n",
      "note_off channel=0 note=63 velocity=0 time=245\n",
      "note_on channel=0 note=69 velocity=110 time=1035\n",
      "note_off channel=0 note=69 velocity=0 time=245\n",
      "note_on channel=0 note=60 velocity=110 time=11\n",
      "note_off channel=0 note=60 velocity=0 time=501\n",
      "note_on channel=0 note=63 velocity=110 time=11\n",
      "note_off channel=0 note=63 velocity=0 time=245\n",
      "note_on channel=0 note=72 velocity=110 time=1035\n",
      "note_off channel=0 note=72 velocity=0 time=245\n",
      "note_on channel=0 note=64 velocity=110 time=11\n",
      "note_off channel=0 note=64 velocity=0 time=501\n",
      "note_on channel=0 note=70 velocity=110 time=11\n",
      "note_off channel=0 note=70 velocity=0 time=245\n",
      "note_on channel=0 note=72 velocity=110 time=1035\n",
      "note_off channel=0 note=72 velocity=0 time=245\n",
      "note_on channel=0 note=64 velocity=110 time=11\n",
      "note_off channel=0 note=64 velocity=0 time=501\n",
      "note_on channel=0 note=70 velocity=110 time=11\n",
      "note_off channel=0 note=70 velocity=0 time=245\n",
      "note_on channel=0 note=72 velocity=110 time=1035\n",
      "note_on channel=0 note=76 velocity=110 time=0\n",
      "note_on channel=0 note=79 velocity=110 time=0\n",
      "note_off channel=0 note=72 velocity=0 time=853\n",
      "note_off channel=0 note=76 velocity=0 time=0\n",
      "note_off channel=0 note=79 velocity=0 time=0\n",
      "note_on channel=0 note=72 velocity=110 time=683\n",
      "note_on channel=0 note=77 velocity=110 time=0\n",
      "note_on channel=0 note=81 velocity=110 time=0\n",
      "note_off channel=0 note=72 velocity=0 time=501\n",
      "note_off channel=0 note=77 velocity=0 time=0\n",
      "note_off channel=0 note=81 velocity=0 time=0\n",
      "note_on channel=0 note=72 velocity=110 time=523\n",
      "note_on channel=0 note=76 velocity=110 time=0\n",
      "note_on channel=0 note=79 velocity=110 time=0\n",
      "note_off channel=0 note=72 velocity=0 time=501\n",
      "note_off channel=0 note=76 velocity=0 time=0\n",
      "note_off channel=0 note=79 velocity=0 time=0\n",
      "note_on channel=0 note=72 velocity=110 time=523\n",
      "note_on channel=0 note=75 velocity=110 time=0\n",
      "note_on channel=0 note=78 velocity=110 time=0\n",
      "note_off channel=0 note=72 velocity=0 time=501\n",
      "note_off channel=0 note=75 velocity=0 time=0\n",
      "note_off channel=0 note=78 velocity=0 time=0\n",
      "note_on channel=0 note=72 velocity=110 time=11\n",
      "note_on channel=0 note=76 velocity=110 time=0\n",
      "note_on channel=0 note=79 velocity=110 time=0\n",
      "note_off channel=0 note=72 velocity=0 time=501\n",
      "note_off channel=0 note=76 velocity=0 time=0\n",
      "note_off channel=0 note=79 velocity=0 time=0\n",
      "note_on channel=0 note=76 velocity=110 time=11\n",
      "note_on channel=0 note=79 velocity=110 time=0\n",
      "note_on channel=0 note=84 velocity=110 time=0\n",
      "note_off channel=0 note=76 velocity=0 time=501\n",
      "note_off channel=0 note=79 velocity=0 time=0\n",
      "note_off channel=0 note=84 velocity=0 time=0\n",
      "note_on channel=0 note=79 velocity=110 time=11\n",
      "note_on channel=0 note=84 velocity=110 time=0\n",
      "note_on channel=0 note=88 velocity=110 time=0\n",
      "note_off channel=0 note=79 velocity=0 time=853\n",
      "note_off channel=0 note=84 velocity=0 time=0\n",
      "note_off channel=0 note=88 velocity=0 time=0\n",
      "note_on channel=0 note=67 velocity=110 time=1195\n",
      "note_off channel=0 note=67 velocity=0 time=501\n",
      "note_on channel=0 note=72 velocity=110 time=11\n",
      "note_off channel=0 note=72 velocity=0 time=501\n",
      "note_on channel=0 note=71 velocity=110 time=11\n",
      "note_on channel=0 note=74 velocity=110 time=0\n",
      "note_on channel=0 note=77 velocity=110 time=0\n",
      "note_off channel=0 note=71 velocity=0 time=853\n",
      "note_off channel=0 note=74 velocity=0 time=0\n",
      "note_off channel=0 note=77 velocity=0 time=0\n",
      "note_on channel=0 note=71 velocity=110 time=683\n",
      "note_on channel=0 note=76 velocity=110 time=0\n",
      "note_on channel=0 note=79 velocity=110 time=0\n",
      "note_off channel=0 note=71 velocity=0 time=501\n",
      "note_off channel=0 note=76 velocity=0 time=0\n",
      "note_off channel=0 note=79 velocity=0 time=0\n",
      "note_on channel=0 note=71 velocity=110 time=523\n",
      "note_on channel=0 note=74 velocity=110 time=0\n",
      "note_on channel=0 note=77 velocity=110 time=0\n",
      "note_off channel=0 note=71 velocity=0 time=501\n",
      "note_off channel=0 note=74 velocity=0 time=0\n",
      "note_off channel=0 note=77 velocity=0 time=0\n",
      "note_on channel=0 note=70 velocity=110 time=523\n",
      "note_on channel=0 note=73 velocity=110 time=0\n",
      "note_on channel=0 note=76 velocity=110 time=0\n",
      "note_off channel=0 note=70 velocity=0 time=501\n",
      "note_off channel=0 note=73 velocity=0 time=0\n",
      "note_off channel=0 note=76 velocity=0 time=0\n",
      "note_on channel=0 note=71 velocity=110 time=11\n",
      "note_on channel=0 note=74 velocity=110 time=0\n",
      "note_on channel=0 note=77 velocity=110 time=0\n",
      "note_off channel=0 note=71 velocity=0 time=501\n",
      "note_off channel=0 note=74 velocity=0 time=0\n",
      "note_off channel=0 note=77 velocity=0 time=0\n",
      "note_on channel=0 note=74 velocity=110 time=11\n",
      "note_on channel=0 note=79 velocity=110 time=0\n",
      "note_on channel=0 note=83 velocity=110 time=0\n",
      "note_off channel=0 note=74 velocity=0 time=501\n",
      "note_off channel=0 note=79 velocity=0 time=0\n",
      "note_off channel=0 note=83 velocity=0 time=0\n",
      "note_on channel=0 note=79 velocity=110 time=11\n",
      "note_on channel=0 note=83 velocity=110 time=0\n",
      "note_on channel=0 note=86 velocity=110 time=0\n",
      "note_off channel=0 note=79 velocity=0 time=853\n",
      "note_off channel=0 note=83 velocity=0 time=0\n",
      "note_off channel=0 note=86 velocity=0 time=0\n",
      "note_on channel=0 note=67 velocity=110 time=1195\n",
      "note_off channel=0 note=67 velocity=0 time=501\n",
      "note_on channel=0 note=71 velocity=110 time=11\n",
      "note_off channel=0 note=71 velocity=0 time=501\n",
      "note_on channel=0 note=69 velocity=110 time=11\n",
      "note_on channel=0 note=72 velocity=110 time=0\n",
      "note_on channel=0 note=76 velocity=110 time=0\n",
      "note_off channel=0 note=69 velocity=0 time=853\n",
      "note_off channel=0 note=72 velocity=0 time=0\n",
      "note_off channel=0 note=76 velocity=0 time=0\n",
      "note_on channel=0 note=69 velocity=110 time=683\n",
      "note_on channel=0 note=74 velocity=110 time=0\n",
      "note_on channel=0 note=77 velocity=110 time=0\n",
      "note_off channel=0 note=69 velocity=0 time=501\n",
      "note_off channel=0 note=74 velocity=0 time=0\n",
      "note_off channel=0 note=77 velocity=0 time=0\n",
      "note_on channel=0 note=69 velocity=110 time=523\n",
      "note_on channel=0 note=72 velocity=110 time=0\n",
      "note_on channel=0 note=76 velocity=110 time=0\n",
      "note_off channel=0 note=69 velocity=0 time=501\n",
      "note_off channel=0 note=72 velocity=0 time=0\n",
      "note_off channel=0 note=76 velocity=0 time=0\n",
      "note_on channel=0 note=68 velocity=110 time=523\n",
      "note_on channel=0 note=71 velocity=110 time=0\n",
      "note_on channel=0 note=75 velocity=110 time=0\n",
      "note_off channel=0 note=68 velocity=0 time=501\n",
      "note_off channel=0 note=71 velocity=0 time=0\n",
      "note_off channel=0 note=75 velocity=0 time=0\n",
      "note_on channel=0 note=69 velocity=110 time=11\n",
      "note_on channel=0 note=72 velocity=110 time=0\n",
      "note_on channel=0 note=76 velocity=110 time=0\n",
      "note_off channel=0 note=69 velocity=0 time=501\n",
      "note_off channel=0 note=72 velocity=0 time=0\n",
      "note_off channel=0 note=76 velocity=0 time=0\n",
      "note_on channel=0 note=72 velocity=110 time=11\n",
      "note_on channel=0 note=76 velocity=110 time=0\n",
      "note_on channel=0 note=81 velocity=110 time=0\n",
      "note_off channel=0 note=72 velocity=0 time=501\n",
      "note_off channel=0 note=76 velocity=0 time=0\n",
      "note_off channel=0 note=81 velocity=0 time=0\n",
      "note_on channel=0 note=76 velocity=110 time=11\n",
      "note_on channel=0 note=81 velocity=110 time=0\n",
      "note_on channel=0 note=84 velocity=110 time=0\n",
      "note_off channel=0 note=76 velocity=0 time=853\n",
      "note_off channel=0 note=81 velocity=0 time=0\n",
      "note_off channel=0 note=84 velocity=0 time=0\n",
      "note_on channel=0 note=72 velocity=110 time=683\n",
      "note_on channel=0 note=76 velocity=110 time=0\n",
      "note_on channel=0 note=81 velocity=110 time=0\n",
      "note_off channel=0 note=72 velocity=0 time=501\n",
      "note_off channel=0 note=76 velocity=0 time=0\n",
      "note_off channel=0 note=81 velocity=0 time=0\n",
      "note_on channel=0 note=74 velocity=110 time=11\n",
      "note_on channel=0 note=78 velocity=110 time=0\n",
      "note_on channel=0 note=83 velocity=110 time=0\n",
      "note_off channel=0 note=74 velocity=0 time=501\n",
      "note_off channel=0 note=78 velocity=0 time=0\n",
      "note_off channel=0 note=83 velocity=0 time=0\n",
      "note_on channel=0 note=69 velocity=110 time=11\n",
      "note_on channel=0 note=76 velocity=110 time=0\n",
      "note_on channel=0 note=81 velocity=110 time=0\n",
      "note_on channel=0 note=84 velocity=110 time=0\n",
      "note_off channel=0 note=69 velocity=0 time=501\n",
      "note_off channel=0 note=76 velocity=0 time=0\n",
      "note_off channel=0 note=81 velocity=0 time=0\n",
      "note_off channel=0 note=84 velocity=0 time=0\n",
      "note_on channel=0 note=78 velocity=110 time=11\n",
      "note_on channel=0 note=83 velocity=110 time=0\n",
      "note_on channel=0 note=86 velocity=110 time=0\n",
      "note_off channel=0 note=78 velocity=0 time=501\n",
      "note_off channel=0 note=83 velocity=0 time=0\n",
      "note_off channel=0 note=86 velocity=0 time=0\n",
      "note_on channel=0 note=78 velocity=110 time=11\n",
      "note_on channel=0 note=81 velocity=110 time=0\n",
      "note_on channel=0 note=84 velocity=110 time=0\n",
      "note_off channel=0 note=78 velocity=0 time=501\n",
      "note_off channel=0 note=81 velocity=0 time=0\n",
      "note_off channel=0 note=84 velocity=0 time=0\n",
      "note_on channel=0 note=78 velocity=110 time=11\n",
      "note_on channel=0 note=83 velocity=110 time=0\n",
      "note_on channel=0 note=86 velocity=110 time=0\n",
      "note_off channel=0 note=78 velocity=0 time=501\n",
      "note_off channel=0 note=83 velocity=0 time=0\n",
      "note_off channel=0 note=86 velocity=0 time=0\n",
      "note_on channel=0 note=78 velocity=110 time=11\n",
      "note_on channel=0 note=81 velocity=110 time=0\n",
      "note_on channel=0 note=84 velocity=110 time=0\n",
      "note_off channel=0 note=78 velocity=0 time=1013\n",
      "note_off channel=0 note=81 velocity=0 time=0\n",
      "note_off channel=0 note=84 velocity=0 time=0\n",
      "note_on channel=0 note=74 velocity=110 time=11\n",
      "note_on channel=0 note=78 velocity=110 time=0\n",
      "note_on channel=0 note=81 velocity=110 time=0\n",
      "note_off channel=0 note=74 velocity=0 time=501\n",
      "note_off channel=0 note=78 velocity=0 time=0\n",
      "note_off channel=0 note=81 velocity=0 time=0\n",
      "note_on channel=0 note=72 velocity=110 time=11\n",
      "note_on channel=0 note=74 velocity=110 time=0\n",
      "note_on channel=0 note=78 velocity=110 time=0\n",
      "note_off channel=0 note=72 velocity=0 time=501\n",
      "note_off channel=0 note=74 velocity=0 time=0\n",
      "note_off channel=0 note=78 velocity=0 time=0\n",
      "note_on channel=0 note=69 velocity=110 time=11\n",
      "note_on channel=0 note=72 velocity=110 time=0\n",
      "note_on channel=0 note=74 velocity=110 time=0\n",
      "note_off channel=0 note=69 velocity=0 time=501\n",
      "note_off channel=0 note=72 velocity=0 time=0\n",
      "note_off channel=0 note=74 velocity=0 time=0\n",
      "note_on channel=0 note=69 velocity=110 time=11\n",
      "note_on channel=0 note=72 velocity=110 time=0\n",
      "note_off channel=0 note=69 velocity=0 time=501\n",
      "note_off channel=0 note=72 velocity=0 time=0\n",
      "note_on channel=0 note=69 velocity=110 time=11\n",
      "note_off channel=0 note=69 velocity=0 time=501\n",
      "note_on channel=0 note=57 velocity=110 time=4619\n",
      "note_off channel=0 note=57 velocity=0 time=501\n",
      "note_on channel=0 note=59 velocity=110 time=523\n",
      "note_off channel=0 note=59 velocity=0 time=501\n",
      "note_on channel=0 note=62 velocity=110 time=523\n",
      "note_off channel=0 note=62 velocity=0 time=501\n",
      "note_on channel=0 note=67 velocity=110 time=11\n",
      "note_off channel=0 note=67 velocity=0 time=853\n",
      "note_on channel=0 note=74 velocity=110 time=683\n",
      "note_on channel=0 note=79 velocity=110 time=0\n",
      "note_off channel=0 note=74 velocity=0 time=501\n",
      "note_off channel=0 note=79 velocity=0 time=0\n",
      "note_on channel=0 note=57 velocity=110 time=3595\n",
      "note_off channel=0 note=57 velocity=0 time=501\n",
      "note_on channel=0 note=59 velocity=110 time=523\n",
      "note_off channel=0 note=59 velocity=0 time=501\n",
      "note_on channel=0 note=62 velocity=110 time=523\n",
      "note_off channel=0 note=62 velocity=0 time=501\n",
      "note_on channel=0 note=67 velocity=110 time=11\n",
      "note_off channel=0 note=67 velocity=0 time=853\n",
      "note_on channel=0 note=74 velocity=110 time=683\n",
      "note_on channel=0 note=79 velocity=110 time=0\n",
      "note_off channel=0 note=74 velocity=0 time=501\n",
      "note_off channel=0 note=79 velocity=0 time=0\n",
      "note_on channel=0 note=57 velocity=110 time=3595\n",
      "note_off channel=0 note=57 velocity=0 time=501\n",
      "note_on channel=0 note=59 velocity=110 time=523\n",
      "note_off channel=0 note=59 velocity=0 time=501\n",
      "note_on channel=0 note=62 velocity=110 time=523\n",
      "note_off channel=0 note=62 velocity=0 time=501\n",
      "note_on channel=0 note=67 velocity=110 time=11\n",
      "note_off channel=0 note=67 velocity=0 time=853\n",
      "note_on channel=0 note=74 velocity=110 time=683\n",
      "note_on channel=0 note=79 velocity=110 time=0\n",
      "note_off channel=0 note=74 velocity=0 time=501\n",
      "note_off channel=0 note=79 velocity=0 time=0\n",
      "note_on channel=0 note=57 velocity=110 time=3595\n",
      "note_off channel=0 note=57 velocity=0 time=501\n",
      "note_on channel=0 note=59 velocity=110 time=523\n",
      "note_off channel=0 note=59 velocity=0 time=501\n",
      "note_on channel=0 note=62 velocity=110 time=523\n",
      "note_off channel=0 note=62 velocity=0 time=501\n",
      "note_on channel=0 note=67 velocity=110 time=11\n",
      "note_off channel=0 note=67 velocity=0 time=853\n",
      "note_on channel=0 note=74 velocity=110 time=683\n",
      "note_on channel=0 note=79 velocity=110 time=0\n",
      "note_off channel=0 note=74 velocity=0 time=501\n",
      "note_off channel=0 note=79 velocity=0 time=0\n",
      "note_on channel=0 note=57 velocity=110 time=3595\n",
      "note_off channel=0 note=57 velocity=0 time=501\n",
      "note_on channel=0 note=58 velocity=110 time=523\n",
      "note_off channel=0 note=58 velocity=0 time=501\n",
      "note_on channel=0 note=62 velocity=110 time=523\n",
      "note_off channel=0 note=62 velocity=0 time=501\n",
      "note_on channel=0 note=67 velocity=110 time=11\n",
      "note_off channel=0 note=67 velocity=0 time=853\n",
      "note_on channel=0 note=74 velocity=110 time=683\n",
      "note_on channel=0 note=79 velocity=110 time=0\n",
      "note_off channel=0 note=74 velocity=0 time=501\n",
      "note_off channel=0 note=79 velocity=0 time=0\n",
      "note_on channel=0 note=57 velocity=110 time=3595\n",
      "note_off channel=0 note=57 velocity=0 time=501\n",
      "note_on channel=0 note=58 velocity=110 time=523\n",
      "note_off channel=0 note=58 velocity=0 time=501\n",
      "note_on channel=0 note=62 velocity=110 time=523\n",
      "note_off channel=0 note=62 velocity=0 time=501\n",
      "note_on channel=0 note=67 velocity=110 time=11\n",
      "note_off channel=0 note=67 velocity=0 time=853\n",
      "note_on channel=0 note=74 velocity=110 time=683\n",
      "note_on channel=0 note=79 velocity=110 time=0\n",
      "note_off channel=0 note=74 velocity=0 time=501\n",
      "note_off channel=0 note=79 velocity=0 time=0\n",
      "note_on channel=0 note=62 velocity=110 time=2571\n",
      "note_off channel=0 note=62 velocity=0 time=501\n",
      "note_on channel=0 note=67 velocity=110 time=11\n",
      "note_off channel=0 note=67 velocity=0 time=501\n",
      "note_on channel=0 note=69 velocity=110 time=11\n",
      "note_off channel=0 note=69 velocity=0 time=501\n",
      "note_on channel=0 note=71 velocity=110 time=11\n",
      "note_off channel=0 note=71 velocity=0 time=501\n",
      "note_on channel=0 note=72 velocity=110 time=11\n",
      "note_off channel=0 note=72 velocity=0 time=501\n",
      "note_on channel=0 note=71 velocity=110 time=11\n",
      "note_off channel=0 note=71 velocity=0 time=501\n",
      "note_on channel=0 note=69 velocity=110 time=11\n",
      "note_off channel=0 note=69 velocity=0 time=501\n",
      "note_on channel=0 note=67 velocity=110 time=11\n",
      "note_off channel=0 note=67 velocity=0 time=853\n",
      "note_on channel=0 note=62 velocity=110 time=171\n",
      "note_off channel=0 note=62 velocity=0 time=853\n",
      "note_on channel=0 note=60 velocity=110 time=171\n",
      "note_off channel=0 note=60 velocity=0 time=853\n",
      "note_on channel=0 note=67 velocity=110 time=171\n",
      "note_off channel=0 note=67 velocity=0 time=853\n",
      "note_on channel=0 note=62 velocity=110 time=171\n",
      "note_off channel=0 note=62 velocity=0 time=853\n",
      "note_on channel=0 note=55 velocity=110 time=683\n",
      "note_off channel=0 note=55 velocity=0 time=501\n",
      "note_on channel=0 note=55 velocity=110 time=1547\n",
      "note_off channel=0 note=55 velocity=0 time=501\n",
      "note_on channel=0 note=60 velocity=110 time=2571\n",
      "note_off channel=0 note=60 velocity=0 time=501\n",
      "note_on channel=0 note=60 velocity=110 time=523\n",
      "note_off channel=0 note=60 velocity=0 time=501\n",
      "note_on channel=0 note=59 velocity=110 time=11\n",
      "note_off channel=0 note=59 velocity=0 time=501\n",
      "note_on channel=0 note=62 velocity=110 time=11\n",
      "note_off channel=0 note=62 velocity=0 time=501\n",
      "note_on channel=0 note=67 velocity=110 time=11\n",
      "note_off channel=0 note=67 velocity=0 time=853\n",
      "note_on channel=0 note=57 velocity=110 time=683\n",
      "note_off channel=0 note=57 velocity=0 time=501\n",
      "note_on channel=0 note=59 velocity=110 time=523\n",
      "note_off channel=0 note=59 velocity=0 time=501\n",
      "note_on channel=0 note=62 velocity=110 time=1547\n",
      "note_off channel=0 note=62 velocity=0 time=501\n",
      "note_on channel=0 note=67 velocity=110 time=523\n",
      "note_off channel=0 note=67 velocity=0 time=501\n",
      "note_on channel=0 note=62 velocity=110 time=1547\n",
      "note_off channel=0 note=62 velocity=0 time=501\n",
      "note_on channel=0 note=67 velocity=110 time=11\n",
      "note_off channel=0 note=67 velocity=0 time=501\n",
      "note_on channel=0 note=69 velocity=110 time=11\n",
      "note_off channel=0 note=69 velocity=0 time=501\n",
      "note_on channel=0 note=71 velocity=110 time=11\n",
      "note_off channel=0 note=71 velocity=0 time=501\n",
      "note_on channel=0 note=72 velocity=110 time=11\n",
      "note_off channel=0 note=72 velocity=0 time=501\n",
      "note_on channel=0 note=71 velocity=110 time=11\n",
      "note_off channel=0 note=71 velocity=0 time=501\n",
      "note_on channel=0 note=69 velocity=110 time=11\n",
      "note_off channel=0 note=69 velocity=0 time=501\n",
      "note_on channel=0 note=67 velocity=110 time=11\n",
      "note_off channel=0 note=67 velocity=0 time=853\n",
      "note_on channel=0 note=62 velocity=110 time=171\n",
      "note_off channel=0 note=62 velocity=0 time=853\n",
      "note_on channel=0 note=60 velocity=110 time=171\n",
      "note_off channel=0 note=60 velocity=0 time=853\n",
      "note_on channel=0 note=67 velocity=110 time=171\n",
      "note_off channel=0 note=67 velocity=0 time=853\n",
      "note_on channel=0 note=62 velocity=110 time=171\n",
      "note_off channel=0 note=62 velocity=0 time=853\n",
      "note_on channel=0 note=55 velocity=110 time=683\n",
      "note_off channel=0 note=55 velocity=0 time=501\n",
      "note_on channel=0 note=55 velocity=110 time=523\n",
      "note_off channel=0 note=55 velocity=0 time=501\n",
      "note_on channel=0 note=55 velocity=110 time=523\n",
      "note_off channel=0 note=55 velocity=0 time=501\n",
      "note_on channel=0 note=60 velocity=110 time=1547\n",
      "note_off channel=0 note=60 velocity=0 time=501\n",
      "note_on channel=0 note=60 velocity=110 time=523\n",
      "note_off channel=0 note=60 velocity=0 time=501\n",
      "note_on channel=0 note=60 velocity=110 time=523\n",
      "note_off channel=0 note=60 velocity=0 time=501\n",
      "note_on channel=0 note=59 velocity=110 time=11\n",
      "note_off channel=0 note=59 velocity=0 time=501\n",
      "note_on channel=0 note=62 velocity=110 time=11\n",
      "note_off channel=0 note=62 velocity=0 time=501\n",
      "note_on channel=0 note=67 velocity=110 time=11\n",
      "note_off channel=0 note=67 velocity=0 time=853\n",
      "note_on channel=0 note=57 velocity=110 time=683\n",
      "note_off channel=0 note=57 velocity=0 time=501\n",
      "note_on channel=0 note=59 velocity=110 time=523\n",
      "note_off channel=0 note=59 velocity=0 time=501\n",
      "note_on channel=0 note=59 velocity=110 time=1547\n",
      "note_off channel=0 note=59 velocity=0 time=501\n",
      "note_on channel=0 note=67 velocity=110 time=3595\n",
      "note_off channel=0 note=67 velocity=0 time=501\n",
      "note_on channel=0 note=76 velocity=110 time=11\n",
      "note_off channel=0 note=76 velocity=0 time=501\n",
      "note_on channel=0 note=74 velocity=110 time=11\n",
      "note_off channel=0 note=74 velocity=0 time=501\n",
      "note_on channel=0 note=72 velocity=110 time=11\n",
      "note_off channel=0 note=72 velocity=0 time=501\n",
      "note_on channel=0 note=76 velocity=110 time=11\n",
      "note_off channel=0 note=76 velocity=0 time=501\n",
      "note_on channel=0 note=74 velocity=110 time=11\n",
      "note_off channel=0 note=74 velocity=0 time=853\n",
      "note_on channel=0 note=67 velocity=110 time=683\n",
      "note_off channel=0 note=67 velocity=0 time=501\n",
      "note_on channel=0 note=64 velocity=110 time=3595\n",
      "note_off channel=0 note=64 velocity=0 time=501\n",
      "note_on channel=0 note=74 velocity=110 time=11\n",
      "note_off channel=0 note=74 velocity=0 time=501\n",
      "note_on channel=0 note=72 velocity=110 time=11\n",
      "note_off channel=0 note=72 velocity=0 time=501\n",
      "note_on channel=0 note=71 velocity=110 time=11\n",
      "note_off channel=0 note=71 velocity=0 time=501\n",
      "note_on channel=0 note=72 velocity=110 time=11\n",
      "note_off channel=0 note=72 velocity=0 time=501\n",
      "note_on channel=0 note=71 velocity=110 time=11\n",
      "note_off channel=0 note=71 velocity=0 time=853\n",
      "note_on channel=0 note=67 velocity=110 time=683\n",
      "note_off channel=0 note=67 velocity=0 time=501\n",
      "note_on channel=0 note=67 velocity=110 time=3595\n",
      "note_off channel=0 note=67 velocity=0 time=501\n",
      "note_on channel=0 note=76 velocity=110 time=11\n",
      "note_off channel=0 note=76 velocity=0 time=501\n",
      "note_on channel=0 note=74 velocity=110 time=11\n",
      "note_off channel=0 note=74 velocity=0 time=501\n",
      "note_on channel=0 note=72 velocity=110 time=11\n",
      "note_off channel=0 note=72 velocity=0 time=501\n",
      "note_on channel=0 note=76 velocity=110 time=11\n",
      "note_off channel=0 note=76 velocity=0 time=501\n",
      "note_on channel=0 note=74 velocity=110 time=11\n",
      "note_off channel=0 note=74 velocity=0 time=853\n",
      "note_on channel=0 note=67 velocity=110 time=683\n",
      "note_off channel=0 note=67 velocity=0 time=501\n",
      "note_on channel=0 note=72 velocity=110 time=4107\n",
      "note_off channel=0 note=72 velocity=0 time=501\n",
      "note_on channel=0 note=74 velocity=110 time=11\n",
      "note_off channel=0 note=74 velocity=0 time=501\n",
      "note_on channel=0 note=72 velocity=110 time=11\n",
      "note_off channel=0 note=72 velocity=0 time=501\n",
      "note_on channel=0 note=71 velocity=110 time=11\n",
      "note_off channel=0 note=71 velocity=0 time=501\n",
      "note_on channel=0 note=67 velocity=110 time=1035\n",
      "note_off channel=0 note=67 velocity=0 time=853\n",
      "note_on channel=0 note=64 velocity=110 time=171\n",
      "note_off channel=0 note=64 velocity=0 time=853\n",
      "note_on channel=0 note=62 velocity=110 time=1707\n",
      "note_off channel=0 note=62 velocity=0 time=501\n",
      "note_on channel=0 note=67 velocity=110 time=11\n",
      "note_off channel=0 note=67 velocity=0 time=501\n",
      "note_on channel=0 note=69 velocity=110 time=11\n",
      "note_off channel=0 note=69 velocity=0 time=501\n",
      "note_on channel=0 note=71 velocity=110 time=11\n",
      "note_off channel=0 note=71 velocity=0 time=501\n",
      "note_on channel=0 note=72 velocity=110 time=11\n",
      "note_off channel=0 note=72 velocity=0 time=501\n",
      "note_on channel=0 note=71 velocity=110 time=11\n",
      "note_off channel=0 note=71 velocity=0 time=501\n",
      "note_on channel=0 note=69 velocity=110 time=11\n",
      "note_off channel=0 note=69 velocity=0 time=501\n",
      "note_on channel=0 note=67 velocity=110 time=11\n",
      "note_off channel=0 note=67 velocity=0 time=853\n",
      "note_on channel=0 note=62 velocity=110 time=171\n",
      "note_off channel=0 note=62 velocity=0 time=853\n",
      "note_on channel=0 note=60 velocity=110 time=171\n",
      "note_off channel=0 note=60 velocity=0 time=853\n",
      "note_on channel=0 note=67 velocity=110 time=171\n",
      "note_off channel=0 note=67 velocity=0 time=853\n",
      "note_on channel=0 note=62 velocity=110 time=171\n",
      "note_off channel=0 note=62 velocity=0 time=853\n",
      "note_on channel=0 note=55 velocity=110 time=683\n",
      "note_off channel=0 note=55 velocity=0 time=501\n",
      "note_on channel=0 note=55 velocity=110 time=1547\n",
      "note_off channel=0 note=55 velocity=0 time=501\n",
      "note_on channel=0 note=60 velocity=110 time=3595\n",
      "note_off channel=0 note=60 velocity=0 time=501\n",
      "note_on channel=0 note=59 velocity=110 time=11\n",
      "note_off channel=0 note=59 velocity=0 time=501\n",
      "note_on channel=0 note=62 velocity=110 time=11\n",
      "note_off channel=0 note=62 velocity=0 time=501\n",
      "note_on channel=0 note=67 velocity=110 time=11\n",
      "note_off channel=0 note=67 velocity=0 time=853\n",
      "note_on channel=0 note=57 velocity=110 time=683\n",
      "note_off channel=0 note=57 velocity=0 time=501\n",
      "note_on channel=0 note=59 velocity=110 time=523\n",
      "note_off channel=0 note=59 velocity=0 time=501\n",
      "note_on channel=0 note=62 velocity=110 time=1547\n",
      "note_off channel=0 note=62 velocity=0 time=501\n",
      "note_on channel=0 note=62 velocity=110 time=2571\n",
      "note_off channel=0 note=62 velocity=0 time=501\n",
      "note_on channel=0 note=67 velocity=110 time=11\n",
      "note_off channel=0 note=67 velocity=0 time=501\n",
      "note_on channel=0 note=69 velocity=110 time=11\n",
      "note_off channel=0 note=69 velocity=0 time=501\n",
      "note_on channel=0 note=71 velocity=110 time=11\n",
      "note_off channel=0 note=71 velocity=0 time=501\n",
      "note_on channel=0 note=72 velocity=110 time=11\n",
      "note_off channel=0 note=72 velocity=0 time=501\n",
      "note_on channel=0 note=71 velocity=110 time=11\n",
      "note_off channel=0 note=71 velocity=0 time=501\n",
      "note_on channel=0 note=69 velocity=110 time=11\n",
      "note_off channel=0 note=69 velocity=0 time=501\n",
      "note_on channel=0 note=67 velocity=110 time=11\n",
      "note_off channel=0 note=67 velocity=0 time=853\n",
      "note_on channel=0 note=62 velocity=110 time=171\n",
      "note_off channel=0 note=62 velocity=0 time=853\n",
      "note_on channel=0 note=60 velocity=110 time=171\n",
      "note_off channel=0 note=60 velocity=0 time=853\n",
      "note_on channel=0 note=67 velocity=110 time=171\n",
      "note_off channel=0 note=67 velocity=0 time=853\n",
      "note_on channel=0 note=62 velocity=110 time=171\n",
      "note_off channel=0 note=62 velocity=0 time=853\n",
      "note_on channel=0 note=55 velocity=110 time=683\n",
      "note_off channel=0 note=55 velocity=0 time=501\n",
      "note_on channel=0 note=60 velocity=110 time=523\n",
      "note_off channel=0 note=60 velocity=0 time=501\n",
      "note_on channel=0 note=55 velocity=110 time=523\n",
      "note_off channel=0 note=55 velocity=0 time=501\n",
      "note_on channel=0 note=60 velocity=110 time=2571\n",
      "note_off channel=0 note=60 velocity=0 time=501\n",
      "note_on channel=0 note=60 velocity=110 time=523\n",
      "note_off channel=0 note=60 velocity=0 time=501\n",
      "note_on channel=0 note=59 velocity=110 time=11\n",
      "note_off channel=0 note=59 velocity=0 time=501\n",
      "note_on channel=0 note=62 velocity=110 time=11\n",
      "note_off channel=0 note=62 velocity=0 time=501\n",
      "note_on channel=0 note=67 velocity=110 time=11\n",
      "note_off channel=0 note=67 velocity=0 time=853\n",
      "note_on channel=0 note=57 velocity=110 time=683\n",
      "note_off channel=0 note=57 velocity=0 time=501\n",
      "note_on channel=0 note=59 velocity=110 time=523\n",
      "note_off channel=0 note=59 velocity=0 time=501\n",
      "note_on channel=0 note=59 velocity=110 time=2571\n",
      "note_on channel=0 note=67 velocity=110 time=0\n",
      "note_off channel=0 note=59 velocity=0 time=501\n",
      "note_off channel=0 note=67 velocity=0 time=0\n",
      "note_on channel=0 note=57 velocity=110 time=2571\n",
      "note_on channel=0 note=65 velocity=110 time=0\n",
      "note_off channel=0 note=57 velocity=0 time=501\n",
      "note_off channel=0 note=65 velocity=0 time=0\n",
      "note_on channel=0 note=57 velocity=110 time=523\n",
      "note_on channel=0 note=65 velocity=110 time=0\n",
      "note_off channel=0 note=57 velocity=0 time=501\n",
      "note_off channel=0 note=65 velocity=0 time=0\n",
      "note_on channel=0 note=57 velocity=110 time=11\n",
      "note_on channel=0 note=65 velocity=110 time=0\n",
      "note_off channel=0 note=57 velocity=0 time=501\n",
      "note_off channel=0 note=65 velocity=0 time=0\n",
      "note_on channel=0 note=57 velocity=110 time=11\n",
      "note_on channel=0 note=65 velocity=110 time=0\n",
      "note_off channel=0 note=57 velocity=0 time=501\n",
      "note_off channel=0 note=65 velocity=0 time=0\n",
      "note_on channel=0 note=57 velocity=110 time=523\n",
      "note_on channel=0 note=65 velocity=110 time=0\n",
      "note_off channel=0 note=57 velocity=0 time=501\n",
      "note_off channel=0 note=65 velocity=0 time=0\n",
      "note_on channel=0 note=57 velocity=110 time=11\n",
      "note_on channel=0 note=65 velocity=110 time=0\n",
      "note_off channel=0 note=57 velocity=0 time=501\n",
      "note_off channel=0 note=65 velocity=0 time=0\n",
      "note_on channel=0 note=57 velocity=110 time=11\n",
      "note_on channel=0 note=65 velocity=110 time=0\n",
      "note_off channel=0 note=57 velocity=0 time=501\n",
      "note_off channel=0 note=65 velocity=0 time=0\n",
      "note_on channel=0 note=57 velocity=110 time=523\n",
      "note_on channel=0 note=65 velocity=110 time=0\n",
      "note_off channel=0 note=57 velocity=0 time=501\n",
      "note_off channel=0 note=65 velocity=0 time=0\n",
      "note_on channel=0 note=57 velocity=110 time=11\n",
      "note_on channel=0 note=65 velocity=110 time=0\n",
      "note_off channel=0 note=57 velocity=0 time=501\n",
      "note_off channel=0 note=65 velocity=0 time=0\n",
      "note_on channel=0 note=57 velocity=110 time=11\n",
      "note_on channel=0 note=65 velocity=110 time=0\n",
      "note_off channel=0 note=57 velocity=0 time=501\n",
      "note_off channel=0 note=65 velocity=0 time=0\n",
      "note_on channel=0 note=58 velocity=110 time=1547\n",
      "note_on channel=0 note=67 velocity=110 time=0\n",
      "note_off channel=0 note=58 velocity=0 time=501\n",
      "note_off channel=0 note=67 velocity=0 time=0\n",
      "note_on channel=0 note=58 velocity=110 time=523\n",
      "note_on channel=0 note=67 velocity=110 time=0\n",
      "note_off channel=0 note=58 velocity=0 time=501\n",
      "note_off channel=0 note=67 velocity=0 time=0\n",
      "note_on channel=0 note=58 velocity=110 time=523\n",
      "note_on channel=0 note=67 velocity=110 time=0\n",
      "note_off channel=0 note=58 velocity=0 time=501\n",
      "note_off channel=0 note=67 velocity=0 time=0\n",
      "note_on channel=0 note=58 velocity=110 time=523\n",
      "note_on channel=0 note=67 velocity=110 time=0\n",
      "note_off channel=0 note=58 velocity=0 time=501\n",
      "note_off channel=0 note=67 velocity=0 time=0\n",
      "note_on channel=0 note=58 velocity=110 time=11\n",
      "note_off channel=0 note=58 velocity=0 time=501\n",
      "note_on channel=0 note=58 velocity=110 time=11\n",
      "note_on channel=0 note=67 velocity=110 time=0\n",
      "note_off channel=0 note=58 velocity=0 time=501\n",
      "note_off channel=0 note=67 velocity=0 time=0\n",
      "note_on channel=0 note=58 velocity=110 time=11\n",
      "note_on channel=0 note=67 velocity=110 time=0\n",
      "note_off channel=0 note=58 velocity=0 time=501\n",
      "note_off channel=0 note=67 velocity=0 time=0\n",
      "note_on channel=0 note=58 velocity=110 time=11\n",
      "note_on channel=0 note=67 velocity=110 time=0\n",
      "note_off channel=0 note=58 velocity=0 time=501\n",
      "note_off channel=0 note=67 velocity=0 time=0\n",
      "note_on channel=0 note=58 velocity=110 time=11\n",
      "note_on channel=0 note=67 velocity=110 time=0\n",
      "note_off channel=0 note=58 velocity=0 time=501\n",
      "note_off channel=0 note=67 velocity=0 time=0\n",
      "note_on channel=0 note=58 velocity=110 time=11\n",
      "note_on channel=0 note=67 velocity=110 time=0\n",
      "note_off channel=0 note=58 velocity=0 time=501\n",
      "note_off channel=0 note=67 velocity=0 time=0\n",
      "note_on channel=0 note=60 velocity=110 time=1547\n",
      "note_on channel=0 note=67 velocity=110 time=0\n",
      "note_off channel=0 note=60 velocity=0 time=501\n",
      "note_off channel=0 note=67 velocity=0 time=0\n",
      "note_on channel=0 note=60 velocity=110 time=523\n",
      "note_on channel=0 note=67 velocity=110 time=0\n",
      "note_off channel=0 note=60 velocity=0 time=501\n",
      "note_off channel=0 note=67 velocity=0 time=0\n",
      "note_on channel=0 note=60 velocity=110 time=523\n",
      "note_on channel=0 note=67 velocity=110 time=0\n",
      "note_off channel=0 note=60 velocity=0 time=501\n",
      "note_off channel=0 note=67 velocity=0 time=0\n",
      "note_on channel=0 note=60 velocity=110 time=523\n",
      "note_on channel=0 note=69 velocity=110 time=0\n",
      "note_off channel=0 note=60 velocity=0 time=501\n",
      "note_off channel=0 note=69 velocity=0 time=0\n",
      "note_on channel=0 note=60 velocity=110 time=523\n",
      "note_on channel=0 note=69 velocity=110 time=0\n",
      "note_off channel=0 note=60 velocity=0 time=501\n",
      "note_off channel=0 note=69 velocity=0 time=0\n",
      "note_on channel=0 note=60 velocity=110 time=523\n",
      "note_on channel=0 note=69 velocity=110 time=0\n",
      "note_off channel=0 note=60 velocity=0 time=501\n",
      "note_off channel=0 note=69 velocity=0 time=0\n",
      "note_on channel=0 note=57 velocity=110 time=4107\n",
      "note_on channel=0 note=62 velocity=110 time=0\n",
      "note_off channel=0 note=57 velocity=0 time=853\n",
      "note_off channel=0 note=62 velocity=0 time=0\n",
      "note_on channel=0 note=74 velocity=110 time=171\n",
      "note_off channel=0 note=74 velocity=0 time=373\n",
      "note_on channel=0 note=72 velocity=110 time=11\n",
      "note_off channel=0 note=72 velocity=0 time=373\n",
      "note_on channel=0 note=67 velocity=110 time=11\n",
      "note_off channel=0 note=67 velocity=0 time=245\n",
      "note_on channel=0 note=62 velocity=110 time=11\n",
      "note_off channel=0 note=62 velocity=0 time=373\n",
      "note_on channel=0 note=60 velocity=110 time=11\n",
      "note_off channel=0 note=60 velocity=0 time=373\n",
      "note_on channel=0 note=55 velocity=110 time=11\n",
      "note_off channel=0 note=55 velocity=0 time=245\n",
      "note_on channel=0 note=50 velocity=110 time=11\n",
      "note_off channel=0 note=50 velocity=0 time=853\n",
      "note_on channel=0 note=57 velocity=110 time=5291\n",
      "note_on channel=0 note=62 velocity=110 time=0\n",
      "note_off channel=0 note=57 velocity=0 time=3840\n",
      "note_off channel=0 note=62 velocity=0 time=0\n",
      "note_on channel=0 note=59 velocity=110 time=256\n",
      "note_on channel=0 note=64 velocity=110 time=0\n",
      "note_off channel=0 note=59 velocity=0 time=3840\n",
      "note_off channel=0 note=64 velocity=0 time=0\n",
      "note_on channel=0 note=60 velocity=110 time=256\n",
      "note_on channel=0 note=65 velocity=110 time=0\n",
      "note_off channel=0 note=60 velocity=0 time=3840\n",
      "note_off channel=0 note=65 velocity=0 time=0\n",
      "note_on channel=0 note=62 velocity=110 time=256\n",
      "note_on channel=0 note=67 velocity=110 time=0\n",
      "note_off channel=0 note=62 velocity=0 time=3840\n",
      "note_off channel=0 note=67 velocity=0 time=0\n",
      "note_on channel=0 note=57 velocity=110 time=256\n",
      "note_on channel=0 note=62 velocity=110 time=0\n",
      "note_off channel=0 note=57 velocity=0 time=3840\n",
      "note_off channel=0 note=62 velocity=0 time=0\n",
      "note_on channel=0 note=59 velocity=110 time=256\n",
      "note_on channel=0 note=64 velocity=110 time=0\n",
      "note_off channel=0 note=59 velocity=0 time=3840\n",
      "note_off channel=0 note=64 velocity=0 time=0\n",
      "note_on channel=0 note=60 velocity=110 time=256\n",
      "note_on channel=0 note=65 velocity=110 time=0\n",
      "note_off channel=0 note=60 velocity=0 time=3840\n",
      "note_off channel=0 note=65 velocity=0 time=0\n",
      "note_on channel=0 note=62 velocity=110 time=256\n",
      "note_on channel=0 note=67 velocity=110 time=0\n",
      "note_off channel=0 note=62 velocity=0 time=1792\n",
      "note_off channel=0 note=67 velocity=0 time=0\n",
      "note_on channel=0 note=62 velocity=110 time=2304\n",
      "note_off channel=0 note=62 velocity=0 time=2549\n",
      "note_on channel=0 note=57 velocity=110 time=11\n",
      "note_off channel=0 note=57 velocity=0 time=501\n",
      "note_on channel=0 note=62 velocity=110 time=11\n",
      "note_off channel=0 note=62 velocity=0 time=501\n",
      "note_on channel=0 note=72 velocity=110 time=11\n",
      "note_off channel=0 note=72 velocity=0 time=501\n",
      "note_on channel=0 note=71 velocity=110 time=11\n",
      "note_off channel=0 note=71 velocity=0 time=501\n",
      "note_on channel=0 note=67 velocity=110 time=11\n",
      "note_off channel=0 note=67 velocity=0 time=501\n",
      "note_on channel=0 note=62 velocity=110 time=11\n",
      "note_off channel=0 note=62 velocity=0 time=2816\n",
      "note_on channel=0 note=62 velocity=110 time=256\n",
      "note_off channel=0 note=62 velocity=0 time=1365\n",
      "note_on channel=0 note=60 velocity=110 time=171\n",
      "note_off channel=0 note=60 velocity=0 time=1013\n",
      "note_on channel=0 note=62 velocity=110 time=11\n",
      "note_off channel=0 note=62 velocity=0 time=501\n",
      "note_on channel=0 note=67 velocity=110 time=11\n",
      "note_off channel=0 note=67 velocity=0 time=501\n",
      "note_on channel=0 note=65 velocity=110 time=11\n",
      "note_off channel=0 note=65 velocity=0 time=501\n",
      "note_on channel=0 note=67 velocity=110 time=11\n",
      "note_off channel=0 note=67 velocity=0 time=3840\n",
      "note_on channel=0 note=62 velocity=110 time=256\n",
      "note_off channel=0 note=62 velocity=0 time=2549\n",
      "note_on channel=0 note=57 velocity=110 time=11\n",
      "note_off channel=0 note=57 velocity=0 time=501\n",
      "note_on channel=0 note=62 velocity=110 time=11\n",
      "note_off channel=0 note=62 velocity=0 time=501\n",
      "note_on channel=0 note=72 velocity=110 time=11\n",
      "note_off channel=0 note=72 velocity=0 time=501\n",
      "note_on channel=0 note=71 velocity=110 time=11\n",
      "note_off channel=0 note=71 velocity=0 time=501\n",
      "note_on channel=0 note=67 velocity=110 time=11\n",
      "note_off channel=0 note=67 velocity=0 time=501\n",
      "note_on channel=0 note=62 velocity=110 time=11\n",
      "note_off channel=0 note=62 velocity=0 time=1365\n",
      "note_on channel=0 note=57 velocity=110 time=171\n",
      "note_off channel=0 note=57 velocity=0 time=501\n",
      "note_on channel=0 note=62 velocity=110 time=11\n",
      "note_off channel=0 note=62 velocity=0 time=501\n",
      "note_on channel=0 note=74 velocity=110 time=11\n",
      "note_off channel=0 note=74 velocity=0 time=501\n",
      "note_on channel=0 note=72 velocity=110 time=11\n",
      "note_off channel=0 note=72 velocity=0 time=853\n",
      "note_on channel=0 note=71 velocity=110 time=171\n",
      "note_off channel=0 note=71 velocity=0 time=2549\n",
      "note_on channel=0 note=69 velocity=110 time=11\n",
      "note_off channel=0 note=69 velocity=0 time=501\n",
      "note_on channel=0 note=67 velocity=110 time=11\n",
      "note_on channel=0 note=71 velocity=110 time=0\n",
      "note_off channel=0 note=67 velocity=0 time=3840\n",
      "note_off channel=0 note=71 velocity=0 time=0\n",
      "note_on channel=0 note=63 velocity=110 time=256\n",
      "note_on channel=0 note=65 velocity=110 time=0\n",
      "note_off channel=0 note=63 velocity=0 time=2549\n",
      "note_off channel=0 note=65 velocity=0 time=0\n",
      "note_on channel=0 note=60 velocity=110 time=11\n",
      "note_off channel=0 note=60 velocity=0 time=501\n",
      "note_on channel=0 note=65 velocity=110 time=11\n",
      "note_off channel=0 note=65 velocity=0 time=501\n",
      "note_on channel=0 note=75 velocity=110 time=11\n",
      "note_off channel=0 note=75 velocity=0 time=501\n",
      "note_on channel=0 note=74 velocity=110 time=11\n",
      "note_off channel=0 note=74 velocity=0 time=501\n",
      "note_on channel=0 note=70 velocity=110 time=11\n",
      "note_off channel=0 note=70 velocity=0 time=501\n",
      "note_on channel=0 note=65 velocity=110 time=11\n",
      "note_off channel=0 note=65 velocity=0 time=2805\n",
      "note_on channel=0 note=63 velocity=110 time=11\n",
      "note_off channel=0 note=63 velocity=0 time=757\n",
      "note_on channel=0 note=65 velocity=110 time=11\n",
      "note_off channel=0 note=65 velocity=0 time=3061\n",
      "note_on channel=0 note=68 velocity=110 time=11\n",
      "note_off channel=0 note=68 velocity=0 time=501\n",
      "note_on channel=0 note=65 velocity=110 time=11\n",
      "note_off channel=0 note=65 velocity=0 time=3840\n",
      "note_on channel=0 note=62 velocity=110 time=256\n",
      "note_off channel=0 note=62 velocity=0 time=2549\n",
      "note_on channel=0 note=57 velocity=110 time=11\n",
      "note_off channel=0 note=57 velocity=0 time=501\n",
      "note_on channel=0 note=62 velocity=110 time=11\n",
      "note_off channel=0 note=62 velocity=0 time=501\n",
      "note_on channel=0 note=72 velocity=110 time=11\n",
      "note_off channel=0 note=72 velocity=0 time=501\n",
      "note_on channel=0 note=71 velocity=110 time=11\n",
      "note_off channel=0 note=71 velocity=0 time=501\n",
      "note_on channel=0 note=67 velocity=110 time=11\n",
      "note_off channel=0 note=67 velocity=0 time=501\n",
      "note_on channel=0 note=62 velocity=110 time=11\n",
      "note_off channel=0 note=62 velocity=0 time=2816\n",
      "note_on channel=0 note=63 velocity=110 time=256\n",
      "note_on channel=0 note=67 velocity=110 time=0\n",
      "note_off channel=0 note=63 velocity=0 time=3840\n",
      "note_off channel=0 note=67 velocity=0 time=0\n",
      "note_on channel=0 note=65 velocity=110 time=256\n",
      "note_on channel=0 note=67 velocity=110 time=0\n",
      "note_off channel=0 note=65 velocity=0 time=3840\n",
      "note_off channel=0 note=67 velocity=0 time=0\n",
      "note_on channel=0 note=68 velocity=110 time=256\n",
      "note_on channel=0 note=72 velocity=110 time=0\n",
      "note_off channel=0 note=68 velocity=0 time=1792\n",
      "note_off channel=0 note=72 velocity=0 time=0\n",
      "note_on channel=0 note=79 velocity=110 time=256\n",
      "note_off channel=0 note=79 velocity=0 time=1792\n",
      "note_on channel=0 note=77 velocity=110 time=256\n",
      "note_off channel=0 note=77 velocity=0 time=853\n",
      "note_on channel=0 note=71 velocity=110 time=171\n",
      "note_on channel=0 note=74 velocity=110 time=0\n",
      "note_off channel=0 note=71 velocity=0 time=2816\n",
      "note_off channel=0 note=74 velocity=0 time=0\n",
      "note_on channel=0 note=68 velocity=110 time=256\n",
      "note_on channel=0 note=72 velocity=110 time=0\n",
      "note_off channel=0 note=68 velocity=0 time=1792\n",
      "note_off channel=0 note=72 velocity=0 time=0\n",
      "note_on channel=0 note=79 velocity=110 time=256\n",
      "note_off channel=0 note=79 velocity=0 time=1792\n",
      "note_on channel=0 note=77 velocity=110 time=256\n",
      "note_off channel=0 note=77 velocity=0 time=853\n",
      "note_on channel=0 note=74 velocity=110 time=171\n",
      "note_off channel=0 note=74 velocity=0 time=1792\n",
      "note_on channel=0 note=83 velocity=110 time=256\n",
      "note_off channel=0 note=83 velocity=0 time=853\n",
      "note_on channel=0 note=72 velocity=110 time=171\n",
      "note_off channel=0 note=72 velocity=0 time=1792\n",
      "note_on channel=0 note=67 velocity=110 time=256\n",
      "note_on channel=0 note=79 velocity=110 time=0\n",
      "note_off channel=0 note=67 velocity=0 time=1792\n",
      "note_off channel=0 note=79 velocity=0 time=0\n",
      "note_on channel=0 note=67 velocity=110 time=256\n",
      "note_on channel=0 note=77 velocity=110 time=0\n",
      "note_off channel=0 note=67 velocity=0 time=1792\n",
      "note_off channel=0 note=77 velocity=0 time=0\n",
      "note_on channel=0 note=67 velocity=110 time=256\n",
      "note_on channel=0 note=74 velocity=110 time=0\n",
      "note_off channel=0 note=67 velocity=0 time=1792\n",
      "note_off channel=0 note=74 velocity=0 time=0\n",
      "note_on channel=0 note=68 velocity=110 time=256\n",
      "note_on channel=0 note=75 velocity=110 time=0\n",
      "note_off channel=0 note=68 velocity=0 time=5888\n",
      "note_off channel=0 note=75 velocity=0 time=0\n",
      "note_on channel=0 note=72 velocity=110 time=256\n",
      "note_off channel=0 note=72 velocity=0 time=1792\n",
      "note_on channel=0 note=74 velocity=110 time=256\n",
      "note_off channel=0 note=74 velocity=0 time=7936\n",
      "note_on channel=0 note=68 velocity=110 time=256\n",
      "note_on channel=0 note=75 velocity=110 time=0\n",
      "note_off channel=0 note=68 velocity=0 time=3840\n",
      "note_off channel=0 note=75 velocity=0 time=0\n",
      "note_on channel=0 note=80 velocity=110 time=256\n",
      "note_off channel=0 note=80 velocity=0 time=1792\n",
      "note_on channel=0 note=75 velocity=110 time=256\n",
      "note_off channel=0 note=75 velocity=0 time=1792\n",
      "note_on channel=0 note=67 velocity=110 time=256\n",
      "note_on channel=0 note=74 velocity=110 time=0\n",
      "note_off channel=0 note=67 velocity=0 time=3840\n",
      "note_off channel=0 note=74 velocity=0 time=0\n",
      "note_on channel=0 note=79 velocity=110 time=256\n",
      "note_off channel=0 note=79 velocity=0 time=2549\n",
      "note_on channel=0 note=67 velocity=110 time=11\n",
      "note_off channel=0 note=67 velocity=0 time=117\n",
      "note_on channel=0 note=65 velocity=110 time=11\n",
      "note_off channel=0 note=65 velocity=0 time=117\n",
      "note_on channel=0 note=64 velocity=110 time=11\n",
      "note_off channel=0 note=64 velocity=0 time=117\n",
      "note_on channel=0 note=62 velocity=110 time=11\n",
      "note_off channel=0 note=62 velocity=0 time=117\n",
      "note_on channel=0 note=67 velocity=110 time=11\n",
      "note_off channel=0 note=67 velocity=0 time=117\n",
      "note_on channel=0 note=65 velocity=110 time=11\n",
      "note_off channel=0 note=65 velocity=0 time=117\n",
      "note_on channel=0 note=64 velocity=110 time=11\n",
      "note_off channel=0 note=64 velocity=0 time=117\n",
      "note_on channel=0 note=62 velocity=110 time=11\n",
      "note_off channel=0 note=62 velocity=0 time=117\n",
      "note_on channel=0 note=67 velocity=110 time=11\n",
      "note_off channel=0 note=67 velocity=0 time=117\n",
      "note_on channel=0 note=65 velocity=110 time=11\n",
      "note_off channel=0 note=65 velocity=0 time=117\n",
      "note_on channel=0 note=64 velocity=110 time=11\n",
      "note_off channel=0 note=64 velocity=0 time=117\n",
      "note_on channel=0 note=74 velocity=110 time=16523\n",
      "note_on channel=0 note=81 velocity=110 time=0\n",
      "note_off channel=0 note=74 velocity=0 time=1365\n",
      "note_off channel=0 note=81 velocity=0 time=0\n",
      "note_on channel=0 note=73 velocity=110 time=171\n",
      "note_on channel=0 note=80 velocity=110 time=0\n",
      "note_off channel=0 note=73 velocity=0 time=2304\n",
      "note_off channel=0 note=80 velocity=0 time=0\n",
      "note_on channel=0 note=72 velocity=110 time=256\n",
      "note_on channel=0 note=79 velocity=110 time=0\n",
      "note_off channel=0 note=72 velocity=0 time=1365\n",
      "note_off channel=0 note=79 velocity=0 time=0\n",
      "note_on channel=0 note=69 velocity=110 time=171\n",
      "note_on channel=0 note=77 velocity=110 time=0\n",
      "note_off channel=0 note=69 velocity=0 time=2304\n",
      "note_off channel=0 note=77 velocity=0 time=0\n",
      "note_on channel=0 note=74 velocity=110 time=256\n",
      "note_on channel=0 note=81 velocity=110 time=0\n",
      "note_off channel=0 note=74 velocity=0 time=1365\n",
      "note_off channel=0 note=81 velocity=0 time=0\n",
      "note_on channel=0 note=73 velocity=110 time=171\n",
      "note_on channel=0 note=80 velocity=110 time=0\n",
      "note_off channel=0 note=73 velocity=0 time=1013\n",
      "note_off channel=0 note=80 velocity=0 time=0\n",
      "note_on channel=0 note=72 velocity=110 time=11\n",
      "note_on channel=0 note=79 velocity=110 time=0\n",
      "note_off channel=0 note=72 velocity=0 time=1013\n",
      "note_off channel=0 note=79 velocity=0 time=0\n",
      "note_on channel=0 note=69 velocity=110 time=11\n",
      "note_on channel=0 note=77 velocity=110 time=0\n",
      "note_off channel=0 note=69 velocity=0 time=1013\n",
      "note_off channel=0 note=77 velocity=0 time=0\n",
      "note_on channel=0 note=69 velocity=110 time=11\n",
      "note_on channel=0 note=74 velocity=110 time=0\n",
      "note_off channel=0 note=69 velocity=0 time=3328\n",
      "note_off channel=0 note=74 velocity=0 time=0\n",
      "note_on channel=0 note=74 velocity=110 time=256\n",
      "note_on channel=0 note=81 velocity=110 time=0\n",
      "note_off channel=0 note=74 velocity=0 time=1365\n",
      "note_off channel=0 note=81 velocity=0 time=0\n",
      "note_on channel=0 note=73 velocity=110 time=171\n",
      "note_on channel=0 note=80 velocity=110 time=0\n",
      "note_off channel=0 note=73 velocity=0 time=2304\n",
      "note_off channel=0 note=80 velocity=0 time=0\n",
      "note_on channel=0 note=72 velocity=110 time=256\n",
      "note_on channel=0 note=79 velocity=110 time=0\n",
      "note_off channel=0 note=72 velocity=0 time=1365\n",
      "note_off channel=0 note=79 velocity=0 time=0\n",
      "note_on channel=0 note=69 velocity=110 time=171\n",
      "note_on channel=0 note=77 velocity=110 time=0\n",
      "note_off channel=0 note=69 velocity=0 time=2304\n",
      "note_off channel=0 note=77 velocity=0 time=0\n",
      "note_on channel=0 note=74 velocity=110 time=256\n",
      "note_on channel=0 note=81 velocity=110 time=0\n",
      "note_off channel=0 note=74 velocity=0 time=1365\n",
      "note_off channel=0 note=81 velocity=0 time=0\n",
      "note_on channel=0 note=73 velocity=110 time=171\n",
      "note_on channel=0 note=80 velocity=110 time=0\n",
      "note_off channel=0 note=73 velocity=0 time=1013\n",
      "note_off channel=0 note=80 velocity=0 time=0\n",
      "note_on channel=0 note=72 velocity=110 time=11\n",
      "note_on channel=0 note=79 velocity=110 time=0\n",
      "note_off channel=0 note=72 velocity=0 time=1013\n",
      "note_off channel=0 note=79 velocity=0 time=0\n",
      "note_on channel=0 note=69 velocity=110 time=11\n",
      "note_on channel=0 note=77 velocity=110 time=0\n",
      "note_off channel=0 note=69 velocity=0 time=1013\n",
      "note_off channel=0 note=77 velocity=0 time=0\n",
      "note_on channel=0 note=69 velocity=110 time=11\n",
      "note_on channel=0 note=74 velocity=110 time=0\n",
      "note_off channel=0 note=69 velocity=0 time=3328\n",
      "note_off channel=0 note=74 velocity=0 time=0\n",
      "note_on channel=0 note=69 velocity=110 time=256\n",
      "note_on channel=0 note=74 velocity=110 time=0\n",
      "note_off channel=0 note=69 velocity=0 time=1365\n",
      "note_off channel=0 note=74 velocity=0 time=0\n",
      "note_on channel=0 note=69 velocity=110 time=171\n",
      "note_on channel=0 note=73 velocity=110 time=0\n",
      "note_off channel=0 note=69 velocity=0 time=2304\n",
      "note_off channel=0 note=73 velocity=0 time=0\n",
      "note_on channel=0 note=69 velocity=110 time=256\n",
      "note_on channel=0 note=72 velocity=110 time=0\n",
      "note_off channel=0 note=69 velocity=0 time=1365\n",
      "note_off channel=0 note=72 velocity=0 time=0\n",
      "note_on channel=0 note=68 velocity=110 time=171\n",
      "note_on channel=0 note=71 velocity=110 time=0\n",
      "note_off channel=0 note=68 velocity=0 time=2304\n",
      "note_off channel=0 note=71 velocity=0 time=0\n",
      "note_on channel=0 note=69 velocity=110 time=256\n",
      "note_on channel=0 note=74 velocity=110 time=0\n",
      "note_off channel=0 note=69 velocity=0 time=1365\n",
      "note_off channel=0 note=74 velocity=0 time=0\n",
      "note_on channel=0 note=69 velocity=110 time=171\n",
      "note_on channel=0 note=73 velocity=110 time=0\n",
      "note_off channel=0 note=69 velocity=0 time=2304\n",
      "note_off channel=0 note=73 velocity=0 time=0\n",
      "note_on channel=0 note=69 velocity=110 time=256\n",
      "note_on channel=0 note=72 velocity=110 time=0\n",
      "note_off channel=0 note=69 velocity=0 time=1365\n",
      "note_off channel=0 note=72 velocity=0 time=0\n",
      "note_on channel=0 note=68 velocity=110 time=171\n",
      "note_on channel=0 note=71 velocity=110 time=0\n",
      "note_off channel=0 note=68 velocity=0 time=2304\n",
      "note_off channel=0 note=71 velocity=0 time=0\n",
      "note_on channel=0 note=69 velocity=110 time=256\n",
      "note_on channel=0 note=74 velocity=110 time=0\n",
      "note_off channel=0 note=69 velocity=0 time=1365\n",
      "note_off channel=0 note=74 velocity=0 time=0\n",
      "note_on channel=0 note=69 velocity=110 time=171\n",
      "note_on channel=0 note=73 velocity=110 time=0\n",
      "note_off channel=0 note=69 velocity=0 time=2304\n",
      "note_off channel=0 note=73 velocity=0 time=0\n",
      "note_on channel=0 note=69 velocity=110 time=256\n",
      "note_on channel=0 note=74 velocity=110 time=0\n",
      "note_off channel=0 note=69 velocity=0 time=1365\n",
      "note_off channel=0 note=74 velocity=0 time=0\n",
      "note_on channel=0 note=68 velocity=110 time=171\n",
      "note_on channel=0 note=73 velocity=110 time=0\n",
      "note_off channel=0 note=68 velocity=0 time=2304\n",
      "note_off channel=0 note=73 velocity=0 time=0\n",
      "note_on channel=0 note=69 velocity=110 time=256\n",
      "note_on channel=0 note=74 velocity=110 time=0\n",
      "note_off channel=0 note=69 velocity=0 time=1365\n",
      "note_off channel=0 note=74 velocity=0 time=0\n",
      "note_on channel=0 note=69 velocity=110 time=171\n",
      "note_on channel=0 note=73 velocity=110 time=0\n",
      "note_off channel=0 note=69 velocity=0 time=2304\n",
      "note_off channel=0 note=73 velocity=0 time=0\n",
      "note_on channel=0 note=69 velocity=110 time=256\n",
      "note_on channel=0 note=72 velocity=110 time=0\n",
      "note_off channel=0 note=69 velocity=0 time=1365\n",
      "note_off channel=0 note=72 velocity=0 time=0\n",
      "note_on channel=0 note=68 velocity=110 time=171\n",
      "note_on channel=0 note=71 velocity=110 time=0\n",
      "note_off channel=0 note=68 velocity=0 time=2304\n",
      "note_off channel=0 note=71 velocity=0 time=0\n",
      "note_on channel=0 note=72 velocity=110 time=32512\n",
      "note_off channel=0 note=72 velocity=0 time=1013\n",
      "note_on channel=0 note=72 velocity=110 time=11\n",
      "note_off channel=0 note=72 velocity=0 time=501\n",
      "note_on channel=0 note=69 velocity=110 time=11\n",
      "note_off channel=0 note=69 velocity=0 time=501\n",
      "note_on channel=0 note=69 velocity=110 time=11\n",
      "note_off channel=0 note=69 velocity=0 time=501\n",
      "note_on channel=0 note=70 velocity=110 time=11\n",
      "note_off channel=0 note=70 velocity=0 time=501\n",
      "note_on channel=0 note=70 velocity=110 time=11\n",
      "note_off channel=0 note=70 velocity=0 time=501\n",
      "note_on channel=0 note=72 velocity=110 time=8715\n",
      "note_off channel=0 note=72 velocity=0 time=1013\n",
      "note_on channel=0 note=72 velocity=110 time=11\n",
      "note_off channel=0 note=72 velocity=0 time=501\n",
      "note_on channel=0 note=69 velocity=110 time=11\n",
      "note_off channel=0 note=69 velocity=0 time=501\n",
      "note_on channel=0 note=69 velocity=110 time=11\n",
      "note_off channel=0 note=69 velocity=0 time=501\n",
      "note_on channel=0 note=70 velocity=110 time=11\n",
      "note_off channel=0 note=70 velocity=0 time=501\n",
      "note_on channel=0 note=70 velocity=110 time=11\n",
      "note_off channel=0 note=70 velocity=0 time=501\n",
      "note_on channel=0 note=65 velocity=110 time=4619\n",
      "note_off channel=0 note=65 velocity=0 time=1013\n",
      "note_on channel=0 note=65 velocity=110 time=11\n",
      "note_off channel=0 note=65 velocity=0 time=501\n",
      "note_on channel=0 note=62 velocity=110 time=11\n",
      "note_off channel=0 note=62 velocity=0 time=501\n",
      "note_on channel=0 note=62 velocity=110 time=11\n",
      "note_off channel=0 note=62 velocity=0 time=501\n",
      "note_on channel=0 note=63 velocity=110 time=11\n",
      "note_off channel=0 note=63 velocity=0 time=501\n",
      "note_on channel=0 note=63 velocity=110 time=11\n",
      "note_off channel=0 note=63 velocity=0 time=501\n",
      "note_on channel=0 note=65 velocity=110 time=4619\n",
      "note_off channel=0 note=65 velocity=0 time=1013\n",
      "note_on channel=0 note=65 velocity=110 time=11\n",
      "note_off channel=0 note=65 velocity=0 time=501\n",
      "note_on channel=0 note=62 velocity=110 time=11\n",
      "note_off channel=0 note=62 velocity=0 time=501\n",
      "note_on channel=0 note=62 velocity=110 time=11\n",
      "note_off channel=0 note=62 velocity=0 time=501\n",
      "note_on channel=0 note=63 velocity=110 time=11\n",
      "note_off channel=0 note=63 velocity=0 time=501\n",
      "note_on channel=0 note=63 velocity=110 time=11\n",
      "note_off channel=0 note=63 velocity=0 time=501\n",
      "note_on channel=0 note=60 velocity=110 time=9227\n",
      "note_off channel=0 note=60 velocity=0 time=501\n",
      "note_on channel=0 note=72 velocity=110 time=11\n",
      "note_off channel=0 note=72 velocity=0 time=501\n",
      "note_on channel=0 note=57 velocity=110 time=11\n",
      "note_off channel=0 note=57 velocity=0 time=501\n",
      "note_on channel=0 note=69 velocity=110 time=11\n",
      "note_off channel=0 note=69 velocity=0 time=501\n",
      "note_on channel=0 note=58 velocity=110 time=11\n",
      "note_off channel=0 note=58 velocity=0 time=501\n",
      "note_on channel=0 note=70 velocity=110 time=11\n",
      "note_off channel=0 note=70 velocity=0 time=501\n",
      "note_on channel=0 note=60 velocity=110 time=5131\n",
      "note_off channel=0 note=60 velocity=0 time=501\n",
      "note_on channel=0 note=72 velocity=110 time=11\n",
      "note_off channel=0 note=72 velocity=0 time=501\n",
      "note_on channel=0 note=57 velocity=110 time=11\n",
      "note_off channel=0 note=57 velocity=0 time=501\n",
      "note_on channel=0 note=69 velocity=110 time=11\n",
      "note_off channel=0 note=69 velocity=0 time=501\n",
      "note_on channel=0 note=58 velocity=110 time=11\n",
      "note_off channel=0 note=58 velocity=0 time=501\n",
      "note_on channel=0 note=70 velocity=110 time=11\n",
      "note_off channel=0 note=70 velocity=0 time=501\n",
      "note_on channel=0 note=53 velocity=110 time=5131\n",
      "note_off channel=0 note=53 velocity=0 time=501\n",
      "note_on channel=0 note=65 velocity=110 time=11\n",
      "note_off channel=0 note=65 velocity=0 time=501\n",
      "note_on channel=0 note=50 velocity=110 time=11\n",
      "note_off channel=0 note=50 velocity=0 time=501\n",
      "note_on channel=0 note=62 velocity=110 time=11\n",
      "note_off channel=0 note=62 velocity=0 time=501\n",
      "note_on channel=0 note=51 velocity=110 time=11\n",
      "note_off channel=0 note=51 velocity=0 time=501\n",
      "note_on channel=0 note=63 velocity=110 time=11\n",
      "note_off channel=0 note=63 velocity=0 time=501\n",
      "note_on channel=0 note=53 velocity=110 time=5131\n",
      "note_off channel=0 note=53 velocity=0 time=501\n",
      "note_on channel=0 note=65 velocity=110 time=11\n",
      "note_off channel=0 note=65 velocity=0 time=501\n",
      "note_on channel=0 note=50 velocity=110 time=11\n",
      "note_off channel=0 note=50 velocity=0 time=501\n",
      "note_on channel=0 note=62 velocity=110 time=11\n",
      "note_off channel=0 note=62 velocity=0 time=501\n",
      "note_on channel=0 note=51 velocity=110 time=11\n",
      "note_off channel=0 note=51 velocity=0 time=501\n",
      "note_on channel=0 note=63 velocity=110 time=11\n",
      "note_off channel=0 note=63 velocity=0 time=501\n",
      "note_on channel=0 note=63 velocity=110 time=4363\n",
      "note_off channel=0 note=63 velocity=0 time=245\n",
      "note_on channel=0 note=62 velocity=110 time=11\n",
      "note_off channel=0 note=62 velocity=0 time=245\n",
      "note_on channel=0 note=61 velocity=110 time=11\n",
      "note_off channel=0 note=61 velocity=0 time=245\n",
      "note_on channel=0 note=60 velocity=110 time=11\n",
      "note_off channel=0 note=60 velocity=0 time=853\n",
      "note_on channel=0 note=63 velocity=110 time=171\n",
      "note_off channel=0 note=63 velocity=0 time=853\n",
      "note_on channel=0 note=62 velocity=110 time=171\n",
      "note_off channel=0 note=62 velocity=0 time=853\n",
      "note_on channel=0 note=56 velocity=110 time=171\n",
      "note_off channel=0 note=56 velocity=0 time=853\n",
      "note_on channel=0 note=55 velocity=110 time=171\n",
      "note_off channel=0 note=55 velocity=0 time=853\n",
      "note_on channel=0 note=61 velocity=110 time=171\n",
      "note_off channel=0 note=61 velocity=0 time=853\n",
      "note_on channel=0 note=60 velocity=110 time=171\n",
      "note_off channel=0 note=60 velocity=0 time=373\n",
      "note_on channel=0 note=66 velocity=110 time=11\n",
      "note_off channel=0 note=66 velocity=0 time=373\n",
      "note_on channel=0 note=65 velocity=110 time=11\n",
      "note_off channel=0 note=65 velocity=0 time=245\n",
      "note_on channel=0 note=64 velocity=110 time=11\n",
      "note_off channel=0 note=64 velocity=0 time=373\n",
      "note_on channel=0 note=71 velocity=110 time=11\n",
      "note_off channel=0 note=71 velocity=0 time=373\n",
      "note_on channel=0 note=70 velocity=110 time=11\n",
      "note_off channel=0 note=70 velocity=0 time=245\n",
      "note_on channel=0 note=69 velocity=110 time=11\n",
      "note_off channel=0 note=69 velocity=0 time=757\n",
      "note_on channel=0 note=63 velocity=110 time=11\n",
      "note_off channel=0 note=63 velocity=0 time=245\n",
      "note_on channel=0 note=59 velocity=110 time=267\n",
      "note_off channel=0 note=59 velocity=0 time=757\n",
      "note_on channel=0 note=58 velocity=110 time=11\n",
      "note_off channel=0 note=58 velocity=0 time=757\n",
      "note_on channel=0 note=57 velocity=110 time=11\n",
      "note_off channel=0 note=57 velocity=0 time=245\n",
      "note_on channel=0 note=56 velocity=110 time=523\n",
      "note_off channel=0 note=56 velocity=0 time=501\n",
      "note_on channel=0 note=60 velocity=110 time=4107\n",
      "note_off channel=0 note=60 velocity=0 time=501\n",
      "note_on channel=0 note=72 velocity=110 time=11\n",
      "note_off channel=0 note=72 velocity=0 time=501\n",
      "note_on channel=0 note=57 velocity=110 time=11\n",
      "note_off channel=0 note=57 velocity=0 time=501\n",
      "note_on channel=0 note=69 velocity=110 time=11\n",
      "note_off channel=0 note=69 velocity=0 time=501\n",
      "note_on channel=0 note=58 velocity=110 time=11\n",
      "note_off channel=0 note=58 velocity=0 time=501\n",
      "note_on channel=0 note=70 velocity=110 time=11\n",
      "note_off channel=0 note=70 velocity=0 time=501\n",
      "note_on channel=0 note=60 velocity=110 time=5131\n",
      "note_off channel=0 note=60 velocity=0 time=501\n",
      "note_on channel=0 note=72 velocity=110 time=11\n",
      "note_off channel=0 note=72 velocity=0 time=501\n",
      "note_on channel=0 note=57 velocity=110 time=11\n",
      "note_off channel=0 note=57 velocity=0 time=501\n",
      "note_on channel=0 note=69 velocity=110 time=11\n",
      "note_off channel=0 note=69 velocity=0 time=501\n",
      "note_on channel=0 note=58 velocity=110 time=11\n",
      "note_off channel=0 note=58 velocity=0 time=501\n",
      "note_on channel=0 note=70 velocity=110 time=11\n",
      "note_off channel=0 note=70 velocity=0 time=501\n",
      "note_on channel=0 note=53 velocity=110 time=5131\n",
      "note_off channel=0 note=53 velocity=0 time=501\n",
      "note_on channel=0 note=65 velocity=110 time=11\n",
      "note_off channel=0 note=65 velocity=0 time=501\n",
      "note_on channel=0 note=50 velocity=110 time=11\n",
      "note_off channel=0 note=50 velocity=0 time=501\n",
      "note_on channel=0 note=62 velocity=110 time=11\n",
      "note_off channel=0 note=62 velocity=0 time=501\n",
      "note_on channel=0 note=51 velocity=110 time=11\n",
      "note_off channel=0 note=51 velocity=0 time=501\n",
      "note_on channel=0 note=63 velocity=110 time=11\n",
      "note_off channel=0 note=63 velocity=0 time=501\n",
      "note_on channel=0 note=53 velocity=110 time=5131\n",
      "note_off channel=0 note=53 velocity=0 time=501\n",
      "note_on channel=0 note=65 velocity=110 time=11\n",
      "note_off channel=0 note=65 velocity=0 time=501\n",
      "note_on channel=0 note=50 velocity=110 time=11\n",
      "note_off channel=0 note=50 velocity=0 time=501\n",
      "note_on channel=0 note=62 velocity=110 time=11\n",
      "note_off channel=0 note=62 velocity=0 time=501\n",
      "note_on channel=0 note=51 velocity=110 time=11\n",
      "note_off channel=0 note=51 velocity=0 time=501\n",
      "note_on channel=0 note=63 velocity=110 time=11\n",
      "note_off channel=0 note=63 velocity=0 time=501\n",
      "note_on channel=0 note=63 velocity=110 time=4363\n",
      "note_off channel=0 note=63 velocity=0 time=245\n",
      "note_on channel=0 note=62 velocity=110 time=11\n",
      "note_off channel=0 note=62 velocity=0 time=245\n",
      "note_on channel=0 note=61 velocity=110 time=11\n",
      "note_off channel=0 note=61 velocity=0 time=245\n",
      "note_on channel=0 note=60 velocity=110 time=11\n",
      "note_off channel=0 note=60 velocity=0 time=853\n",
      "note_on channel=0 note=63 velocity=110 time=171\n",
      "note_off channel=0 note=63 velocity=0 time=853\n",
      "note_on channel=0 note=62 velocity=110 time=171\n",
      "note_off channel=0 note=62 velocity=0 time=853\n",
      "note_on channel=0 note=56 velocity=110 time=171\n",
      "note_off channel=0 note=56 velocity=0 time=853\n",
      "note_on channel=0 note=55 velocity=110 time=171\n",
      "note_off channel=0 note=55 velocity=0 time=853\n",
      "note_on channel=0 note=61 velocity=110 time=171\n",
      "note_off channel=0 note=61 velocity=0 time=853\n",
      "note_on channel=0 note=60 velocity=110 time=171\n",
      "note_off channel=0 note=60 velocity=0 time=373\n",
      "note_on channel=0 note=66 velocity=110 time=11\n",
      "note_off channel=0 note=66 velocity=0 time=373\n",
      "note_on channel=0 note=65 velocity=110 time=11\n",
      "note_off channel=0 note=65 velocity=0 time=245\n",
      "note_on channel=0 note=64 velocity=110 time=11\n",
      "note_off channel=0 note=64 velocity=0 time=373\n",
      "note_on channel=0 note=71 velocity=110 time=11\n",
      "note_off channel=0 note=71 velocity=0 time=373\n",
      "note_on channel=0 note=70 velocity=110 time=11\n",
      "note_off channel=0 note=70 velocity=0 time=245\n",
      "note_on channel=0 note=69 velocity=110 time=11\n",
      "note_off channel=0 note=69 velocity=0 time=757\n",
      "note_on channel=0 note=63 velocity=110 time=11\n",
      "note_off channel=0 note=63 velocity=0 time=245\n",
      "note_on channel=0 note=59 velocity=110 time=267\n",
      "note_off channel=0 note=59 velocity=0 time=757\n",
      "note_on channel=0 note=58 velocity=110 time=11\n",
      "note_off channel=0 note=58 velocity=0 time=757\n",
      "note_on channel=0 note=57 velocity=110 time=11\n",
      "note_off channel=0 note=57 velocity=0 time=245\n",
      "note_on channel=0 note=56 velocity=110 time=523\n",
      "note_off channel=0 note=56 velocity=0 time=501\n",
      "note_on channel=0 note=72 velocity=110 time=4107\n",
      "note_on channel=0 note=76 velocity=110 time=0\n",
      "note_on channel=0 note=79 velocity=110 time=0\n",
      "note_off channel=0 note=72 velocity=0 time=853\n",
      "note_off channel=0 note=76 velocity=0 time=0\n",
      "note_off channel=0 note=79 velocity=0 time=0\n",
      "note_on channel=0 note=72 velocity=110 time=683\n",
      "note_on channel=0 note=77 velocity=110 time=0\n",
      "note_on channel=0 note=81 velocity=110 time=0\n",
      "note_off channel=0 note=72 velocity=0 time=501\n",
      "note_off channel=0 note=77 velocity=0 time=0\n",
      "note_off channel=0 note=81 velocity=0 time=0\n",
      "note_on channel=0 note=72 velocity=110 time=523\n",
      "note_on channel=0 note=76 velocity=110 time=0\n",
      "note_on channel=0 note=79 velocity=110 time=0\n",
      "note_off channel=0 note=72 velocity=0 time=501\n",
      "note_off channel=0 note=76 velocity=0 time=0\n",
      "note_off channel=0 note=79 velocity=0 time=0\n",
      "note_on channel=0 note=72 velocity=110 time=523\n",
      "note_on channel=0 note=75 velocity=110 time=0\n",
      "note_on channel=0 note=78 velocity=110 time=0\n",
      "note_off channel=0 note=72 velocity=0 time=501\n",
      "note_off channel=0 note=75 velocity=0 time=0\n",
      "note_off channel=0 note=78 velocity=0 time=0\n",
      "note_on channel=0 note=72 velocity=110 time=11\n",
      "note_on channel=0 note=76 velocity=110 time=0\n",
      "note_on channel=0 note=79 velocity=110 time=0\n",
      "note_off channel=0 note=72 velocity=0 time=501\n",
      "note_off channel=0 note=76 velocity=0 time=0\n",
      "note_off channel=0 note=79 velocity=0 time=0\n",
      "note_on channel=0 note=76 velocity=110 time=11\n",
      "note_on channel=0 note=79 velocity=110 time=0\n",
      "note_on channel=0 note=84 velocity=110 time=0\n",
      "note_off channel=0 note=76 velocity=0 time=501\n",
      "note_off channel=0 note=79 velocity=0 time=0\n",
      "note_off channel=0 note=84 velocity=0 time=0\n",
      "note_on channel=0 note=79 velocity=110 time=11\n",
      "note_on channel=0 note=84 velocity=110 time=0\n",
      "note_on channel=0 note=88 velocity=110 time=0\n",
      "note_off channel=0 note=79 velocity=0 time=853\n",
      "note_off channel=0 note=84 velocity=0 time=0\n",
      "note_off channel=0 note=88 velocity=0 time=0\n",
      "note_on channel=0 note=67 velocity=110 time=1195\n",
      "note_off channel=0 note=67 velocity=0 time=501\n",
      "note_on channel=0 note=72 velocity=110 time=11\n",
      "note_off channel=0 note=72 velocity=0 time=501\n",
      "note_on channel=0 note=71 velocity=110 time=11\n",
      "note_on channel=0 note=74 velocity=110 time=0\n",
      "note_on channel=0 note=77 velocity=110 time=0\n",
      "note_off channel=0 note=71 velocity=0 time=853\n",
      "note_off channel=0 note=74 velocity=0 time=0\n",
      "note_off channel=0 note=77 velocity=0 time=0\n",
      "note_on channel=0 note=71 velocity=110 time=683\n",
      "note_on channel=0 note=76 velocity=110 time=0\n",
      "note_on channel=0 note=79 velocity=110 time=0\n",
      "note_off channel=0 note=71 velocity=0 time=501\n",
      "note_off channel=0 note=76 velocity=0 time=0\n",
      "note_off channel=0 note=79 velocity=0 time=0\n",
      "note_on channel=0 note=71 velocity=110 time=523\n",
      "note_on channel=0 note=74 velocity=110 time=0\n",
      "note_on channel=0 note=77 velocity=110 time=0\n",
      "note_off channel=0 note=71 velocity=0 time=501\n",
      "note_off channel=0 note=74 velocity=0 time=0\n",
      "note_off channel=0 note=77 velocity=0 time=0\n",
      "note_on channel=0 note=70 velocity=110 time=523\n",
      "note_on channel=0 note=73 velocity=110 time=0\n",
      "note_on channel=0 note=76 velocity=110 time=0\n",
      "note_off channel=0 note=70 velocity=0 time=501\n",
      "note_off channel=0 note=73 velocity=0 time=0\n",
      "note_off channel=0 note=76 velocity=0 time=0\n",
      "note_on channel=0 note=71 velocity=110 time=11\n",
      "note_on channel=0 note=74 velocity=110 time=0\n",
      "note_on channel=0 note=77 velocity=110 time=0\n",
      "note_off channel=0 note=71 velocity=0 time=501\n",
      "note_off channel=0 note=74 velocity=0 time=0\n",
      "note_off channel=0 note=77 velocity=0 time=0\n",
      "note_on channel=0 note=74 velocity=110 time=11\n",
      "note_on channel=0 note=79 velocity=110 time=0\n",
      "note_on channel=0 note=83 velocity=110 time=0\n",
      "note_off channel=0 note=74 velocity=0 time=501\n",
      "note_off channel=0 note=79 velocity=0 time=0\n",
      "note_off channel=0 note=83 velocity=0 time=0\n",
      "note_on channel=0 note=79 velocity=110 time=11\n",
      "note_on channel=0 note=83 velocity=110 time=0\n",
      "note_on channel=0 note=86 velocity=110 time=0\n",
      "note_off channel=0 note=79 velocity=0 time=853\n",
      "note_off channel=0 note=83 velocity=0 time=0\n",
      "note_off channel=0 note=86 velocity=0 time=0\n",
      "note_on channel=0 note=67 velocity=110 time=1195\n",
      "note_off channel=0 note=67 velocity=0 time=501\n",
      "note_on channel=0 note=71 velocity=110 time=11\n",
      "note_off channel=0 note=71 velocity=0 time=501\n",
      "note_on channel=0 note=69 velocity=110 time=11\n",
      "note_on channel=0 note=72 velocity=110 time=0\n",
      "note_on channel=0 note=76 velocity=110 time=0\n",
      "note_off channel=0 note=69 velocity=0 time=853\n",
      "note_off channel=0 note=72 velocity=0 time=0\n",
      "note_off channel=0 note=76 velocity=0 time=0\n",
      "note_on channel=0 note=69 velocity=110 time=683\n",
      "note_on channel=0 note=74 velocity=110 time=0\n",
      "note_on channel=0 note=77 velocity=110 time=0\n",
      "note_off channel=0 note=69 velocity=0 time=501\n",
      "note_off channel=0 note=74 velocity=0 time=0\n",
      "note_off channel=0 note=77 velocity=0 time=0\n",
      "note_on channel=0 note=69 velocity=110 time=523\n",
      "note_on channel=0 note=72 velocity=110 time=0\n",
      "note_on channel=0 note=76 velocity=110 time=0\n",
      "note_off channel=0 note=69 velocity=0 time=501\n",
      "note_off channel=0 note=72 velocity=0 time=0\n",
      "note_off channel=0 note=76 velocity=0 time=0\n",
      "note_on channel=0 note=68 velocity=110 time=523\n",
      "note_on channel=0 note=71 velocity=110 time=0\n",
      "note_on channel=0 note=75 velocity=110 time=0\n",
      "note_off channel=0 note=68 velocity=0 time=501\n",
      "note_off channel=0 note=71 velocity=0 time=0\n",
      "note_off channel=0 note=75 velocity=0 time=0\n",
      "note_on channel=0 note=69 velocity=110 time=11\n",
      "note_on channel=0 note=72 velocity=110 time=0\n",
      "note_on channel=0 note=76 velocity=110 time=0\n",
      "note_off channel=0 note=69 velocity=0 time=501\n",
      "note_off channel=0 note=72 velocity=0 time=0\n",
      "note_off channel=0 note=76 velocity=0 time=0\n",
      "note_on channel=0 note=72 velocity=110 time=11\n",
      "note_on channel=0 note=76 velocity=110 time=0\n",
      "note_on channel=0 note=81 velocity=110 time=0\n",
      "note_off channel=0 note=72 velocity=0 time=501\n",
      "note_off channel=0 note=76 velocity=0 time=0\n",
      "note_off channel=0 note=81 velocity=0 time=0\n",
      "note_on channel=0 note=76 velocity=110 time=11\n",
      "note_on channel=0 note=81 velocity=110 time=0\n",
      "note_on channel=0 note=84 velocity=110 time=0\n",
      "note_off channel=0 note=76 velocity=0 time=853\n",
      "note_off channel=0 note=81 velocity=0 time=0\n",
      "note_off channel=0 note=84 velocity=0 time=0\n",
      "note_on channel=0 note=72 velocity=110 time=683\n",
      "note_on channel=0 note=76 velocity=110 time=0\n",
      "note_on channel=0 note=81 velocity=110 time=0\n",
      "note_off channel=0 note=72 velocity=0 time=501\n",
      "note_off channel=0 note=76 velocity=0 time=0\n",
      "note_off channel=0 note=81 velocity=0 time=0\n",
      "note_on channel=0 note=74 velocity=110 time=11\n",
      "note_on channel=0 note=78 velocity=110 time=0\n",
      "note_on channel=0 note=83 velocity=110 time=0\n",
      "note_off channel=0 note=74 velocity=0 time=501\n",
      "note_off channel=0 note=78 velocity=0 time=0\n",
      "note_off channel=0 note=83 velocity=0 time=0\n",
      "note_on channel=0 note=69 velocity=110 time=11\n",
      "note_on channel=0 note=76 velocity=110 time=0\n",
      "note_on channel=0 note=81 velocity=110 time=0\n",
      "note_on channel=0 note=84 velocity=110 time=0\n",
      "note_off channel=0 note=69 velocity=0 time=501\n",
      "note_off channel=0 note=76 velocity=0 time=0\n",
      "note_off channel=0 note=81 velocity=0 time=0\n",
      "note_off channel=0 note=84 velocity=0 time=0\n",
      "note_on channel=0 note=78 velocity=110 time=11\n",
      "note_on channel=0 note=83 velocity=110 time=0\n",
      "note_on channel=0 note=86 velocity=110 time=0\n",
      "note_off channel=0 note=78 velocity=0 time=501\n",
      "note_off channel=0 note=83 velocity=0 time=0\n",
      "note_off channel=0 note=86 velocity=0 time=0\n",
      "note_on channel=0 note=78 velocity=110 time=11\n",
      "note_on channel=0 note=81 velocity=110 time=0\n",
      "note_on channel=0 note=84 velocity=110 time=0\n",
      "note_off channel=0 note=78 velocity=0 time=501\n",
      "note_off channel=0 note=81 velocity=0 time=0\n",
      "note_off channel=0 note=84 velocity=0 time=0\n",
      "note_on channel=0 note=78 velocity=110 time=11\n",
      "note_on channel=0 note=83 velocity=110 time=0\n",
      "note_on channel=0 note=86 velocity=110 time=0\n",
      "note_off channel=0 note=78 velocity=0 time=501\n",
      "note_off channel=0 note=83 velocity=0 time=0\n",
      "note_off channel=0 note=86 velocity=0 time=0\n",
      "note_on channel=0 note=78 velocity=110 time=11\n",
      "note_on channel=0 note=81 velocity=110 time=0\n",
      "note_on channel=0 note=84 velocity=110 time=0\n",
      "note_off channel=0 note=78 velocity=0 time=1013\n",
      "note_off channel=0 note=81 velocity=0 time=0\n",
      "note_off channel=0 note=84 velocity=0 time=0\n",
      "note_on channel=0 note=74 velocity=110 time=11\n",
      "note_on channel=0 note=78 velocity=110 time=0\n",
      "note_on channel=0 note=81 velocity=110 time=0\n",
      "note_off channel=0 note=74 velocity=0 time=501\n",
      "note_off channel=0 note=78 velocity=0 time=0\n",
      "note_off channel=0 note=81 velocity=0 time=0\n",
      "note_on channel=0 note=72 velocity=110 time=11\n",
      "note_on channel=0 note=74 velocity=110 time=0\n",
      "note_on channel=0 note=78 velocity=110 time=0\n",
      "note_off channel=0 note=72 velocity=0 time=501\n",
      "note_off channel=0 note=74 velocity=0 time=0\n",
      "note_off channel=0 note=78 velocity=0 time=0\n",
      "note_on channel=0 note=69 velocity=110 time=11\n",
      "note_on channel=0 note=72 velocity=110 time=0\n",
      "note_on channel=0 note=74 velocity=110 time=0\n",
      "note_off channel=0 note=69 velocity=0 time=501\n",
      "note_off channel=0 note=72 velocity=0 time=0\n",
      "note_off channel=0 note=74 velocity=0 time=0\n",
      "note_on channel=0 note=69 velocity=110 time=11\n",
      "note_on channel=0 note=72 velocity=110 time=0\n",
      "note_off channel=0 note=69 velocity=0 time=501\n",
      "note_off channel=0 note=72 velocity=0 time=0\n",
      "note_on channel=0 note=69 velocity=110 time=11\n",
      "note_off channel=0 note=69 velocity=0 time=501\n",
      "note_on channel=0 note=69 velocity=110 time=3083\n",
      "note_on channel=0 note=74 velocity=110 time=0\n",
      "note_on channel=0 note=76 velocity=110 time=0\n",
      "note_off channel=0 note=69 velocity=0 time=853\n",
      "note_off channel=0 note=74 velocity=0 time=0\n",
      "note_off channel=0 note=76 velocity=0 time=0\n",
      "note_on channel=0 note=69 velocity=110 time=1195\n",
      "note_on channel=0 note=74 velocity=110 time=0\n",
      "note_on channel=0 note=76 velocity=110 time=0\n",
      "note_off channel=0 note=69 velocity=0 time=853\n",
      "note_off channel=0 note=74 velocity=0 time=0\n",
      "note_off channel=0 note=76 velocity=0 time=0\n",
      "note_on channel=0 note=69 velocity=110 time=1195\n",
      "note_on channel=0 note=74 velocity=110 time=0\n",
      "note_on channel=0 note=76 velocity=110 time=0\n",
      "note_off channel=0 note=69 velocity=0 time=853\n",
      "note_off channel=0 note=74 velocity=0 time=0\n",
      "note_off channel=0 note=76 velocity=0 time=0\n",
      "note_on channel=0 note=73 velocity=110 time=171\n",
      "note_off channel=0 note=73 velocity=0 time=501\n",
      "note_on channel=0 note=57 velocity=110 time=11\n",
      "note_off channel=0 note=57 velocity=0 time=501\n",
      "note_on channel=0 note=71 velocity=110 time=11\n",
      "note_off channel=0 note=71 velocity=0 time=853\n",
      "note_on channel=0 note=70 velocity=110 time=171\n",
      "note_off channel=0 note=70 velocity=0 time=853\n",
      "note_on channel=0 note=69 velocity=110 time=171\n",
      "note_off channel=0 note=69 velocity=0 time=1792\n",
      "note_on channel=0 note=71 velocity=110 time=256\n",
      "note_off channel=0 note=71 velocity=0 time=853\n",
      "note_on channel=0 note=69 velocity=110 time=171\n",
      "note_off channel=0 note=69 velocity=0 time=853\n",
      "note_on channel=0 note=62 velocity=110 time=171\n",
      "note_off channel=0 note=62 velocity=0 time=2816\n",
      "note_on channel=0 note=59 velocity=110 time=1280\n",
      "note_off channel=0 note=59 velocity=0 time=853\n",
      "note_on channel=0 note=59 velocity=110 time=171\n",
      "note_off channel=0 note=59 velocity=0 time=853\n",
      "note_on channel=0 note=64 velocity=110 time=171\n",
      "note_off channel=0 note=64 velocity=0 time=853\n",
      "note_on channel=0 note=62 velocity=110 time=171\n",
      "note_off channel=0 note=62 velocity=0 time=853\n",
      "note_on channel=0 note=59 velocity=110 time=171\n",
      "note_off channel=0 note=59 velocity=0 time=2816\n",
      "note_on channel=0 note=57 velocity=110 time=1280\n",
      "note_off channel=0 note=57 velocity=0 time=1365\n",
      "note_on channel=0 note=57 velocity=110 time=171\n",
      "note_off channel=0 note=57 velocity=0 time=1365\n",
      "note_on channel=0 note=69 velocity=110 time=171\n",
      "note_off channel=0 note=69 velocity=0 time=1525\n",
      "note_on channel=0 note=57 velocity=110 time=11\n",
      "note_off channel=0 note=57 velocity=0 time=1365\n",
      "note_on channel=0 note=57 velocity=110 time=171\n",
      "note_off channel=0 note=57 velocity=0 time=853\n",
      "note_on channel=0 note=69 velocity=110 time=171\n",
      "note_off channel=0 note=69 velocity=0 time=853\n",
      "note_on channel=0 note=57 velocity=110 time=171\n",
      "note_off channel=0 note=57 velocity=0 time=1792\n",
      "note_on channel=0 note=69 velocity=110 time=1280\n",
      "note_off channel=0 note=69 velocity=0 time=853\n",
      "note_on channel=0 note=64 velocity=110 time=171\n",
      "note_off channel=0 note=64 velocity=0 time=2816\n",
      "note_on channel=0 note=66 velocity=110 time=1280\n",
      "note_off channel=0 note=66 velocity=0 time=1792\n",
      "note_on channel=0 note=71 velocity=110 time=256\n",
      "note_off channel=0 note=71 velocity=0 time=853\n",
      "note_on channel=0 note=69 velocity=110 time=171\n",
      "note_off channel=0 note=69 velocity=0 time=853\n",
      "note_on channel=0 note=72 velocity=110 time=171\n",
      "note_off channel=0 note=72 velocity=0 time=2816\n",
      "note_on channel=0 note=71 velocity=110 time=1280\n",
      "note_off channel=0 note=71 velocity=0 time=853\n",
      "note_on channel=0 note=71 velocity=110 time=171\n",
      "note_off channel=0 note=71 velocity=0 time=853\n",
      "note_on channel=0 note=76 velocity=110 time=171\n",
      "note_off channel=0 note=76 velocity=0 time=853\n",
      "note_on channel=0 note=74 velocity=110 time=171\n",
      "note_off channel=0 note=74 velocity=0 time=853\n",
      "note_on channel=0 note=71 velocity=110 time=171\n",
      "note_off channel=0 note=71 velocity=0 time=2816\n",
      "note_on channel=0 note=69 velocity=110 time=1280\n",
      "note_off channel=0 note=69 velocity=0 time=1365\n",
      "note_on channel=0 note=69 velocity=110 time=171\n",
      "note_off channel=0 note=69 velocity=0 time=1365\n",
      "note_on channel=0 note=57 velocity=110 time=171\n",
      "note_off channel=0 note=57 velocity=0 time=1525\n",
      "note_on channel=0 note=69 velocity=110 time=11\n",
      "note_off channel=0 note=69 velocity=0 time=1365\n",
      "note_on channel=0 note=57 velocity=110 time=171\n",
      "note_off channel=0 note=57 velocity=0 time=853\n",
      "note_on channel=0 note=64 velocity=110 time=171\n",
      "note_off channel=0 note=64 velocity=0 time=853\n",
      "note_on channel=0 note=62 velocity=110 time=171\n",
      "note_off channel=0 note=62 velocity=0 time=5888\n",
      "note_on channel=0 note=69 velocity=110 time=2304\n",
      "note_off channel=0 note=69 velocity=0 time=1792\n",
      "note_on channel=0 note=71 velocity=110 time=256\n",
      "note_off channel=0 note=71 velocity=0 time=853\n",
      "note_on channel=0 note=69 velocity=110 time=171\n",
      "note_off channel=0 note=69 velocity=0 time=853\n",
      "note_on channel=0 note=62 velocity=110 time=171\n",
      "note_off channel=0 note=62 velocity=0 time=2816\n",
      "note_on channel=0 note=59 velocity=110 time=1280\n",
      "note_off channel=0 note=59 velocity=0 time=853\n",
      "note_on channel=0 note=59 velocity=110 time=171\n",
      "note_off channel=0 note=59 velocity=0 time=853\n",
      "note_on channel=0 note=64 velocity=110 time=171\n",
      "note_off channel=0 note=64 velocity=0 time=853\n",
      "note_on channel=0 note=62 velocity=110 time=171\n",
      "note_off channel=0 note=62 velocity=0 time=853\n",
      "note_on channel=0 note=59 velocity=110 time=171\n",
      "note_off channel=0 note=59 velocity=0 time=2816\n",
      "note_on channel=0 note=57 velocity=110 time=1280\n",
      "note_off channel=0 note=57 velocity=0 time=1365\n",
      "note_on channel=0 note=57 velocity=110 time=171\n",
      "note_off channel=0 note=57 velocity=0 time=1365\n",
      "note_on channel=0 note=69 velocity=110 time=171\n",
      "note_off channel=0 note=69 velocity=0 time=1525\n",
      "note_on channel=0 note=57 velocity=110 time=11\n",
      "note_off channel=0 note=57 velocity=0 time=1365\n",
      "note_on channel=0 note=57 velocity=110 time=171\n",
      "note_off channel=0 note=57 velocity=0 time=853\n",
      "note_on channel=0 note=69 velocity=110 time=171\n",
      "note_off channel=0 note=69 velocity=0 time=853\n",
      "note_on channel=0 note=57 velocity=110 time=171\n",
      "note_off channel=0 note=57 velocity=0 time=1792\n",
      "note_on channel=0 note=69 velocity=110 time=1280\n",
      "note_off channel=0 note=69 velocity=0 time=853\n",
      "note_on channel=0 note=64 velocity=110 time=171\n",
      "note_off channel=0 note=64 velocity=0 time=2816\n",
      "note_on channel=0 note=66 velocity=110 time=1280\n",
      "note_off channel=0 note=66 velocity=0 time=1792\n",
      "note_on channel=0 note=71 velocity=110 time=256\n",
      "note_off channel=0 note=71 velocity=0 time=853\n",
      "note_on channel=0 note=69 velocity=110 time=171\n",
      "note_off channel=0 note=69 velocity=0 time=853\n",
      "note_on channel=0 note=72 velocity=110 time=171\n",
      "note_off channel=0 note=72 velocity=0 time=2816\n",
      "note_on channel=0 note=71 velocity=110 time=1280\n",
      "note_off channel=0 note=71 velocity=0 time=853\n",
      "note_on channel=0 note=71 velocity=110 time=171\n",
      "note_off channel=0 note=71 velocity=0 time=853\n",
      "note_on channel=0 note=76 velocity=110 time=171\n",
      "note_off channel=0 note=76 velocity=0 time=853\n",
      "note_on channel=0 note=74 velocity=110 time=171\n",
      "note_off channel=0 note=74 velocity=0 time=853\n",
      "note_on channel=0 note=71 velocity=110 time=171\n",
      "note_off channel=0 note=71 velocity=0 time=2816\n",
      "note_on channel=0 note=69 velocity=110 time=1280\n",
      "note_off channel=0 note=69 velocity=0 time=1365\n",
      "note_on channel=0 note=69 velocity=110 time=171\n",
      "note_off channel=0 note=69 velocity=0 time=1365\n",
      "note_on channel=0 note=57 velocity=110 time=171\n",
      "note_off channel=0 note=57 velocity=0 time=1525\n",
      "note_on channel=0 note=69 velocity=110 time=11\n",
      "note_off channel=0 note=69 velocity=0 time=1365\n",
      "note_on channel=0 note=57 velocity=110 time=171\n",
      "note_off channel=0 note=57 velocity=0 time=853\n",
      "note_on channel=0 note=64 velocity=110 time=171\n",
      "note_off channel=0 note=64 velocity=0 time=853\n",
      "note_on channel=0 note=62 velocity=110 time=171\n",
      "note_off channel=0 note=62 velocity=0 time=3840\n",
      "note_on channel=0 note=74 velocity=110 time=768\n",
      "note_off channel=0 note=74 velocity=0 time=501\n",
      "note_on channel=0 note=73 velocity=110 time=11\n",
      "note_off channel=0 note=73 velocity=0 time=501\n",
      "note_on channel=0 note=74 velocity=110 time=11\n",
      "note_off channel=0 note=74 velocity=0 time=501\n",
      "note_on channel=0 note=76 velocity=110 time=11\n",
      "note_off channel=0 note=76 velocity=0 time=501\n",
      "note_on channel=0 note=78 velocity=110 time=11\n",
      "note_off channel=0 note=78 velocity=0 time=501\n",
      "note_on channel=0 note=79 velocity=110 time=11\n",
      "note_off channel=0 note=79 velocity=0 time=501\n",
      "note_on channel=0 note=81 velocity=110 time=11\n",
      "note_off channel=0 note=81 velocity=0 time=501\n",
      "note_on channel=0 note=83 velocity=110 time=11\n",
      "note_off channel=0 note=83 velocity=0 time=1792\n",
      "note_on channel=0 note=82 velocity=110 time=256\n",
      "note_off channel=0 note=82 velocity=0 time=1792\n",
      "note_on channel=0 note=81 velocity=110 time=256\n",
      "note_off channel=0 note=81 velocity=0 time=1792\n",
      "note_on channel=0 note=83 velocity=110 time=256\n",
      "note_off channel=0 note=83 velocity=0 time=853\n",
      "note_on channel=0 note=78 velocity=110 time=171\n",
      "note_off channel=0 note=78 velocity=0 time=853\n",
      "note_on channel=0 note=79 velocity=110 time=171\n",
      "note_off channel=0 note=79 velocity=0 time=1792\n",
      "note_on channel=0 note=81 velocity=110 time=256\n",
      "note_off channel=0 note=81 velocity=0 time=1792\n",
      "note_on channel=0 note=78 velocity=110 time=256\n",
      "note_off channel=0 note=78 velocity=0 time=1792\n",
      "note_on channel=0 note=81 velocity=110 time=768\n",
      "note_off channel=0 note=81 velocity=0 time=501\n",
      "note_on channel=0 note=83 velocity=110 time=11\n",
      "note_off channel=0 note=83 velocity=0 time=501\n",
      "note_on channel=0 note=85 velocity=110 time=11\n",
      "note_off channel=0 note=85 velocity=0 time=501\n",
      "note_on channel=0 note=86 velocity=110 time=11\n",
      "note_off channel=0 note=86 velocity=0 time=1792\n",
      "note_on channel=0 note=85 velocity=110 time=768\n",
      "note_off channel=0 note=85 velocity=0 time=501\n",
      "note_on channel=0 note=86 velocity=110 time=11\n",
      "note_off channel=0 note=86 velocity=0 time=501\n",
      "note_on channel=0 note=88 velocity=110 time=11\n",
      "note_off channel=0 note=88 velocity=0 time=501\n",
      "note_on channel=0 note=90 velocity=110 time=11\n",
      "note_off channel=0 note=90 velocity=0 time=1792\n",
      "note_on channel=0 note=81 velocity=110 time=256\n",
      "note_off channel=0 note=81 velocity=0 time=853\n",
      "note_on channel=0 note=90 velocity=110 time=171\n",
      "note_off channel=0 note=90 velocity=0 time=853\n",
      "note_on channel=0 note=88 velocity=110 time=171\n",
      "note_off channel=0 note=88 velocity=0 time=1792\n",
      "note_on channel=0 note=86 velocity=110 time=256\n",
      "note_off channel=0 note=86 velocity=0 time=853\n",
      "note_on channel=0 note=85 velocity=110 time=171\n",
      "note_off channel=0 note=85 velocity=0 time=853\n",
      "note_on channel=0 note=86 velocity=110 time=171\n",
      "note_off channel=0 note=86 velocity=0 time=3840\n",
      "note_on channel=0 note=61 velocity=110 time=256\n",
      "note_off channel=0 note=61 velocity=0 time=245\n",
      "note_on channel=0 note=62 velocity=110 time=11\n",
      "note_off channel=0 note=62 velocity=0 time=245\n",
      "note_on channel=0 note=61 velocity=110 time=11\n",
      "note_off channel=0 note=61 velocity=0 time=245\n",
      "note_on channel=0 note=62 velocity=110 time=11\n",
      "note_off channel=0 note=62 velocity=0 time=245\n",
      "note_on channel=0 note=64 velocity=110 time=11\n",
      "note_off channel=0 note=64 velocity=0 time=245\n",
      "note_on channel=0 note=62 velocity=110 time=11\n",
      "note_off channel=0 note=62 velocity=0 time=245\n",
      "note_on channel=0 note=61 velocity=110 time=11\n",
      "note_off channel=0 note=61 velocity=0 time=245\n",
      "note_on channel=0 note=62 velocity=110 time=11\n",
      "note_off channel=0 note=62 velocity=0 time=245\n",
      "note_on channel=0 note=61 velocity=110 time=11\n",
      "note_off channel=0 note=61 velocity=0 time=245\n",
      "note_on channel=0 note=62 velocity=110 time=11\n",
      "note_off channel=0 note=62 velocity=0 time=245\n",
      "note_on channel=0 note=61 velocity=110 time=11\n",
      "note_off channel=0 note=61 velocity=0 time=245\n",
      "note_on channel=0 note=62 velocity=110 time=11\n",
      "note_off channel=0 note=62 velocity=0 time=245\n",
      "note_on channel=0 note=64 velocity=110 time=11\n",
      "note_off channel=0 note=64 velocity=0 time=245\n",
      "note_on channel=0 note=62 velocity=110 time=11\n",
      "note_off channel=0 note=62 velocity=0 time=245\n",
      "note_on channel=0 note=61 velocity=110 time=11\n",
      "note_off channel=0 note=61 velocity=0 time=245\n",
      "note_on channel=0 note=62 velocity=110 time=11\n",
      "note_off channel=0 note=62 velocity=0 time=245\n",
      "note_on channel=0 note=61 velocity=110 time=11\n",
      "note_off channel=0 note=61 velocity=0 time=245\n",
      "note_on channel=0 note=62 velocity=110 time=11\n",
      "note_off channel=0 note=62 velocity=0 time=245\n",
      "note_on channel=0 note=61 velocity=110 time=11\n",
      "note_off channel=0 note=61 velocity=0 time=245\n",
      "note_on channel=0 note=62 velocity=110 time=11\n",
      "note_off channel=0 note=62 velocity=0 time=245\n",
      "note_on channel=0 note=67 velocity=110 time=11\n",
      "note_off channel=0 note=67 velocity=0 time=245\n",
      "note_on channel=0 note=62 velocity=110 time=11\n",
      "note_off channel=0 note=62 velocity=0 time=245\n",
      "note_on channel=0 note=61 velocity=110 time=11\n",
      "note_off channel=0 note=61 velocity=0 time=245\n",
      "note_on channel=0 note=62 velocity=110 time=11\n",
      "note_off channel=0 note=62 velocity=0 time=245\n",
      "note_on channel=0 note=69 velocity=110 time=11\n",
      "note_off channel=0 note=69 velocity=0 time=245\n",
      "note_on channel=0 note=62 velocity=110 time=11\n",
      "note_off channel=0 note=62 velocity=0 time=245\n",
      "note_on channel=0 note=61 velocity=110 time=11\n",
      "note_off channel=0 note=61 velocity=0 time=245\n",
      "note_on channel=0 note=62 velocity=110 time=11\n",
      "note_off channel=0 note=62 velocity=0 time=245\n",
      "note_on channel=0 note=67 velocity=110 time=11\n",
      "note_off channel=0 note=67 velocity=0 time=245\n",
      "note_on channel=0 note=62 velocity=110 time=11\n",
      "note_off channel=0 note=62 velocity=0 time=245\n",
      "note_on channel=0 note=61 velocity=110 time=11\n",
      "note_off channel=0 note=61 velocity=0 time=245\n",
      "note_on channel=0 note=62 velocity=110 time=11\n",
      "note_off channel=0 note=62 velocity=0 time=245\n",
      "note_on channel=0 note=61 velocity=110 time=11\n",
      "note_off channel=0 note=61 velocity=0 time=245\n",
      "note_on channel=0 note=62 velocity=110 time=11\n",
      "note_off channel=0 note=62 velocity=0 time=245\n",
      "note_on channel=0 note=61 velocity=110 time=11\n",
      "note_off channel=0 note=61 velocity=0 time=245\n",
      "note_on channel=0 note=62 velocity=110 time=11\n",
      "note_off channel=0 note=62 velocity=0 time=245\n",
      "note_on channel=0 note=64 velocity=110 time=11\n",
      "note_off channel=0 note=64 velocity=0 time=245\n",
      "note_on channel=0 note=62 velocity=110 time=11\n",
      "note_off channel=0 note=62 velocity=0 time=245\n",
      "note_on channel=0 note=61 velocity=110 time=11\n",
      "note_off channel=0 note=61 velocity=0 time=245\n",
      "note_on channel=0 note=62 velocity=110 time=11\n",
      "note_off channel=0 note=62 velocity=0 time=245\n",
      "note_on channel=0 note=61 velocity=110 time=11\n",
      "note_off channel=0 note=61 velocity=0 time=245\n",
      "note_on channel=0 note=62 velocity=110 time=11\n",
      "note_off channel=0 note=62 velocity=0 time=245\n",
      "note_on channel=0 note=61 velocity=110 time=11\n",
      "note_off channel=0 note=61 velocity=0 time=245\n",
      "note_on channel=0 note=62 velocity=110 time=11\n",
      "note_off channel=0 note=62 velocity=0 time=245\n",
      "note_on channel=0 note=64 velocity=110 time=11\n",
      "note_off channel=0 note=64 velocity=0 time=245\n",
      "note_on channel=0 note=62 velocity=110 time=11\n",
      "note_off channel=0 note=62 velocity=0 time=245\n",
      "note_on channel=0 note=61 velocity=110 time=11\n",
      "note_off channel=0 note=61 velocity=0 time=245\n",
      "note_on channel=0 note=62 velocity=110 time=11\n",
      "note_off channel=0 note=62 velocity=0 time=245\n",
      "note_on channel=0 note=61 velocity=110 time=11\n",
      "note_off channel=0 note=61 velocity=0 time=245\n",
      "note_on channel=0 note=62 velocity=110 time=11\n",
      "note_off channel=0 note=62 velocity=0 time=245\n",
      "note_on channel=0 note=61 velocity=110 time=11\n",
      "note_off channel=0 note=61 velocity=0 time=245\n",
      "note_on channel=0 note=62 velocity=110 time=11\n",
      "note_off channel=0 note=62 velocity=0 time=245\n",
      "note_on channel=0 note=67 velocity=110 time=11\n",
      "note_off channel=0 note=67 velocity=0 time=245\n",
      "note_on channel=0 note=62 velocity=110 time=11\n",
      "note_off channel=0 note=62 velocity=0 time=245\n",
      "note_on channel=0 note=61 velocity=110 time=11\n",
      "note_off channel=0 note=61 velocity=0 time=245\n",
      "note_on channel=0 note=62 velocity=110 time=11\n",
      "note_off channel=0 note=62 velocity=0 time=245\n",
      "note_on channel=0 note=69 velocity=110 time=11\n",
      "note_off channel=0 note=69 velocity=0 time=245\n",
      "note_on channel=0 note=62 velocity=110 time=11\n",
      "note_off channel=0 note=62 velocity=0 time=245\n",
      "note_on channel=0 note=61 velocity=110 time=11\n",
      "note_off channel=0 note=61 velocity=0 time=245\n",
      "note_on channel=0 note=62 velocity=110 time=11\n",
      "note_off channel=0 note=62 velocity=0 time=245\n",
      "note_on channel=0 note=67 velocity=110 time=11\n",
      "note_off channel=0 note=67 velocity=0 time=245\n",
      "note_on channel=0 note=62 velocity=110 time=11\n",
      "note_off channel=0 note=62 velocity=0 time=245\n",
      "note_on channel=0 note=61 velocity=110 time=11\n",
      "note_off channel=0 note=61 velocity=0 time=245\n",
      "note_on channel=0 note=62 velocity=110 time=11\n",
      "note_off channel=0 note=62 velocity=0 time=245\n",
      "note_on channel=0 note=74 velocity=110 time=11\n",
      "note_on channel=0 note=79 velocity=110 time=0\n",
      "note_on channel=0 note=81 velocity=110 time=0\n",
      "note_off channel=0 note=74 velocity=0 time=853\n",
      "note_off channel=0 note=79 velocity=0 time=0\n",
      "note_off channel=0 note=81 velocity=0 time=0\n",
      "note_on channel=0 note=74 velocity=110 time=1195\n",
      "note_on channel=0 note=79 velocity=110 time=0\n",
      "note_on channel=0 note=81 velocity=110 time=0\n",
      "note_off channel=0 note=74 velocity=0 time=853\n",
      "note_off channel=0 note=79 velocity=0 time=0\n",
      "note_off channel=0 note=81 velocity=0 time=0\n",
      "note_on channel=0 note=74 velocity=110 time=1195\n",
      "note_on channel=0 note=79 velocity=110 time=0\n",
      "note_on channel=0 note=81 velocity=110 time=0\n",
      "note_off channel=0 note=74 velocity=0 time=853\n",
      "note_off channel=0 note=79 velocity=0 time=0\n",
      "note_off channel=0 note=81 velocity=0 time=0\n",
      "note_on channel=0 note=78 velocity=110 time=171\n",
      "note_off channel=0 note=78 velocity=0 time=853\n",
      "note_on channel=0 note=76 velocity=110 time=171\n",
      "note_off channel=0 note=76 velocity=0 time=853\n",
      "note_on channel=0 note=75 velocity=110 time=171\n",
      "note_off channel=0 note=75 velocity=0 time=853\n",
      "note_on channel=0 note=67 velocity=110 time=171\n",
      "note_on channel=0 note=72 velocity=110 time=0\n",
      "note_on channel=0 note=74 velocity=110 time=0\n",
      "note_off channel=0 note=67 velocity=0 time=853\n",
      "note_off channel=0 note=72 velocity=0 time=0\n",
      "note_off channel=0 note=74 velocity=0 time=0\n",
      "note_on channel=0 note=67 velocity=110 time=1195\n",
      "note_on channel=0 note=72 velocity=110 time=0\n",
      "note_on channel=0 note=74 velocity=110 time=0\n",
      "note_off channel=0 note=67 velocity=0 time=853\n",
      "note_off channel=0 note=72 velocity=0 time=0\n",
      "note_off channel=0 note=74 velocity=0 time=0\n",
      "note_on channel=0 note=67 velocity=110 time=1195\n",
      "note_on channel=0 note=72 velocity=110 time=0\n",
      "note_on channel=0 note=74 velocity=110 time=0\n",
      "note_off channel=0 note=67 velocity=0 time=853\n",
      "note_off channel=0 note=72 velocity=0 time=0\n",
      "note_off channel=0 note=74 velocity=0 time=0\n",
      "note_on channel=0 note=67 velocity=110 time=683\n",
      "note_on channel=0 note=71 velocity=110 time=0\n",
      "note_off channel=0 note=67 velocity=0 time=245\n",
      "note_off channel=0 note=71 velocity=0 time=0\n",
      "note_on channel=0 note=67 velocity=110 time=11\n",
      "note_on channel=0 note=72 velocity=110 time=0\n",
      "note_off channel=0 note=67 velocity=0 time=245\n",
      "note_off channel=0 note=72 velocity=0 time=0\n",
      "note_on channel=0 note=67 velocity=110 time=11\n",
      "note_on channel=0 note=72 velocity=110 time=0\n",
      "note_on channel=0 note=74 velocity=110 time=0\n",
      "note_off channel=0 note=67 velocity=0 time=853\n",
      "note_off channel=0 note=72 velocity=0 time=0\n",
      "note_off channel=0 note=74 velocity=0 time=0\n",
      "note_on channel=0 note=67 velocity=110 time=171\n",
      "note_on channel=0 note=74 velocity=110 time=0\n",
      "note_on channel=0 note=76 velocity=110 time=0\n",
      "note_off channel=0 note=67 velocity=0 time=853\n",
      "note_off channel=0 note=74 velocity=0 time=0\n",
      "note_off channel=0 note=76 velocity=0 time=0\n",
      "note_on channel=0 note=69 velocity=110 time=171\n",
      "note_on channel=0 note=72 velocity=110 time=0\n",
      "note_on channel=0 note=74 velocity=110 time=0\n",
      "note_off channel=0 note=69 velocity=0 time=853\n",
      "note_off channel=0 note=72 velocity=0 time=0\n",
      "note_off channel=0 note=74 velocity=0 time=0\n",
      "note_on channel=0 note=74 velocity=110 time=683\n",
      "note_off channel=0 note=74 velocity=0 time=501\n",
      "note_on channel=0 note=69 velocity=110 time=11\n",
      "note_on channel=0 note=78 velocity=110 time=0\n",
      "note_off channel=0 note=69 velocity=0 time=853\n",
      "note_off channel=0 note=78 velocity=0 time=0\n",
      "note_on channel=0 note=81 velocity=110 time=171\n",
      "note_off channel=0 note=81 velocity=0 time=853\n",
      "note_on channel=0 note=80 velocity=110 time=171\n",
      "note_off channel=0 note=80 velocity=0 time=853\n",
      "note_on channel=0 note=81 velocity=110 time=171\n",
      "note_off channel=0 note=81 velocity=0 time=853\n",
      "note_on channel=0 note=80 velocity=110 time=171\n",
      "note_off channel=0 note=80 velocity=0 time=245\n",
      "note_on channel=0 note=81 velocity=110 time=11\n",
      "note_off channel=0 note=81 velocity=0 time=245\n",
      "note_on channel=0 note=80 velocity=110 time=11\n",
      "note_off channel=0 note=80 velocity=0 time=245\n",
      "note_on channel=0 note=78 velocity=110 time=11\n",
      "note_off channel=0 note=78 velocity=0 time=245\n",
      "note_on channel=0 note=74 velocity=110 time=11\n",
      "note_off channel=0 note=74 velocity=0 time=501\n",
      "note_on channel=0 note=69 velocity=110 time=11\n",
      "note_off channel=0 note=69 velocity=0 time=501\n",
      "note_on channel=0 note=71 velocity=110 time=11\n",
      "note_off channel=0 note=71 velocity=0 time=757\n",
      "note_on channel=0 note=73 velocity=110 time=11\n",
      "note_off channel=0 note=73 velocity=0 time=245\n",
      "note_on channel=0 note=74 velocity=110 time=11\n",
      "note_off channel=0 note=74 velocity=0 time=757\n",
      "note_on channel=0 note=76 velocity=110 time=11\n",
      "note_off channel=0 note=76 velocity=0 time=245\n",
      "note_on channel=0 note=78 velocity=110 time=11\n",
      "note_off channel=0 note=78 velocity=0 time=245\n",
      "note_on channel=0 note=77 velocity=110 time=11\n",
      "note_off channel=0 note=77 velocity=0 time=245\n",
      "note_on channel=0 note=78 velocity=110 time=11\n",
      "note_off channel=0 note=78 velocity=0 time=245\n",
      "note_on channel=0 note=79 velocity=110 time=11\n",
      "note_off channel=0 note=79 velocity=0 time=245\n",
      "note_on channel=0 note=81 velocity=110 time=11\n",
      "note_off channel=0 note=81 velocity=0 time=245\n",
      "note_on channel=0 note=79 velocity=110 time=11\n",
      "note_off channel=0 note=79 velocity=0 time=245\n",
      "note_on channel=0 note=78 velocity=110 time=11\n",
      "note_off channel=0 note=78 velocity=0 time=245\n",
      "note_on channel=0 note=76 velocity=110 time=11\n",
      "note_off channel=0 note=76 velocity=0 time=245\n",
      "note_on channel=0 note=74 velocity=110 time=11\n",
      "note_off channel=0 note=74 velocity=0 time=245\n",
      "note_on channel=0 note=73 velocity=110 time=11\n",
      "note_off channel=0 note=73 velocity=0 time=245\n",
      "note_on channel=0 note=74 velocity=110 time=11\n",
      "note_off channel=0 note=74 velocity=0 time=245\n",
      "note_on channel=0 note=81 velocity=110 time=11\n",
      "note_off channel=0 note=81 velocity=0 time=245\n",
      "note_on channel=0 note=73 velocity=110 time=11\n",
      "note_off channel=0 note=73 velocity=0 time=245\n",
      "note_on channel=0 note=72 velocity=110 time=11\n",
      "note_off channel=0 note=72 velocity=0 time=245\n",
      "note_on channel=0 note=73 velocity=110 time=11\n",
      "note_off channel=0 note=73 velocity=0 time=245\n",
      "note_on channel=0 note=81 velocity=110 time=11\n",
      "note_off channel=0 note=81 velocity=0 time=245\n",
      "note_on channel=0 note=73 velocity=110 time=11\n",
      "note_off channel=0 note=73 velocity=0 time=245\n",
      "note_on channel=0 note=72 velocity=110 time=11\n",
      "note_off channel=0 note=72 velocity=0 time=245\n",
      "note_on channel=0 note=71 velocity=110 time=11\n",
      "note_off channel=0 note=71 velocity=0 time=245\n",
      "note_on channel=0 note=70 velocity=110 time=11\n",
      "note_off channel=0 note=70 velocity=0 time=245\n",
      "note_on channel=0 note=69 velocity=110 time=11\n",
      "note_off channel=0 note=69 velocity=0 time=245\n",
      "note_on channel=0 note=68 velocity=110 time=11\n",
      "note_off channel=0 note=68 velocity=0 time=245\n",
      "note_on channel=0 note=67 velocity=110 time=11\n",
      "note_off channel=0 note=67 velocity=0 time=245\n",
      "note_on channel=0 note=64 velocity=110 time=11\n",
      "note_off channel=0 note=64 velocity=0 time=245\n",
      "note_on channel=0 note=69 velocity=110 time=4107\n",
      "note_off channel=0 note=69 velocity=0 time=501\n",
      "note_on channel=0 note=74 velocity=110 time=11\n",
      "note_on channel=0 note=86 velocity=110 time=0\n",
      "note_off channel=0 note=74 velocity=0 time=501\n",
      "note_off channel=0 note=86 velocity=0 time=0\n",
      "note_on channel=0 note=77 velocity=110 time=11\n",
      "note_on channel=0 note=81 velocity=110 time=0\n",
      "note_off channel=0 note=77 velocity=0 time=501\n",
      "note_off channel=0 note=81 velocity=0 time=0\n",
      "note_on channel=0 note=76 velocity=110 time=11\n",
      "note_on channel=0 note=80 velocity=110 time=0\n",
      "note_off channel=0 note=76 velocity=0 time=4352\n",
      "note_off channel=0 note=80 velocity=0 time=0\n",
      "note_on channel=0 note=69 velocity=110 time=10496\n",
      "note_off channel=0 note=69 velocity=0 time=501\n",
      "note_on channel=0 note=74 velocity=110 time=11\n",
      "note_on channel=0 note=86 velocity=110 time=0\n",
      "note_off channel=0 note=74 velocity=0 time=501\n",
      "note_off channel=0 note=86 velocity=0 time=0\n",
      "note_on channel=0 note=77 velocity=110 time=11\n",
      "note_on channel=0 note=81 velocity=110 time=0\n",
      "note_off channel=0 note=77 velocity=0 time=501\n",
      "note_off channel=0 note=81 velocity=0 time=0\n",
      "note_on channel=0 note=76 velocity=110 time=11\n",
      "note_on channel=0 note=80 velocity=110 time=0\n",
      "note_off channel=0 note=76 velocity=0 time=3413\n",
      "note_off channel=0 note=80 velocity=0 time=0\n",
      "note_on channel=0 note=83 velocity=110 time=171\n",
      "note_on channel=0 note=95 velocity=110 time=0\n",
      "note_off channel=0 note=83 velocity=0 time=853\n",
      "note_off channel=0 note=95 velocity=0 time=0\n",
      "note_on channel=0 note=69 velocity=110 time=10411\n",
      "note_off channel=0 note=69 velocity=0 time=501\n",
      "note_on channel=0 note=74 velocity=110 time=11\n",
      "note_on channel=0 note=86 velocity=110 time=0\n",
      "note_off channel=0 note=74 velocity=0 time=501\n",
      "note_off channel=0 note=86 velocity=0 time=0\n",
      "note_on channel=0 note=77 velocity=110 time=11\n",
      "note_on channel=0 note=81 velocity=110 time=0\n",
      "note_off channel=0 note=77 velocity=0 time=501\n",
      "note_off channel=0 note=81 velocity=0 time=0\n",
      "note_on channel=0 note=76 velocity=110 time=11\n",
      "note_on channel=0 note=80 velocity=110 time=0\n",
      "note_off channel=0 note=76 velocity=0 time=2304\n",
      "note_off channel=0 note=80 velocity=0 time=0\n",
      "note_on channel=0 note=69 velocity=110 time=512\n",
      "note_off channel=0 note=69 velocity=0 time=245\n",
      "note_on channel=0 note=74 velocity=110 time=11\n",
      "note_off channel=0 note=74 velocity=0 time=245\n",
      "note_on channel=0 note=81 velocity=110 time=11\n",
      "note_off channel=0 note=81 velocity=0 time=245\n",
      "note_on channel=0 note=80 velocity=110 time=11\n",
      "note_off channel=0 note=80 velocity=0 time=245\n",
      "note_on channel=0 note=69 velocity=110 time=11\n",
      "note_off channel=0 note=69 velocity=0 time=245\n",
      "note_on channel=0 note=74 velocity=110 time=11\n",
      "note_off channel=0 note=74 velocity=0 time=245\n",
      "note_on channel=0 note=79 velocity=110 time=11\n",
      "note_off channel=0 note=79 velocity=0 time=245\n",
      "note_on channel=0 note=77 velocity=110 time=11\n",
      "note_off channel=0 note=77 velocity=0 time=245\n",
      "note_on channel=0 note=69 velocity=110 time=11\n",
      "note_off channel=0 note=69 velocity=0 time=245\n",
      "note_on channel=0 note=74 velocity=110 time=11\n",
      "note_off channel=0 note=74 velocity=0 time=245\n",
      "note_on channel=0 note=77 velocity=110 time=11\n",
      "note_off channel=0 note=77 velocity=0 time=245\n",
      "note_on channel=0 note=76 velocity=110 time=11\n",
      "note_off channel=0 note=76 velocity=0 time=245\n",
      "note_on channel=0 note=67 velocity=110 time=11\n",
      "note_off channel=0 note=67 velocity=0 time=245\n",
      "note_on channel=0 note=73 velocity=110 time=11\n",
      "note_off channel=0 note=73 velocity=0 time=245\n",
      "note_on channel=0 note=76 velocity=110 time=11\n",
      "note_off channel=0 note=76 velocity=0 time=245\n",
      "note_on channel=0 note=74 velocity=110 time=11\n",
      "note_off channel=0 note=74 velocity=0 time=501\n",
      "note_on channel=0 note=69 velocity=110 time=11\n",
      "note_off channel=0 note=69 velocity=0 time=245\n",
      "note_on channel=0 note=74 velocity=110 time=11\n",
      "note_off channel=0 note=74 velocity=0 time=245\n",
      "note_on channel=0 note=73 velocity=110 time=11\n",
      "note_off channel=0 note=73 velocity=0 time=501\n",
      "note_on channel=0 note=67 velocity=110 time=11\n",
      "note_off channel=0 note=67 velocity=0 time=245\n",
      "note_on channel=0 note=70 velocity=110 time=11\n",
      "note_off channel=0 note=70 velocity=0 time=245\n",
      "note_on channel=0 note=69 velocity=110 time=11\n",
      "note_off channel=0 note=69 velocity=0 time=501\n",
      "note_on channel=0 note=69 velocity=110 time=11\n",
      "note_off channel=0 note=69 velocity=0 time=245\n",
      "note_on channel=0 note=74 velocity=110 time=11\n",
      "note_off channel=0 note=74 velocity=0 time=245\n",
      "note_on channel=0 note=77 velocity=110 time=11\n",
      "note_off channel=0 note=77 velocity=0 time=245\n",
      "note_on channel=0 note=69 velocity=110 time=11\n",
      "note_off channel=0 note=69 velocity=0 time=245\n",
      "note_on channel=0 note=74 velocity=110 time=11\n",
      "note_off channel=0 note=74 velocity=0 time=245\n",
      "note_on channel=0 note=77 velocity=110 time=11\n",
      "note_off channel=0 note=77 velocity=0 time=245\n",
      "note_on channel=0 note=70 velocity=110 time=11\n",
      "note_off channel=0 note=70 velocity=0 time=245\n",
      "note_on channel=0 note=67 velocity=110 time=11\n",
      "note_off channel=0 note=67 velocity=0 time=245\n",
      "note_on channel=0 note=70 velocity=110 time=11\n",
      "note_off channel=0 note=70 velocity=0 time=245\n",
      "note_on channel=0 note=73 velocity=110 time=11\n",
      "note_off channel=0 note=73 velocity=0 time=245\n",
      "note_on channel=0 note=76 velocity=110 time=11\n",
      "note_off channel=0 note=76 velocity=0 time=245\n",
      "note_on channel=0 note=70 velocity=110 time=11\n",
      "note_off channel=0 note=70 velocity=0 time=245\n",
      "note_on channel=0 note=73 velocity=110 time=11\n",
      "note_off channel=0 note=73 velocity=0 time=245\n",
      "note_on channel=0 note=76 velocity=110 time=11\n",
      "note_off channel=0 note=76 velocity=0 time=245\n",
      "note_on channel=0 note=77 velocity=110 time=11\n",
      "note_off channel=0 note=77 velocity=0 time=245\n",
      "note_on channel=0 note=81 velocity=110 time=11\n",
      "note_off channel=0 note=81 velocity=0 time=245\n",
      "note_on channel=0 note=86 velocity=110 time=11\n",
      "note_off channel=0 note=86 velocity=0 time=245\n",
      "note_on channel=0 note=81 velocity=110 time=11\n",
      "note_off channel=0 note=81 velocity=0 time=245\n",
      "note_on channel=0 note=77 velocity=110 time=11\n",
      "note_off channel=0 note=77 velocity=0 time=245\n",
      "note_on channel=0 note=86 velocity=110 time=11\n",
      "note_off channel=0 note=86 velocity=0 time=245\n",
      "note_on channel=0 note=81 velocity=110 time=11\n",
      "note_off channel=0 note=81 velocity=0 time=245\n",
      "note_on channel=0 note=77 velocity=110 time=11\n",
      "note_off channel=0 note=77 velocity=0 time=245\n",
      "note_on channel=0 note=76 velocity=110 time=11\n",
      "note_off channel=0 note=76 velocity=0 time=245\n",
      "note_on channel=0 note=79 velocity=110 time=11\n",
      "note_off channel=0 note=79 velocity=0 time=245\n",
      "note_on channel=0 note=85 velocity=110 time=11\n",
      "note_off channel=0 note=85 velocity=0 time=245\n",
      "note_on channel=0 note=79 velocity=110 time=11\n",
      "note_off channel=0 note=79 velocity=0 time=245\n",
      "note_on channel=0 note=76 velocity=110 time=11\n",
      "note_off channel=0 note=76 velocity=0 time=245\n",
      "note_on channel=0 note=85 velocity=110 time=11\n",
      "note_off channel=0 note=85 velocity=0 time=245\n",
      "note_on channel=0 note=79 velocity=110 time=11\n",
      "note_off channel=0 note=79 velocity=0 time=245\n",
      "note_on channel=0 note=76 velocity=110 time=11\n",
      "note_off channel=0 note=76 velocity=0 time=245\n",
      "note_on channel=0 note=74 velocity=110 time=11\n",
      "note_off channel=0 note=74 velocity=0 time=245\n",
      "note_on channel=0 note=77 velocity=110 time=11\n",
      "note_off channel=0 note=77 velocity=0 time=245\n",
      "note_on channel=0 note=81 velocity=110 time=11\n",
      "note_off channel=0 note=81 velocity=0 time=245\n",
      "note_on channel=0 note=77 velocity=110 time=11\n",
      "note_off channel=0 note=77 velocity=0 time=245\n",
      "note_on channel=0 note=74 velocity=110 time=11\n",
      "note_off channel=0 note=74 velocity=0 time=245\n",
      "note_on channel=0 note=81 velocity=110 time=11\n",
      "note_off channel=0 note=81 velocity=0 time=245\n",
      "note_on channel=0 note=77 velocity=110 time=11\n",
      "note_off channel=0 note=77 velocity=0 time=245\n",
      "note_on channel=0 note=74 velocity=110 time=11\n",
      "note_off channel=0 note=74 velocity=0 time=245\n",
      "note_on channel=0 note=73 velocity=110 time=11\n",
      "note_off channel=0 note=73 velocity=0 time=501\n",
      "note_on channel=0 note=69 velocity=110 time=11\n",
      "note_on channel=0 note=73 velocity=110 time=0\n",
      "note_on channel=0 note=79 velocity=110 time=0\n",
      "note_off channel=0 note=69 velocity=0 time=501\n",
      "note_off channel=0 note=73 velocity=0 time=0\n",
      "note_off channel=0 note=79 velocity=0 time=0\n",
      "note_on channel=0 note=74 velocity=110 time=11\n",
      "note_on channel=0 note=77 velocity=110 time=0\n",
      "note_on channel=0 note=82 velocity=110 time=0\n",
      "note_off channel=0 note=74 velocity=0 time=501\n",
      "note_off channel=0 note=77 velocity=0 time=0\n",
      "note_off channel=0 note=82 velocity=0 time=0\n",
      "note_on channel=0 note=73 velocity=110 time=11\n",
      "note_on channel=0 note=76 velocity=110 time=0\n",
      "note_on channel=0 note=81 velocity=110 time=0\n",
      "note_off channel=0 note=73 velocity=0 time=501\n",
      "note_off channel=0 note=76 velocity=0 time=0\n",
      "note_off channel=0 note=81 velocity=0 time=0\n",
      "note_on channel=0 note=69 velocity=110 time=11\n",
      "note_on channel=0 note=73 velocity=110 time=0\n",
      "note_on channel=0 note=79 velocity=110 time=0\n",
      "note_off channel=0 note=69 velocity=0 time=1792\n",
      "note_off channel=0 note=73 velocity=0 time=0\n",
      "note_off channel=0 note=79 velocity=0 time=0\n",
      "note_on channel=0 note=74 velocity=110 time=512\n",
      "note_on channel=0 note=86 velocity=110 time=0\n",
      "note_off channel=0 note=74 velocity=0 time=245\n",
      "note_off channel=0 note=86 velocity=0 time=0\n",
      "note_on channel=0 note=73 velocity=110 time=11\n",
      "note_on channel=0 note=85 velocity=110 time=0\n",
      "note_off channel=0 note=73 velocity=0 time=245\n",
      "note_off channel=0 note=85 velocity=0 time=0\n",
      "note_on channel=0 note=74 velocity=110 time=11\n",
      "note_on channel=0 note=86 velocity=110 time=0\n",
      "note_off channel=0 note=74 velocity=0 time=245\n",
      "note_off channel=0 note=86 velocity=0 time=0\n",
      "note_on channel=0 note=75 velocity=110 time=11\n",
      "note_on channel=0 note=87 velocity=110 time=0\n",
      "note_off channel=0 note=75 velocity=0 time=245\n",
      "note_off channel=0 note=87 velocity=0 time=0\n",
      "note_on channel=0 note=74 velocity=110 time=11\n",
      "note_on channel=0 note=86 velocity=110 time=0\n",
      "note_off channel=0 note=74 velocity=0 time=245\n",
      "note_off channel=0 note=86 velocity=0 time=0\n",
      "note_on channel=0 note=73 velocity=110 time=11\n",
      "note_on channel=0 note=85 velocity=110 time=0\n",
      "note_off channel=0 note=73 velocity=0 time=245\n",
      "note_off channel=0 note=85 velocity=0 time=0\n",
      "note_on channel=0 note=68 velocity=110 time=11\n",
      "note_on channel=0 note=80 velocity=110 time=0\n",
      "note_off channel=0 note=68 velocity=0 time=245\n",
      "note_off channel=0 note=80 velocity=0 time=0\n",
      "note_on channel=0 note=69 velocity=110 time=11\n",
      "note_on channel=0 note=81 velocity=110 time=0\n",
      "note_off channel=0 note=69 velocity=0 time=245\n",
      "note_off channel=0 note=81 velocity=0 time=0\n",
      "note_on channel=0 note=77 velocity=110 time=11\n",
      "note_off channel=0 note=77 velocity=0 time=245\n",
      "note_on channel=0 note=76 velocity=110 time=11\n",
      "note_off channel=0 note=76 velocity=0 time=245\n",
      "note_on channel=0 note=77 velocity=110 time=11\n",
      "note_off channel=0 note=77 velocity=0 time=245\n",
      "note_on channel=0 note=67 velocity=110 time=11\n",
      "note_on channel=0 note=79 velocity=110 time=0\n",
      "note_off channel=0 note=67 velocity=0 time=245\n",
      "note_off channel=0 note=79 velocity=0 time=0\n",
      "note_on channel=0 note=77 velocity=110 time=11\n",
      "note_off channel=0 note=77 velocity=0 time=245\n",
      "note_on channel=0 note=76 velocity=110 time=11\n",
      "note_off channel=0 note=76 velocity=0 time=245\n",
      "note_on channel=0 note=73 velocity=110 time=11\n",
      "note_off channel=0 note=73 velocity=0 time=245\n",
      "note_on channel=0 note=74 velocity=110 time=11\n",
      "note_off channel=0 note=74 velocity=0 time=853\n",
      "note_on channel=0 note=67 velocity=110 time=4779\n",
      "note_off channel=0 note=67 velocity=0 time=501\n",
      "note_on channel=0 note=70 velocity=110 time=523\n",
      "note_off channel=0 note=70 velocity=0 time=501\n",
      "note_on channel=0 note=67 velocity=110 time=11\n",
      "note_on channel=0 note=69 velocity=110 time=0\n",
      "note_off channel=0 note=67 velocity=0 time=501\n",
      "note_off channel=0 note=69 velocity=0 time=0\n",
      "note_on channel=0 note=73 velocity=110 time=11\n",
      "note_off channel=0 note=73 velocity=0 time=501\n",
      "note_on channel=0 note=69 velocity=110 time=11\n",
      "note_on channel=0 note=74 velocity=110 time=0\n",
      "note_off channel=0 note=69 velocity=0 time=245\n",
      "note_off channel=0 note=74 velocity=0 time=0\n",
      "note_on channel=0 note=69 velocity=110 time=11\n",
      "note_off channel=0 note=69 velocity=0 time=245\n",
      "note_on channel=0 note=74 velocity=110 time=11\n",
      "note_off channel=0 note=74 velocity=0 time=245\n",
      "note_on channel=0 note=81 velocity=110 time=11\n",
      "note_off channel=0 note=81 velocity=0 time=245\n",
      "note_on channel=0 note=80 velocity=110 time=11\n",
      "note_off channel=0 note=80 velocity=0 time=245\n",
      "note_on channel=0 note=69 velocity=110 time=11\n",
      "note_off channel=0 note=69 velocity=0 time=245\n",
      "note_on channel=0 note=74 velocity=110 time=11\n",
      "note_off channel=0 note=74 velocity=0 time=245\n",
      "note_on channel=0 note=79 velocity=110 time=11\n",
      "note_off channel=0 note=79 velocity=0 time=245\n",
      "note_on channel=0 note=77 velocity=110 time=11\n",
      "note_off channel=0 note=77 velocity=0 time=245\n",
      "note_on channel=0 note=69 velocity=110 time=11\n",
      "note_off channel=0 note=69 velocity=0 time=245\n",
      "note_on channel=0 note=74 velocity=110 time=11\n",
      "note_off channel=0 note=74 velocity=0 time=245\n",
      "note_on channel=0 note=77 velocity=110 time=11\n",
      "note_off channel=0 note=77 velocity=0 time=245\n",
      "note_on channel=0 note=76 velocity=110 time=11\n",
      "note_off channel=0 note=76 velocity=0 time=245\n",
      "note_on channel=0 note=67 velocity=110 time=11\n",
      "note_off channel=0 note=67 velocity=0 time=245\n",
      "note_on channel=0 note=73 velocity=110 time=11\n",
      "note_off channel=0 note=73 velocity=0 time=245\n",
      "note_on channel=0 note=76 velocity=110 time=11\n",
      "note_off channel=0 note=76 velocity=0 time=245\n",
      "note_on channel=0 note=74 velocity=110 time=11\n",
      "note_off channel=0 note=74 velocity=0 time=501\n",
      "note_on channel=0 note=69 velocity=110 time=11\n",
      "note_off channel=0 note=69 velocity=0 time=245\n",
      "note_on channel=0 note=74 velocity=110 time=11\n",
      "note_off channel=0 note=74 velocity=0 time=245\n",
      "note_on channel=0 note=73 velocity=110 time=11\n",
      "note_off channel=0 note=73 velocity=0 time=501\n",
      "note_on channel=0 note=67 velocity=110 time=11\n",
      "note_off channel=0 note=67 velocity=0 time=245\n",
      "note_on channel=0 note=70 velocity=110 time=11\n",
      "note_off channel=0 note=70 velocity=0 time=245\n",
      "note_on channel=0 note=69 velocity=110 time=11\n",
      "note_off channel=0 note=69 velocity=0 time=501\n",
      "note_on channel=0 note=69 velocity=110 time=11\n",
      "note_off channel=0 note=69 velocity=0 time=245\n",
      "note_on channel=0 note=74 velocity=110 time=11\n",
      "note_off channel=0 note=74 velocity=0 time=245\n",
      "note_on channel=0 note=77 velocity=110 time=11\n",
      "note_off channel=0 note=77 velocity=0 time=245\n",
      "note_on channel=0 note=69 velocity=110 time=11\n",
      "note_off channel=0 note=69 velocity=0 time=245\n",
      "note_on channel=0 note=74 velocity=110 time=11\n",
      "note_off channel=0 note=74 velocity=0 time=245\n",
      "note_on channel=0 note=77 velocity=110 time=11\n",
      "note_off channel=0 note=77 velocity=0 time=245\n",
      "note_on channel=0 note=76 velocity=110 time=11\n",
      "note_off channel=0 note=76 velocity=0 time=245\n",
      "note_on channel=0 note=67 velocity=110 time=11\n",
      "note_off channel=0 note=67 velocity=0 time=245\n",
      "note_on channel=0 note=70 velocity=110 time=11\n",
      "note_off channel=0 note=70 velocity=0 time=245\n",
      "note_on channel=0 note=73 velocity=110 time=11\n",
      "note_off channel=0 note=73 velocity=0 time=245\n",
      "note_on channel=0 note=76 velocity=110 time=11\n",
      "note_off channel=0 note=76 velocity=0 time=245\n",
      "note_on channel=0 note=73 velocity=110 time=11\n",
      "note_off channel=0 note=73 velocity=0 time=245\n",
      "note_on channel=0 note=76 velocity=110 time=11\n",
      "note_off channel=0 note=76 velocity=0 time=245\n",
      "note_on channel=0 note=79 velocity=110 time=11\n",
      "note_off channel=0 note=79 velocity=0 time=245\n",
      "note_on channel=0 note=77 velocity=110 time=11\n",
      "note_off channel=0 note=77 velocity=0 time=245\n",
      "note_on channel=0 note=81 velocity=110 time=11\n",
      "note_off channel=0 note=81 velocity=0 time=245\n",
      "note_on channel=0 note=86 velocity=110 time=11\n",
      "note_off channel=0 note=86 velocity=0 time=245\n",
      "note_on channel=0 note=81 velocity=110 time=11\n",
      "note_off channel=0 note=81 velocity=0 time=245\n",
      "note_on channel=0 note=77 velocity=110 time=11\n",
      "note_off channel=0 note=77 velocity=0 time=245\n",
      "note_on channel=0 note=86 velocity=110 time=11\n",
      "note_off channel=0 note=86 velocity=0 time=245\n",
      "note_on channel=0 note=81 velocity=110 time=11\n",
      "note_off channel=0 note=81 velocity=0 time=245\n",
      "note_on channel=0 note=77 velocity=110 time=11\n",
      "note_off channel=0 note=77 velocity=0 time=245\n",
      "note_on channel=0 note=76 velocity=110 time=11\n",
      "note_off channel=0 note=76 velocity=0 time=245\n",
      "note_on channel=0 note=79 velocity=110 time=11\n",
      "note_off channel=0 note=79 velocity=0 time=245\n",
      "note_on channel=0 note=85 velocity=110 time=11\n",
      "note_off channel=0 note=85 velocity=0 time=245\n",
      "note_on channel=0 note=79 velocity=110 time=11\n",
      "note_off channel=0 note=79 velocity=0 time=245\n",
      "note_on channel=0 note=76 velocity=110 time=11\n",
      "note_off channel=0 note=76 velocity=0 time=245\n",
      "note_on channel=0 note=85 velocity=110 time=11\n",
      "note_off channel=0 note=85 velocity=0 time=245\n",
      "note_on channel=0 note=79 velocity=110 time=11\n",
      "note_off channel=0 note=79 velocity=0 time=245\n",
      "note_on channel=0 note=76 velocity=110 time=11\n",
      "note_off channel=0 note=76 velocity=0 time=245\n",
      "note_on channel=0 note=69 velocity=110 time=267\n",
      "note_off channel=0 note=69 velocity=0 time=245\n",
      "note_on channel=0 note=74 velocity=110 time=11\n",
      "note_off channel=0 note=74 velocity=0 time=245\n",
      "note_on channel=0 note=69 velocity=110 time=11\n",
      "note_off channel=0 note=69 velocity=0 time=245\n",
      "note_on channel=0 note=77 velocity=110 time=11\n",
      "note_off channel=0 note=77 velocity=0 time=245\n",
      "note_on channel=0 note=69 velocity=110 time=11\n",
      "note_off channel=0 note=69 velocity=0 time=245\n",
      "note_on channel=0 note=74 velocity=110 time=11\n",
      "note_off channel=0 note=74 velocity=0 time=245\n",
      "note_on channel=0 note=69 velocity=110 time=11\n",
      "note_off channel=0 note=69 velocity=0 time=245\n",
      "note_on channel=0 note=75 velocity=110 time=11\n",
      "note_off channel=0 note=75 velocity=0 time=245\n",
      "note_on channel=0 note=67 velocity=110 time=11\n",
      "note_off channel=0 note=67 velocity=0 time=245\n",
      "note_on channel=0 note=74 velocity=110 time=11\n",
      "note_off channel=0 note=74 velocity=0 time=245\n",
      "note_on channel=0 note=69 velocity=110 time=11\n",
      "note_off channel=0 note=69 velocity=0 time=245\n",
      "note_on channel=0 note=75 velocity=110 time=11\n",
      "note_off channel=0 note=75 velocity=0 time=245\n",
      "note_on channel=0 note=69 velocity=110 time=11\n",
      "note_off channel=0 note=69 velocity=0 time=245\n",
      "note_on channel=0 note=74 velocity=110 time=11\n",
      "note_off channel=0 note=74 velocity=0 time=245\n",
      "note_on channel=0 note=69 velocity=110 time=11\n",
      "note_off channel=0 note=69 velocity=0 time=245\n",
      "note_on channel=0 note=67 velocity=110 time=267\n",
      "note_off channel=0 note=67 velocity=0 time=245\n",
      "note_on channel=0 note=73 velocity=110 time=11\n",
      "note_off channel=0 note=73 velocity=0 time=245\n",
      "note_on channel=0 note=67 velocity=110 time=11\n",
      "note_off channel=0 note=67 velocity=0 time=245\n",
      "note_on channel=0 note=67 velocity=110 time=267\n",
      "note_off channel=0 note=67 velocity=0 time=245\n",
      "note_on channel=0 note=73 velocity=110 time=11\n",
      "note_off channel=0 note=73 velocity=0 time=245\n",
      "note_on channel=0 note=67 velocity=110 time=11\n",
      "note_off channel=0 note=67 velocity=0 time=245\n",
      "note_on channel=0 note=67 velocity=110 time=267\n",
      "note_off channel=0 note=67 velocity=0 time=245\n",
      "note_on channel=0 note=73 velocity=110 time=11\n",
      "note_off channel=0 note=73 velocity=0 time=245\n",
      "note_on channel=0 note=67 velocity=110 time=11\n",
      "note_off channel=0 note=67 velocity=0 time=245\n",
      "note_on channel=0 note=67 velocity=110 time=267\n",
      "note_off channel=0 note=67 velocity=0 time=245\n",
      "note_on channel=0 note=73 velocity=110 time=11\n",
      "note_off channel=0 note=73 velocity=0 time=245\n",
      "note_on channel=0 note=67 velocity=110 time=11\n",
      "note_off channel=0 note=67 velocity=0 time=245\n",
      "note_on channel=0 note=68 velocity=110 time=267\n",
      "note_off channel=0 note=68 velocity=0 time=245\n",
      "note_on channel=0 note=71 velocity=110 time=11\n",
      "note_off channel=0 note=71 velocity=0 time=245\n",
      "note_on channel=0 note=68 velocity=110 time=11\n",
      "note_off channel=0 note=68 velocity=0 time=245\n",
      "note_on channel=0 note=74 velocity=110 time=11\n",
      "note_off channel=0 note=74 velocity=0 time=245\n",
      "note_on channel=0 note=68 velocity=110 time=11\n",
      "note_off channel=0 note=68 velocity=0 time=245\n",
      "note_on channel=0 note=71 velocity=110 time=11\n",
      "note_off channel=0 note=71 velocity=0 time=245\n",
      "note_on channel=0 note=68 velocity=110 time=11\n",
      "note_off channel=0 note=68 velocity=0 time=245\n",
      "note_on channel=0 note=68 velocity=110 time=267\n",
      "note_off channel=0 note=68 velocity=0 time=245\n",
      "note_on channel=0 note=71 velocity=110 time=11\n",
      "note_off channel=0 note=71 velocity=0 time=245\n",
      "note_on channel=0 note=68 velocity=110 time=11\n",
      "note_off channel=0 note=68 velocity=0 time=245\n",
      "note_on channel=0 note=73 velocity=110 time=11\n",
      "note_off channel=0 note=73 velocity=0 time=245\n",
      "note_on channel=0 note=67 velocity=110 time=11\n",
      "note_off channel=0 note=67 velocity=0 time=245\n",
      "note_on channel=0 note=70 velocity=110 time=11\n",
      "note_off channel=0 note=70 velocity=0 time=245\n",
      "note_on channel=0 note=67 velocity=110 time=11\n",
      "note_off channel=0 note=67 velocity=0 time=245\n",
      "note_on channel=0 note=69 velocity=110 time=267\n",
      "note_off channel=0 note=69 velocity=0 time=245\n",
      "note_on channel=0 note=74 velocity=110 time=11\n",
      "note_off channel=0 note=74 velocity=0 time=245\n",
      "note_on channel=0 note=69 velocity=110 time=11\n",
      "note_off channel=0 note=69 velocity=0 time=245\n",
      "note_on channel=0 note=77 velocity=110 time=11\n",
      "note_off channel=0 note=77 velocity=0 time=245\n",
      "note_on channel=0 note=69 velocity=110 time=11\n",
      "note_off channel=0 note=69 velocity=0 time=245\n",
      "note_on channel=0 note=74 velocity=110 time=11\n",
      "note_off channel=0 note=74 velocity=0 time=245\n",
      "note_on channel=0 note=69 velocity=110 time=11\n",
      "note_off channel=0 note=69 velocity=0 time=245\n",
      "note_on channel=0 note=69 velocity=110 time=267\n",
      "note_off channel=0 note=69 velocity=0 time=245\n",
      "note_on channel=0 note=74 velocity=110 time=11\n",
      "note_off channel=0 note=74 velocity=0 time=245\n",
      "note_on channel=0 note=69 velocity=110 time=11\n",
      "note_off channel=0 note=69 velocity=0 time=245\n",
      "note_on channel=0 note=77 velocity=110 time=11\n",
      "note_off channel=0 note=77 velocity=0 time=245\n",
      "note_on channel=0 note=74 velocity=110 time=11\n",
      "note_off channel=0 note=74 velocity=0 time=245\n",
      "note_on channel=0 note=77 velocity=110 time=11\n",
      "note_off channel=0 note=77 velocity=0 time=245\n",
      "note_on channel=0 note=81 velocity=110 time=11\n",
      "note_off channel=0 note=81 velocity=0 time=245\n",
      "note_on channel=0 note=74 velocity=110 time=11\n",
      "note_on channel=0 note=86 velocity=110 time=0\n",
      "note_off channel=0 note=74 velocity=0 time=245\n",
      "note_off channel=0 note=86 velocity=0 time=0\n",
      "note_on channel=0 note=74 velocity=110 time=11\n",
      "note_off channel=0 note=74 velocity=0 time=245\n",
      "note_on channel=0 note=77 velocity=110 time=11\n",
      "note_off channel=0 note=77 velocity=0 time=245\n",
      "note_on channel=0 note=74 velocity=110 time=11\n",
      "note_off channel=0 note=74 velocity=0 time=245\n",
      "note_on channel=0 note=81 velocity=110 time=11\n",
      "note_off channel=0 note=81 velocity=0 time=245\n",
      "note_on channel=0 note=74 velocity=110 time=11\n",
      "note_off channel=0 note=74 velocity=0 time=245\n",
      "note_on channel=0 note=77 velocity=110 time=11\n",
      "note_off channel=0 note=77 velocity=0 time=245\n",
      "note_on channel=0 note=74 velocity=110 time=11\n",
      "note_off channel=0 note=74 velocity=0 time=245\n",
      "note_on channel=0 note=75 velocity=110 time=11\n",
      "note_on channel=0 note=81 velocity=110 time=0\n",
      "note_off channel=0 note=75 velocity=0 time=245\n",
      "note_off channel=0 note=81 velocity=0 time=0\n",
      "note_on channel=0 note=74 velocity=110 time=11\n",
      "note_off channel=0 note=74 velocity=0 time=245\n",
      "note_on channel=0 note=74 velocity=110 time=11\n",
      "note_on channel=0 note=77 velocity=110 time=0\n",
      "note_off channel=0 note=74 velocity=0 time=501\n",
      "note_off channel=0 note=77 velocity=0 time=0\n",
      "note_on channel=0 note=73 velocity=110 time=11\n",
      "note_on channel=0 note=81 velocity=110 time=0\n",
      "note_off channel=0 note=73 velocity=0 time=245\n",
      "note_off channel=0 note=81 velocity=0 time=0\n",
      "note_on channel=0 note=74 velocity=110 time=11\n",
      "note_off channel=0 note=74 velocity=0 time=245\n",
      "note_on channel=0 note=68 velocity=110 time=11\n",
      "note_on channel=0 note=77 velocity=110 time=0\n",
      "note_off channel=0 note=68 velocity=0 time=245\n",
      "note_off channel=0 note=77 velocity=0 time=0\n",
      "note_on channel=0 note=74 velocity=110 time=11\n",
      "note_off channel=0 note=74 velocity=0 time=245\n",
      "note_on channel=0 note=69 velocity=110 time=11\n",
      "note_off channel=0 note=69 velocity=0 time=245\n",
      "note_on channel=0 note=73 velocity=110 time=11\n",
      "note_off channel=0 note=73 velocity=0 time=245\n",
      "note_on channel=0 note=76 velocity=110 time=11\n",
      "note_off channel=0 note=76 velocity=0 time=245\n",
      "note_on channel=0 note=73 velocity=110 time=11\n",
      "note_off channel=0 note=73 velocity=0 time=245\n",
      "note_on channel=0 note=79 velocity=110 time=11\n",
      "note_off channel=0 note=79 velocity=0 time=245\n",
      "note_on channel=0 note=73 velocity=110 time=11\n",
      "note_off channel=0 note=73 velocity=0 time=245\n",
      "note_on channel=0 note=76 velocity=110 time=11\n",
      "note_off channel=0 note=76 velocity=0 time=245\n",
      "note_on channel=0 note=73 velocity=110 time=11\n",
      "note_off channel=0 note=73 velocity=0 time=245\n",
      "note_on channel=0 note=69 velocity=110 time=11\n",
      "note_off channel=0 note=69 velocity=0 time=245\n",
      "note_on channel=0 note=73 velocity=110 time=11\n",
      "note_off channel=0 note=73 velocity=0 time=245\n",
      "note_on channel=0 note=76 velocity=110 time=11\n",
      "note_off channel=0 note=76 velocity=0 time=245\n",
      "note_on channel=0 note=73 velocity=110 time=11\n",
      "note_off channel=0 note=73 velocity=0 time=245\n",
      "note_on channel=0 note=79 velocity=110 time=11\n",
      "note_off channel=0 note=79 velocity=0 time=245\n",
      "note_on channel=0 note=73 velocity=110 time=11\n",
      "note_off channel=0 note=73 velocity=0 time=245\n",
      "note_on channel=0 note=76 velocity=110 time=11\n",
      "note_off channel=0 note=76 velocity=0 time=245\n",
      "note_on channel=0 note=73 velocity=110 time=11\n",
      "note_off channel=0 note=73 velocity=0 time=245\n",
      "note_on channel=0 note=68 velocity=110 time=11\n",
      "note_on channel=0 note=71 velocity=110 time=0\n",
      "note_off channel=0 note=68 velocity=0 time=245\n",
      "note_off channel=0 note=71 velocity=0 time=0\n",
      "note_on channel=0 note=74 velocity=110 time=11\n",
      "note_off channel=0 note=74 velocity=0 time=245\n",
      "note_on channel=0 note=77 velocity=110 time=11\n",
      "note_off channel=0 note=77 velocity=0 time=245\n",
      "note_on channel=0 note=74 velocity=110 time=11\n",
      "note_off channel=0 note=74 velocity=0 time=245\n",
      "note_on channel=0 note=80 velocity=110 time=11\n",
      "note_off channel=0 note=80 velocity=0 time=245\n",
      "note_on channel=0 note=74 velocity=110 time=11\n",
      "note_off channel=0 note=74 velocity=0 time=245\n",
      "note_on channel=0 note=77 velocity=110 time=11\n",
      "note_off channel=0 note=77 velocity=0 time=245\n",
      "note_on channel=0 note=74 velocity=110 time=11\n",
      "note_off channel=0 note=74 velocity=0 time=245\n",
      "note_on channel=0 note=69 velocity=110 time=11\n",
      "note_on channel=0 note=71 velocity=110 time=0\n",
      "note_off channel=0 note=69 velocity=0 time=245\n",
      "note_off channel=0 note=71 velocity=0 time=0\n",
      "note_on channel=0 note=74 velocity=110 time=11\n",
      "note_off channel=0 note=74 velocity=0 time=245\n",
      "note_on channel=0 note=77 velocity=110 time=11\n",
      "note_off channel=0 note=77 velocity=0 time=245\n",
      "note_on channel=0 note=74 velocity=110 time=11\n",
      "note_off channel=0 note=74 velocity=0 time=245\n",
      "note_on channel=0 note=67 velocity=110 time=11\n",
      "note_on channel=0 note=79 velocity=110 time=0\n",
      "note_off channel=0 note=67 velocity=0 time=245\n",
      "note_off channel=0 note=79 velocity=0 time=0\n",
      "note_on channel=0 note=70 velocity=110 time=11\n",
      "note_off channel=0 note=70 velocity=0 time=245\n",
      "note_on channel=0 note=73 velocity=110 time=11\n",
      "note_off channel=0 note=73 velocity=0 time=245\n",
      "note_on channel=0 note=70 velocity=110 time=11\n",
      "note_off channel=0 note=70 velocity=0 time=245\n",
      "note_on channel=0 note=69 velocity=110 time=11\n",
      "note_off channel=0 note=69 velocity=0 time=245\n",
      "note_on channel=0 note=74 velocity=110 time=11\n",
      "note_off channel=0 note=74 velocity=0 time=245\n",
      "note_on channel=0 note=77 velocity=110 time=11\n",
      "note_off channel=0 note=77 velocity=0 time=245\n",
      "note_on channel=0 note=74 velocity=110 time=11\n",
      "note_off channel=0 note=74 velocity=0 time=245\n",
      "note_on channel=0 note=81 velocity=110 time=11\n",
      "note_off channel=0 note=81 velocity=0 time=245\n",
      "note_on channel=0 note=69 velocity=110 time=11\n",
      "note_off channel=0 note=69 velocity=0 time=245\n",
      "note_on channel=0 note=74 velocity=110 time=11\n",
      "note_off channel=0 note=74 velocity=0 time=245\n",
      "note_on channel=0 note=77 velocity=110 time=11\n",
      "note_off channel=0 note=77 velocity=0 time=245\n",
      "note_on channel=0 note=74 velocity=110 time=11\n",
      "note_on channel=0 note=77 velocity=110 time=0\n",
      "note_on channel=0 note=81 velocity=110 time=0\n",
      "note_off channel=0 note=74 velocity=0 time=501\n",
      "note_off channel=0 note=77 velocity=0 time=0\n",
      "note_off channel=0 note=81 velocity=0 time=0\n",
      "note_on channel=0 note=74 velocity=110 time=11\n",
      "note_on channel=0 note=77 velocity=110 time=0\n",
      "note_on channel=0 note=81 velocity=110 time=0\n",
      "note_off channel=0 note=74 velocity=0 time=501\n",
      "note_off channel=0 note=77 velocity=0 time=0\n",
      "note_off channel=0 note=81 velocity=0 time=0\n",
      "note_on channel=0 note=74 velocity=110 time=11\n",
      "note_on channel=0 note=77 velocity=110 time=0\n",
      "note_on channel=0 note=81 velocity=110 time=0\n",
      "note_off channel=0 note=74 velocity=0 time=501\n",
      "note_off channel=0 note=77 velocity=0 time=0\n",
      "note_off channel=0 note=81 velocity=0 time=0\n",
      "note_on channel=0 note=74 velocity=110 time=11\n",
      "note_on channel=0 note=77 velocity=110 time=0\n",
      "note_on channel=0 note=81 velocity=110 time=0\n",
      "note_off channel=0 note=74 velocity=0 time=501\n",
      "note_off channel=0 note=77 velocity=0 time=0\n",
      "note_off channel=0 note=81 velocity=0 time=0\n",
      "note_on channel=0 note=57 velocity=110 time=267\n",
      "note_on channel=0 note=62 velocity=110 time=0\n",
      "note_on channel=0 note=65 velocity=110 time=0\n",
      "note_off channel=0 note=57 velocity=0 time=245\n",
      "note_off channel=0 note=62 velocity=0 time=0\n",
      "note_off channel=0 note=65 velocity=0 time=0\n",
      "note_on channel=0 note=57 velocity=110 time=11\n",
      "note_on channel=0 note=62 velocity=110 time=0\n",
      "note_on channel=0 note=65 velocity=110 time=0\n",
      "note_off channel=0 note=57 velocity=0 time=245\n",
      "note_off channel=0 note=62 velocity=0 time=0\n",
      "note_off channel=0 note=65 velocity=0 time=0\n",
      "note_on channel=0 note=57 velocity=110 time=11\n",
      "note_on channel=0 note=62 velocity=110 time=0\n",
      "note_on channel=0 note=65 velocity=110 time=0\n",
      "note_off channel=0 note=57 velocity=0 time=245\n",
      "note_off channel=0 note=62 velocity=0 time=0\n",
      "note_off channel=0 note=65 velocity=0 time=0\n",
      "note_on channel=0 note=58 velocity=110 time=11\n",
      "note_on channel=0 note=64 velocity=110 time=0\n",
      "note_off channel=0 note=58 velocity=0 time=245\n",
      "note_off channel=0 note=64 velocity=0 time=0\n",
      "note_on channel=0 note=58 velocity=110 time=11\n",
      "note_on channel=0 note=64 velocity=110 time=0\n",
      "note_off channel=0 note=58 velocity=0 time=245\n",
      "note_off channel=0 note=64 velocity=0 time=0\n",
      "note_on channel=0 note=55 velocity=110 time=11\n",
      "note_on channel=0 note=61 velocity=110 time=0\n",
      "note_off channel=0 note=55 velocity=0 time=245\n",
      "note_off channel=0 note=61 velocity=0 time=0\n",
      "note_on channel=0 note=55 velocity=110 time=11\n",
      "note_on channel=0 note=61 velocity=110 time=0\n",
      "note_off channel=0 note=55 velocity=0 time=245\n",
      "note_off channel=0 note=61 velocity=0 time=0\n",
      "note_on channel=0 note=57 velocity=110 time=11\n",
      "note_on channel=0 note=62 velocity=110 time=0\n",
      "note_off channel=0 note=57 velocity=0 time=245\n",
      "note_off channel=0 note=62 velocity=0 time=0\n",
      "note_on channel=0 note=57 velocity=110 time=11\n",
      "note_on channel=0 note=62 velocity=110 time=0\n",
      "note_off channel=0 note=57 velocity=0 time=245\n",
      "note_off channel=0 note=62 velocity=0 time=0\n",
      "note_on channel=0 note=57 velocity=110 time=11\n",
      "note_on channel=0 note=62 velocity=110 time=0\n",
      "note_on channel=0 note=65 velocity=110 time=0\n",
      "note_off channel=0 note=57 velocity=0 time=245\n",
      "note_off channel=0 note=62 velocity=0 time=0\n",
      "note_off channel=0 note=65 velocity=0 time=0\n",
      "note_on channel=0 note=57 velocity=110 time=11\n",
      "note_on channel=0 note=62 velocity=110 time=0\n",
      "note_on channel=0 note=65 velocity=110 time=0\n",
      "note_off channel=0 note=57 velocity=0 time=245\n",
      "note_off channel=0 note=62 velocity=0 time=0\n",
      "note_off channel=0 note=65 velocity=0 time=0\n",
      "note_on channel=0 note=58 velocity=110 time=11\n",
      "note_on channel=0 note=64 velocity=110 time=0\n",
      "note_off channel=0 note=58 velocity=0 time=245\n",
      "note_off channel=0 note=64 velocity=0 time=0\n",
      "note_on channel=0 note=58 velocity=110 time=11\n",
      "note_on channel=0 note=64 velocity=110 time=0\n",
      "note_off channel=0 note=58 velocity=0 time=245\n",
      "note_off channel=0 note=64 velocity=0 time=0\n",
      "note_on channel=0 note=55 velocity=110 time=11\n",
      "note_on channel=0 note=60 velocity=110 time=0\n",
      "note_off channel=0 note=55 velocity=0 time=245\n",
      "note_off channel=0 note=60 velocity=0 time=0\n",
      "note_on channel=0 note=55 velocity=110 time=11\n",
      "note_on channel=0 note=60 velocity=110 time=0\n",
      "note_off channel=0 note=55 velocity=0 time=245\n",
      "note_off channel=0 note=60 velocity=0 time=0\n",
      "note_on channel=0 note=62 velocity=110 time=267\n",
      "note_on channel=0 note=65 velocity=110 time=0\n",
      "note_on channel=0 note=70 velocity=110 time=0\n",
      "note_off channel=0 note=62 velocity=0 time=245\n",
      "note_off channel=0 note=65 velocity=0 time=0\n",
      "note_off channel=0 note=70 velocity=0 time=0\n",
      "note_on channel=0 note=62 velocity=110 time=11\n",
      "note_on channel=0 note=65 velocity=110 time=0\n",
      "note_on channel=0 note=70 velocity=110 time=0\n",
      "note_off channel=0 note=62 velocity=0 time=245\n",
      "note_off channel=0 note=65 velocity=0 time=0\n",
      "note_off channel=0 note=70 velocity=0 time=0\n",
      "note_on channel=0 note=62 velocity=110 time=11\n",
      "note_on channel=0 note=65 velocity=110 time=0\n",
      "note_on channel=0 note=70 velocity=110 time=0\n",
      "note_off channel=0 note=62 velocity=0 time=245\n",
      "note_off channel=0 note=65 velocity=0 time=0\n",
      "note_off channel=0 note=70 velocity=0 time=0\n",
      "note_on channel=0 note=62 velocity=110 time=11\n",
      "note_on channel=0 note=65 velocity=110 time=0\n",
      "note_on channel=0 note=74 velocity=110 time=0\n",
      "note_off channel=0 note=62 velocity=0 time=245\n",
      "note_off channel=0 note=65 velocity=0 time=0\n",
      "note_off channel=0 note=74 velocity=0 time=0\n",
      "note_on channel=0 note=62 velocity=110 time=11\n",
      "note_on channel=0 note=65 velocity=110 time=0\n",
      "note_on channel=0 note=74 velocity=110 time=0\n",
      "note_off channel=0 note=62 velocity=0 time=245\n",
      "note_off channel=0 note=65 velocity=0 time=0\n",
      "note_off channel=0 note=74 velocity=0 time=0\n",
      "note_on channel=0 note=62 velocity=110 time=11\n",
      "note_on channel=0 note=65 velocity=110 time=0\n",
      "note_on channel=0 note=70 velocity=110 time=0\n",
      "note_off channel=0 note=62 velocity=0 time=245\n",
      "note_off channel=0 note=65 velocity=0 time=0\n",
      "note_off channel=0 note=70 velocity=0 time=0\n",
      "note_on channel=0 note=62 velocity=110 time=11\n",
      "note_on channel=0 note=65 velocity=110 time=0\n",
      "note_on channel=0 note=70 velocity=110 time=0\n",
      "note_off channel=0 note=62 velocity=0 time=245\n",
      "note_off channel=0 note=65 velocity=0 time=0\n",
      "note_off channel=0 note=70 velocity=0 time=0\n",
      "note_on channel=0 note=67 velocity=110 time=11\n",
      "note_on channel=0 note=76 velocity=110 time=0\n",
      "note_on channel=0 note=82 velocity=110 time=0\n",
      "note_off channel=0 note=67 velocity=0 time=245\n",
      "note_off channel=0 note=76 velocity=0 time=0\n",
      "note_off channel=0 note=82 velocity=0 time=0\n",
      "note_on channel=0 note=67 velocity=110 time=11\n",
      "note_on channel=0 note=76 velocity=110 time=0\n",
      "note_on channel=0 note=82 velocity=110 time=0\n",
      "note_off channel=0 note=67 velocity=0 time=245\n",
      "note_off channel=0 note=76 velocity=0 time=0\n",
      "note_off channel=0 note=82 velocity=0 time=0\n",
      "note_on channel=0 note=67 velocity=110 time=11\n",
      "note_on channel=0 note=73 velocity=110 time=0\n",
      "note_on channel=0 note=79 velocity=110 time=0\n",
      "note_off channel=0 note=67 velocity=0 time=245\n",
      "note_off channel=0 note=73 velocity=0 time=0\n",
      "note_off channel=0 note=79 velocity=0 time=0\n",
      "note_on channel=0 note=67 velocity=110 time=11\n",
      "note_on channel=0 note=73 velocity=110 time=0\n",
      "note_on channel=0 note=79 velocity=110 time=0\n",
      "note_off channel=0 note=67 velocity=0 time=245\n",
      "note_off channel=0 note=73 velocity=0 time=0\n",
      "note_off channel=0 note=79 velocity=0 time=0\n",
      "note_on channel=0 note=67 velocity=110 time=11\n",
      "note_on channel=0 note=70 velocity=110 time=0\n",
      "note_on channel=0 note=79 velocity=110 time=0\n",
      "note_on channel=0 note=85 velocity=110 time=0\n",
      "note_off channel=0 note=67 velocity=0 time=245\n",
      "note_off channel=0 note=70 velocity=0 time=0\n",
      "note_off channel=0 note=79 velocity=0 time=0\n",
      "note_off channel=0 note=85 velocity=0 time=0\n",
      "note_on channel=0 note=67 velocity=110 time=11\n",
      "note_on channel=0 note=70 velocity=110 time=0\n",
      "note_on channel=0 note=79 velocity=110 time=0\n",
      "note_on channel=0 note=85 velocity=110 time=0\n",
      "note_off channel=0 note=67 velocity=0 time=245\n",
      "note_off channel=0 note=70 velocity=0 time=0\n",
      "note_off channel=0 note=79 velocity=0 time=0\n",
      "note_off channel=0 note=85 velocity=0 time=0\n",
      "note_on channel=0 note=67 velocity=110 time=11\n",
      "note_on channel=0 note=70 velocity=110 time=0\n",
      "note_on channel=0 note=76 velocity=110 time=0\n",
      "note_on channel=0 note=82 velocity=110 time=0\n",
      "note_off channel=0 note=67 velocity=0 time=245\n",
      "note_off channel=0 note=70 velocity=0 time=0\n",
      "note_off channel=0 note=76 velocity=0 time=0\n",
      "note_off channel=0 note=82 velocity=0 time=0\n",
      "note_on channel=0 note=67 velocity=110 time=11\n",
      "note_on channel=0 note=70 velocity=110 time=0\n",
      "note_on channel=0 note=76 velocity=110 time=0\n",
      "note_on channel=0 note=82 velocity=110 time=0\n",
      "note_off channel=0 note=67 velocity=0 time=245\n",
      "note_off channel=0 note=70 velocity=0 time=0\n",
      "note_off channel=0 note=76 velocity=0 time=0\n",
      "note_off channel=0 note=82 velocity=0 time=0\n",
      "note_on channel=0 note=69 velocity=110 time=267\n",
      "note_off channel=0 note=69 velocity=0 time=245\n",
      "note_on channel=0 note=74 velocity=110 time=11\n",
      "note_off channel=0 note=74 velocity=0 time=245\n",
      "note_on channel=0 note=81 velocity=110 time=11\n",
      "note_off channel=0 note=81 velocity=0 time=245\n",
      "note_on channel=0 note=80 velocity=110 time=11\n",
      "note_off channel=0 note=80 velocity=0 time=245\n",
      "note_on channel=0 note=69 velocity=110 time=11\n",
      "note_off channel=0 note=69 velocity=0 time=245\n",
      "note_on channel=0 note=74 velocity=110 time=11\n",
      "note_off channel=0 note=74 velocity=0 time=245\n",
      "note_on channel=0 note=79 velocity=110 time=11\n",
      "note_off channel=0 note=79 velocity=0 time=245\n",
      "note_on channel=0 note=77 velocity=110 time=11\n",
      "note_off channel=0 note=77 velocity=0 time=245\n",
      "note_on channel=0 note=69 velocity=110 time=11\n",
      "note_off channel=0 note=69 velocity=0 time=245\n",
      "note_on channel=0 note=74 velocity=110 time=11\n",
      "note_off channel=0 note=74 velocity=0 time=245\n",
      "note_on channel=0 note=77 velocity=110 time=11\n",
      "note_off channel=0 note=77 velocity=0 time=245\n",
      "note_on channel=0 note=76 velocity=110 time=11\n",
      "note_off channel=0 note=76 velocity=0 time=245\n",
      "note_on channel=0 note=67 velocity=110 time=11\n",
      "note_off channel=0 note=67 velocity=0 time=245\n",
      "note_on channel=0 note=73 velocity=110 time=11\n",
      "note_off channel=0 note=73 velocity=0 time=245\n",
      "note_on channel=0 note=76 velocity=110 time=11\n",
      "note_off channel=0 note=76 velocity=0 time=245\n",
      "note_on channel=0 note=74 velocity=110 time=11\n",
      "note_off channel=0 note=74 velocity=0 time=501\n",
      "note_on channel=0 note=69 velocity=110 time=11\n",
      "note_off channel=0 note=69 velocity=0 time=245\n",
      "note_on channel=0 note=74 velocity=110 time=11\n",
      "note_off channel=0 note=74 velocity=0 time=245\n",
      "note_on channel=0 note=73 velocity=110 time=11\n",
      "note_off channel=0 note=73 velocity=0 time=501\n",
      "note_on channel=0 note=67 velocity=110 time=11\n",
      "note_off channel=0 note=67 velocity=0 time=245\n",
      "note_on channel=0 note=70 velocity=110 time=11\n",
      "note_off channel=0 note=70 velocity=0 time=245\n",
      "note_on channel=0 note=69 velocity=110 time=11\n",
      "note_off channel=0 note=69 velocity=0 time=501\n",
      "note_on channel=0 note=69 velocity=110 time=11\n",
      "note_off channel=0 note=69 velocity=0 time=245\n",
      "note_on channel=0 note=74 velocity=110 time=11\n",
      "note_off channel=0 note=74 velocity=0 time=245\n",
      "note_on channel=0 note=77 velocity=110 time=11\n",
      "note_off channel=0 note=77 velocity=0 time=245\n",
      "note_on channel=0 note=69 velocity=110 time=11\n",
      "note_off channel=0 note=69 velocity=0 time=245\n",
      "note_on channel=0 note=74 velocity=110 time=11\n",
      "note_off channel=0 note=74 velocity=0 time=245\n",
      "note_on channel=0 note=77 velocity=110 time=11\n",
      "note_off channel=0 note=77 velocity=0 time=245\n",
      "note_on channel=0 note=70 velocity=110 time=11\n",
      "note_off channel=0 note=70 velocity=0 time=245\n",
      "note_on channel=0 note=67 velocity=110 time=11\n",
      "note_off channel=0 note=67 velocity=0 time=245\n",
      "note_on channel=0 note=70 velocity=110 time=11\n",
      "note_off channel=0 note=70 velocity=0 time=245\n",
      "note_on channel=0 note=73 velocity=110 time=11\n",
      "note_off channel=0 note=73 velocity=0 time=245\n",
      "note_on channel=0 note=76 velocity=110 time=11\n",
      "note_off channel=0 note=76 velocity=0 time=245\n",
      "note_on channel=0 note=70 velocity=110 time=11\n",
      "note_off channel=0 note=70 velocity=0 time=245\n",
      "note_on channel=0 note=73 velocity=110 time=11\n",
      "note_off channel=0 note=73 velocity=0 time=245\n",
      "note_on channel=0 note=76 velocity=110 time=11\n",
      "note_off channel=0 note=76 velocity=0 time=245\n",
      "note_on channel=0 note=77 velocity=110 time=11\n",
      "note_off channel=0 note=77 velocity=0 time=245\n",
      "note_on channel=0 note=81 velocity=110 time=11\n",
      "note_off channel=0 note=81 velocity=0 time=245\n",
      "note_on channel=0 note=86 velocity=110 time=11\n",
      "note_off channel=0 note=86 velocity=0 time=245\n",
      "note_on channel=0 note=81 velocity=110 time=11\n",
      "note_off channel=0 note=81 velocity=0 time=245\n",
      "note_on channel=0 note=77 velocity=110 time=11\n",
      "note_off channel=0 note=77 velocity=0 time=245\n",
      "note_on channel=0 note=86 velocity=110 time=11\n",
      "note_off channel=0 note=86 velocity=0 time=245\n",
      "note_on channel=0 note=81 velocity=110 time=11\n",
      "note_off channel=0 note=81 velocity=0 time=245\n",
      "note_on channel=0 note=77 velocity=110 time=11\n",
      "note_off channel=0 note=77 velocity=0 time=245\n",
      "note_on channel=0 note=76 velocity=110 time=11\n",
      "note_off channel=0 note=76 velocity=0 time=245\n",
      "note_on channel=0 note=79 velocity=110 time=11\n",
      "note_off channel=0 note=79 velocity=0 time=245\n",
      "note_on channel=0 note=85 velocity=110 time=11\n",
      "note_off channel=0 note=85 velocity=0 time=245\n",
      "note_on channel=0 note=79 velocity=110 time=11\n",
      "note_off channel=0 note=79 velocity=0 time=245\n",
      "note_on channel=0 note=76 velocity=110 time=11\n",
      "note_off channel=0 note=76 velocity=0 time=245\n",
      "note_on channel=0 note=85 velocity=110 time=11\n",
      "note_off channel=0 note=85 velocity=0 time=245\n",
      "note_on channel=0 note=79 velocity=110 time=11\n",
      "note_off channel=0 note=79 velocity=0 time=245\n",
      "note_on channel=0 note=76 velocity=110 time=11\n",
      "note_off channel=0 note=76 velocity=0 time=245\n",
      "note_on channel=0 note=74 velocity=110 time=11\n",
      "note_off channel=0 note=74 velocity=0 time=245\n",
      "note_on channel=0 note=77 velocity=110 time=11\n",
      "note_off channel=0 note=77 velocity=0 time=245\n",
      "note_on channel=0 note=81 velocity=110 time=11\n",
      "note_off channel=0 note=81 velocity=0 time=245\n",
      "note_on channel=0 note=77 velocity=110 time=11\n",
      "note_off channel=0 note=77 velocity=0 time=245\n",
      "note_on channel=0 note=74 velocity=110 time=11\n",
      "note_off channel=0 note=74 velocity=0 time=245\n",
      "note_on channel=0 note=81 velocity=110 time=11\n",
      "note_off channel=0 note=81 velocity=0 time=245\n",
      "note_on channel=0 note=77 velocity=110 time=11\n",
      "note_off channel=0 note=77 velocity=0 time=245\n",
      "note_on channel=0 note=74 velocity=110 time=11\n",
      "note_off channel=0 note=74 velocity=0 time=245\n",
      "note_on channel=0 note=73 velocity=110 time=11\n",
      "note_off channel=0 note=73 velocity=0 time=501\n",
      "note_on channel=0 note=69 velocity=110 time=11\n",
      "note_on channel=0 note=73 velocity=110 time=0\n",
      "note_on channel=0 note=79 velocity=110 time=0\n",
      "note_off channel=0 note=69 velocity=0 time=501\n",
      "note_off channel=0 note=73 velocity=0 time=0\n",
      "note_off channel=0 note=79 velocity=0 time=0\n",
      "note_on channel=0 note=74 velocity=110 time=11\n",
      "note_on channel=0 note=77 velocity=110 time=0\n",
      "note_on channel=0 note=82 velocity=110 time=0\n",
      "note_off channel=0 note=74 velocity=0 time=501\n",
      "note_off channel=0 note=77 velocity=0 time=0\n",
      "note_off channel=0 note=82 velocity=0 time=0\n",
      "note_on channel=0 note=73 velocity=110 time=11\n",
      "note_on channel=0 note=76 velocity=110 time=0\n",
      "note_on channel=0 note=81 velocity=110 time=0\n",
      "note_off channel=0 note=73 velocity=0 time=501\n",
      "note_off channel=0 note=76 velocity=0 time=0\n",
      "note_off channel=0 note=81 velocity=0 time=0\n",
      "note_on channel=0 note=69 velocity=110 time=11\n",
      "note_on channel=0 note=72 velocity=110 time=0\n",
      "note_on channel=0 note=79 velocity=110 time=0\n",
      "note_off channel=0 note=69 velocity=0 time=1792\n",
      "note_off channel=0 note=72 velocity=0 time=0\n",
      "note_off channel=0 note=79 velocity=0 time=0\n",
      "note_on channel=0 note=74 velocity=110 time=512\n",
      "note_on channel=0 note=86 velocity=110 time=0\n",
      "note_off channel=0 note=74 velocity=0 time=245\n",
      "note_off channel=0 note=86 velocity=0 time=0\n",
      "note_on channel=0 note=72 velocity=110 time=11\n",
      "note_on channel=0 note=84 velocity=110 time=0\n",
      "note_off channel=0 note=72 velocity=0 time=245\n",
      "note_off channel=0 note=84 velocity=0 time=0\n",
      "note_on channel=0 note=74 velocity=110 time=11\n",
      "note_on channel=0 note=86 velocity=110 time=0\n",
      "note_off channel=0 note=74 velocity=0 time=245\n",
      "note_off channel=0 note=86 velocity=0 time=0\n",
      "note_on channel=0 note=75 velocity=110 time=11\n",
      "note_on channel=0 note=87 velocity=110 time=0\n",
      "note_off channel=0 note=75 velocity=0 time=245\n",
      "note_off channel=0 note=87 velocity=0 time=0\n",
      "note_on channel=0 note=74 velocity=110 time=11\n",
      "note_on channel=0 note=86 velocity=110 time=0\n",
      "note_off channel=0 note=74 velocity=0 time=245\n",
      "note_off channel=0 note=86 velocity=0 time=0\n",
      "note_on channel=0 note=72 velocity=110 time=11\n",
      "note_on channel=0 note=84 velocity=110 time=0\n",
      "note_off channel=0 note=72 velocity=0 time=245\n",
      "note_off channel=0 note=84 velocity=0 time=0\n",
      "note_on channel=0 note=68 velocity=110 time=11\n",
      "note_on channel=0 note=80 velocity=110 time=0\n",
      "note_off channel=0 note=68 velocity=0 time=245\n",
      "note_off channel=0 note=80 velocity=0 time=0\n",
      "note_on channel=0 note=69 velocity=110 time=11\n",
      "note_on channel=0 note=81 velocity=110 time=0\n",
      "note_off channel=0 note=69 velocity=0 time=245\n",
      "note_off channel=0 note=81 velocity=0 time=0\n",
      "note_on channel=0 note=77 velocity=110 time=11\n",
      "note_off channel=0 note=77 velocity=0 time=245\n",
      "note_on channel=0 note=76 velocity=110 time=11\n",
      "note_off channel=0 note=76 velocity=0 time=245\n",
      "note_on channel=0 note=77 velocity=110 time=11\n",
      "note_off channel=0 note=77 velocity=0 time=245\n",
      "note_on channel=0 note=67 velocity=110 time=11\n",
      "note_on channel=0 note=79 velocity=110 time=0\n",
      "note_off channel=0 note=67 velocity=0 time=245\n",
      "note_off channel=0 note=79 velocity=0 time=0\n",
      "note_on channel=0 note=77 velocity=110 time=11\n",
      "note_off channel=0 note=77 velocity=0 time=245\n",
      "note_on channel=0 note=76 velocity=110 time=11\n",
      "note_off channel=0 note=76 velocity=0 time=245\n",
      "note_on channel=0 note=73 velocity=110 time=11\n",
      "note_off channel=0 note=73 velocity=0 time=245\n",
      "note_on channel=0 note=74 velocity=110 time=11\n",
      "note_off channel=0 note=74 velocity=0 time=853\n",
      "note_on channel=0 note=67 velocity=110 time=4779\n",
      "note_off channel=0 note=67 velocity=0 time=501\n",
      "note_on channel=0 note=70 velocity=110 time=523\n",
      "note_off channel=0 note=70 velocity=0 time=501\n",
      "note_on channel=0 note=67 velocity=110 time=11\n",
      "note_on channel=0 note=69 velocity=110 time=0\n",
      "note_off channel=0 note=67 velocity=0 time=501\n",
      "note_off channel=0 note=69 velocity=0 time=0\n",
      "note_on channel=0 note=73 velocity=110 time=11\n",
      "note_off channel=0 note=73 velocity=0 time=501\n",
      "note_on channel=0 note=69 velocity=110 time=11\n",
      "note_on channel=0 note=74 velocity=110 time=0\n",
      "note_off channel=0 note=69 velocity=0 time=245\n",
      "note_off channel=0 note=74 velocity=0 time=0\n",
      "note_on channel=0 note=69 velocity=110 time=11\n",
      "note_off channel=0 note=69 velocity=0 time=245\n",
      "note_on channel=0 note=74 velocity=110 time=11\n",
      "note_off channel=0 note=74 velocity=0 time=245\n",
      "note_on channel=0 note=81 velocity=110 time=11\n",
      "note_off channel=0 note=81 velocity=0 time=245\n",
      "note_on channel=0 note=80 velocity=110 time=11\n",
      "note_off channel=0 note=80 velocity=0 time=245\n",
      "note_on channel=0 note=69 velocity=110 time=11\n",
      "note_off channel=0 note=69 velocity=0 time=245\n",
      "note_on channel=0 note=74 velocity=110 time=11\n",
      "note_off channel=0 note=74 velocity=0 time=245\n",
      "note_on channel=0 note=79 velocity=110 time=11\n",
      "note_off channel=0 note=79 velocity=0 time=245\n",
      "note_on channel=0 note=77 velocity=110 time=11\n",
      "note_off channel=0 note=77 velocity=0 time=245\n",
      "note_on channel=0 note=69 velocity=110 time=11\n",
      "note_off channel=0 note=69 velocity=0 time=245\n",
      "note_on channel=0 note=74 velocity=110 time=11\n",
      "note_off channel=0 note=74 velocity=0 time=245\n",
      "note_on channel=0 note=77 velocity=110 time=11\n",
      "note_off channel=0 note=77 velocity=0 time=245\n",
      "note_on channel=0 note=76 velocity=110 time=11\n",
      "note_off channel=0 note=76 velocity=0 time=245\n",
      "note_on channel=0 note=67 velocity=110 time=11\n",
      "note_off channel=0 note=67 velocity=0 time=245\n",
      "note_on channel=0 note=73 velocity=110 time=11\n",
      "note_off channel=0 note=73 velocity=0 time=245\n",
      "note_on channel=0 note=76 velocity=110 time=11\n",
      "note_off channel=0 note=76 velocity=0 time=245\n",
      "note_on channel=0 note=74 velocity=110 time=11\n",
      "note_off channel=0 note=74 velocity=0 time=245\n",
      "note_on channel=0 note=65 velocity=110 time=11\n",
      "note_off channel=0 note=65 velocity=0 time=245\n",
      "note_on channel=0 note=69 velocity=110 time=11\n",
      "note_off channel=0 note=69 velocity=0 time=245\n",
      "note_on channel=0 note=74 velocity=110 time=11\n",
      "note_off channel=0 note=74 velocity=0 time=245\n",
      "note_on channel=0 note=73 velocity=110 time=11\n",
      "note_off channel=0 note=73 velocity=0 time=501\n",
      "note_on channel=0 note=67 velocity=110 time=11\n",
      "note_off channel=0 note=67 velocity=0 time=245\n",
      "note_on channel=0 note=70 velocity=110 time=11\n",
      "note_off channel=0 note=70 velocity=0 time=245\n",
      "note_on channel=0 note=69 velocity=110 time=11\n",
      "note_off channel=0 note=69 velocity=0 time=245\n",
      "note_on channel=0 note=65 velocity=110 time=11\n",
      "note_off channel=0 note=65 velocity=0 time=245\n",
      "note_on channel=0 note=69 velocity=110 time=11\n",
      "note_off channel=0 note=69 velocity=0 time=245\n",
      "note_on channel=0 note=74 velocity=110 time=11\n",
      "note_off channel=0 note=74 velocity=0 time=245\n",
      "note_on channel=0 note=77 velocity=110 time=11\n",
      "note_off channel=0 note=77 velocity=0 time=245\n",
      "note_on channel=0 note=69 velocity=110 time=11\n",
      "note_off channel=0 note=69 velocity=0 time=245\n",
      "note_on channel=0 note=74 velocity=110 time=11\n",
      "note_off channel=0 note=74 velocity=0 time=245\n",
      "note_on channel=0 note=77 velocity=110 time=11\n",
      "note_off channel=0 note=77 velocity=0 time=245\n",
      "note_on channel=0 note=76 velocity=110 time=11\n",
      "note_off channel=0 note=76 velocity=0 time=245\n",
      "note_on channel=0 note=67 velocity=110 time=11\n",
      "note_off channel=0 note=67 velocity=0 time=245\n",
      "note_on channel=0 note=70 velocity=110 time=11\n",
      "note_off channel=0 note=70 velocity=0 time=245\n",
      "note_on channel=0 note=73 velocity=110 time=11\n",
      "note_off channel=0 note=73 velocity=0 time=245\n",
      "note_on channel=0 note=76 velocity=110 time=11\n",
      "note_off channel=0 note=76 velocity=0 time=245\n",
      "note_on channel=0 note=73 velocity=110 time=11\n",
      "note_off channel=0 note=73 velocity=0 time=245\n",
      "note_on channel=0 note=76 velocity=110 time=11\n",
      "note_off channel=0 note=76 velocity=0 time=245\n",
      "note_on channel=0 note=79 velocity=110 time=11\n",
      "note_off channel=0 note=79 velocity=0 time=245\n",
      "note_on channel=0 note=77 velocity=110 time=11\n",
      "note_off channel=0 note=77 velocity=0 time=245\n",
      "note_on channel=0 note=81 velocity=110 time=11\n",
      "note_off channel=0 note=81 velocity=0 time=245\n",
      "note_on channel=0 note=86 velocity=110 time=11\n",
      "note_off channel=0 note=86 velocity=0 time=245\n",
      "note_on channel=0 note=81 velocity=110 time=11\n",
      "note_off channel=0 note=81 velocity=0 time=245\n",
      "note_on channel=0 note=77 velocity=110 time=11\n",
      "note_off channel=0 note=77 velocity=0 time=245\n",
      "note_on channel=0 note=86 velocity=110 time=11\n",
      "note_off channel=0 note=86 velocity=0 time=245\n",
      "note_on channel=0 note=81 velocity=110 time=11\n",
      "note_off channel=0 note=81 velocity=0 time=245\n",
      "note_on channel=0 note=77 velocity=110 time=11\n",
      "note_off channel=0 note=77 velocity=0 time=245\n",
      "note_on channel=0 note=76 velocity=110 time=11\n",
      "note_off channel=0 note=76 velocity=0 time=245\n",
      "note_on channel=0 note=79 velocity=110 time=11\n",
      "note_off channel=0 note=79 velocity=0 time=245\n",
      "note_on channel=0 note=85 velocity=110 time=11\n",
      "note_off channel=0 note=85 velocity=0 time=245\n",
      "note_on channel=0 note=79 velocity=110 time=11\n",
      "note_off channel=0 note=79 velocity=0 time=245\n",
      "note_on channel=0 note=76 velocity=110 time=11\n",
      "note_off channel=0 note=76 velocity=0 time=245\n",
      "note_on channel=0 note=85 velocity=110 time=11\n",
      "note_off channel=0 note=85 velocity=0 time=245\n",
      "note_on channel=0 note=79 velocity=110 time=11\n",
      "note_off channel=0 note=79 velocity=0 time=245\n",
      "note_on channel=0 note=76 velocity=110 time=11\n",
      "note_off channel=0 note=76 velocity=0 time=245\n",
      "note_on channel=0 note=69 velocity=110 time=267\n",
      "note_off channel=0 note=69 velocity=0 time=245\n",
      "note_on channel=0 note=74 velocity=110 time=11\n",
      "note_off channel=0 note=74 velocity=0 time=245\n",
      "note_on channel=0 note=69 velocity=110 time=11\n",
      "note_off channel=0 note=69 velocity=0 time=245\n",
      "note_on channel=0 note=77 velocity=110 time=11\n",
      "note_off channel=0 note=77 velocity=0 time=245\n",
      "note_on channel=0 note=69 velocity=110 time=11\n",
      "note_off channel=0 note=69 velocity=0 time=245\n",
      "note_on channel=0 note=74 velocity=110 time=11\n",
      "note_off channel=0 note=74 velocity=0 time=245\n",
      "note_on channel=0 note=69 velocity=110 time=11\n",
      "note_off channel=0 note=69 velocity=0 time=245\n",
      "note_on channel=0 note=75 velocity=110 time=11\n",
      "note_off channel=0 note=75 velocity=0 time=245\n",
      "note_on channel=0 note=67 velocity=110 time=11\n",
      "note_off channel=0 note=67 velocity=0 time=245\n",
      "note_on channel=0 note=74 velocity=110 time=11\n",
      "note_off channel=0 note=74 velocity=0 time=245\n",
      "note_on channel=0 note=69 velocity=110 time=11\n",
      "note_off channel=0 note=69 velocity=0 time=245\n",
      "note_on channel=0 note=75 velocity=110 time=11\n",
      "note_off channel=0 note=75 velocity=0 time=245\n",
      "note_on channel=0 note=69 velocity=110 time=11\n",
      "note_off channel=0 note=69 velocity=0 time=245\n",
      "note_on channel=0 note=74 velocity=110 time=11\n",
      "note_off channel=0 note=74 velocity=0 time=245\n",
      "note_on channel=0 note=69 velocity=110 time=11\n",
      "note_off channel=0 note=69 velocity=0 time=245\n",
      "note_on channel=0 note=67 velocity=110 time=267\n",
      "note_off channel=0 note=67 velocity=0 time=245\n",
      "note_on channel=0 note=73 velocity=110 time=11\n",
      "note_off channel=0 note=73 velocity=0 time=245\n",
      "note_on channel=0 note=67 velocity=110 time=11\n",
      "note_off channel=0 note=67 velocity=0 time=245\n",
      "note_on channel=0 note=67 velocity=110 time=267\n",
      "note_off channel=0 note=67 velocity=0 time=245\n",
      "note_on channel=0 note=73 velocity=110 time=11\n",
      "note_off channel=0 note=73 velocity=0 time=245\n",
      "note_on channel=0 note=67 velocity=110 time=11\n",
      "note_off channel=0 note=67 velocity=0 time=245\n",
      "note_on channel=0 note=67 velocity=110 time=267\n",
      "note_off channel=0 note=67 velocity=0 time=245\n",
      "note_on channel=0 note=73 velocity=110 time=11\n",
      "note_off channel=0 note=73 velocity=0 time=245\n",
      "note_on channel=0 note=67 velocity=110 time=11\n",
      "note_off channel=0 note=67 velocity=0 time=245\n",
      "note_on channel=0 note=67 velocity=110 time=267\n",
      "note_off channel=0 note=67 velocity=0 time=245\n",
      "note_on channel=0 note=73 velocity=110 time=11\n",
      "note_off channel=0 note=73 velocity=0 time=245\n",
      "note_on channel=0 note=67 velocity=110 time=11\n",
      "note_off channel=0 note=67 velocity=0 time=245\n",
      "note_on channel=0 note=68 velocity=110 time=267\n",
      "note_off channel=0 note=68 velocity=0 time=245\n",
      "note_on channel=0 note=71 velocity=110 time=11\n",
      "note_off channel=0 note=71 velocity=0 time=245\n",
      "note_on channel=0 note=68 velocity=110 time=11\n",
      "note_off channel=0 note=68 velocity=0 time=245\n",
      "note_on channel=0 note=74 velocity=110 time=11\n",
      "note_off channel=0 note=74 velocity=0 time=245\n",
      "note_on channel=0 note=68 velocity=110 time=11\n",
      "note_off channel=0 note=68 velocity=0 time=245\n",
      "note_on channel=0 note=71 velocity=110 time=11\n",
      "note_off channel=0 note=71 velocity=0 time=245\n",
      "note_on channel=0 note=68 velocity=110 time=11\n",
      "note_off channel=0 note=68 velocity=0 time=245\n",
      "note_on channel=0 note=68 velocity=110 time=267\n",
      "note_off channel=0 note=68 velocity=0 time=245\n",
      "note_on channel=0 note=71 velocity=110 time=11\n",
      "note_off channel=0 note=71 velocity=0 time=245\n",
      "note_on channel=0 note=68 velocity=110 time=11\n",
      "note_off channel=0 note=68 velocity=0 time=245\n",
      "note_on channel=0 note=73 velocity=110 time=11\n",
      "note_off channel=0 note=73 velocity=0 time=245\n",
      "note_on channel=0 note=67 velocity=110 time=11\n",
      "note_off channel=0 note=67 velocity=0 time=245\n",
      "note_on channel=0 note=70 velocity=110 time=11\n",
      "note_off channel=0 note=70 velocity=0 time=245\n",
      "note_on channel=0 note=67 velocity=110 time=11\n",
      "note_off channel=0 note=67 velocity=0 time=245\n",
      "note_on channel=0 note=69 velocity=110 time=267\n",
      "note_off channel=0 note=69 velocity=0 time=245\n",
      "note_on channel=0 note=74 velocity=110 time=11\n",
      "note_off channel=0 note=74 velocity=0 time=245\n",
      "note_on channel=0 note=69 velocity=110 time=11\n",
      "note_off channel=0 note=69 velocity=0 time=245\n",
      "note_on channel=0 note=77 velocity=110 time=11\n",
      "note_off channel=0 note=77 velocity=0 time=245\n",
      "note_on channel=0 note=69 velocity=110 time=11\n",
      "note_off channel=0 note=69 velocity=0 time=245\n",
      "note_on channel=0 note=74 velocity=110 time=11\n",
      "note_off channel=0 note=74 velocity=0 time=245\n",
      "note_on channel=0 note=69 velocity=110 time=11\n",
      "note_off channel=0 note=69 velocity=0 time=245\n",
      "note_on channel=0 note=69 velocity=110 time=267\n",
      "note_off channel=0 note=69 velocity=0 time=245\n",
      "note_on channel=0 note=74 velocity=110 time=11\n",
      "note_off channel=0 note=74 velocity=0 time=245\n",
      "note_on channel=0 note=69 velocity=110 time=11\n",
      "note_off channel=0 note=69 velocity=0 time=245\n",
      "note_on channel=0 note=77 velocity=110 time=11\n",
      "note_off channel=0 note=77 velocity=0 time=245\n",
      "note_on channel=0 note=74 velocity=110 time=11\n",
      "note_off channel=0 note=74 velocity=0 time=245\n",
      "note_on channel=0 note=77 velocity=110 time=11\n",
      "note_off channel=0 note=77 velocity=0 time=245\n",
      "note_on channel=0 note=81 velocity=110 time=11\n",
      "note_off channel=0 note=81 velocity=0 time=245\n",
      "note_on channel=0 note=74 velocity=110 time=11\n",
      "note_on channel=0 note=86 velocity=110 time=0\n",
      "note_off channel=0 note=74 velocity=0 time=245\n",
      "note_off channel=0 note=86 velocity=0 time=0\n",
      "note_on channel=0 note=74 velocity=110 time=11\n",
      "note_off channel=0 note=74 velocity=0 time=245\n",
      "note_on channel=0 note=77 velocity=110 time=11\n",
      "note_off channel=0 note=77 velocity=0 time=245\n",
      "note_on channel=0 note=74 velocity=110 time=11\n",
      "note_off channel=0 note=74 velocity=0 time=245\n",
      "note_on channel=0 note=81 velocity=110 time=11\n",
      "note_off channel=0 note=81 velocity=0 time=245\n",
      "note_on channel=0 note=74 velocity=110 time=11\n",
      "note_off channel=0 note=74 velocity=0 time=245\n",
      "note_on channel=0 note=77 velocity=110 time=11\n",
      "note_off channel=0 note=77 velocity=0 time=245\n",
      "note_on channel=0 note=74 velocity=110 time=11\n",
      "note_off channel=0 note=74 velocity=0 time=245\n",
      "note_on channel=0 note=75 velocity=110 time=11\n",
      "note_on channel=0 note=81 velocity=110 time=0\n",
      "note_off channel=0 note=75 velocity=0 time=245\n",
      "note_off channel=0 note=81 velocity=0 time=0\n",
      "note_on channel=0 note=74 velocity=110 time=11\n",
      "note_off channel=0 note=74 velocity=0 time=245\n",
      "note_on channel=0 note=74 velocity=110 time=11\n",
      "note_on channel=0 note=77 velocity=110 time=0\n",
      "note_off channel=0 note=74 velocity=0 time=501\n",
      "note_off channel=0 note=77 velocity=0 time=0\n",
      "note_on channel=0 note=73 velocity=110 time=11\n",
      "note_on channel=0 note=81 velocity=110 time=0\n",
      "note_off channel=0 note=73 velocity=0 time=245\n",
      "note_off channel=0 note=81 velocity=0 time=0\n",
      "note_on channel=0 note=74 velocity=110 time=11\n",
      "note_off channel=0 note=74 velocity=0 time=245\n",
      "note_on channel=0 note=68 velocity=110 time=11\n",
      "note_on channel=0 note=77 velocity=110 time=0\n",
      "note_off channel=0 note=68 velocity=0 time=245\n",
      "note_off channel=0 note=77 velocity=0 time=0\n",
      "note_on channel=0 note=74 velocity=110 time=11\n",
      "note_off channel=0 note=74 velocity=0 time=245\n",
      "note_on channel=0 note=69 velocity=110 time=11\n",
      "note_off channel=0 note=69 velocity=0 time=245\n",
      "note_on channel=0 note=73 velocity=110 time=11\n",
      "note_off channel=0 note=73 velocity=0 time=245\n",
      "note_on channel=0 note=76 velocity=110 time=11\n",
      "note_off channel=0 note=76 velocity=0 time=245\n",
      "note_on channel=0 note=73 velocity=110 time=11\n",
      "note_off channel=0 note=73 velocity=0 time=245\n",
      "note_on channel=0 note=79 velocity=110 time=11\n",
      "note_off channel=0 note=79 velocity=0 time=245\n",
      "note_on channel=0 note=73 velocity=110 time=11\n",
      "note_off channel=0 note=73 velocity=0 time=245\n",
      "note_on channel=0 note=76 velocity=110 time=11\n",
      "note_off channel=0 note=76 velocity=0 time=245\n",
      "note_on channel=0 note=73 velocity=110 time=11\n",
      "note_off channel=0 note=73 velocity=0 time=245\n",
      "note_on channel=0 note=69 velocity=110 time=11\n",
      "note_off channel=0 note=69 velocity=0 time=245\n",
      "note_on channel=0 note=73 velocity=110 time=11\n",
      "note_off channel=0 note=73 velocity=0 time=245\n",
      "note_on channel=0 note=76 velocity=110 time=11\n",
      "note_off channel=0 note=76 velocity=0 time=245\n",
      "note_on channel=0 note=73 velocity=110 time=11\n",
      "note_off channel=0 note=73 velocity=0 time=245\n",
      "note_on channel=0 note=79 velocity=110 time=11\n",
      "note_off channel=0 note=79 velocity=0 time=245\n",
      "note_on channel=0 note=73 velocity=110 time=11\n",
      "note_off channel=0 note=73 velocity=0 time=245\n",
      "note_on channel=0 note=76 velocity=110 time=11\n",
      "note_off channel=0 note=76 velocity=0 time=245\n",
      "note_on channel=0 note=73 velocity=110 time=11\n",
      "note_off channel=0 note=73 velocity=0 time=245\n",
      "note_on channel=0 note=68 velocity=110 time=11\n",
      "note_on channel=0 note=71 velocity=110 time=0\n",
      "note_off channel=0 note=68 velocity=0 time=245\n",
      "note_off channel=0 note=71 velocity=0 time=0\n",
      "note_on channel=0 note=74 velocity=110 time=11\n",
      "note_off channel=0 note=74 velocity=0 time=245\n",
      "note_on channel=0 note=77 velocity=110 time=11\n",
      "note_off channel=0 note=77 velocity=0 time=245\n",
      "note_on channel=0 note=74 velocity=110 time=11\n",
      "note_off channel=0 note=74 velocity=0 time=245\n",
      "note_on channel=0 note=80 velocity=110 time=11\n",
      "note_off channel=0 note=80 velocity=0 time=245\n",
      "note_on channel=0 note=74 velocity=110 time=11\n",
      "note_off channel=0 note=74 velocity=0 time=245\n",
      "note_on channel=0 note=77 velocity=110 time=11\n",
      "note_off channel=0 note=77 velocity=0 time=245\n",
      "note_on channel=0 note=74 velocity=110 time=11\n",
      "note_off channel=0 note=74 velocity=0 time=245\n",
      "note_on channel=0 note=69 velocity=110 time=11\n",
      "note_on channel=0 note=71 velocity=110 time=0\n",
      "note_off channel=0 note=69 velocity=0 time=245\n",
      "note_off channel=0 note=71 velocity=0 time=0\n",
      "note_on channel=0 note=74 velocity=110 time=11\n",
      "note_off channel=0 note=74 velocity=0 time=245\n",
      "note_on channel=0 note=77 velocity=110 time=11\n",
      "note_off channel=0 note=77 velocity=0 time=245\n",
      "note_on channel=0 note=74 velocity=110 time=11\n",
      "note_off channel=0 note=74 velocity=0 time=245\n",
      "note_on channel=0 note=67 velocity=110 time=11\n",
      "note_on channel=0 note=79 velocity=110 time=0\n",
      "note_off channel=0 note=67 velocity=0 time=245\n",
      "note_off channel=0 note=79 velocity=0 time=0\n",
      "note_on channel=0 note=70 velocity=110 time=11\n",
      "note_off channel=0 note=70 velocity=0 time=245\n",
      "note_on channel=0 note=73 velocity=110 time=11\n",
      "note_off channel=0 note=73 velocity=0 time=245\n",
      "note_on channel=0 note=70 velocity=110 time=11\n",
      "note_off channel=0 note=70 velocity=0 time=245\n",
      "note_on channel=0 note=69 velocity=110 time=11\n",
      "note_off channel=0 note=69 velocity=0 time=245\n",
      "note_on channel=0 note=74 velocity=110 time=11\n",
      "note_off channel=0 note=74 velocity=0 time=245\n",
      "note_on channel=0 note=77 velocity=110 time=11\n",
      "note_off channel=0 note=77 velocity=0 time=245\n",
      "note_on channel=0 note=74 velocity=110 time=11\n",
      "note_off channel=0 note=74 velocity=0 time=245\n",
      "note_on channel=0 note=81 velocity=110 time=11\n",
      "note_off channel=0 note=81 velocity=0 time=245\n",
      "note_on channel=0 note=69 velocity=110 time=11\n",
      "note_off channel=0 note=69 velocity=0 time=245\n",
      "note_on channel=0 note=74 velocity=110 time=11\n",
      "note_off channel=0 note=74 velocity=0 time=245\n",
      "note_on channel=0 note=77 velocity=110 time=11\n",
      "note_off channel=0 note=77 velocity=0 time=245\n",
      "note_on channel=0 note=74 velocity=110 time=11\n",
      "note_on channel=0 note=77 velocity=110 time=0\n",
      "note_on channel=0 note=81 velocity=110 time=0\n",
      "note_off channel=0 note=74 velocity=0 time=501\n",
      "note_off channel=0 note=77 velocity=0 time=0\n",
      "note_off channel=0 note=81 velocity=0 time=0\n",
      "note_on channel=0 note=74 velocity=110 time=11\n",
      "note_on channel=0 note=77 velocity=110 time=0\n",
      "note_on channel=0 note=81 velocity=110 time=0\n",
      "note_off channel=0 note=74 velocity=0 time=501\n",
      "note_off channel=0 note=77 velocity=0 time=0\n",
      "note_off channel=0 note=81 velocity=0 time=0\n",
      "note_on channel=0 note=74 velocity=110 time=11\n",
      "note_on channel=0 note=77 velocity=110 time=0\n",
      "note_on channel=0 note=81 velocity=110 time=0\n",
      "note_off channel=0 note=74 velocity=0 time=501\n",
      "note_off channel=0 note=77 velocity=0 time=0\n",
      "note_off channel=0 note=81 velocity=0 time=0\n",
      "note_on channel=0 note=74 velocity=110 time=11\n",
      "note_on channel=0 note=77 velocity=110 time=0\n",
      "note_on channel=0 note=81 velocity=110 time=0\n",
      "note_off channel=0 note=74 velocity=0 time=501\n",
      "note_off channel=0 note=77 velocity=0 time=0\n",
      "note_off channel=0 note=81 velocity=0 time=0\n",
      "note_on channel=0 note=57 velocity=110 time=267\n",
      "note_on channel=0 note=62 velocity=110 time=0\n",
      "note_on channel=0 note=65 velocity=110 time=0\n",
      "note_off channel=0 note=57 velocity=0 time=245\n",
      "note_off channel=0 note=62 velocity=0 time=0\n",
      "note_off channel=0 note=65 velocity=0 time=0\n",
      "note_on channel=0 note=57 velocity=110 time=11\n",
      "note_on channel=0 note=62 velocity=110 time=0\n",
      "note_on channel=0 note=65 velocity=110 time=0\n",
      "note_off channel=0 note=57 velocity=0 time=245\n",
      "note_off channel=0 note=62 velocity=0 time=0\n",
      "note_off channel=0 note=65 velocity=0 time=0\n",
      "note_on channel=0 note=57 velocity=110 time=11\n",
      "note_on channel=0 note=62 velocity=110 time=0\n",
      "note_on channel=0 note=65 velocity=110 time=0\n",
      "note_off channel=0 note=57 velocity=0 time=245\n",
      "note_off channel=0 note=62 velocity=0 time=0\n",
      "note_off channel=0 note=65 velocity=0 time=0\n",
      "note_on channel=0 note=58 velocity=110 time=11\n",
      "note_on channel=0 note=64 velocity=110 time=0\n",
      "note_off channel=0 note=58 velocity=0 time=245\n",
      "note_off channel=0 note=64 velocity=0 time=0\n",
      "note_on channel=0 note=58 velocity=110 time=11\n",
      "note_on channel=0 note=64 velocity=110 time=0\n",
      "note_off channel=0 note=58 velocity=0 time=245\n",
      "note_off channel=0 note=64 velocity=0 time=0\n",
      "note_on channel=0 note=55 velocity=110 time=11\n",
      "note_on channel=0 note=61 velocity=110 time=0\n",
      "note_off channel=0 note=55 velocity=0 time=245\n",
      "note_off channel=0 note=61 velocity=0 time=0\n",
      "note_on channel=0 note=55 velocity=110 time=11\n",
      "note_on channel=0 note=61 velocity=110 time=0\n",
      "note_off channel=0 note=55 velocity=0 time=245\n",
      "note_off channel=0 note=61 velocity=0 time=0\n",
      "note_on channel=0 note=57 velocity=110 time=11\n",
      "note_on channel=0 note=62 velocity=110 time=0\n",
      "note_off channel=0 note=57 velocity=0 time=245\n",
      "note_off channel=0 note=62 velocity=0 time=0\n",
      "note_on channel=0 note=57 velocity=110 time=11\n",
      "note_on channel=0 note=62 velocity=110 time=0\n",
      "note_off channel=0 note=57 velocity=0 time=245\n",
      "note_off channel=0 note=62 velocity=0 time=0\n",
      "note_on channel=0 note=57 velocity=110 time=11\n",
      "note_on channel=0 note=62 velocity=110 time=0\n",
      "note_on channel=0 note=65 velocity=110 time=0\n",
      "note_off channel=0 note=57 velocity=0 time=245\n",
      "note_off channel=0 note=62 velocity=0 time=0\n",
      "note_off channel=0 note=65 velocity=0 time=0\n",
      "note_on channel=0 note=57 velocity=110 time=11\n",
      "note_on channel=0 note=62 velocity=110 time=0\n",
      "note_on channel=0 note=65 velocity=110 time=0\n",
      "note_off channel=0 note=57 velocity=0 time=245\n",
      "note_off channel=0 note=62 velocity=0 time=0\n",
      "note_off channel=0 note=65 velocity=0 time=0\n",
      "note_on channel=0 note=58 velocity=110 time=11\n",
      "note_on channel=0 note=64 velocity=110 time=0\n",
      "note_off channel=0 note=58 velocity=0 time=245\n",
      "note_off channel=0 note=64 velocity=0 time=0\n",
      "note_on channel=0 note=58 velocity=110 time=11\n",
      "note_on channel=0 note=64 velocity=110 time=0\n",
      "note_off channel=0 note=58 velocity=0 time=245\n",
      "note_off channel=0 note=64 velocity=0 time=0\n",
      "note_on channel=0 note=55 velocity=110 time=11\n",
      "note_on channel=0 note=61 velocity=110 time=0\n",
      "note_off channel=0 note=55 velocity=0 time=245\n",
      "note_off channel=0 note=61 velocity=0 time=0\n",
      "note_on channel=0 note=55 velocity=110 time=11\n",
      "note_on channel=0 note=61 velocity=110 time=0\n",
      "note_off channel=0 note=55 velocity=0 time=245\n",
      "note_off channel=0 note=61 velocity=0 time=0\n",
      "note_on channel=0 note=62 velocity=110 time=267\n",
      "note_on channel=0 note=65 velocity=110 time=0\n",
      "note_on channel=0 note=69 velocity=110 time=0\n",
      "note_off channel=0 note=62 velocity=0 time=245\n",
      "note_off channel=0 note=65 velocity=0 time=0\n",
      "note_off channel=0 note=69 velocity=0 time=0\n",
      "note_on channel=0 note=62 velocity=110 time=11\n",
      "note_on channel=0 note=65 velocity=110 time=0\n",
      "note_on channel=0 note=69 velocity=110 time=0\n",
      "note_off channel=0 note=62 velocity=0 time=245\n",
      "note_off channel=0 note=65 velocity=0 time=0\n",
      "note_off channel=0 note=69 velocity=0 time=0\n",
      "note_on channel=0 note=62 velocity=110 time=11\n",
      "note_on channel=0 note=65 velocity=110 time=0\n",
      "note_on channel=0 note=69 velocity=110 time=0\n",
      "note_off channel=0 note=62 velocity=0 time=245\n",
      "note_off channel=0 note=65 velocity=0 time=0\n",
      "note_off channel=0 note=69 velocity=0 time=0\n",
      "note_on channel=0 note=62 velocity=110 time=11\n",
      "note_on channel=0 note=65 velocity=110 time=0\n",
      "note_on channel=0 note=74 velocity=110 time=0\n",
      "note_off channel=0 note=62 velocity=0 time=245\n",
      "note_off channel=0 note=65 velocity=0 time=0\n",
      "note_off channel=0 note=74 velocity=0 time=0\n",
      "note_on channel=0 note=62 velocity=110 time=11\n",
      "note_on channel=0 note=65 velocity=110 time=0\n",
      "note_on channel=0 note=74 velocity=110 time=0\n",
      "note_off channel=0 note=62 velocity=0 time=245\n",
      "note_off channel=0 note=65 velocity=0 time=0\n",
      "note_off channel=0 note=74 velocity=0 time=0\n",
      "note_on channel=0 note=62 velocity=110 time=11\n",
      "note_on channel=0 note=65 velocity=110 time=0\n",
      "note_on channel=0 note=69 velocity=110 time=0\n",
      "note_off channel=0 note=62 velocity=0 time=245\n",
      "note_off channel=0 note=65 velocity=0 time=0\n",
      "note_off channel=0 note=69 velocity=0 time=0\n",
      "note_on channel=0 note=62 velocity=110 time=11\n",
      "note_on channel=0 note=65 velocity=110 time=0\n",
      "note_on channel=0 note=69 velocity=110 time=0\n",
      "note_off channel=0 note=62 velocity=0 time=245\n",
      "note_off channel=0 note=65 velocity=0 time=0\n",
      "note_off channel=0 note=69 velocity=0 time=0\n",
      "note_on channel=0 note=67 velocity=110 time=11\n",
      "note_on channel=0 note=76 velocity=110 time=0\n",
      "note_on channel=0 note=82 velocity=110 time=0\n",
      "note_off channel=0 note=67 velocity=0 time=245\n",
      "note_off channel=0 note=76 velocity=0 time=0\n",
      "note_off channel=0 note=82 velocity=0 time=0\n",
      "note_on channel=0 note=67 velocity=110 time=11\n",
      "note_on channel=0 note=76 velocity=110 time=0\n",
      "note_on channel=0 note=82 velocity=110 time=0\n",
      "note_off channel=0 note=67 velocity=0 time=245\n",
      "note_off channel=0 note=76 velocity=0 time=0\n",
      "note_off channel=0 note=82 velocity=0 time=0\n",
      "note_on channel=0 note=67 velocity=110 time=11\n",
      "note_on channel=0 note=73 velocity=110 time=0\n",
      "note_on channel=0 note=79 velocity=110 time=0\n",
      "note_off channel=0 note=67 velocity=0 time=245\n",
      "note_off channel=0 note=73 velocity=0 time=0\n",
      "note_off channel=0 note=79 velocity=0 time=0\n",
      "note_on channel=0 note=67 velocity=110 time=11\n",
      "note_on channel=0 note=73 velocity=110 time=0\n",
      "note_on channel=0 note=79 velocity=110 time=0\n",
      "note_off channel=0 note=67 velocity=0 time=245\n",
      "note_off channel=0 note=73 velocity=0 time=0\n",
      "note_off channel=0 note=79 velocity=0 time=0\n",
      "note_on channel=0 note=67 velocity=110 time=11\n",
      "note_on channel=0 note=70 velocity=110 time=0\n",
      "note_on channel=0 note=79 velocity=110 time=0\n",
      "note_on channel=0 note=85 velocity=110 time=0\n",
      "note_off channel=0 note=67 velocity=0 time=245\n",
      "note_off channel=0 note=70 velocity=0 time=0\n",
      "note_off channel=0 note=79 velocity=0 time=0\n",
      "note_off channel=0 note=85 velocity=0 time=0\n",
      "note_on channel=0 note=67 velocity=110 time=11\n",
      "note_on channel=0 note=70 velocity=110 time=0\n",
      "note_on channel=0 note=79 velocity=110 time=0\n",
      "note_on channel=0 note=85 velocity=110 time=0\n",
      "note_off channel=0 note=67 velocity=0 time=245\n",
      "note_off channel=0 note=70 velocity=0 time=0\n",
      "note_off channel=0 note=79 velocity=0 time=0\n",
      "note_off channel=0 note=85 velocity=0 time=0\n",
      "note_on channel=0 note=67 velocity=110 time=11\n",
      "note_on channel=0 note=70 velocity=110 time=0\n",
      "note_on channel=0 note=76 velocity=110 time=0\n",
      "note_on channel=0 note=82 velocity=110 time=0\n",
      "note_off channel=0 note=67 velocity=0 time=245\n",
      "note_off channel=0 note=70 velocity=0 time=0\n",
      "note_off channel=0 note=76 velocity=0 time=0\n",
      "note_off channel=0 note=82 velocity=0 time=0\n",
      "note_on channel=0 note=67 velocity=110 time=11\n",
      "note_on channel=0 note=70 velocity=110 time=0\n",
      "note_on channel=0 note=76 velocity=110 time=0\n",
      "note_on channel=0 note=82 velocity=110 time=0\n",
      "note_off channel=0 note=67 velocity=0 time=245\n",
      "note_off channel=0 note=70 velocity=0 time=0\n",
      "note_off channel=0 note=76 velocity=0 time=0\n",
      "note_off channel=0 note=82 velocity=0 time=0\n",
      "note_on channel=0 note=62 velocity=110 time=2315\n",
      "note_off channel=0 note=62 velocity=0 time=501\n",
      "note_on channel=0 note=65 velocity=110 time=11\n",
      "note_off channel=0 note=65 velocity=0 time=501\n",
      "note_on channel=0 note=66 velocity=110 time=11\n",
      "note_off channel=0 note=66 velocity=0 time=245\n",
      "note_on channel=0 note=67 velocity=110 time=11\n",
      "note_off channel=0 note=67 velocity=0 time=501\n",
      "note_on channel=0 note=57 velocity=110 time=11\n",
      "note_on channel=0 note=60 velocity=110 time=0\n",
      "note_off channel=0 note=57 velocity=0 time=501\n",
      "note_off channel=0 note=60 velocity=0 time=0\n",
      "note_on channel=0 note=57 velocity=110 time=11\n",
      "note_on channel=0 note=60 velocity=110 time=0\n",
      "note_off channel=0 note=57 velocity=0 time=501\n",
      "note_off channel=0 note=60 velocity=0 time=0\n",
      "note_on channel=0 note=57 velocity=110 time=11\n",
      "note_on channel=0 note=60 velocity=110 time=0\n",
      "note_off channel=0 note=57 velocity=0 time=501\n",
      "note_off channel=0 note=60 velocity=0 time=0\n",
      "note_on channel=0 note=53 velocity=110 time=11\n",
      "note_on channel=0 note=57 velocity=110 time=0\n",
      "note_off channel=0 note=53 velocity=0 time=245\n",
      "note_off channel=0 note=57 velocity=0 time=0\n",
      "note_on channel=0 note=57 velocity=110 time=11\n",
      "note_on channel=0 note=60 velocity=110 time=0\n",
      "note_off channel=0 note=57 velocity=0 time=245\n",
      "note_off channel=0 note=60 velocity=0 time=0\n",
      "note_on channel=0 note=57 velocity=110 time=267\n",
      "note_on channel=0 note=60 velocity=110 time=0\n",
      "note_off channel=0 note=57 velocity=0 time=501\n",
      "note_off channel=0 note=60 velocity=0 time=0\n",
      "note_on channel=0 note=53 velocity=110 time=11\n",
      "note_on channel=0 note=57 velocity=110 time=0\n",
      "note_off channel=0 note=53 velocity=0 time=245\n",
      "note_off channel=0 note=57 velocity=0 time=0\n",
      "note_on channel=0 note=57 velocity=110 time=11\n",
      "note_on channel=0 note=60 velocity=110 time=0\n",
      "note_off channel=0 note=57 velocity=0 time=245\n",
      "note_off channel=0 note=60 velocity=0 time=0\n",
      "note_on channel=0 note=53 velocity=110 time=11\n",
      "note_on channel=0 note=57 velocity=110 time=0\n",
      "note_off channel=0 note=53 velocity=0 time=245\n",
      "note_off channel=0 note=57 velocity=0 time=0\n",
      "note_on channel=0 note=57 velocity=110 time=11\n",
      "note_on channel=0 note=60 velocity=110 time=0\n",
      "note_off channel=0 note=57 velocity=0 time=501\n",
      "note_off channel=0 note=60 velocity=0 time=0\n",
      "note_on channel=0 note=55 velocity=110 time=11\n",
      "note_on channel=0 note=59 velocity=110 time=0\n",
      "note_off channel=0 note=55 velocity=0 time=501\n",
      "note_off channel=0 note=59 velocity=0 time=0\n",
      "note_on channel=0 note=55 velocity=110 time=11\n",
      "note_on channel=0 note=59 velocity=110 time=0\n",
      "note_off channel=0 note=55 velocity=0 time=501\n",
      "note_off channel=0 note=59 velocity=0 time=0\n",
      "note_on channel=0 note=55 velocity=110 time=11\n",
      "note_on channel=0 note=59 velocity=110 time=0\n",
      "note_off channel=0 note=55 velocity=0 time=501\n",
      "note_off channel=0 note=59 velocity=0 time=0\n",
      "note_on channel=0 note=52 velocity=110 time=11\n",
      "note_on channel=0 note=55 velocity=110 time=0\n",
      "note_off channel=0 note=52 velocity=0 time=245\n",
      "note_off channel=0 note=55 velocity=0 time=0\n",
      "note_on channel=0 note=55 velocity=110 time=11\n",
      "note_on channel=0 note=59 velocity=110 time=0\n",
      "note_off channel=0 note=55 velocity=0 time=245\n",
      "note_off channel=0 note=59 velocity=0 time=0\n",
      "note_on channel=0 note=55 velocity=110 time=267\n",
      "note_on channel=0 note=59 velocity=110 time=0\n",
      "note_off channel=0 note=55 velocity=0 time=501\n",
      "note_off channel=0 note=59 velocity=0 time=0\n",
      "note_on channel=0 note=52 velocity=110 time=11\n",
      "note_on channel=0 note=55 velocity=110 time=0\n",
      "note_off channel=0 note=52 velocity=0 time=245\n",
      "note_off channel=0 note=55 velocity=0 time=0\n",
      "note_on channel=0 note=55 velocity=110 time=11\n",
      "note_on channel=0 note=59 velocity=110 time=0\n",
      "note_off channel=0 note=55 velocity=0 time=245\n",
      "note_off channel=0 note=59 velocity=0 time=0\n",
      "note_on channel=0 note=52 velocity=110 time=11\n",
      "note_on channel=0 note=55 velocity=110 time=0\n",
      "note_off channel=0 note=52 velocity=0 time=245\n",
      "note_off channel=0 note=55 velocity=0 time=0\n",
      "note_on channel=0 note=55 velocity=110 time=11\n",
      "note_on channel=0 note=59 velocity=110 time=0\n",
      "note_off channel=0 note=55 velocity=0 time=501\n",
      "note_off channel=0 note=59 velocity=0 time=0\n",
      "note_on channel=0 note=57 velocity=110 time=11\n",
      "note_on channel=0 note=60 velocity=110 time=0\n",
      "note_off channel=0 note=57 velocity=0 time=501\n",
      "note_off channel=0 note=60 velocity=0 time=0\n",
      "note_on channel=0 note=57 velocity=110 time=11\n",
      "note_on channel=0 note=60 velocity=110 time=0\n",
      "note_off channel=0 note=57 velocity=0 time=501\n",
      "note_off channel=0 note=60 velocity=0 time=0\n",
      "note_on channel=0 note=57 velocity=110 time=11\n",
      "note_on channel=0 note=60 velocity=110 time=0\n",
      "note_off channel=0 note=57 velocity=0 time=501\n",
      "note_off channel=0 note=60 velocity=0 time=0\n",
      "note_on channel=0 note=53 velocity=110 time=11\n",
      "note_on channel=0 note=57 velocity=110 time=0\n",
      "note_off channel=0 note=53 velocity=0 time=245\n",
      "note_off channel=0 note=57 velocity=0 time=0\n",
      "note_on channel=0 note=57 velocity=110 time=11\n",
      "note_on channel=0 note=60 velocity=110 time=0\n",
      "note_off channel=0 note=57 velocity=0 time=245\n",
      "note_off channel=0 note=60 velocity=0 time=0\n",
      "note_on channel=0 note=57 velocity=110 time=267\n",
      "note_on channel=0 note=60 velocity=110 time=0\n",
      "note_off channel=0 note=57 velocity=0 time=501\n",
      "note_off channel=0 note=60 velocity=0 time=0\n",
      "note_on channel=0 note=53 velocity=110 time=11\n",
      "note_on channel=0 note=57 velocity=110 time=0\n",
      "note_off channel=0 note=53 velocity=0 time=245\n",
      "note_off channel=0 note=57 velocity=0 time=0\n",
      "note_on channel=0 note=57 velocity=110 time=11\n",
      "note_on channel=0 note=60 velocity=110 time=0\n",
      "note_off channel=0 note=57 velocity=0 time=245\n",
      "note_off channel=0 note=60 velocity=0 time=0\n",
      "note_on channel=0 note=53 velocity=110 time=11\n",
      "note_on channel=0 note=57 velocity=110 time=0\n",
      "note_off channel=0 note=53 velocity=0 time=245\n",
      "note_off channel=0 note=57 velocity=0 time=0\n",
      "note_on channel=0 note=57 velocity=110 time=11\n",
      "note_on channel=0 note=60 velocity=110 time=0\n",
      "note_off channel=0 note=57 velocity=0 time=501\n",
      "note_off channel=0 note=60 velocity=0 time=0\n",
      "note_on channel=0 note=55 velocity=110 time=11\n",
      "note_on channel=0 note=59 velocity=110 time=0\n",
      "note_off channel=0 note=55 velocity=0 time=501\n",
      "note_off channel=0 note=59 velocity=0 time=0\n",
      "note_on channel=0 note=55 velocity=110 time=11\n",
      "note_on channel=0 note=59 velocity=110 time=0\n",
      "note_off channel=0 note=55 velocity=0 time=501\n",
      "note_off channel=0 note=59 velocity=0 time=0\n",
      "note_on channel=0 note=55 velocity=110 time=11\n",
      "note_on channel=0 note=59 velocity=110 time=0\n",
      "note_off channel=0 note=55 velocity=0 time=501\n",
      "note_off channel=0 note=59 velocity=0 time=0\n",
      "note_on channel=0 note=52 velocity=110 time=11\n",
      "note_on channel=0 note=55 velocity=110 time=0\n",
      "note_off channel=0 note=52 velocity=0 time=245\n",
      "note_off channel=0 note=55 velocity=0 time=0\n",
      "note_on channel=0 note=55 velocity=110 time=11\n",
      "note_on channel=0 note=59 velocity=110 time=0\n",
      "note_off channel=0 note=55 velocity=0 time=245\n",
      "note_off channel=0 note=59 velocity=0 time=0\n",
      "note_on channel=0 note=55 velocity=110 time=267\n",
      "note_on channel=0 note=59 velocity=110 time=0\n",
      "note_off channel=0 note=55 velocity=0 time=501\n",
      "note_off channel=0 note=59 velocity=0 time=0\n",
      "note_on channel=0 note=52 velocity=110 time=11\n",
      "note_on channel=0 note=55 velocity=110 time=0\n",
      "note_off channel=0 note=52 velocity=0 time=245\n",
      "note_off channel=0 note=55 velocity=0 time=0\n",
      "note_on channel=0 note=55 velocity=110 time=11\n",
      "note_on channel=0 note=59 velocity=110 time=0\n",
      "note_off channel=0 note=55 velocity=0 time=245\n",
      "note_off channel=0 note=59 velocity=0 time=0\n",
      "note_on channel=0 note=52 velocity=110 time=11\n",
      "note_on channel=0 note=55 velocity=110 time=0\n",
      "note_off channel=0 note=52 velocity=0 time=245\n",
      "note_off channel=0 note=55 velocity=0 time=0\n",
      "note_on channel=0 note=55 velocity=110 time=11\n",
      "note_on channel=0 note=59 velocity=110 time=0\n",
      "note_off channel=0 note=55 velocity=0 time=501\n",
      "note_off channel=0 note=59 velocity=0 time=0\n",
      "note_on channel=0 note=57 velocity=110 time=11\n",
      "note_on channel=0 note=60 velocity=110 time=0\n",
      "note_off channel=0 note=57 velocity=0 time=3840\n",
      "note_off channel=0 note=60 velocity=0 time=0\n",
      "note_on channel=0 note=55 velocity=110 time=256\n",
      "note_on channel=0 note=59 velocity=110 time=0\n",
      "note_on channel=0 note=64 velocity=110 time=0\n",
      "note_off channel=0 note=55 velocity=0 time=1792\n",
      "note_off channel=0 note=59 velocity=0 time=0\n",
      "note_off channel=0 note=64 velocity=0 time=0\n",
      "note_on channel=0 note=64 velocity=110 time=768\n",
      "note_off channel=0 note=64 velocity=0 time=501\n",
      "note_on channel=0 note=65 velocity=110 time=11\n",
      "note_off channel=0 note=65 velocity=0 time=373\n",
      "note_on channel=0 note=67 velocity=110 time=11\n",
      "note_off channel=0 note=67 velocity=0 time=629\n",
      "note_on channel=0 note=60 velocity=110 time=11\n",
      "note_on channel=0 note=65 velocity=110 time=0\n",
      "note_on channel=0 note=69 velocity=110 time=0\n",
      "note_off channel=0 note=60 velocity=0 time=1792\n",
      "note_off channel=0 note=65 velocity=0 time=0\n",
      "note_off channel=0 note=69 velocity=0 time=0\n",
      "note_on channel=0 note=69 velocity=110 time=768\n",
      "note_off channel=0 note=69 velocity=0 time=501\n",
      "note_on channel=0 note=67 velocity=110 time=11\n",
      "note_off channel=0 note=67 velocity=0 time=373\n",
      "note_on channel=0 note=65 velocity=110 time=11\n",
      "note_off channel=0 note=65 velocity=0 time=629\n",
      "note_on channel=0 note=55 velocity=110 time=11\n",
      "note_on channel=0 note=59 velocity=110 time=0\n",
      "note_on channel=0 note=64 velocity=110 time=0\n",
      "note_off channel=0 note=55 velocity=0 time=1792\n",
      "note_off channel=0 note=59 velocity=0 time=0\n",
      "note_off channel=0 note=64 velocity=0 time=0\n",
      "note_on channel=0 note=64 velocity=110 time=768\n",
      "note_off channel=0 note=64 velocity=0 time=501\n",
      "note_on channel=0 note=65 velocity=110 time=11\n",
      "note_off channel=0 note=65 velocity=0 time=373\n",
      "note_on channel=0 note=67 velocity=110 time=11\n",
      "note_off channel=0 note=67 velocity=0 time=629\n",
      "note_on channel=0 note=60 velocity=110 time=11\n",
      "note_on channel=0 note=65 velocity=110 time=0\n",
      "note_on channel=0 note=69 velocity=110 time=0\n",
      "note_off channel=0 note=60 velocity=0 time=1792\n",
      "note_off channel=0 note=65 velocity=0 time=0\n",
      "note_off channel=0 note=69 velocity=0 time=0\n",
      "note_on channel=0 note=71 velocity=110 time=768\n",
      "note_off channel=0 note=71 velocity=0 time=501\n",
      "note_on channel=0 note=72 velocity=110 time=11\n",
      "note_off channel=0 note=72 velocity=0 time=373\n",
      "note_on channel=0 note=74 velocity=110 time=11\n",
      "note_off channel=0 note=74 velocity=0 time=629\n",
      "note_on channel=0 note=55 velocity=110 time=11\n",
      "note_on channel=0 note=59 velocity=110 time=0\n",
      "note_on channel=0 note=64 velocity=110 time=0\n",
      "note_off channel=0 note=55 velocity=0 time=1792\n",
      "note_off channel=0 note=59 velocity=0 time=0\n",
      "note_off channel=0 note=64 velocity=0 time=0\n",
      "note_on channel=0 note=64 velocity=110 time=768\n",
      "note_off channel=0 note=64 velocity=0 time=501\n",
      "note_on channel=0 note=65 velocity=110 time=11\n",
      "note_off channel=0 note=65 velocity=0 time=373\n",
      "note_on channel=0 note=67 velocity=110 time=11\n",
      "note_off channel=0 note=67 velocity=0 time=629\n",
      "note_on channel=0 note=60 velocity=110 time=11\n",
      "note_on channel=0 note=65 velocity=110 time=0\n",
      "note_on channel=0 note=69 velocity=110 time=0\n",
      "note_off channel=0 note=60 velocity=0 time=1792\n",
      "note_off channel=0 note=65 velocity=0 time=0\n",
      "note_off channel=0 note=69 velocity=0 time=0\n",
      "note_on channel=0 note=62 velocity=110 time=256\n",
      "note_on channel=0 note=67 velocity=110 time=0\n",
      "note_on channel=0 note=71 velocity=110 time=0\n",
      "note_off channel=0 note=62 velocity=0 time=501\n",
      "note_off channel=0 note=67 velocity=0 time=0\n",
      "note_off channel=0 note=71 velocity=0 time=0\n",
      "note_on channel=0 note=62 velocity=110 time=11\n",
      "note_on channel=0 note=67 velocity=110 time=0\n",
      "note_on channel=0 note=71 velocity=110 time=0\n",
      "note_off channel=0 note=62 velocity=0 time=501\n",
      "note_off channel=0 note=67 velocity=0 time=0\n",
      "note_off channel=0 note=71 velocity=0 time=0\n",
      "note_on channel=0 note=62 velocity=110 time=395\n",
      "note_on channel=0 note=67 velocity=110 time=0\n",
      "note_on channel=0 note=71 velocity=110 time=0\n",
      "note_off channel=0 note=62 velocity=0 time=629\n",
      "note_off channel=0 note=67 velocity=0 time=0\n",
      "note_off channel=0 note=71 velocity=0 time=0\n",
      "note_on channel=0 note=64 velocity=110 time=11\n",
      "note_off channel=0 note=64 velocity=0 time=1365\n",
      "note_on channel=0 note=64 velocity=110 time=171\n",
      "note_off channel=0 note=64 velocity=0 time=501\n",
      "note_on channel=0 note=65 velocity=110 time=11\n",
      "note_off channel=0 note=65 velocity=0 time=501\n",
      "note_on channel=0 note=64 velocity=110 time=11\n",
      "note_off channel=0 note=64 velocity=0 time=501\n",
      "note_on channel=0 note=65 velocity=110 time=11\n",
      "note_off channel=0 note=65 velocity=0 time=501\n",
      "note_on channel=0 note=67 velocity=110 time=11\n",
      "note_off channel=0 note=67 velocity=0 time=501\n",
      "note_on channel=0 note=64 velocity=110 time=11\n",
      "note_off channel=0 note=64 velocity=0 time=1792\n",
      "note_on channel=0 note=60 velocity=110 time=256\n",
      "note_off channel=0 note=60 velocity=0 time=853\n",
      "note_on channel=0 note=64 velocity=110 time=171\n",
      "note_off channel=0 note=64 velocity=0 time=501\n",
      "note_on channel=0 note=67 velocity=110 time=11\n",
      "note_off channel=0 note=67 velocity=0 time=501\n",
      "note_on channel=0 note=69 velocity=110 time=11\n",
      "note_off channel=0 note=69 velocity=0 time=853\n",
      "note_on channel=0 note=69 velocity=110 time=171\n",
      "note_off channel=0 note=69 velocity=0 time=501\n",
      "note_on channel=0 note=69 velocity=110 time=11\n",
      "note_off channel=0 note=69 velocity=0 time=501\n",
      "note_on channel=0 note=71 velocity=110 time=11\n",
      "note_off channel=0 note=71 velocity=0 time=853\n",
      "note_on channel=0 note=74 velocity=110 time=171\n",
      "note_off channel=0 note=74 velocity=0 time=501\n",
      "note_on channel=0 note=72 velocity=110 time=11\n",
      "note_off channel=0 note=72 velocity=0 time=501\n",
      "note_on channel=0 note=67 velocity=110 time=11\n",
      "note_off channel=0 note=67 velocity=0 time=2816\n",
      "note_on channel=0 note=69 velocity=110 time=1280\n",
      "note_off channel=0 note=69 velocity=0 time=1365\n",
      "note_on channel=0 note=69 velocity=110 time=171\n",
      "note_off channel=0 note=69 velocity=0 time=501\n",
      "note_on channel=0 note=71 velocity=110 time=11\n",
      "note_off channel=0 note=71 velocity=0 time=853\n",
      "note_on channel=0 note=74 velocity=110 time=171\n",
      "note_off channel=0 note=74 velocity=0 time=501\n",
      "note_on channel=0 note=72 velocity=110 time=11\n",
      "note_off channel=0 note=72 velocity=0 time=501\n",
      "note_on channel=0 note=67 velocity=110 time=11\n",
      "note_off channel=0 note=67 velocity=0 time=1792\n",
      "note_on channel=0 note=72 velocity=110 time=256\n",
      "note_off channel=0 note=72 velocity=0 time=853\n",
      "note_on channel=0 note=60 velocity=110 time=171\n",
      "note_off channel=0 note=60 velocity=0 time=501\n",
      "note_on channel=0 note=62 velocity=110 time=11\n",
      "note_off channel=0 note=62 velocity=0 time=501\n",
      "note_on channel=0 note=65 velocity=110 time=11\n",
      "note_off channel=0 note=65 velocity=0 time=1365\n",
      "note_on channel=0 note=67 velocity=110 time=171\n",
      "note_off channel=0 note=67 velocity=0 time=629\n",
      "note_on channel=0 note=65 velocity=110 time=11\n",
      "note_off channel=0 note=65 velocity=0 time=501\n",
      "note_on channel=0 note=64 velocity=110 time=11\n",
      "note_off channel=0 note=64 velocity=0 time=373\n",
      "note_on channel=0 note=62 velocity=110 time=11\n",
      "note_off channel=0 note=62 velocity=0 time=501\n",
      "note_on channel=0 note=60 velocity=110 time=11\n",
      "note_off channel=0 note=60 velocity=0 time=501\n",
      "note_on channel=0 note=67 velocity=110 time=11\n",
      "note_off channel=0 note=67 velocity=0 time=3840\n",
      "note_on channel=0 note=64 velocity=110 time=256\n",
      "note_off channel=0 note=64 velocity=0 time=1365\n",
      "note_on channel=0 note=64 velocity=110 time=171\n",
      "note_off channel=0 note=64 velocity=0 time=501\n",
      "note_on channel=0 note=65 velocity=110 time=11\n",
      "note_off channel=0 note=65 velocity=0 time=501\n",
      "note_on channel=0 note=64 velocity=110 time=11\n",
      "note_off channel=0 note=64 velocity=0 time=501\n",
      "note_on channel=0 note=65 velocity=110 time=11\n",
      "note_off channel=0 note=65 velocity=0 time=501\n",
      "note_on channel=0 note=67 velocity=110 time=11\n",
      "note_off channel=0 note=67 velocity=0 time=501\n",
      "note_on channel=0 note=64 velocity=110 time=11\n",
      "note_off channel=0 note=64 velocity=0 time=1792\n",
      "note_on channel=0 note=60 velocity=110 time=256\n",
      "note_off channel=0 note=60 velocity=0 time=853\n",
      "note_on channel=0 note=64 velocity=110 time=171\n",
      "note_off channel=0 note=64 velocity=0 time=501\n",
      "note_on channel=0 note=67 velocity=110 time=11\n",
      "note_off channel=0 note=67 velocity=0 time=501\n",
      "note_on channel=0 note=69 velocity=110 time=11\n",
      "note_off channel=0 note=69 velocity=0 time=853\n",
      "note_on channel=0 note=69 velocity=110 time=171\n",
      "note_off channel=0 note=69 velocity=0 time=501\n",
      "note_on channel=0 note=69 velocity=110 time=11\n",
      "note_off channel=0 note=69 velocity=0 time=501\n",
      "note_on channel=0 note=71 velocity=110 time=11\n",
      "note_off channel=0 note=71 velocity=0 time=853\n",
      "note_on channel=0 note=74 velocity=110 time=171\n",
      "note_off channel=0 note=74 velocity=0 time=501\n",
      "note_on channel=0 note=72 velocity=110 time=11\n",
      "note_off channel=0 note=72 velocity=0 time=501\n",
      "note_on channel=0 note=67 velocity=110 time=11\n",
      "note_off channel=0 note=67 velocity=0 time=2816\n",
      "note_on channel=0 note=69 velocity=110 time=1280\n",
      "note_off channel=0 note=69 velocity=0 time=1365\n",
      "note_on channel=0 note=69 velocity=110 time=171\n",
      "note_off channel=0 note=69 velocity=0 time=501\n",
      "note_on channel=0 note=71 velocity=110 time=11\n",
      "note_off channel=0 note=71 velocity=0 time=853\n",
      "note_on channel=0 note=74 velocity=110 time=171\n",
      "note_off channel=0 note=74 velocity=0 time=501\n",
      "note_on channel=0 note=72 velocity=110 time=11\n",
      "note_off channel=0 note=72 velocity=0 time=501\n",
      "note_on channel=0 note=67 velocity=110 time=11\n",
      "note_off channel=0 note=67 velocity=0 time=1792\n",
      "note_on channel=0 note=72 velocity=110 time=256\n",
      "note_off channel=0 note=72 velocity=0 time=853\n",
      "note_on channel=0 note=72 velocity=110 time=171\n",
      "note_off channel=0 note=72 velocity=0 time=501\n",
      "note_on channel=0 note=74 velocity=110 time=11\n",
      "note_off channel=0 note=74 velocity=0 time=501\n",
      "note_on channel=0 note=77 velocity=110 time=11\n",
      "note_off channel=0 note=77 velocity=0 time=853\n",
      "note_on channel=0 note=76 velocity=110 time=171\n",
      "note_off channel=0 note=76 velocity=0 time=853\n",
      "note_on channel=0 note=71 velocity=110 time=171\n",
      "note_off channel=0 note=71 velocity=0 time=853\n",
      "note_on channel=0 note=72 velocity=110 time=683\n",
      "note_off channel=0 note=72 velocity=0 time=501\n",
      "note_on channel=0 note=72 velocity=110 time=11\n",
      "note_off channel=0 note=72 velocity=0 time=1792\n",
      "note_on channel=0 note=72 velocity=110 time=2304\n",
      "note_off channel=0 note=72 velocity=0 time=853\n",
      "note_on channel=0 note=74 velocity=110 time=683\n",
      "note_off channel=0 note=74 velocity=0 time=501\n",
      "note_on channel=0 note=76 velocity=110 time=1035\n",
      "note_off channel=0 note=76 velocity=0 time=853\n",
      "note_on channel=0 note=71 velocity=110 time=171\n",
      "note_off channel=0 note=71 velocity=0 time=853\n",
      "note_on channel=0 note=67 velocity=110 time=683\n",
      "note_off channel=0 note=67 velocity=0 time=501\n",
      "note_on channel=0 note=64 velocity=110 time=1035\n",
      "note_off channel=0 note=64 velocity=0 time=853\n",
      "note_on channel=0 note=69 velocity=110 time=171\n",
      "note_off channel=0 note=69 velocity=0 time=853\n",
      "note_on channel=0 note=71 velocity=110 time=683\n",
      "note_off channel=0 note=71 velocity=0 time=501\n",
      "note_on channel=0 note=72 velocity=110 time=1035\n",
      "note_off channel=0 note=72 velocity=0 time=853\n",
      "note_on channel=0 note=67 velocity=110 time=171\n",
      "note_off channel=0 note=67 velocity=0 time=853\n",
      "note_on channel=0 note=65 velocity=110 time=3243\n",
      "note_off channel=0 note=65 velocity=0 time=853\n",
      "note_on channel=0 note=67 velocity=110 time=683\n",
      "note_off channel=0 note=67 velocity=0 time=501\n",
      "note_on channel=0 note=69 velocity=110 time=1035\n",
      "note_off channel=0 note=69 velocity=0 time=853\n",
      "note_on channel=0 note=67 velocity=110 time=171\n",
      "note_off channel=0 note=67 velocity=0 time=853\n",
      "note_on channel=0 note=71 velocity=110 time=683\n",
      "note_off channel=0 note=71 velocity=0 time=501\n",
      "note_on channel=0 note=72 velocity=110 time=1035\n",
      "note_off channel=0 note=72 velocity=0 time=853\n",
      "note_on channel=0 note=69 velocity=110 time=171\n",
      "note_off channel=0 note=69 velocity=0 time=853\n",
      "note_on channel=0 note=72 velocity=110 time=2219\n",
      "note_off channel=0 note=72 velocity=0 time=853\n",
      "note_on channel=0 note=74 velocity=110 time=171\n",
      "note_off channel=0 note=74 velocity=0 time=853\n",
      "note_on channel=0 note=72 velocity=110 time=3243\n",
      "note_on channel=0 note=76 velocity=110 time=0\n",
      "note_off channel=0 note=72 velocity=0 time=501\n",
      "note_off channel=0 note=76 velocity=0 time=0\n",
      "note_on channel=0 note=71 velocity=110 time=11\n",
      "note_on channel=0 note=74 velocity=110 time=0\n",
      "note_off channel=0 note=71 velocity=0 time=501\n",
      "note_off channel=0 note=74 velocity=0 time=0\n",
      "note_on channel=0 note=72 velocity=110 time=11\n",
      "note_on channel=0 note=76 velocity=110 time=0\n",
      "note_off channel=0 note=72 velocity=0 time=501\n",
      "note_off channel=0 note=76 velocity=0 time=0\n",
      "note_on channel=0 note=74 velocity=110 time=11\n",
      "note_on channel=0 note=77 velocity=110 time=0\n",
      "note_off channel=0 note=74 velocity=0 time=501\n",
      "note_off channel=0 note=77 velocity=0 time=0\n",
      "note_on channel=0 note=76 velocity=110 time=11\n",
      "note_on channel=0 note=79 velocity=110 time=0\n",
      "note_off channel=0 note=76 velocity=0 time=853\n",
      "note_off channel=0 note=79 velocity=0 time=0\n",
      "note_on channel=0 note=72 velocity=110 time=171\n",
      "note_on channel=0 note=76 velocity=110 time=0\n",
      "note_off channel=0 note=72 velocity=0 time=501\n",
      "note_off channel=0 note=76 velocity=0 time=0\n",
      "note_on channel=0 note=71 velocity=110 time=11\n",
      "note_on channel=0 note=74 velocity=110 time=0\n",
      "note_off channel=0 note=71 velocity=0 time=501\n",
      "note_off channel=0 note=74 velocity=0 time=0\n",
      "note_on channel=0 note=71 velocity=110 time=11\n",
      "note_on channel=0 note=74 velocity=110 time=0\n",
      "note_off channel=0 note=71 velocity=0 time=1365\n",
      "note_off channel=0 note=74 velocity=0 time=0\n",
      "note_on channel=0 note=67 velocity=110 time=171\n",
      "note_on channel=0 note=72 velocity=110 time=0\n",
      "note_off channel=0 note=67 velocity=0 time=501\n",
      "note_off channel=0 note=72 velocity=0 time=0\n",
      "note_on channel=0 note=67 velocity=110 time=11\n",
      "note_on channel=0 note=72 velocity=110 time=0\n",
      "note_off channel=0 note=67 velocity=0 time=853\n",
      "note_off channel=0 note=72 velocity=0 time=0\n",
      "note_on channel=0 note=72 velocity=110 time=171\n",
      "note_on channel=0 note=76 velocity=110 time=0\n",
      "note_off channel=0 note=72 velocity=0 time=501\n",
      "note_off channel=0 note=76 velocity=0 time=0\n",
      "note_on channel=0 note=76 velocity=110 time=11\n",
      "note_on channel=0 note=79 velocity=110 time=0\n",
      "note_off channel=0 note=76 velocity=0 time=501\n",
      "note_off channel=0 note=79 velocity=0 time=0\n",
      "note_on channel=0 note=77 velocity=110 time=11\n",
      "note_on channel=0 note=81 velocity=110 time=0\n",
      "note_off channel=0 note=77 velocity=0 time=501\n",
      "note_off channel=0 note=81 velocity=0 time=0\n",
      "note_on channel=0 note=76 velocity=110 time=11\n",
      "note_on channel=0 note=79 velocity=110 time=0\n",
      "note_off channel=0 note=76 velocity=0 time=501\n",
      "note_off channel=0 note=79 velocity=0 time=0\n",
      "note_on channel=0 note=77 velocity=110 time=11\n",
      "note_on channel=0 note=81 velocity=110 time=0\n",
      "note_off channel=0 note=77 velocity=0 time=501\n",
      "note_off channel=0 note=81 velocity=0 time=0\n",
      "note_on channel=0 note=77 velocity=110 time=11\n",
      "note_on channel=0 note=83 velocity=110 time=0\n",
      "note_off channel=0 note=77 velocity=0 time=501\n",
      "note_off channel=0 note=83 velocity=0 time=0\n",
      "note_on channel=0 note=76 velocity=110 time=11\n",
      "note_on channel=0 note=84 velocity=110 time=0\n",
      "note_off channel=0 note=76 velocity=0 time=853\n",
      "note_off channel=0 note=84 velocity=0 time=0\n",
      "note_on channel=0 note=76 velocity=110 time=171\n",
      "note_on channel=0 note=79 velocity=110 time=0\n",
      "note_off channel=0 note=76 velocity=0 time=501\n",
      "note_off channel=0 note=79 velocity=0 time=0\n",
      "note_on channel=0 note=74 velocity=110 time=11\n",
      "note_on channel=0 note=77 velocity=110 time=0\n",
      "note_off channel=0 note=74 velocity=0 time=501\n",
      "note_off channel=0 note=77 velocity=0 time=0\n",
      "note_on channel=0 note=72 velocity=110 time=11\n",
      "note_on channel=0 note=76 velocity=110 time=0\n",
      "note_off channel=0 note=72 velocity=0 time=853\n",
      "note_off channel=0 note=76 velocity=0 time=0\n",
      "note_on channel=0 note=72 velocity=110 time=171\n",
      "note_on channel=0 note=76 velocity=110 time=0\n",
      "note_off channel=0 note=72 velocity=0 time=501\n",
      "note_off channel=0 note=76 velocity=0 time=0\n",
      "note_on channel=0 note=74 velocity=110 time=11\n",
      "note_on channel=0 note=77 velocity=110 time=0\n",
      "note_off channel=0 note=74 velocity=0 time=501\n",
      "note_off channel=0 note=77 velocity=0 time=0\n",
      "note_on channel=0 note=71 velocity=110 time=11\n",
      "note_on channel=0 note=74 velocity=110 time=0\n",
      "note_off channel=0 note=71 velocity=0 time=1792\n",
      "note_off channel=0 note=74 velocity=0 time=0\n",
      "note_on channel=0 note=72 velocity=110 time=256\n",
      "note_on channel=0 note=76 velocity=110 time=0\n",
      "note_off channel=0 note=72 velocity=0 time=501\n",
      "note_off channel=0 note=76 velocity=0 time=0\n",
      "note_on channel=0 note=71 velocity=110 time=11\n",
      "note_on channel=0 note=74 velocity=110 time=0\n",
      "note_off channel=0 note=71 velocity=0 time=501\n",
      "note_off channel=0 note=74 velocity=0 time=0\n",
      "note_on channel=0 note=72 velocity=110 time=11\n",
      "note_on channel=0 note=76 velocity=110 time=0\n",
      "note_off channel=0 note=72 velocity=0 time=501\n",
      "note_off channel=0 note=76 velocity=0 time=0\n",
      "note_on channel=0 note=74 velocity=110 time=11\n",
      "note_on channel=0 note=77 velocity=110 time=0\n",
      "note_off channel=0 note=74 velocity=0 time=501\n",
      "note_off channel=0 note=77 velocity=0 time=0\n",
      "note_on channel=0 note=76 velocity=110 time=11\n",
      "note_on channel=0 note=79 velocity=110 time=0\n",
      "note_off channel=0 note=76 velocity=0 time=853\n",
      "note_off channel=0 note=79 velocity=0 time=0\n",
      "note_on channel=0 note=72 velocity=110 time=171\n",
      "note_on channel=0 note=76 velocity=110 time=0\n",
      "note_off channel=0 note=72 velocity=0 time=501\n",
      "note_off channel=0 note=76 velocity=0 time=0\n",
      "note_on channel=0 note=71 velocity=110 time=11\n",
      "note_on channel=0 note=74 velocity=110 time=0\n",
      "note_off channel=0 note=71 velocity=0 time=501\n",
      "note_off channel=0 note=74 velocity=0 time=0\n",
      "note_on channel=0 note=71 velocity=110 time=11\n",
      "note_on channel=0 note=74 velocity=110 time=0\n",
      "note_off channel=0 note=71 velocity=0 time=1365\n",
      "note_off channel=0 note=74 velocity=0 time=0\n",
      "note_on channel=0 note=67 velocity=110 time=171\n",
      "note_on channel=0 note=72 velocity=110 time=0\n",
      "note_off channel=0 note=67 velocity=0 time=501\n",
      "note_off channel=0 note=72 velocity=0 time=0\n",
      "note_on channel=0 note=67 velocity=110 time=11\n",
      "note_on channel=0 note=72 velocity=110 time=0\n",
      "note_off channel=0 note=67 velocity=0 time=853\n",
      "note_off channel=0 note=72 velocity=0 time=0\n",
      "note_on channel=0 note=72 velocity=110 time=171\n",
      "note_on channel=0 note=76 velocity=110 time=0\n",
      "note_off channel=0 note=72 velocity=0 time=501\n",
      "note_off channel=0 note=76 velocity=0 time=0\n",
      "note_on channel=0 note=76 velocity=110 time=11\n",
      "note_on channel=0 note=79 velocity=110 time=0\n",
      "note_off channel=0 note=76 velocity=0 time=501\n",
      "note_off channel=0 note=79 velocity=0 time=0\n",
      "note_on channel=0 note=77 velocity=110 time=11\n",
      "note_on channel=0 note=81 velocity=110 time=0\n",
      "note_off channel=0 note=77 velocity=0 time=501\n",
      "note_off channel=0 note=81 velocity=0 time=0\n",
      "note_on channel=0 note=76 velocity=110 time=11\n",
      "note_on channel=0 note=79 velocity=110 time=0\n",
      "note_off channel=0 note=76 velocity=0 time=501\n",
      "note_off channel=0 note=79 velocity=0 time=0\n",
      "note_on channel=0 note=77 velocity=110 time=11\n",
      "note_on channel=0 note=81 velocity=110 time=0\n",
      "note_off channel=0 note=77 velocity=0 time=501\n",
      "note_off channel=0 note=81 velocity=0 time=0\n",
      "note_on channel=0 note=77 velocity=110 time=11\n",
      "note_on channel=0 note=83 velocity=110 time=0\n",
      "note_off channel=0 note=77 velocity=0 time=501\n",
      "note_off channel=0 note=83 velocity=0 time=0\n",
      "note_on channel=0 note=76 velocity=110 time=11\n",
      "note_on channel=0 note=84 velocity=110 time=0\n",
      "note_off channel=0 note=76 velocity=0 time=853\n",
      "note_off channel=0 note=84 velocity=0 time=0\n",
      "note_on channel=0 note=76 velocity=110 time=171\n",
      "note_on channel=0 note=79 velocity=110 time=0\n",
      "note_off channel=0 note=76 velocity=0 time=501\n",
      "note_off channel=0 note=79 velocity=0 time=0\n",
      "note_on channel=0 note=74 velocity=110 time=11\n",
      "note_on channel=0 note=77 velocity=110 time=0\n",
      "note_off channel=0 note=74 velocity=0 time=501\n",
      "note_off channel=0 note=77 velocity=0 time=0\n",
      "note_on channel=0 note=72 velocity=110 time=11\n",
      "note_on channel=0 note=77 velocity=110 time=0\n",
      "note_off channel=0 note=72 velocity=0 time=501\n",
      "note_off channel=0 note=77 velocity=0 time=0\n",
      "note_on channel=0 note=72 velocity=110 time=11\n",
      "note_on channel=0 note=76 velocity=110 time=0\n",
      "note_off channel=0 note=72 velocity=0 time=501\n",
      "note_off channel=0 note=76 velocity=0 time=0\n",
      "note_on channel=0 note=71 velocity=110 time=11\n",
      "note_on channel=0 note=74 velocity=110 time=0\n",
      "note_off channel=0 note=71 velocity=0 time=501\n",
      "note_off channel=0 note=74 velocity=0 time=0\n",
      "note_on channel=0 note=67 velocity=110 time=11\n",
      "note_on channel=0 note=72 velocity=110 time=0\n",
      "note_off channel=0 note=67 velocity=0 time=501\n",
      "note_off channel=0 note=72 velocity=0 time=0\n",
      "note_on channel=0 note=74 velocity=110 time=11\n",
      "note_on channel=0 note=79 velocity=110 time=0\n",
      "note_off channel=0 note=74 velocity=0 time=853\n",
      "note_off channel=0 note=79 velocity=0 time=0\n",
      "note_on channel=0 note=62 velocity=110 time=171\n",
      "note_on channel=0 note=67 velocity=110 time=0\n",
      "note_off channel=0 note=62 velocity=0 time=853\n",
      "note_off channel=0 note=67 velocity=0 time=0\n",
      "note_on channel=0 note=76 velocity=110 time=171\n",
      "note_off channel=0 note=76 velocity=0 time=1365\n",
      "note_on channel=0 note=76 velocity=110 time=171\n",
      "note_off channel=0 note=76 velocity=0 time=501\n",
      "note_on channel=0 note=77 velocity=110 time=11\n",
      "note_off channel=0 note=77 velocity=0 time=501\n",
      "note_on channel=0 note=76 velocity=110 time=11\n",
      "note_off channel=0 note=76 velocity=0 time=501\n",
      "note_on channel=0 note=77 velocity=110 time=11\n",
      "note_off channel=0 note=77 velocity=0 time=501\n",
      "note_on channel=0 note=79 velocity=110 time=11\n",
      "note_off channel=0 note=79 velocity=0 time=501\n",
      "note_on channel=0 note=76 velocity=110 time=11\n",
      "note_off channel=0 note=76 velocity=0 time=1792\n",
      "note_on channel=0 note=72 velocity=110 time=256\n",
      "note_off channel=0 note=72 velocity=0 time=853\n",
      "note_on channel=0 note=76 velocity=110 time=171\n",
      "note_off channel=0 note=76 velocity=0 time=501\n",
      "note_on channel=0 note=79 velocity=110 time=11\n",
      "note_off channel=0 note=79 velocity=0 time=501\n",
      "note_on channel=0 note=81 velocity=110 time=11\n",
      "note_off channel=0 note=81 velocity=0 time=853\n",
      "note_on channel=0 note=81 velocity=110 time=171\n",
      "note_off channel=0 note=81 velocity=0 time=501\n",
      "note_on channel=0 note=81 velocity=110 time=11\n",
      "note_off channel=0 note=81 velocity=0 time=501\n",
      "note_on channel=0 note=83 velocity=110 time=11\n",
      "note_off channel=0 note=83 velocity=0 time=853\n",
      "note_on channel=0 note=86 velocity=110 time=171\n",
      "note_off channel=0 note=86 velocity=0 time=501\n",
      "note_on channel=0 note=84 velocity=110 time=11\n",
      "note_off channel=0 note=84 velocity=0 time=501\n",
      "note_on channel=0 note=79 velocity=110 time=11\n",
      "note_off channel=0 note=79 velocity=0 time=2816\n",
      "note_on channel=0 note=81 velocity=110 time=1280\n",
      "note_off channel=0 note=81 velocity=0 time=1365\n",
      "note_on channel=0 note=81 velocity=110 time=171\n",
      "note_off channel=0 note=81 velocity=0 time=501\n",
      "note_on channel=0 note=83 velocity=110 time=11\n",
      "note_off channel=0 note=83 velocity=0 time=853\n",
      "note_on channel=0 note=86 velocity=110 time=171\n",
      "note_off channel=0 note=86 velocity=0 time=501\n",
      "note_on channel=0 note=84 velocity=110 time=11\n",
      "note_off channel=0 note=84 velocity=0 time=501\n",
      "note_on channel=0 note=79 velocity=110 time=11\n",
      "note_off channel=0 note=79 velocity=0 time=1792\n",
      "note_on channel=0 note=84 velocity=110 time=256\n",
      "note_off channel=0 note=84 velocity=0 time=853\n",
      "note_on channel=0 note=72 velocity=110 time=171\n",
      "note_off channel=0 note=72 velocity=0 time=501\n",
      "note_on channel=0 note=74 velocity=110 time=11\n",
      "note_off channel=0 note=74 velocity=0 time=501\n",
      "note_on channel=0 note=77 velocity=110 time=11\n",
      "note_off channel=0 note=77 velocity=0 time=1365\n",
      "note_on channel=0 note=79 velocity=110 time=171\n",
      "note_off channel=0 note=79 velocity=0 time=629\n",
      "note_on channel=0 note=77 velocity=110 time=11\n",
      "note_off channel=0 note=77 velocity=0 time=501\n",
      "note_on channel=0 note=76 velocity=110 time=11\n",
      "note_off channel=0 note=76 velocity=0 time=373\n",
      "note_on channel=0 note=74 velocity=110 time=11\n",
      "note_off channel=0 note=74 velocity=0 time=501\n",
      "note_on channel=0 note=72 velocity=110 time=11\n",
      "note_off channel=0 note=72 velocity=0 time=501\n",
      "note_on channel=0 note=79 velocity=110 time=11\n",
      "note_off channel=0 note=79 velocity=0 time=3840\n",
      "note_on channel=0 note=64 velocity=110 time=256\n",
      "note_off channel=0 note=64 velocity=0 time=1365\n",
      "note_on channel=0 note=64 velocity=110 time=171\n",
      "note_off channel=0 note=64 velocity=0 time=501\n",
      "note_on channel=0 note=65 velocity=110 time=11\n",
      "note_off channel=0 note=65 velocity=0 time=501\n",
      "note_on channel=0 note=64 velocity=110 time=11\n",
      "note_off channel=0 note=64 velocity=0 time=501\n",
      "note_on channel=0 note=65 velocity=110 time=11\n",
      "note_off channel=0 note=65 velocity=0 time=501\n",
      "note_on channel=0 note=67 velocity=110 time=11\n",
      "note_off channel=0 note=67 velocity=0 time=501\n",
      "note_on channel=0 note=64 velocity=110 time=11\n",
      "note_off channel=0 note=64 velocity=0 time=1792\n",
      "note_on channel=0 note=60 velocity=110 time=256\n",
      "note_off channel=0 note=60 velocity=0 time=853\n",
      "note_on channel=0 note=64 velocity=110 time=171\n",
      "note_off channel=0 note=64 velocity=0 time=501\n",
      "note_on channel=0 note=67 velocity=110 time=11\n",
      "note_off channel=0 note=67 velocity=0 time=501\n",
      "note_on channel=0 note=69 velocity=110 time=11\n",
      "note_off channel=0 note=69 velocity=0 time=853\n",
      "note_on channel=0 note=69 velocity=110 time=171\n",
      "note_off channel=0 note=69 velocity=0 time=501\n",
      "note_on channel=0 note=69 velocity=110 time=11\n",
      "note_off channel=0 note=69 velocity=0 time=501\n",
      "note_on channel=0 note=71 velocity=110 time=11\n",
      "note_off channel=0 note=71 velocity=0 time=853\n",
      "note_on channel=0 note=74 velocity=110 time=171\n",
      "note_off channel=0 note=74 velocity=0 time=501\n",
      "note_on channel=0 note=72 velocity=110 time=11\n",
      "note_off channel=0 note=72 velocity=0 time=501\n",
      "note_on channel=0 note=67 velocity=110 time=11\n",
      "note_off channel=0 note=67 velocity=0 time=2816\n",
      "note_on channel=0 note=69 velocity=110 time=1280\n",
      "note_off channel=0 note=69 velocity=0 time=1365\n",
      "note_on channel=0 note=69 velocity=110 time=171\n",
      "note_off channel=0 note=69 velocity=0 time=501\n",
      "note_on channel=0 note=71 velocity=110 time=11\n",
      "note_off channel=0 note=71 velocity=0 time=853\n",
      "note_on channel=0 note=74 velocity=110 time=171\n",
      "note_off channel=0 note=74 velocity=0 time=501\n",
      "note_on channel=0 note=72 velocity=110 time=11\n",
      "note_off channel=0 note=72 velocity=0 time=501\n",
      "note_on channel=0 note=67 velocity=110 time=11\n",
      "note_off channel=0 note=67 velocity=0 time=1792\n",
      "note_on channel=0 note=72 velocity=110 time=256\n",
      "note_off channel=0 note=72 velocity=0 time=853\n",
      "note_on channel=0 note=72 velocity=110 time=171\n",
      "note_off channel=0 note=72 velocity=0 time=501\n",
      "note_on channel=0 note=74 velocity=110 time=11\n",
      "note_off channel=0 note=74 velocity=0 time=501\n",
      "note_on channel=0 note=77 velocity=110 time=11\n",
      "note_off channel=0 note=77 velocity=0 time=853\n",
      "note_on channel=0 note=76 velocity=110 time=171\n",
      "note_off channel=0 note=76 velocity=0 time=853\n",
      "note_on channel=0 note=71 velocity=110 time=171\n",
      "note_off channel=0 note=71 velocity=0 time=853\n",
      "note_on channel=0 note=72 velocity=110 time=683\n",
      "note_off channel=0 note=72 velocity=0 time=501\n",
      "note_on channel=0 note=72 velocity=110 time=11\n",
      "note_off channel=0 note=72 velocity=0 time=1792\n",
      "note_on channel=0 note=72 velocity=110 time=2304\n",
      "note_off channel=0 note=72 velocity=0 time=853\n",
      "note_on channel=0 note=74 velocity=110 time=683\n",
      "note_off channel=0 note=74 velocity=0 time=501\n",
      "note_on channel=0 note=76 velocity=110 time=1035\n",
      "note_off channel=0 note=76 velocity=0 time=853\n",
      "note_on channel=0 note=71 velocity=110 time=171\n",
      "note_off channel=0 note=71 velocity=0 time=853\n",
      "note_on channel=0 note=67 velocity=110 time=683\n",
      "note_off channel=0 note=67 velocity=0 time=501\n",
      "note_on channel=0 note=64 velocity=110 time=1035\n",
      "note_off channel=0 note=64 velocity=0 time=853\n",
      "note_on channel=0 note=69 velocity=110 time=171\n",
      "note_off channel=0 note=69 velocity=0 time=853\n",
      "note_on channel=0 note=71 velocity=110 time=683\n",
      "note_off channel=0 note=71 velocity=0 time=501\n",
      "note_on channel=0 note=72 velocity=110 time=1035\n",
      "note_off channel=0 note=72 velocity=0 time=853\n",
      "note_on channel=0 note=67 velocity=110 time=171\n",
      "note_off channel=0 note=67 velocity=0 time=853\n",
      "note_on channel=0 note=65 velocity=110 time=3243\n",
      "note_off channel=0 note=65 velocity=0 time=853\n",
      "note_on channel=0 note=67 velocity=110 time=683\n",
      "note_off channel=0 note=67 velocity=0 time=501\n",
      "note_on channel=0 note=69 velocity=110 time=1035\n",
      "note_off channel=0 note=69 velocity=0 time=853\n",
      "note_on channel=0 note=67 velocity=110 time=171\n",
      "note_off channel=0 note=67 velocity=0 time=853\n",
      "note_on channel=0 note=71 velocity=110 time=683\n",
      "note_off channel=0 note=71 velocity=0 time=501\n",
      "note_on channel=0 note=72 velocity=110 time=1035\n",
      "note_off channel=0 note=72 velocity=0 time=853\n",
      "note_on channel=0 note=69 velocity=110 time=171\n",
      "note_off channel=0 note=69 velocity=0 time=853\n",
      "note_on channel=0 note=72 velocity=110 time=2219\n",
      "note_off channel=0 note=72 velocity=0 time=853\n",
      "note_on channel=0 note=74 velocity=110 time=171\n",
      "note_off channel=0 note=74 velocity=0 time=853\n",
      "note_on channel=0 note=72 velocity=110 time=3243\n",
      "note_on channel=0 note=76 velocity=110 time=0\n",
      "note_off channel=0 note=72 velocity=0 time=501\n",
      "note_off channel=0 note=76 velocity=0 time=0\n",
      "note_on channel=0 note=71 velocity=110 time=11\n",
      "note_on channel=0 note=74 velocity=110 time=0\n",
      "note_off channel=0 note=71 velocity=0 time=501\n",
      "note_off channel=0 note=74 velocity=0 time=0\n",
      "note_on channel=0 note=72 velocity=110 time=11\n",
      "note_on channel=0 note=76 velocity=110 time=0\n",
      "note_off channel=0 note=72 velocity=0 time=501\n",
      "note_off channel=0 note=76 velocity=0 time=0\n",
      "note_on channel=0 note=74 velocity=110 time=11\n",
      "note_on channel=0 note=77 velocity=110 time=0\n",
      "note_off channel=0 note=74 velocity=0 time=501\n",
      "note_off channel=0 note=77 velocity=0 time=0\n",
      "note_on channel=0 note=76 velocity=110 time=11\n",
      "note_on channel=0 note=79 velocity=110 time=0\n",
      "note_off channel=0 note=76 velocity=0 time=853\n",
      "note_off channel=0 note=79 velocity=0 time=0\n",
      "note_on channel=0 note=72 velocity=110 time=171\n",
      "note_on channel=0 note=76 velocity=110 time=0\n",
      "note_off channel=0 note=72 velocity=0 time=501\n",
      "note_off channel=0 note=76 velocity=0 time=0\n",
      "note_on channel=0 note=71 velocity=110 time=11\n",
      "note_on channel=0 note=74 velocity=110 time=0\n",
      "note_off channel=0 note=71 velocity=0 time=501\n",
      "note_off channel=0 note=74 velocity=0 time=0\n",
      "note_on channel=0 note=71 velocity=110 time=11\n",
      "note_on channel=0 note=74 velocity=110 time=0\n",
      "note_off channel=0 note=71 velocity=0 time=1365\n",
      "note_off channel=0 note=74 velocity=0 time=0\n",
      "note_on channel=0 note=67 velocity=110 time=171\n",
      "note_on channel=0 note=72 velocity=110 time=0\n",
      "note_off channel=0 note=67 velocity=0 time=501\n",
      "note_off channel=0 note=72 velocity=0 time=0\n",
      "note_on channel=0 note=67 velocity=110 time=11\n",
      "note_on channel=0 note=72 velocity=110 time=0\n",
      "note_off channel=0 note=67 velocity=0 time=853\n",
      "note_off channel=0 note=72 velocity=0 time=0\n",
      "note_on channel=0 note=72 velocity=110 time=171\n",
      "note_on channel=0 note=76 velocity=110 time=0\n",
      "note_off channel=0 note=72 velocity=0 time=501\n",
      "note_off channel=0 note=76 velocity=0 time=0\n",
      "note_on channel=0 note=76 velocity=110 time=11\n",
      "note_on channel=0 note=79 velocity=110 time=0\n",
      "note_off channel=0 note=76 velocity=0 time=501\n",
      "note_off channel=0 note=79 velocity=0 time=0\n",
      "note_on channel=0 note=77 velocity=110 time=11\n",
      "note_on channel=0 note=81 velocity=110 time=0\n",
      "note_off channel=0 note=77 velocity=0 time=501\n",
      "note_off channel=0 note=81 velocity=0 time=0\n",
      "note_on channel=0 note=76 velocity=110 time=11\n",
      "note_on channel=0 note=79 velocity=110 time=0\n",
      "note_off channel=0 note=76 velocity=0 time=501\n",
      "note_off channel=0 note=79 velocity=0 time=0\n",
      "note_on channel=0 note=77 velocity=110 time=11\n",
      "note_on channel=0 note=81 velocity=110 time=0\n",
      "note_off channel=0 note=77 velocity=0 time=501\n",
      "note_off channel=0 note=81 velocity=0 time=0\n",
      "note_on channel=0 note=77 velocity=110 time=11\n",
      "note_on channel=0 note=83 velocity=110 time=0\n",
      "note_off channel=0 note=77 velocity=0 time=501\n",
      "note_off channel=0 note=83 velocity=0 time=0\n",
      "note_on channel=0 note=76 velocity=110 time=11\n",
      "note_on channel=0 note=84 velocity=110 time=0\n",
      "note_off channel=0 note=76 velocity=0 time=853\n",
      "note_off channel=0 note=84 velocity=0 time=0\n",
      "note_on channel=0 note=76 velocity=110 time=171\n",
      "note_on channel=0 note=79 velocity=110 time=0\n",
      "note_off channel=0 note=76 velocity=0 time=501\n",
      "note_off channel=0 note=79 velocity=0 time=0\n",
      "note_on channel=0 note=74 velocity=110 time=11\n",
      "note_on channel=0 note=77 velocity=110 time=0\n",
      "note_off channel=0 note=74 velocity=0 time=501\n",
      "note_off channel=0 note=77 velocity=0 time=0\n",
      "note_on channel=0 note=72 velocity=110 time=11\n",
      "note_on channel=0 note=76 velocity=110 time=0\n",
      "note_off channel=0 note=72 velocity=0 time=853\n",
      "note_off channel=0 note=76 velocity=0 time=0\n",
      "note_on channel=0 note=72 velocity=110 time=171\n",
      "note_on channel=0 note=76 velocity=110 time=0\n",
      "note_off channel=0 note=72 velocity=0 time=501\n",
      "note_off channel=0 note=76 velocity=0 time=0\n",
      "note_on channel=0 note=74 velocity=110 time=11\n",
      "note_on channel=0 note=77 velocity=110 time=0\n",
      "note_off channel=0 note=74 velocity=0 time=501\n",
      "note_off channel=0 note=77 velocity=0 time=0\n",
      "note_on channel=0 note=71 velocity=110 time=11\n",
      "note_on channel=0 note=74 velocity=110 time=0\n",
      "note_off channel=0 note=71 velocity=0 time=1792\n",
      "note_off channel=0 note=74 velocity=0 time=0\n",
      "note_on channel=0 note=72 velocity=110 time=256\n",
      "note_on channel=0 note=76 velocity=110 time=0\n",
      "note_off channel=0 note=72 velocity=0 time=501\n",
      "note_off channel=0 note=76 velocity=0 time=0\n",
      "note_on channel=0 note=71 velocity=110 time=11\n",
      "note_on channel=0 note=74 velocity=110 time=0\n",
      "note_off channel=0 note=71 velocity=0 time=501\n",
      "note_off channel=0 note=74 velocity=0 time=0\n",
      "note_on channel=0 note=72 velocity=110 time=11\n",
      "note_on channel=0 note=76 velocity=110 time=0\n",
      "note_off channel=0 note=72 velocity=0 time=501\n",
      "note_off channel=0 note=76 velocity=0 time=0\n",
      "note_on channel=0 note=74 velocity=110 time=11\n",
      "note_on channel=0 note=77 velocity=110 time=0\n",
      "note_off channel=0 note=74 velocity=0 time=501\n",
      "note_off channel=0 note=77 velocity=0 time=0\n",
      "note_on channel=0 note=76 velocity=110 time=11\n",
      "note_on channel=0 note=79 velocity=110 time=0\n",
      "note_off channel=0 note=76 velocity=0 time=853\n",
      "note_off channel=0 note=79 velocity=0 time=0\n",
      "note_on channel=0 note=72 velocity=110 time=171\n",
      "note_on channel=0 note=76 velocity=110 time=0\n",
      "note_off channel=0 note=72 velocity=0 time=501\n",
      "note_off channel=0 note=76 velocity=0 time=0\n",
      "note_on channel=0 note=71 velocity=110 time=11\n",
      "note_on channel=0 note=74 velocity=110 time=0\n",
      "note_off channel=0 note=71 velocity=0 time=501\n",
      "note_off channel=0 note=74 velocity=0 time=0\n",
      "note_on channel=0 note=71 velocity=110 time=11\n",
      "note_on channel=0 note=74 velocity=110 time=0\n",
      "note_off channel=0 note=71 velocity=0 time=1365\n",
      "note_off channel=0 note=74 velocity=0 time=0\n",
      "note_on channel=0 note=67 velocity=110 time=171\n",
      "note_on channel=0 note=72 velocity=110 time=0\n",
      "note_off channel=0 note=67 velocity=0 time=501\n",
      "note_off channel=0 note=72 velocity=0 time=0\n",
      "note_on channel=0 note=67 velocity=110 time=11\n",
      "note_on channel=0 note=72 velocity=110 time=0\n",
      "note_off channel=0 note=67 velocity=0 time=853\n",
      "note_off channel=0 note=72 velocity=0 time=0\n",
      "note_on channel=0 note=72 velocity=110 time=171\n",
      "note_on channel=0 note=76 velocity=110 time=0\n",
      "note_off channel=0 note=72 velocity=0 time=501\n",
      "note_off channel=0 note=76 velocity=0 time=0\n",
      "note_on channel=0 note=76 velocity=110 time=11\n",
      "note_on channel=0 note=79 velocity=110 time=0\n",
      "note_off channel=0 note=76 velocity=0 time=501\n",
      "note_off channel=0 note=79 velocity=0 time=0\n",
      "note_on channel=0 note=77 velocity=110 time=11\n",
      "note_on channel=0 note=81 velocity=110 time=0\n",
      "note_off channel=0 note=77 velocity=0 time=501\n",
      "note_off channel=0 note=81 velocity=0 time=0\n",
      "note_on channel=0 note=76 velocity=110 time=11\n",
      "note_on channel=0 note=79 velocity=110 time=0\n",
      "note_off channel=0 note=76 velocity=0 time=501\n",
      "note_off channel=0 note=79 velocity=0 time=0\n",
      "note_on channel=0 note=77 velocity=110 time=11\n",
      "note_on channel=0 note=81 velocity=110 time=0\n",
      "note_off channel=0 note=77 velocity=0 time=501\n",
      "note_off channel=0 note=81 velocity=0 time=0\n",
      "note_on channel=0 note=77 velocity=110 time=11\n",
      "note_on channel=0 note=83 velocity=110 time=0\n",
      "note_off channel=0 note=77 velocity=0 time=501\n",
      "note_off channel=0 note=83 velocity=0 time=0\n",
      "note_on channel=0 note=76 velocity=110 time=11\n",
      "note_on channel=0 note=84 velocity=110 time=0\n",
      "note_off channel=0 note=76 velocity=0 time=853\n",
      "note_off channel=0 note=84 velocity=0 time=0\n",
      "note_on channel=0 note=76 velocity=110 time=171\n",
      "note_on channel=0 note=79 velocity=110 time=0\n",
      "note_off channel=0 note=76 velocity=0 time=501\n",
      "note_off channel=0 note=79 velocity=0 time=0\n",
      "note_on channel=0 note=74 velocity=110 time=11\n",
      "note_on channel=0 note=77 velocity=110 time=0\n",
      "note_off channel=0 note=74 velocity=0 time=501\n",
      "note_off channel=0 note=77 velocity=0 time=0\n",
      "note_on channel=0 note=72 velocity=110 time=11\n",
      "note_on channel=0 note=77 velocity=110 time=0\n",
      "note_off channel=0 note=72 velocity=0 time=501\n",
      "note_off channel=0 note=77 velocity=0 time=0\n",
      "note_on channel=0 note=72 velocity=110 time=11\n",
      "note_on channel=0 note=76 velocity=110 time=0\n",
      "note_off channel=0 note=72 velocity=0 time=501\n",
      "note_off channel=0 note=76 velocity=0 time=0\n",
      "note_on channel=0 note=71 velocity=110 time=11\n",
      "note_on channel=0 note=74 velocity=110 time=0\n",
      "note_off channel=0 note=71 velocity=0 time=501\n",
      "note_off channel=0 note=74 velocity=0 time=0\n",
      "note_on channel=0 note=67 velocity=110 time=11\n",
      "note_on channel=0 note=72 velocity=110 time=0\n",
      "note_off channel=0 note=67 velocity=0 time=501\n",
      "note_off channel=0 note=72 velocity=0 time=0\n",
      "note_on channel=0 note=74 velocity=110 time=11\n",
      "note_on channel=0 note=79 velocity=110 time=0\n",
      "note_off channel=0 note=74 velocity=0 time=853\n",
      "note_off channel=0 note=79 velocity=0 time=0\n",
      "note_on channel=0 note=62 velocity=110 time=171\n",
      "note_on channel=0 note=67 velocity=110 time=0\n",
      "note_off channel=0 note=62 velocity=0 time=853\n",
      "note_off channel=0 note=67 velocity=0 time=0\n",
      "note_on channel=0 note=73 velocity=110 time=171\n",
      "note_on channel=0 note=77 velocity=110 time=0\n",
      "note_off channel=0 note=73 velocity=0 time=501\n",
      "note_off channel=0 note=77 velocity=0 time=0\n",
      "note_on channel=0 note=72 velocity=110 time=11\n",
      "note_on channel=0 note=75 velocity=110 time=0\n",
      "note_off channel=0 note=72 velocity=0 time=501\n",
      "note_off channel=0 note=75 velocity=0 time=0\n",
      "note_on channel=0 note=73 velocity=110 time=11\n",
      "note_on channel=0 note=77 velocity=110 time=0\n",
      "note_off channel=0 note=73 velocity=0 time=501\n",
      "note_off channel=0 note=77 velocity=0 time=0\n",
      "note_on channel=0 note=75 velocity=110 time=11\n",
      "note_on channel=0 note=78 velocity=110 time=0\n",
      "note_off channel=0 note=75 velocity=0 time=501\n",
      "note_off channel=0 note=78 velocity=0 time=0\n",
      "note_on channel=0 note=77 velocity=110 time=11\n",
      "note_on channel=0 note=80 velocity=110 time=0\n",
      "note_off channel=0 note=77 velocity=0 time=853\n",
      "note_off channel=0 note=80 velocity=0 time=0\n",
      "note_on channel=0 note=73 velocity=110 time=171\n",
      "note_on channel=0 note=77 velocity=110 time=0\n",
      "note_off channel=0 note=73 velocity=0 time=501\n",
      "note_off channel=0 note=77 velocity=0 time=0\n",
      "note_on channel=0 note=72 velocity=110 time=11\n",
      "note_on channel=0 note=75 velocity=110 time=0\n",
      "note_off channel=0 note=72 velocity=0 time=501\n",
      "note_off channel=0 note=75 velocity=0 time=0\n",
      "note_on channel=0 note=72 velocity=110 time=11\n",
      "note_on channel=0 note=75 velocity=110 time=0\n",
      "note_off channel=0 note=72 velocity=0 time=1365\n",
      "note_off channel=0 note=75 velocity=0 time=0\n",
      "note_on channel=0 note=68 velocity=110 time=171\n",
      "note_on channel=0 note=73 velocity=110 time=0\n",
      "note_off channel=0 note=68 velocity=0 time=501\n",
      "note_off channel=0 note=73 velocity=0 time=0\n",
      "note_on channel=0 note=68 velocity=110 time=11\n",
      "note_on channel=0 note=73 velocity=110 time=0\n",
      "note_off channel=0 note=68 velocity=0 time=853\n",
      "note_off channel=0 note=73 velocity=0 time=0\n",
      "note_on channel=0 note=73 velocity=110 time=171\n",
      "note_on channel=0 note=77 velocity=110 time=0\n",
      "note_off channel=0 note=73 velocity=0 time=501\n",
      "note_off channel=0 note=77 velocity=0 time=0\n",
      "note_on channel=0 note=77 velocity=110 time=11\n",
      "note_on channel=0 note=80 velocity=110 time=0\n",
      "note_off channel=0 note=77 velocity=0 time=501\n",
      "note_off channel=0 note=80 velocity=0 time=0\n",
      "note_on channel=0 note=78 velocity=110 time=11\n",
      "note_on channel=0 note=82 velocity=110 time=0\n",
      "note_off channel=0 note=78 velocity=0 time=501\n",
      "note_off channel=0 note=82 velocity=0 time=0\n",
      "note_on channel=0 note=77 velocity=110 time=11\n",
      "note_on channel=0 note=80 velocity=110 time=0\n",
      "note_off channel=0 note=77 velocity=0 time=501\n",
      "note_off channel=0 note=80 velocity=0 time=0\n",
      "note_on channel=0 note=78 velocity=110 time=11\n",
      "note_on channel=0 note=82 velocity=110 time=0\n",
      "note_off channel=0 note=78 velocity=0 time=501\n",
      "note_off channel=0 note=82 velocity=0 time=0\n",
      "note_on channel=0 note=78 velocity=110 time=11\n",
      "note_on channel=0 note=84 velocity=110 time=0\n",
      "note_off channel=0 note=78 velocity=0 time=501\n",
      "note_off channel=0 note=84 velocity=0 time=0\n",
      "note_on channel=0 note=77 velocity=110 time=11\n",
      "note_on channel=0 note=85 velocity=110 time=0\n",
      "note_off channel=0 note=77 velocity=0 time=853\n",
      "note_off channel=0 note=85 velocity=0 time=0\n",
      "note_on channel=0 note=77 velocity=110 time=171\n",
      "note_on channel=0 note=80 velocity=110 time=0\n",
      "note_off channel=0 note=77 velocity=0 time=501\n",
      "note_off channel=0 note=80 velocity=0 time=0\n",
      "note_on channel=0 note=75 velocity=110 time=11\n",
      "note_on channel=0 note=78 velocity=110 time=0\n",
      "note_off channel=0 note=75 velocity=0 time=501\n",
      "note_off channel=0 note=78 velocity=0 time=0\n",
      "note_on channel=0 note=73 velocity=110 time=11\n",
      "note_on channel=0 note=77 velocity=110 time=0\n",
      "note_off channel=0 note=73 velocity=0 time=853\n",
      "note_off channel=0 note=77 velocity=0 time=0\n",
      "note_on channel=0 note=73 velocity=110 time=171\n",
      "note_on channel=0 note=77 velocity=110 time=0\n",
      "note_off channel=0 note=73 velocity=0 time=501\n",
      "note_off channel=0 note=77 velocity=0 time=0\n",
      "note_on channel=0 note=75 velocity=110 time=11\n",
      "note_on channel=0 note=78 velocity=110 time=0\n",
      "note_off channel=0 note=75 velocity=0 time=501\n",
      "note_off channel=0 note=78 velocity=0 time=0\n",
      "note_on channel=0 note=72 velocity=110 time=11\n",
      "note_on channel=0 note=75 velocity=110 time=0\n",
      "note_off channel=0 note=72 velocity=0 time=1792\n",
      "note_off channel=0 note=75 velocity=0 time=0\n",
      "note_on channel=0 note=73 velocity=110 time=256\n",
      "note_on channel=0 note=77 velocity=110 time=0\n",
      "note_off channel=0 note=73 velocity=0 time=501\n",
      "note_off channel=0 note=77 velocity=0 time=0\n",
      "note_on channel=0 note=72 velocity=110 time=11\n",
      "note_on channel=0 note=75 velocity=110 time=0\n",
      "note_off channel=0 note=72 velocity=0 time=501\n",
      "note_off channel=0 note=75 velocity=0 time=0\n",
      "note_on channel=0 note=73 velocity=110 time=11\n",
      "note_on channel=0 note=77 velocity=110 time=0\n",
      "note_off channel=0 note=73 velocity=0 time=501\n",
      "note_off channel=0 note=77 velocity=0 time=0\n",
      "note_on channel=0 note=75 velocity=110 time=11\n",
      "note_on channel=0 note=78 velocity=110 time=0\n",
      "note_off channel=0 note=75 velocity=0 time=501\n",
      "note_off channel=0 note=78 velocity=0 time=0\n",
      "note_on channel=0 note=77 velocity=110 time=11\n",
      "note_on channel=0 note=80 velocity=110 time=0\n",
      "note_off channel=0 note=77 velocity=0 time=853\n",
      "note_off channel=0 note=80 velocity=0 time=0\n",
      "note_on channel=0 note=73 velocity=110 time=171\n",
      "note_on channel=0 note=77 velocity=110 time=0\n",
      "note_off channel=0 note=73 velocity=0 time=501\n",
      "note_off channel=0 note=77 velocity=0 time=0\n",
      "note_on channel=0 note=72 velocity=110 time=11\n",
      "note_on channel=0 note=75 velocity=110 time=0\n",
      "note_off channel=0 note=72 velocity=0 time=501\n",
      "note_off channel=0 note=75 velocity=0 time=0\n",
      "note_on channel=0 note=72 velocity=110 time=11\n",
      "note_on channel=0 note=75 velocity=110 time=0\n",
      "note_off channel=0 note=72 velocity=0 time=1365\n",
      "note_off channel=0 note=75 velocity=0 time=0\n",
      "note_on channel=0 note=68 velocity=110 time=171\n",
      "note_on channel=0 note=73 velocity=110 time=0\n",
      "note_off channel=0 note=68 velocity=0 time=501\n",
      "note_off channel=0 note=73 velocity=0 time=0\n",
      "note_on channel=0 note=68 velocity=110 time=11\n",
      "note_on channel=0 note=73 velocity=110 time=0\n",
      "note_off channel=0 note=68 velocity=0 time=853\n",
      "note_off channel=0 note=73 velocity=0 time=0\n",
      "note_on channel=0 note=73 velocity=110 time=171\n",
      "note_on channel=0 note=77 velocity=110 time=0\n",
      "note_off channel=0 note=73 velocity=0 time=501\n",
      "note_off channel=0 note=77 velocity=0 time=0\n",
      "note_on channel=0 note=77 velocity=110 time=11\n",
      "note_on channel=0 note=80 velocity=110 time=0\n",
      "note_off channel=0 note=77 velocity=0 time=501\n",
      "note_off channel=0 note=80 velocity=0 time=0\n",
      "note_on channel=0 note=78 velocity=110 time=11\n",
      "note_on channel=0 note=82 velocity=110 time=0\n",
      "note_off channel=0 note=78 velocity=0 time=501\n",
      "note_off channel=0 note=82 velocity=0 time=0\n",
      "note_on channel=0 note=77 velocity=110 time=11\n",
      "note_on channel=0 note=80 velocity=110 time=0\n",
      "note_off channel=0 note=77 velocity=0 time=501\n",
      "note_off channel=0 note=80 velocity=0 time=0\n",
      "note_on channel=0 note=78 velocity=110 time=11\n",
      "note_on channel=0 note=82 velocity=110 time=0\n",
      "note_off channel=0 note=78 velocity=0 time=501\n",
      "note_off channel=0 note=82 velocity=0 time=0\n",
      "note_on channel=0 note=78 velocity=110 time=11\n",
      "note_on channel=0 note=84 velocity=110 time=0\n",
      "note_off channel=0 note=78 velocity=0 time=501\n",
      "note_off channel=0 note=84 velocity=0 time=0\n",
      "note_on channel=0 note=77 velocity=110 time=11\n",
      "note_on channel=0 note=85 velocity=110 time=0\n",
      "note_off channel=0 note=77 velocity=0 time=853\n",
      "note_off channel=0 note=85 velocity=0 time=0\n",
      "note_on channel=0 note=77 velocity=110 time=171\n",
      "note_on channel=0 note=80 velocity=110 time=0\n",
      "note_off channel=0 note=77 velocity=0 time=501\n",
      "note_off channel=0 note=80 velocity=0 time=0\n",
      "note_on channel=0 note=75 velocity=110 time=11\n",
      "note_on channel=0 note=78 velocity=110 time=0\n",
      "note_off channel=0 note=75 velocity=0 time=501\n",
      "note_off channel=0 note=78 velocity=0 time=0\n",
      "note_on channel=0 note=73 velocity=110 time=11\n",
      "note_on channel=0 note=78 velocity=110 time=0\n",
      "note_off channel=0 note=73 velocity=0 time=501\n",
      "note_off channel=0 note=78 velocity=0 time=0\n",
      "note_on channel=0 note=73 velocity=110 time=11\n",
      "note_on channel=0 note=77 velocity=110 time=0\n",
      "note_off channel=0 note=73 velocity=0 time=501\n",
      "note_off channel=0 note=77 velocity=0 time=0\n",
      "note_on channel=0 note=72 velocity=110 time=11\n",
      "note_on channel=0 note=75 velocity=110 time=0\n",
      "note_off channel=0 note=72 velocity=0 time=501\n",
      "note_off channel=0 note=75 velocity=0 time=0\n",
      "note_on channel=0 note=68 velocity=110 time=11\n",
      "note_on channel=0 note=73 velocity=110 time=0\n",
      "note_off channel=0 note=68 velocity=0 time=501\n",
      "note_off channel=0 note=73 velocity=0 time=0\n",
      "note_on channel=0 note=75 velocity=110 time=11\n",
      "note_on channel=0 note=80 velocity=110 time=0\n",
      "note_off channel=0 note=75 velocity=0 time=853\n",
      "note_off channel=0 note=80 velocity=0 time=0\n",
      "note_on channel=0 note=68 velocity=110 time=171\n",
      "note_on channel=0 note=72 velocity=110 time=0\n",
      "note_off channel=0 note=68 velocity=0 time=853\n",
      "note_off channel=0 note=72 velocity=0 time=0\n",
      "note_on channel=0 note=56 velocity=110 time=171\n",
      "note_on channel=0 note=60 velocity=110 time=0\n",
      "note_on channel=0 note=65 velocity=110 time=0\n",
      "note_off channel=0 note=56 velocity=0 time=1792\n",
      "note_off channel=0 note=60 velocity=0 time=0\n",
      "note_off channel=0 note=65 velocity=0 time=0\n",
      "note_on channel=0 note=65 velocity=110 time=768\n",
      "note_off channel=0 note=65 velocity=0 time=501\n",
      "note_on channel=0 note=66 velocity=110 time=11\n",
      "note_off channel=0 note=66 velocity=0 time=373\n",
      "note_on channel=0 note=68 velocity=110 time=11\n",
      "note_off channel=0 note=68 velocity=0 time=629\n",
      "note_on channel=0 note=61 velocity=110 time=11\n",
      "note_on channel=0 note=66 velocity=110 time=0\n",
      "note_on channel=0 note=70 velocity=110 time=0\n",
      "note_off channel=0 note=61 velocity=0 time=1792\n",
      "note_off channel=0 note=66 velocity=0 time=0\n",
      "note_off channel=0 note=70 velocity=0 time=0\n",
      "note_on channel=0 note=70 velocity=110 time=768\n",
      "note_off channel=0 note=70 velocity=0 time=501\n",
      "note_on channel=0 note=68 velocity=110 time=11\n",
      "note_off channel=0 note=68 velocity=0 time=373\n",
      "note_on channel=0 note=66 velocity=110 time=11\n",
      "note_off channel=0 note=66 velocity=0 time=629\n",
      "note_on channel=0 note=56 velocity=110 time=11\n",
      "note_on channel=0 note=60 velocity=110 time=0\n",
      "note_on channel=0 note=65 velocity=110 time=0\n",
      "note_off channel=0 note=56 velocity=0 time=1792\n",
      "note_off channel=0 note=60 velocity=0 time=0\n",
      "note_off channel=0 note=65 velocity=0 time=0\n",
      "note_on channel=0 note=65 velocity=110 time=768\n",
      "note_off channel=0 note=65 velocity=0 time=501\n",
      "note_on channel=0 note=66 velocity=110 time=11\n",
      "note_off channel=0 note=66 velocity=0 time=373\n",
      "note_on channel=0 note=68 velocity=110 time=11\n",
      "note_off channel=0 note=68 velocity=0 time=629\n",
      "note_on channel=0 note=61 velocity=110 time=11\n",
      "note_on channel=0 note=66 velocity=110 time=0\n",
      "note_on channel=0 note=70 velocity=110 time=0\n",
      "note_off channel=0 note=61 velocity=0 time=1792\n",
      "note_off channel=0 note=66 velocity=0 time=0\n",
      "note_off channel=0 note=70 velocity=0 time=0\n",
      "note_on channel=0 note=70 velocity=110 time=768\n",
      "note_off channel=0 note=70 velocity=0 time=501\n",
      "note_on channel=0 note=68 velocity=110 time=11\n",
      "note_off channel=0 note=68 velocity=0 time=373\n",
      "note_on channel=0 note=66 velocity=110 time=11\n",
      "note_off channel=0 note=66 velocity=0 time=629\n",
      "note_on channel=0 note=56 velocity=110 time=11\n",
      "note_on channel=0 note=60 velocity=110 time=0\n",
      "note_on channel=0 note=65 velocity=110 time=0\n",
      "note_off channel=0 note=56 velocity=0 time=1792\n",
      "note_off channel=0 note=60 velocity=0 time=0\n",
      "note_off channel=0 note=65 velocity=0 time=0\n",
      "note_on channel=0 note=65 velocity=110 time=768\n",
      "note_off channel=0 note=65 velocity=0 time=501\n",
      "note_on channel=0 note=66 velocity=110 time=11\n",
      "note_off channel=0 note=66 velocity=0 time=373\n",
      "note_on channel=0 note=68 velocity=110 time=11\n",
      "note_off channel=0 note=68 velocity=0 time=629\n",
      "note_on channel=0 note=61 velocity=110 time=11\n",
      "note_on channel=0 note=66 velocity=110 time=0\n",
      "note_on channel=0 note=70 velocity=110 time=0\n",
      "note_off channel=0 note=61 velocity=0 time=1792\n",
      "note_off channel=0 note=66 velocity=0 time=0\n",
      "note_off channel=0 note=70 velocity=0 time=0\n",
      "note_on channel=0 note=66 velocity=110 time=256\n",
      "note_on channel=0 note=69 velocity=110 time=0\n",
      "note_on channel=0 note=73 velocity=110 time=0\n",
      "note_off channel=0 note=66 velocity=0 time=2549\n",
      "note_off channel=0 note=69 velocity=0 time=0\n",
      "note_off channel=0 note=73 velocity=0 time=0\n",
      "note_on channel=0 note=68 velocity=110 time=11\n",
      "note_off channel=0 note=68 velocity=0 time=117\n",
      "note_on channel=0 note=65 velocity=110 time=11\n",
      "note_on channel=0 note=73 velocity=110 time=0\n",
      "note_off channel=0 note=65 velocity=0 time=2176\n",
      "note_off channel=0 note=73 velocity=0 time=0\n",
      "<meta message end_of_track time=2134>\n",
      "Track 2: Acoustic Grand Piano\n",
      "<meta message device_name name='SmartMusic SoftSynth 1' time=0>\n",
      "<meta message track_name name='Acoustic Grand Piano' time=0>\n",
      "program_change channel=1 program=0 time=0\n",
      "control_change channel=1 control=7 value=101 time=0\n",
      "control_change channel=1 control=10 value=64 time=0\n",
      "control_change channel=1 control=10 value=64 time=0\n",
      "control_change channel=1 control=7 value=127 time=0\n",
      "note_on channel=1 note=38 velocity=110 time=0\n",
      "note_off channel=1 note=38 velocity=0 time=501\n",
      "note_on channel=1 note=38 velocity=110 time=11\n",
      "note_off channel=1 note=38 velocity=0 time=501\n",
      "note_on channel=1 note=38 velocity=110 time=523\n",
      "note_off channel=1 note=38 velocity=0 time=501\n",
      "note_on channel=1 note=38 velocity=110 time=523\n",
      "note_off channel=1 note=38 velocity=0 time=501\n",
      "note_on channel=1 note=38 velocity=110 time=11\n",
      "note_off channel=1 note=38 velocity=0 time=853\n",
      "note_on channel=1 note=43 velocity=110 time=171\n",
      "note_off channel=1 note=43 velocity=0 time=853\n",
      "note_on channel=1 note=47 velocity=110 time=1195\n",
      "note_off channel=1 note=47 velocity=0 time=853\n",
      "note_on channel=1 note=43 velocity=110 time=1195\n",
      "note_off channel=1 note=43 velocity=0 time=5888\n",
      "note_on channel=1 note=48 velocity=110 time=2304\n",
      "note_off channel=1 note=48 velocity=0 time=5888\n",
      "note_on channel=1 note=43 velocity=110 time=2304\n",
      "note_off channel=1 note=43 velocity=0 time=5888\n",
      "note_on channel=1 note=48 velocity=110 time=2304\n",
      "note_off channel=1 note=48 velocity=0 time=5888\n",
      "note_on channel=1 note=47 velocity=110 time=2304\n",
      "note_off channel=1 note=47 velocity=0 time=5888\n",
      "note_on channel=1 note=45 velocity=110 time=2304\n",
      "note_off channel=1 note=45 velocity=0 time=5888\n",
      "note_on channel=1 note=47 velocity=110 time=2304\n",
      "note_off channel=1 note=47 velocity=0 time=5888\n",
      "note_on channel=1 note=50 velocity=110 time=2304\n",
      "note_off channel=1 note=50 velocity=0 time=5888\n",
      "note_on channel=1 note=36 velocity=110 time=2304\n",
      "note_on channel=1 note=48 velocity=110 time=0\n",
      "note_off channel=1 note=36 velocity=0 time=7936\n",
      "note_off channel=1 note=48 velocity=0 time=0\n",
      "note_on channel=1 note=36 velocity=110 time=256\n",
      "note_on channel=1 note=48 velocity=110 time=0\n",
      "note_off channel=1 note=36 velocity=0 time=3840\n",
      "note_off channel=1 note=48 velocity=0 time=0\n",
      "note_on channel=1 note=36 velocity=110 time=256\n",
      "note_on channel=1 note=48 velocity=110 time=0\n",
      "note_off channel=1 note=36 velocity=0 time=3840\n",
      "note_off channel=1 note=48 velocity=0 time=0\n",
      "note_on channel=1 note=36 velocity=110 time=256\n",
      "note_on channel=1 note=48 velocity=110 time=0\n",
      "note_off channel=1 note=36 velocity=0 time=3840\n",
      "note_off channel=1 note=48 velocity=0 time=0\n",
      "note_on channel=1 note=36 velocity=110 time=256\n",
      "note_on channel=1 note=48 velocity=110 time=0\n",
      "note_off channel=1 note=36 velocity=0 time=3840\n",
      "note_off channel=1 note=48 velocity=0 time=0\n",
      "note_on channel=1 note=37 velocity=110 time=256\n",
      "note_on channel=1 note=49 velocity=110 time=0\n",
      "note_off channel=1 note=37 velocity=0 time=3840\n",
      "note_off channel=1 note=49 velocity=0 time=0\n",
      "note_on channel=1 note=38 velocity=110 time=256\n",
      "note_on channel=1 note=50 velocity=110 time=0\n",
      "note_off channel=1 note=38 velocity=0 time=3840\n",
      "note_off channel=1 note=50 velocity=0 time=0\n",
      "note_on channel=1 note=39 velocity=110 time=256\n",
      "note_on channel=1 note=51 velocity=110 time=0\n",
      "note_off channel=1 note=39 velocity=0 time=3840\n",
      "note_off channel=1 note=51 velocity=0 time=0\n",
      "note_on channel=1 note=40 velocity=110 time=256\n",
      "note_on channel=1 note=52 velocity=110 time=0\n",
      "note_off channel=1 note=40 velocity=0 time=3840\n",
      "note_off channel=1 note=52 velocity=0 time=0\n",
      "note_on channel=1 note=39 velocity=110 time=256\n",
      "note_on channel=1 note=51 velocity=110 time=0\n",
      "note_off channel=1 note=39 velocity=0 time=3840\n",
      "note_off channel=1 note=51 velocity=0 time=0\n",
      "note_on channel=1 note=38 velocity=110 time=256\n",
      "note_on channel=1 note=50 velocity=110 time=0\n",
      "note_off channel=1 note=38 velocity=0 time=3840\n",
      "note_off channel=1 note=50 velocity=0 time=0\n",
      "note_on channel=1 note=37 velocity=110 time=256\n",
      "note_on channel=1 note=49 velocity=110 time=0\n",
      "note_off channel=1 note=37 velocity=0 time=7936\n",
      "note_off channel=1 note=49 velocity=0 time=0\n",
      "note_on channel=1 note=48 velocity=110 time=256\n",
      "note_on channel=1 note=60 velocity=110 time=0\n",
      "note_off channel=1 note=48 velocity=0 time=501\n",
      "note_off channel=1 note=60 velocity=0 time=0\n",
      "note_on channel=1 note=45 velocity=110 time=11\n",
      "note_on channel=1 note=57 velocity=110 time=0\n",
      "note_off channel=1 note=45 velocity=0 time=501\n",
      "note_off channel=1 note=57 velocity=0 time=0\n",
      "note_on channel=1 note=48 velocity=110 time=11\n",
      "note_on channel=1 note=60 velocity=110 time=0\n",
      "note_off channel=1 note=48 velocity=0 time=501\n",
      "note_off channel=1 note=60 velocity=0 time=0\n",
      "note_on channel=1 note=62 velocity=110 time=11\n",
      "note_off channel=1 note=62 velocity=0 time=117\n",
      "note_on channel=1 note=50 velocity=110 time=11\n",
      "note_off channel=1 note=50 velocity=0 time=117\n",
      "note_on channel=1 note=48 velocity=110 time=11\n",
      "note_on channel=1 note=60 velocity=110 time=0\n",
      "note_off channel=1 note=48 velocity=0 time=245\n",
      "note_off channel=1 note=60 velocity=0 time=0\n",
      "note_on channel=1 note=40 velocity=110 time=267\n",
      "note_on channel=1 note=52 velocity=110 time=0\n",
      "note_off channel=1 note=40 velocity=0 time=757\n",
      "note_off channel=1 note=52 velocity=0 time=0\n",
      "note_on channel=1 note=41 velocity=110 time=11\n",
      "note_on channel=1 note=53 velocity=110 time=0\n",
      "note_off channel=1 note=41 velocity=0 time=501\n",
      "note_off channel=1 note=53 velocity=0 time=0\n",
      "note_on channel=1 note=42 velocity=110 time=11\n",
      "note_on channel=1 note=54 velocity=110 time=0\n",
      "note_off channel=1 note=42 velocity=0 time=501\n",
      "note_off channel=1 note=54 velocity=0 time=0\n",
      "note_on channel=1 note=43 velocity=110 time=11\n",
      "note_on channel=1 note=55 velocity=110 time=0\n",
      "note_off channel=1 note=43 velocity=0 time=853\n",
      "note_off channel=1 note=55 velocity=0 time=0\n",
      "note_on channel=1 note=43 velocity=110 time=171\n",
      "note_on channel=1 note=55 velocity=110 time=0\n",
      "note_off channel=1 note=43 velocity=0 time=245\n",
      "note_off channel=1 note=55 velocity=0 time=0\n",
      "note_on channel=1 note=43 velocity=110 time=11\n",
      "note_on channel=1 note=55 velocity=110 time=0\n",
      "note_off channel=1 note=43 velocity=0 time=501\n",
      "note_off channel=1 note=55 velocity=0 time=0\n",
      "note_on channel=1 note=43 velocity=110 time=11\n",
      "note_on channel=1 note=55 velocity=110 time=0\n",
      "note_off channel=1 note=43 velocity=0 time=245\n",
      "note_off channel=1 note=55 velocity=0 time=0\n",
      "note_on channel=1 note=52 velocity=110 time=2059\n",
      "note_on channel=1 note=55 velocity=110 time=0\n",
      "note_off channel=1 note=52 velocity=0 time=853\n",
      "note_off channel=1 note=55 velocity=0 time=0\n",
      "note_on channel=1 note=52 velocity=110 time=171\n",
      "note_on channel=1 note=55 velocity=110 time=0\n",
      "note_off channel=1 note=52 velocity=0 time=501\n",
      "note_off channel=1 note=55 velocity=0 time=0\n",
      "note_on channel=1 note=52 velocity=110 time=11\n",
      "note_on channel=1 note=55 velocity=110 time=0\n",
      "note_off channel=1 note=52 velocity=0 time=501\n",
      "note_off channel=1 note=55 velocity=0 time=0\n",
      "note_on channel=1 note=52 velocity=110 time=523\n",
      "note_on channel=1 note=55 velocity=110 time=0\n",
      "note_off channel=1 note=52 velocity=0 time=501\n",
      "note_off channel=1 note=55 velocity=0 time=0\n",
      "note_on channel=1 note=52 velocity=110 time=11\n",
      "note_on channel=1 note=55 velocity=110 time=0\n",
      "note_off channel=1 note=52 velocity=0 time=853\n",
      "note_off channel=1 note=55 velocity=0 time=0\n",
      "note_on channel=1 note=53 velocity=110 time=171\n",
      "note_on channel=1 note=57 velocity=110 time=0\n",
      "note_off channel=1 note=53 velocity=0 time=853\n",
      "note_off channel=1 note=57 velocity=0 time=0\n",
      "note_on channel=1 note=53 velocity=110 time=171\n",
      "note_on channel=1 note=57 velocity=110 time=0\n",
      "note_off channel=1 note=53 velocity=0 time=757\n",
      "note_off channel=1 note=57 velocity=0 time=0\n",
      "note_on channel=1 note=53 velocity=110 time=11\n",
      "note_on channel=1 note=57 velocity=110 time=0\n",
      "note_off channel=1 note=53 velocity=0 time=245\n",
      "note_off channel=1 note=57 velocity=0 time=0\n",
      "note_on channel=1 note=53 velocity=110 time=523\n",
      "note_on channel=1 note=57 velocity=110 time=0\n",
      "note_off channel=1 note=53 velocity=0 time=1365\n",
      "note_off channel=1 note=57 velocity=0 time=0\n",
      "note_on channel=1 note=52 velocity=110 time=171\n",
      "note_on channel=1 note=55 velocity=110 time=0\n",
      "note_off channel=1 note=52 velocity=0 time=853\n",
      "note_off channel=1 note=55 velocity=0 time=0\n",
      "note_on channel=1 note=52 velocity=110 time=171\n",
      "note_on channel=1 note=55 velocity=110 time=0\n",
      "note_off channel=1 note=52 velocity=0 time=757\n",
      "note_off channel=1 note=55 velocity=0 time=0\n",
      "note_on channel=1 note=52 velocity=110 time=11\n",
      "note_on channel=1 note=55 velocity=110 time=0\n",
      "note_off channel=1 note=52 velocity=0 time=245\n",
      "note_off channel=1 note=55 velocity=0 time=0\n",
      "note_on channel=1 note=52 velocity=110 time=523\n",
      "note_on channel=1 note=55 velocity=110 time=0\n",
      "note_off channel=1 note=52 velocity=0 time=501\n",
      "note_off channel=1 note=55 velocity=0 time=0\n",
      "note_on channel=1 note=52 velocity=110 time=11\n",
      "note_on channel=1 note=55 velocity=110 time=0\n",
      "note_off channel=1 note=52 velocity=0 time=853\n",
      "note_off channel=1 note=55 velocity=0 time=0\n",
      "note_on channel=1 note=50 velocity=110 time=171\n",
      "note_on channel=1 note=53 velocity=110 time=0\n",
      "note_off channel=1 note=50 velocity=0 time=853\n",
      "note_off channel=1 note=53 velocity=0 time=0\n",
      "note_on channel=1 note=50 velocity=110 time=171\n",
      "note_on channel=1 note=53 velocity=110 time=0\n",
      "note_off channel=1 note=50 velocity=0 time=757\n",
      "note_off channel=1 note=53 velocity=0 time=0\n",
      "note_on channel=1 note=50 velocity=110 time=11\n",
      "note_on channel=1 note=55 velocity=110 time=0\n",
      "note_off channel=1 note=50 velocity=0 time=245\n",
      "note_off channel=1 note=55 velocity=0 time=0\n",
      "note_on channel=1 note=50 velocity=110 time=523\n",
      "note_on channel=1 note=55 velocity=110 time=0\n",
      "note_off channel=1 note=50 velocity=0 time=1013\n",
      "note_off channel=1 note=55 velocity=0 time=0\n",
      "note_on channel=1 note=52 velocity=110 time=11\n",
      "note_on channel=1 note=55 velocity=110 time=0\n",
      "note_off channel=1 note=52 velocity=0 time=501\n",
      "note_off channel=1 note=55 velocity=0 time=0\n",
      "note_on channel=1 note=52 velocity=110 time=11\n",
      "note_on channel=1 note=55 velocity=110 time=0\n",
      "note_off channel=1 note=52 velocity=0 time=853\n",
      "note_off channel=1 note=55 velocity=0 time=0\n",
      "note_on channel=1 note=52 velocity=110 time=171\n",
      "note_on channel=1 note=55 velocity=110 time=0\n",
      "note_off channel=1 note=52 velocity=0 time=501\n",
      "note_off channel=1 note=55 velocity=0 time=0\n",
      "note_on channel=1 note=52 velocity=110 time=11\n",
      "note_on channel=1 note=55 velocity=110 time=0\n",
      "note_off channel=1 note=52 velocity=0 time=501\n",
      "note_off channel=1 note=55 velocity=0 time=0\n",
      "note_on channel=1 note=52 velocity=110 time=523\n",
      "note_on channel=1 note=55 velocity=110 time=0\n",
      "note_off channel=1 note=52 velocity=0 time=501\n",
      "note_off channel=1 note=55 velocity=0 time=0\n",
      "note_on channel=1 note=52 velocity=110 time=11\n",
      "note_on channel=1 note=55 velocity=110 time=0\n",
      "note_off channel=1 note=52 velocity=0 time=853\n",
      "note_off channel=1 note=55 velocity=0 time=0\n",
      "note_on channel=1 note=53 velocity=110 time=171\n",
      "note_on channel=1 note=57 velocity=110 time=0\n",
      "note_off channel=1 note=53 velocity=0 time=853\n",
      "note_off channel=1 note=57 velocity=0 time=0\n",
      "note_on channel=1 note=53 velocity=110 time=171\n",
      "note_on channel=1 note=57 velocity=110 time=0\n",
      "note_off channel=1 note=53 velocity=0 time=757\n",
      "note_off channel=1 note=57 velocity=0 time=0\n",
      "note_on channel=1 note=54 velocity=110 time=11\n",
      "note_on channel=1 note=57 velocity=110 time=0\n",
      "note_off channel=1 note=54 velocity=0 time=245\n",
      "note_off channel=1 note=57 velocity=0 time=0\n",
      "note_on channel=1 note=54 velocity=110 time=523\n",
      "note_on channel=1 note=57 velocity=110 time=0\n",
      "note_off channel=1 note=54 velocity=0 time=501\n",
      "note_off channel=1 note=57 velocity=0 time=0\n",
      "note_on channel=1 note=54 velocity=110 time=11\n",
      "note_on channel=1 note=57 velocity=110 time=0\n",
      "note_off channel=1 note=54 velocity=0 time=853\n",
      "note_off channel=1 note=57 velocity=0 time=0\n",
      "note_on channel=1 note=52 velocity=110 time=171\n",
      "note_on channel=1 note=55 velocity=110 time=0\n",
      "note_off channel=1 note=52 velocity=0 time=853\n",
      "note_off channel=1 note=55 velocity=0 time=0\n",
      "note_on channel=1 note=52 velocity=110 time=171\n",
      "note_on channel=1 note=55 velocity=110 time=0\n",
      "note_off channel=1 note=52 velocity=0 time=501\n",
      "note_off channel=1 note=55 velocity=0 time=0\n",
      "note_on channel=1 note=52 velocity=110 time=11\n",
      "note_on channel=1 note=55 velocity=110 time=0\n",
      "note_off channel=1 note=52 velocity=0 time=501\n",
      "note_off channel=1 note=55 velocity=0 time=0\n",
      "note_on channel=1 note=52 velocity=110 time=523\n",
      "note_on channel=1 note=55 velocity=110 time=0\n",
      "note_off channel=1 note=52 velocity=0 time=501\n",
      "note_off channel=1 note=55 velocity=0 time=0\n",
      "note_on channel=1 note=52 velocity=110 time=11\n",
      "note_on channel=1 note=55 velocity=110 time=0\n",
      "note_off channel=1 note=52 velocity=0 time=853\n",
      "note_off channel=1 note=55 velocity=0 time=0\n",
      "note_on channel=1 note=48 velocity=110 time=171\n",
      "note_on channel=1 note=55 velocity=110 time=0\n",
      "note_off channel=1 note=48 velocity=0 time=853\n",
      "note_off channel=1 note=55 velocity=0 time=0\n",
      "note_on channel=1 note=55 velocity=110 time=171\n",
      "note_off channel=1 note=55 velocity=0 time=245\n",
      "note_on channel=1 note=57 velocity=110 time=11\n",
      "note_off channel=1 note=57 velocity=0 time=501\n",
      "note_on channel=1 note=60 velocity=110 time=11\n",
      "note_off channel=1 note=60 velocity=0 time=245\n",
      "note_on channel=1 note=52 velocity=110 time=2059\n",
      "note_on channel=1 note=55 velocity=110 time=0\n",
      "note_off channel=1 note=52 velocity=0 time=501\n",
      "note_off channel=1 note=55 velocity=0 time=0\n",
      "note_on channel=1 note=52 velocity=110 time=11\n",
      "note_on channel=1 note=55 velocity=110 time=0\n",
      "note_off channel=1 note=52 velocity=0 time=501\n",
      "note_off channel=1 note=55 velocity=0 time=0\n",
      "note_on channel=1 note=52 velocity=110 time=779\n",
      "note_on channel=1 note=55 velocity=110 time=0\n",
      "note_off channel=1 note=52 velocity=0 time=245\n",
      "note_off channel=1 note=55 velocity=0 time=0\n",
      "note_on channel=1 note=52 velocity=110 time=523\n",
      "note_on channel=1 note=55 velocity=110 time=0\n",
      "note_off channel=1 note=52 velocity=0 time=501\n",
      "note_off channel=1 note=55 velocity=0 time=0\n",
      "note_on channel=1 note=67 velocity=110 time=11\n",
      "note_off channel=1 note=67 velocity=0 time=501\n",
      "note_on channel=1 note=65 velocity=110 time=11\n",
      "note_off channel=1 note=65 velocity=0 time=117\n",
      "note_on channel=1 note=64 velocity=110 time=11\n",
      "note_off channel=1 note=64 velocity=0 time=117\n",
      "note_on channel=1 note=62 velocity=110 time=11\n",
      "note_off channel=1 note=62 velocity=0 time=117\n",
      "note_on channel=1 note=59 velocity=110 time=139\n",
      "note_off channel=1 note=59 velocity=0 time=117\n",
      "note_on channel=1 note=57 velocity=110 time=11\n",
      "note_off channel=1 note=57 velocity=0 time=117\n",
      "note_on channel=1 note=55 velocity=110 time=11\n",
      "note_off channel=1 note=55 velocity=0 time=117\n",
      "note_on channel=1 note=53 velocity=110 time=11\n",
      "note_off channel=1 note=53 velocity=0 time=117\n",
      "note_on channel=1 note=53 velocity=110 time=11\n",
      "note_on channel=1 note=57 velocity=110 time=0\n",
      "note_off channel=1 note=53 velocity=0 time=501\n",
      "note_off channel=1 note=57 velocity=0 time=0\n",
      "note_on channel=1 note=53 velocity=110 time=779\n",
      "note_on channel=1 note=57 velocity=110 time=0\n",
      "note_off channel=1 note=53 velocity=0 time=245\n",
      "note_off channel=1 note=57 velocity=0 time=0\n",
      "note_on channel=1 note=53 velocity=110 time=523\n",
      "note_on channel=1 note=57 velocity=110 time=0\n",
      "note_off channel=1 note=53 velocity=0 time=501\n",
      "note_off channel=1 note=57 velocity=0 time=0\n",
      "note_on channel=1 note=65 velocity=110 time=11\n",
      "note_off channel=1 note=65 velocity=0 time=501\n",
      "note_on channel=1 note=64 velocity=110 time=11\n",
      "note_off channel=1 note=64 velocity=0 time=117\n",
      "note_on channel=1 note=62 velocity=110 time=11\n",
      "note_off channel=1 note=62 velocity=0 time=117\n",
      "note_on channel=1 note=60 velocity=110 time=11\n",
      "note_off channel=1 note=60 velocity=0 time=117\n",
      "note_on channel=1 note=57 velocity=110 time=139\n",
      "note_off channel=1 note=57 velocity=0 time=117\n",
      "note_on channel=1 note=55 velocity=110 time=11\n",
      "note_off channel=1 note=55 velocity=0 time=117\n",
      "note_on channel=1 note=53 velocity=110 time=11\n",
      "note_off channel=1 note=53 velocity=0 time=117\n",
      "note_on channel=1 note=52 velocity=110 time=11\n",
      "note_on channel=1 note=55 velocity=110 time=0\n",
      "note_off channel=1 note=52 velocity=0 time=373\n",
      "note_off channel=1 note=55 velocity=0 time=0\n",
      "note_on channel=1 note=52 velocity=110 time=11\n",
      "note_on channel=1 note=55 velocity=110 time=0\n",
      "note_off channel=1 note=52 velocity=0 time=245\n",
      "note_off channel=1 note=55 velocity=0 time=0\n",
      "note_on channel=1 note=52 velocity=110 time=523\n",
      "note_on channel=1 note=55 velocity=110 time=0\n",
      "note_off channel=1 note=52 velocity=0 time=501\n",
      "note_off channel=1 note=55 velocity=0 time=0\n",
      "note_on channel=1 note=52 velocity=110 time=11\n",
      "note_on channel=1 note=55 velocity=110 time=0\n",
      "note_off channel=1 note=52 velocity=0 time=1792\n",
      "note_off channel=1 note=55 velocity=0 time=0\n",
      "note_on channel=1 note=53 velocity=110 time=256\n",
      "note_on channel=1 note=57 velocity=110 time=0\n",
      "note_off channel=1 note=53 velocity=0 time=757\n",
      "note_off channel=1 note=57 velocity=0 time=0\n",
      "note_on channel=1 note=60 velocity=110 time=11\n",
      "note_off channel=1 note=60 velocity=0 time=117\n",
      "note_on channel=1 note=55 velocity=110 time=11\n",
      "note_off channel=1 note=55 velocity=0 time=117\n",
      "note_on channel=1 note=55 velocity=110 time=523\n",
      "note_on channel=1 note=62 velocity=110 time=0\n",
      "note_off channel=1 note=55 velocity=0 time=1141\n",
      "note_off channel=1 note=62 velocity=0 time=0\n",
      "note_on channel=1 note=60 velocity=110 time=11\n",
      "note_off channel=1 note=60 velocity=0 time=117\n",
      "note_on channel=1 note=59 velocity=110 time=11\n",
      "note_off channel=1 note=59 velocity=0 time=117\n",
      "note_on channel=1 note=57 velocity=110 time=11\n",
      "note_off channel=1 note=57 velocity=0 time=117\n",
      "note_on channel=1 note=55 velocity=110 time=11\n",
      "note_off channel=1 note=55 velocity=0 time=117\n",
      "note_on channel=1 note=53 velocity=110 time=11\n",
      "note_off channel=1 note=53 velocity=0 time=117\n",
      "note_on channel=1 note=50 velocity=110 time=11\n",
      "note_off channel=1 note=50 velocity=0 time=245\n",
      "note_on channel=1 note=48 velocity=110 time=11\n",
      "note_on channel=1 note=52 velocity=110 time=0\n",
      "note_off channel=1 note=48 velocity=0 time=501\n",
      "note_off channel=1 note=52 velocity=0 time=0\n",
      "note_on channel=1 note=52 velocity=110 time=11\n",
      "note_on channel=1 note=55 velocity=110 time=0\n",
      "note_off channel=1 note=52 velocity=0 time=757\n",
      "note_off channel=1 note=55 velocity=0 time=0\n",
      "note_on channel=1 note=52 velocity=110 time=11\n",
      "note_on channel=1 note=55 velocity=110 time=0\n",
      "note_off channel=1 note=52 velocity=0 time=245\n",
      "note_off channel=1 note=55 velocity=0 time=0\n",
      "note_on channel=1 note=52 velocity=110 time=523\n",
      "note_on channel=1 note=55 velocity=110 time=0\n",
      "note_off channel=1 note=52 velocity=0 time=501\n",
      "note_off channel=1 note=55 velocity=0 time=0\n",
      "note_on channel=1 note=52 velocity=110 time=523\n",
      "note_on channel=1 note=60 velocity=110 time=0\n",
      "note_off channel=1 note=52 velocity=0 time=501\n",
      "note_off channel=1 note=60 velocity=0 time=0\n",
      "note_on channel=1 note=62 velocity=110 time=11\n",
      "note_off channel=1 note=62 velocity=0 time=245\n",
      "note_on channel=1 note=64 velocity=110 time=11\n",
      "note_off channel=1 note=64 velocity=0 time=501\n",
      "note_on channel=1 note=60 velocity=110 time=11\n",
      "note_off channel=1 note=60 velocity=0 time=245\n",
      "note_on channel=1 note=53 velocity=110 time=11\n",
      "note_on channel=1 note=57 velocity=110 time=0\n",
      "note_off channel=1 note=53 velocity=0 time=853\n",
      "note_off channel=1 note=57 velocity=0 time=0\n",
      "note_on channel=1 note=53 velocity=110 time=171\n",
      "note_on channel=1 note=57 velocity=110 time=0\n",
      "note_off channel=1 note=53 velocity=0 time=757\n",
      "note_off channel=1 note=57 velocity=0 time=0\n",
      "note_on channel=1 note=54 velocity=110 time=11\n",
      "note_on channel=1 note=57 velocity=110 time=0\n",
      "note_off channel=1 note=54 velocity=0 time=245\n",
      "note_off channel=1 note=57 velocity=0 time=0\n",
      "note_on channel=1 note=54 velocity=110 time=523\n",
      "note_on channel=1 note=60 velocity=110 time=0\n",
      "note_off channel=1 note=54 velocity=0 time=501\n",
      "note_off channel=1 note=60 velocity=0 time=0\n",
      "note_on channel=1 note=63 velocity=110 time=11\n",
      "note_off channel=1 note=63 velocity=0 time=245\n",
      "note_on channel=1 note=62 velocity=110 time=11\n",
      "note_off channel=1 note=62 velocity=0 time=501\n",
      "note_on channel=1 note=55 velocity=110 time=11\n",
      "note_on channel=1 note=60 velocity=110 time=0\n",
      "note_off channel=1 note=55 velocity=0 time=245\n",
      "note_off channel=1 note=60 velocity=0 time=0\n",
      "note_on channel=1 note=52 velocity=110 time=523\n",
      "note_on channel=1 note=55 velocity=110 time=0\n",
      "note_off channel=1 note=52 velocity=0 time=501\n",
      "note_off channel=1 note=55 velocity=0 time=0\n",
      "note_on channel=1 note=52 velocity=110 time=779\n",
      "note_on channel=1 note=55 velocity=110 time=0\n",
      "note_off channel=1 note=52 velocity=0 time=245\n",
      "note_off channel=1 note=55 velocity=0 time=0\n",
      "note_on channel=1 note=52 velocity=110 time=523\n",
      "note_on channel=1 note=55 velocity=110 time=0\n",
      "note_off channel=1 note=52 velocity=0 time=501\n",
      "note_off channel=1 note=55 velocity=0 time=0\n",
      "note_on channel=1 note=52 velocity=110 time=523\n",
      "note_on channel=1 note=55 velocity=110 time=0\n",
      "note_off channel=1 note=52 velocity=0 time=501\n",
      "note_off channel=1 note=55 velocity=0 time=0\n",
      "note_on channel=1 note=52 velocity=110 time=11\n",
      "note_on channel=1 note=55 velocity=110 time=0\n",
      "note_off channel=1 note=52 velocity=0 time=853\n",
      "note_off channel=1 note=55 velocity=0 time=0\n",
      "note_on channel=1 note=58 velocity=110 time=171\n",
      "note_off channel=1 note=58 velocity=0 time=245\n",
      "note_on channel=1 note=59 velocity=110 time=11\n",
      "note_off channel=1 note=59 velocity=0 time=501\n",
      "note_on channel=1 note=60 velocity=110 time=11\n",
      "note_off channel=1 note=60 velocity=0 time=1109\n",
      "note_on channel=1 note=64 velocity=110 time=171\n",
      "note_off channel=1 note=64 velocity=0 time=373\n",
      "note_on channel=1 note=65 velocity=110 time=11\n",
      "note_off channel=1 note=65 velocity=0 time=117\n",
      "note_on channel=1 note=67 velocity=110 time=11\n",
      "note_off channel=1 note=67 velocity=0 time=245\n",
      "note_on channel=1 note=68 velocity=110 time=11\n",
      "note_off channel=1 note=68 velocity=0 time=245\n",
      "note_on channel=1 note=65 velocity=110 time=11\n",
      "note_on channel=1 note=69 velocity=110 time=0\n",
      "note_off channel=1 note=65 velocity=0 time=1365\n",
      "note_off channel=1 note=69 velocity=0 time=0\n",
      "note_on channel=1 note=60 velocity=110 time=171\n",
      "note_on channel=1 note=65 velocity=110 time=0\n",
      "note_off channel=1 note=60 velocity=0 time=501\n",
      "note_off channel=1 note=65 velocity=0 time=0\n",
      "note_on channel=1 note=64 velocity=110 time=11\n",
      "note_on channel=1 note=67 velocity=110 time=0\n",
      "note_off channel=1 note=64 velocity=0 time=1365\n",
      "note_off channel=1 note=67 velocity=0 time=0\n",
      "note_on channel=1 note=60 velocity=110 time=171\n",
      "note_on channel=1 note=64 velocity=110 time=0\n",
      "note_off channel=1 note=60 velocity=0 time=501\n",
      "note_off channel=1 note=64 velocity=0 time=0\n",
      "note_on channel=1 note=65 velocity=110 time=11\n",
      "note_off channel=1 note=65 velocity=0 time=757\n",
      "note_on channel=1 note=67 velocity=110 time=11\n",
      "note_off channel=1 note=67 velocity=0 time=245\n",
      "note_on channel=1 note=64 velocity=110 time=652\n",
      "note_off channel=1 note=64 velocity=0 time=212\n",
      "note_on channel=1 note=64 velocity=110 time=171\n",
      "note_off channel=1 note=64 velocity=0 time=373\n",
      "note_on channel=1 note=65 velocity=110 time=11\n",
      "note_off channel=1 note=65 velocity=0 time=117\n",
      "note_on channel=1 note=67 velocity=110 time=11\n",
      "note_off channel=1 note=67 velocity=0 time=245\n",
      "note_on channel=1 note=68 velocity=110 time=11\n",
      "note_off channel=1 note=68 velocity=0 time=245\n",
      "note_on channel=1 note=65 velocity=110 time=1035\n",
      "note_on channel=1 note=69 velocity=110 time=0\n",
      "note_off channel=1 note=65 velocity=0 time=1365\n",
      "note_off channel=1 note=69 velocity=0 time=0\n",
      "note_on channel=1 note=65 velocity=110 time=171\n",
      "note_on channel=1 note=68 velocity=110 time=0\n",
      "note_off channel=1 note=65 velocity=0 time=501\n",
      "note_off channel=1 note=68 velocity=0 time=0\n",
      "note_on channel=1 note=64 velocity=110 time=11\n",
      "note_on channel=1 note=67 velocity=110 time=0\n",
      "note_off channel=1 note=64 velocity=0 time=1365\n",
      "note_off channel=1 note=67 velocity=0 time=0\n",
      "note_on channel=1 note=66 velocity=110 time=171\n",
      "note_off channel=1 note=66 velocity=0 time=501\n",
      "note_on channel=1 note=65 velocity=110 time=11\n",
      "note_off channel=1 note=65 velocity=0 time=757\n",
      "note_on channel=1 note=64 velocity=110 time=11\n",
      "note_off channel=1 note=64 velocity=0 time=757\n",
      "note_on channel=1 note=60 velocity=110 time=11\n",
      "note_off channel=1 note=60 velocity=0 time=1365\n",
      "note_on channel=1 note=65 velocity=110 time=1195\n",
      "note_on channel=1 note=69 velocity=110 time=0\n",
      "note_off channel=1 note=65 velocity=0 time=501\n",
      "note_off channel=1 note=69 velocity=0 time=0\n",
      "note_on channel=1 note=65 velocity=110 time=11\n",
      "note_on channel=1 note=69 velocity=110 time=0\n",
      "note_off channel=1 note=65 velocity=0 time=501\n",
      "note_off channel=1 note=69 velocity=0 time=0\n",
      "note_on channel=1 note=65 velocity=110 time=11\n",
      "note_on channel=1 note=68 velocity=110 time=0\n",
      "note_off channel=1 note=65 velocity=0 time=501\n",
      "note_off channel=1 note=68 velocity=0 time=0\n",
      "note_on channel=1 note=65 velocity=110 time=11\n",
      "note_on channel=1 note=68 velocity=110 time=0\n",
      "note_off channel=1 note=65 velocity=0 time=501\n",
      "note_off channel=1 note=68 velocity=0 time=0\n",
      "note_on channel=1 note=64 velocity=110 time=11\n",
      "note_on channel=1 note=67 velocity=110 time=0\n",
      "note_off channel=1 note=64 velocity=0 time=501\n",
      "note_off channel=1 note=67 velocity=0 time=0\n",
      "note_on channel=1 note=64 velocity=110 time=11\n",
      "note_on channel=1 note=67 velocity=110 time=0\n",
      "note_off channel=1 note=64 velocity=0 time=501\n",
      "note_off channel=1 note=67 velocity=0 time=0\n",
      "note_on channel=1 note=63 velocity=110 time=11\n",
      "note_on channel=1 note=66 velocity=110 time=0\n",
      "note_off channel=1 note=63 velocity=0 time=501\n",
      "note_off channel=1 note=66 velocity=0 time=0\n",
      "note_on channel=1 note=63 velocity=110 time=11\n",
      "note_on channel=1 note=66 velocity=110 time=0\n",
      "note_off channel=1 note=63 velocity=0 time=501\n",
      "note_off channel=1 note=66 velocity=0 time=0\n",
      "note_on channel=1 note=62 velocity=110 time=11\n",
      "note_on channel=1 note=65 velocity=110 time=0\n",
      "note_off channel=1 note=62 velocity=0 time=757\n",
      "note_off channel=1 note=65 velocity=0 time=0\n",
      "note_on channel=1 note=64 velocity=110 time=11\n",
      "note_on channel=1 note=67 velocity=110 time=0\n",
      "note_off channel=1 note=64 velocity=0 time=245\n",
      "note_off channel=1 note=67 velocity=0 time=0\n",
      "note_on channel=1 note=60 velocity=110 time=523\n",
      "note_on channel=1 note=64 velocity=110 time=0\n",
      "note_off channel=1 note=60 velocity=0 time=2304\n",
      "note_off channel=1 note=64 velocity=0 time=0\n",
      "note_on channel=1 note=65 velocity=110 time=256\n",
      "note_on channel=1 note=69 velocity=110 time=0\n",
      "note_off channel=1 note=65 velocity=0 time=501\n",
      "note_off channel=1 note=69 velocity=0 time=0\n",
      "note_on channel=1 note=65 velocity=110 time=11\n",
      "note_on channel=1 note=69 velocity=110 time=0\n",
      "note_off channel=1 note=65 velocity=0 time=501\n",
      "note_off channel=1 note=69 velocity=0 time=0\n",
      "note_on channel=1 note=65 velocity=110 time=11\n",
      "note_on channel=1 note=68 velocity=110 time=0\n",
      "note_off channel=1 note=65 velocity=0 time=501\n",
      "note_off channel=1 note=68 velocity=0 time=0\n",
      "note_on channel=1 note=65 velocity=110 time=11\n",
      "note_on channel=1 note=68 velocity=110 time=0\n",
      "note_off channel=1 note=65 velocity=0 time=501\n",
      "note_off channel=1 note=68 velocity=0 time=0\n",
      "note_on channel=1 note=64 velocity=110 time=11\n",
      "note_on channel=1 note=67 velocity=110 time=0\n",
      "note_off channel=1 note=64 velocity=0 time=501\n",
      "note_off channel=1 note=67 velocity=0 time=0\n",
      "note_on channel=1 note=64 velocity=110 time=11\n",
      "note_on channel=1 note=67 velocity=110 time=0\n",
      "note_off channel=1 note=64 velocity=0 time=501\n",
      "note_off channel=1 note=67 velocity=0 time=0\n",
      "note_on channel=1 note=63 velocity=110 time=11\n",
      "note_on channel=1 note=66 velocity=110 time=0\n",
      "note_off channel=1 note=63 velocity=0 time=501\n",
      "note_off channel=1 note=66 velocity=0 time=0\n",
      "note_on channel=1 note=63 velocity=110 time=11\n",
      "note_on channel=1 note=66 velocity=110 time=0\n",
      "note_off channel=1 note=63 velocity=0 time=501\n",
      "note_off channel=1 note=66 velocity=0 time=0\n",
      "note_on channel=1 note=62 velocity=110 time=11\n",
      "note_on channel=1 note=65 velocity=110 time=0\n",
      "note_off channel=1 note=62 velocity=0 time=757\n",
      "note_off channel=1 note=65 velocity=0 time=0\n",
      "note_on channel=1 note=60 velocity=110 time=11\n",
      "note_on channel=1 note=64 velocity=110 time=0\n",
      "note_off channel=1 note=60 velocity=0 time=245\n",
      "note_off channel=1 note=64 velocity=0 time=0\n",
      "note_on channel=1 note=55 velocity=110 time=523\n",
      "note_on channel=1 note=60 velocity=110 time=0\n",
      "note_off channel=1 note=55 velocity=0 time=2304\n",
      "note_off channel=1 note=60 velocity=0 time=0\n",
      "note_on channel=1 note=60 velocity=110 time=256\n",
      "note_off channel=1 note=60 velocity=0 time=245\n",
      "note_on channel=1 note=52 velocity=110 time=11\n",
      "note_off channel=1 note=52 velocity=0 time=501\n",
      "note_on channel=1 note=58 velocity=110 time=11\n",
      "note_off channel=1 note=58 velocity=0 time=245\n",
      "note_on channel=1 note=60 velocity=110 time=1035\n",
      "note_off channel=1 note=60 velocity=0 time=245\n",
      "note_on channel=1 note=52 velocity=110 time=11\n",
      "note_off channel=1 note=52 velocity=0 time=501\n",
      "note_on channel=1 note=58 velocity=110 time=11\n",
      "note_off channel=1 note=58 velocity=0 time=245\n",
      "note_on channel=1 note=57 velocity=110 time=1035\n",
      "note_off channel=1 note=57 velocity=0 time=245\n",
      "note_on channel=1 note=48 velocity=110 time=11\n",
      "note_off channel=1 note=48 velocity=0 time=501\n",
      "note_on channel=1 note=51 velocity=110 time=11\n",
      "note_off channel=1 note=51 velocity=0 time=245\n",
      "note_on channel=1 note=57 velocity=110 time=1035\n",
      "note_off channel=1 note=57 velocity=0 time=245\n",
      "note_on channel=1 note=48 velocity=110 time=11\n",
      "note_off channel=1 note=48 velocity=0 time=501\n",
      "note_on channel=1 note=51 velocity=110 time=11\n",
      "note_off channel=1 note=51 velocity=0 time=245\n",
      "note_on channel=1 note=60 velocity=110 time=1035\n",
      "note_off channel=1 note=60 velocity=0 time=245\n",
      "note_on channel=1 note=52 velocity=110 time=11\n",
      "note_off channel=1 note=52 velocity=0 time=501\n",
      "note_on channel=1 note=58 velocity=110 time=11\n",
      "note_off channel=1 note=58 velocity=0 time=245\n",
      "note_on channel=1 note=60 velocity=110 time=1035\n",
      "note_off channel=1 note=60 velocity=0 time=245\n",
      "note_on channel=1 note=52 velocity=110 time=11\n",
      "note_off channel=1 note=52 velocity=0 time=501\n",
      "note_on channel=1 note=58 velocity=110 time=11\n",
      "note_off channel=1 note=58 velocity=0 time=245\n",
      "note_on channel=1 note=53 velocity=110 time=1035\n",
      "note_on channel=1 note=57 velocity=110 time=0\n",
      "note_off channel=1 note=53 velocity=0 time=501\n",
      "note_off channel=1 note=57 velocity=0 time=0\n",
      "note_on channel=1 note=53 velocity=110 time=11\n",
      "note_on channel=1 note=57 velocity=110 time=0\n",
      "note_off channel=1 note=53 velocity=0 time=501\n",
      "note_off channel=1 note=57 velocity=0 time=0\n",
      "note_on channel=1 note=53 velocity=110 time=11\n",
      "note_on channel=1 note=57 velocity=110 time=0\n",
      "note_off channel=1 note=53 velocity=0 time=501\n",
      "note_off channel=1 note=57 velocity=0 time=0\n",
      "note_on channel=1 note=53 velocity=110 time=11\n",
      "note_on channel=1 note=57 velocity=110 time=0\n",
      "note_off channel=1 note=53 velocity=0 time=501\n",
      "note_off channel=1 note=57 velocity=0 time=0\n",
      "note_on channel=1 note=53 velocity=110 time=11\n",
      "note_on channel=1 note=56 velocity=110 time=0\n",
      "note_off channel=1 note=53 velocity=0 time=853\n",
      "note_off channel=1 note=56 velocity=0 time=0\n",
      "note_on channel=1 note=55 velocity=110 time=171\n",
      "note_off channel=1 note=55 velocity=0 time=117\n",
      "note_on channel=1 note=53 velocity=110 time=11\n",
      "note_off channel=1 note=53 velocity=0 time=117\n",
      "note_on channel=1 note=52 velocity=110 time=11\n",
      "note_off channel=1 note=52 velocity=0 time=117\n",
      "note_on channel=1 note=50 velocity=110 time=11\n",
      "note_off channel=1 note=50 velocity=0 time=117\n",
      "note_on channel=1 note=48 velocity=110 time=11\n",
      "note_off channel=1 note=48 velocity=0 time=117\n",
      "note_on channel=1 note=46 velocity=110 time=11\n",
      "note_off channel=1 note=46 velocity=0 time=117\n",
      "note_on channel=1 note=43 velocity=110 time=11\n",
      "note_off channel=1 note=43 velocity=0 time=245\n",
      "note_on channel=1 note=60 velocity=110 time=11\n",
      "note_off channel=1 note=60 velocity=0 time=245\n",
      "note_on channel=1 note=52 velocity=110 time=11\n",
      "note_off channel=1 note=52 velocity=0 time=501\n",
      "note_on channel=1 note=58 velocity=110 time=11\n",
      "note_off channel=1 note=58 velocity=0 time=245\n",
      "note_on channel=1 note=60 velocity=110 time=1035\n",
      "note_off channel=1 note=60 velocity=0 time=245\n",
      "note_on channel=1 note=52 velocity=110 time=11\n",
      "note_off channel=1 note=52 velocity=0 time=501\n",
      "note_on channel=1 note=58 velocity=110 time=11\n",
      "note_off channel=1 note=58 velocity=0 time=245\n",
      "note_on channel=1 note=57 velocity=110 time=1035\n",
      "note_off channel=1 note=57 velocity=0 time=245\n",
      "note_on channel=1 note=48 velocity=110 time=11\n",
      "note_off channel=1 note=48 velocity=0 time=501\n",
      "note_on channel=1 note=51 velocity=110 time=11\n",
      "note_off channel=1 note=51 velocity=0 time=245\n",
      "note_on channel=1 note=57 velocity=110 time=1035\n",
      "note_off channel=1 note=57 velocity=0 time=245\n",
      "note_on channel=1 note=48 velocity=110 time=11\n",
      "note_off channel=1 note=48 velocity=0 time=501\n",
      "note_on channel=1 note=51 velocity=110 time=11\n",
      "note_off channel=1 note=51 velocity=0 time=245\n",
      "note_on channel=1 note=60 velocity=110 time=1035\n",
      "note_off channel=1 note=60 velocity=0 time=245\n",
      "note_on channel=1 note=52 velocity=110 time=11\n",
      "note_off channel=1 note=52 velocity=0 time=501\n",
      "note_on channel=1 note=58 velocity=110 time=11\n",
      "note_off channel=1 note=58 velocity=0 time=245\n",
      "note_on channel=1 note=60 velocity=110 time=1035\n",
      "note_off channel=1 note=60 velocity=0 time=245\n",
      "note_on channel=1 note=52 velocity=110 time=11\n",
      "note_off channel=1 note=52 velocity=0 time=501\n",
      "note_on channel=1 note=58 velocity=110 time=11\n",
      "note_off channel=1 note=58 velocity=0 time=245\n",
      "note_on channel=1 note=52 velocity=110 time=1035\n",
      "note_on channel=1 note=60 velocity=110 time=0\n",
      "note_off channel=1 note=52 velocity=0 time=853\n",
      "note_off channel=1 note=60 velocity=0 time=0\n",
      "note_on channel=1 note=53 velocity=110 time=683\n",
      "note_on channel=1 note=60 velocity=110 time=0\n",
      "note_off channel=1 note=53 velocity=0 time=501\n",
      "note_off channel=1 note=60 velocity=0 time=0\n",
      "note_on channel=1 note=52 velocity=110 time=523\n",
      "note_on channel=1 note=60 velocity=110 time=0\n",
      "note_off channel=1 note=52 velocity=0 time=501\n",
      "note_off channel=1 note=60 velocity=0 time=0\n",
      "note_on channel=1 note=51 velocity=110 time=523\n",
      "note_on channel=1 note=55 velocity=110 time=0\n",
      "note_off channel=1 note=51 velocity=0 time=501\n",
      "note_off channel=1 note=55 velocity=0 time=0\n",
      "note_on channel=1 note=52 velocity=110 time=11\n",
      "note_on channel=1 note=60 velocity=110 time=0\n",
      "note_off channel=1 note=52 velocity=0 time=501\n",
      "note_off channel=1 note=60 velocity=0 time=0\n",
      "note_on channel=1 note=55 velocity=110 time=11\n",
      "note_on channel=1 note=60 velocity=110 time=0\n",
      "note_off channel=1 note=55 velocity=0 time=501\n",
      "note_off channel=1 note=60 velocity=0 time=0\n",
      "note_on channel=1 note=60 velocity=110 time=11\n",
      "note_off channel=1 note=60 velocity=0 time=853\n",
      "note_on channel=1 note=50 velocity=110 time=2219\n",
      "note_on channel=1 note=59 velocity=110 time=0\n",
      "note_off channel=1 note=50 velocity=0 time=853\n",
      "note_off channel=1 note=59 velocity=0 time=0\n",
      "note_on channel=1 note=52 velocity=110 time=683\n",
      "note_on channel=1 note=59 velocity=110 time=0\n",
      "note_off channel=1 note=52 velocity=0 time=501\n",
      "note_off channel=1 note=59 velocity=0 time=0\n",
      "note_on channel=1 note=50 velocity=110 time=523\n",
      "note_on channel=1 note=59 velocity=110 time=0\n",
      "note_off channel=1 note=50 velocity=0 time=501\n",
      "note_off channel=1 note=59 velocity=0 time=0\n",
      "note_on channel=1 note=49 velocity=110 time=523\n",
      "note_on channel=1 note=55 velocity=110 time=0\n",
      "note_off channel=1 note=49 velocity=0 time=501\n",
      "note_off channel=1 note=55 velocity=0 time=0\n",
      "note_on channel=1 note=50 velocity=110 time=11\n",
      "note_on channel=1 note=59 velocity=110 time=0\n",
      "note_off channel=1 note=50 velocity=0 time=501\n",
      "note_off channel=1 note=59 velocity=0 time=0\n",
      "note_on channel=1 note=55 velocity=110 time=11\n",
      "note_on channel=1 note=59 velocity=110 time=0\n",
      "note_off channel=1 note=55 velocity=0 time=501\n",
      "note_off channel=1 note=59 velocity=0 time=0\n",
      "note_on channel=1 note=59 velocity=110 time=11\n",
      "note_off channel=1 note=59 velocity=0 time=853\n",
      "note_on channel=1 note=48 velocity=110 time=2219\n",
      "note_on channel=1 note=57 velocity=110 time=0\n",
      "note_off channel=1 note=48 velocity=0 time=853\n",
      "note_off channel=1 note=57 velocity=0 time=0\n",
      "note_on channel=1 note=50 velocity=110 time=683\n",
      "note_on channel=1 note=57 velocity=110 time=0\n",
      "note_off channel=1 note=50 velocity=0 time=501\n",
      "note_off channel=1 note=57 velocity=0 time=0\n",
      "note_on channel=1 note=48 velocity=110 time=523\n",
      "note_on channel=1 note=57 velocity=110 time=0\n",
      "note_off channel=1 note=48 velocity=0 time=501\n",
      "note_off channel=1 note=57 velocity=0 time=0\n",
      "note_on channel=1 note=47 velocity=110 time=523\n",
      "note_on channel=1 note=52 velocity=110 time=0\n",
      "note_off channel=1 note=47 velocity=0 time=501\n",
      "note_off channel=1 note=52 velocity=0 time=0\n",
      "note_on channel=1 note=48 velocity=110 time=11\n",
      "note_on channel=1 note=57 velocity=110 time=0\n",
      "note_off channel=1 note=48 velocity=0 time=501\n",
      "note_off channel=1 note=57 velocity=0 time=0\n",
      "note_on channel=1 note=52 velocity=110 time=11\n",
      "note_on channel=1 note=57 velocity=110 time=0\n",
      "note_off channel=1 note=52 velocity=0 time=501\n",
      "note_off channel=1 note=57 velocity=0 time=0\n",
      "note_on channel=1 note=57 velocity=110 time=11\n",
      "note_off channel=1 note=57 velocity=0 time=853\n",
      "note_on channel=1 note=48 velocity=110 time=683\n",
      "note_on channel=1 note=57 velocity=110 time=0\n",
      "note_off channel=1 note=48 velocity=0 time=501\n",
      "note_off channel=1 note=57 velocity=0 time=0\n",
      "note_on channel=1 note=50 velocity=110 time=11\n",
      "note_on channel=1 note=59 velocity=110 time=0\n",
      "note_off channel=1 note=50 velocity=0 time=501\n",
      "note_off channel=1 note=59 velocity=0 time=0\n",
      "note_on channel=1 note=52 velocity=110 time=11\n",
      "note_on channel=1 note=60 velocity=110 time=0\n",
      "note_off channel=1 note=52 velocity=0 time=501\n",
      "note_off channel=1 note=60 velocity=0 time=0\n",
      "note_on channel=1 note=54 velocity=110 time=11\n",
      "note_on channel=1 note=62 velocity=110 time=0\n",
      "note_off channel=1 note=54 velocity=0 time=501\n",
      "note_off channel=1 note=62 velocity=0 time=0\n",
      "note_on channel=1 note=54 velocity=110 time=11\n",
      "note_on channel=1 note=60 velocity=110 time=0\n",
      "note_off channel=1 note=54 velocity=0 time=501\n",
      "note_off channel=1 note=60 velocity=0 time=0\n",
      "note_on channel=1 note=54 velocity=110 time=11\n",
      "note_on channel=1 note=62 velocity=110 time=0\n",
      "note_off channel=1 note=54 velocity=0 time=501\n",
      "note_off channel=1 note=62 velocity=0 time=0\n",
      "note_on channel=1 note=54 velocity=110 time=11\n",
      "note_on channel=1 note=60 velocity=110 time=0\n",
      "note_off channel=1 note=54 velocity=0 time=1013\n",
      "note_off channel=1 note=60 velocity=0 time=0\n",
      "note_on channel=1 note=50 velocity=110 time=11\n",
      "note_on channel=1 note=57 velocity=110 time=0\n",
      "note_off channel=1 note=50 velocity=0 time=501\n",
      "note_off channel=1 note=57 velocity=0 time=0\n",
      "note_on channel=1 note=48 velocity=110 time=11\n",
      "note_on channel=1 note=54 velocity=110 time=0\n",
      "note_off channel=1 note=48 velocity=0 time=501\n",
      "note_off channel=1 note=54 velocity=0 time=0\n",
      "note_on channel=1 note=45 velocity=110 time=11\n",
      "note_on channel=1 note=50 velocity=110 time=0\n",
      "note_off channel=1 note=45 velocity=0 time=501\n",
      "note_off channel=1 note=50 velocity=0 time=0\n",
      "note_on channel=1 note=45 velocity=110 time=11\n",
      "note_on channel=1 note=50 velocity=110 time=0\n",
      "note_off channel=1 note=45 velocity=0 time=501\n",
      "note_off channel=1 note=50 velocity=0 time=0\n",
      "note_on channel=1 note=47 velocity=110 time=11\n",
      "note_on channel=1 note=52 velocity=110 time=0\n",
      "note_off channel=1 note=47 velocity=0 time=501\n",
      "note_off channel=1 note=52 velocity=0 time=0\n",
      "note_on channel=1 note=49 velocity=110 time=11\n",
      "note_on channel=1 note=53 velocity=110 time=0\n",
      "note_off channel=1 note=49 velocity=0 time=501\n",
      "note_off channel=1 note=53 velocity=0 time=0\n",
      "note_on channel=1 note=50 velocity=110 time=11\n",
      "note_on channel=1 note=54 velocity=110 time=0\n",
      "note_off channel=1 note=50 velocity=0 time=2304\n",
      "note_off channel=1 note=54 velocity=0 time=0\n",
      "note_on channel=1 note=43 velocity=110 time=256\n",
      "note_off channel=1 note=43 velocity=0 time=501\n",
      "note_on channel=1 note=50 velocity=110 time=11\n",
      "note_off channel=1 note=50 velocity=0 time=501\n",
      "note_on channel=1 note=55 velocity=110 time=11\n",
      "note_off channel=1 note=55 velocity=0 time=853\n",
      "note_on channel=1 note=43 velocity=110 time=2219\n",
      "note_off channel=1 note=43 velocity=0 time=501\n",
      "note_on channel=1 note=50 velocity=110 time=11\n",
      "note_off channel=1 note=50 velocity=0 time=501\n",
      "note_on channel=1 note=55 velocity=110 time=11\n",
      "note_off channel=1 note=55 velocity=0 time=853\n",
      "note_on channel=1 note=41 velocity=110 time=2219\n",
      "note_off channel=1 note=41 velocity=0 time=501\n",
      "note_on channel=1 note=48 velocity=110 time=11\n",
      "note_off channel=1 note=48 velocity=0 time=501\n",
      "note_on channel=1 note=53 velocity=110 time=11\n",
      "note_off channel=1 note=53 velocity=0 time=853\n",
      "note_on channel=1 note=41 velocity=110 time=2219\n",
      "note_off channel=1 note=41 velocity=0 time=501\n",
      "note_on channel=1 note=48 velocity=110 time=11\n",
      "note_off channel=1 note=48 velocity=0 time=501\n",
      "note_on channel=1 note=53 velocity=110 time=11\n",
      "note_off channel=1 note=53 velocity=0 time=853\n",
      "note_on channel=1 note=48 velocity=110 time=1195\n",
      "note_off channel=1 note=48 velocity=0 time=853\n",
      "note_on channel=1 note=43 velocity=110 time=171\n",
      "note_off channel=1 note=43 velocity=0 time=501\n",
      "note_on channel=1 note=50 velocity=110 time=11\n",
      "note_off channel=1 note=50 velocity=0 time=501\n",
      "note_on channel=1 note=55 velocity=110 time=11\n",
      "note_off channel=1 note=55 velocity=0 time=853\n",
      "note_on channel=1 note=43 velocity=110 time=2219\n",
      "note_off channel=1 note=43 velocity=0 time=501\n",
      "note_on channel=1 note=50 velocity=110 time=11\n",
      "note_off channel=1 note=50 velocity=0 time=501\n",
      "note_on channel=1 note=55 velocity=110 time=11\n",
      "note_off channel=1 note=55 velocity=0 time=853\n",
      "note_on channel=1 note=41 velocity=110 time=2219\n",
      "note_off channel=1 note=41 velocity=0 time=501\n",
      "note_on channel=1 note=48 velocity=110 time=11\n",
      "note_off channel=1 note=48 velocity=0 time=501\n",
      "note_on channel=1 note=53 velocity=110 time=11\n",
      "note_off channel=1 note=53 velocity=0 time=853\n",
      "note_on channel=1 note=41 velocity=110 time=2219\n",
      "note_off channel=1 note=41 velocity=0 time=501\n",
      "note_on channel=1 note=48 velocity=110 time=11\n",
      "note_off channel=1 note=48 velocity=0 time=501\n",
      "note_on channel=1 note=53 velocity=110 time=11\n",
      "note_off channel=1 note=53 velocity=0 time=853\n",
      "note_on channel=1 note=39 velocity=110 time=2219\n",
      "note_off channel=1 note=39 velocity=0 time=501\n",
      "note_on channel=1 note=46 velocity=110 time=11\n",
      "note_off channel=1 note=46 velocity=0 time=501\n",
      "note_on channel=1 note=51 velocity=110 time=11\n",
      "note_off channel=1 note=51 velocity=0 time=853\n",
      "note_on channel=1 note=39 velocity=110 time=2219\n",
      "note_off channel=1 note=39 velocity=0 time=501\n",
      "note_on channel=1 note=46 velocity=110 time=11\n",
      "note_off channel=1 note=46 velocity=0 time=501\n",
      "note_on channel=1 note=51 velocity=110 time=11\n",
      "note_off channel=1 note=51 velocity=0 time=853\n",
      "note_on channel=1 note=41 velocity=110 time=2219\n",
      "note_off channel=1 note=41 velocity=0 time=501\n",
      "note_on channel=1 note=48 velocity=110 time=11\n",
      "note_off channel=1 note=48 velocity=0 time=501\n",
      "note_on channel=1 note=53 velocity=110 time=11\n",
      "note_off channel=1 note=53 velocity=0 time=853\n",
      "note_on channel=1 note=41 velocity=110 time=2219\n",
      "note_off channel=1 note=41 velocity=0 time=501\n",
      "note_on channel=1 note=48 velocity=110 time=11\n",
      "note_off channel=1 note=48 velocity=0 time=501\n",
      "note_on channel=1 note=53 velocity=110 time=11\n",
      "note_off channel=1 note=53 velocity=0 time=853\n",
      "note_on channel=1 note=48 velocity=110 time=1195\n",
      "note_off channel=1 note=48 velocity=0 time=853\n",
      "note_on channel=1 note=43 velocity=110 time=171\n",
      "note_off channel=1 note=43 velocity=0 time=501\n",
      "note_on channel=1 note=50 velocity=110 time=11\n",
      "note_off channel=1 note=50 velocity=0 time=501\n",
      "note_on channel=1 note=55 velocity=110 time=2059\n",
      "note_off channel=1 note=55 velocity=0 time=501\n",
      "note_on channel=1 note=50 velocity=110 time=11\n",
      "note_off channel=1 note=50 velocity=0 time=501\n",
      "note_on channel=1 note=41 velocity=110 time=11\n",
      "note_off channel=1 note=41 velocity=0 time=501\n",
      "note_on channel=1 note=48 velocity=110 time=11\n",
      "note_off channel=1 note=48 velocity=0 time=501\n",
      "note_on channel=1 note=53 velocity=110 time=11\n",
      "note_off channel=1 note=53 velocity=0 time=853\n",
      "note_on channel=1 note=39 velocity=110 time=2219\n",
      "note_off channel=1 note=39 velocity=0 time=501\n",
      "note_on channel=1 note=46 velocity=110 time=11\n",
      "note_off channel=1 note=46 velocity=0 time=501\n",
      "note_on channel=1 note=51 velocity=110 time=11\n",
      "note_off channel=1 note=51 velocity=0 time=853\n",
      "note_on channel=1 note=51 velocity=110 time=1195\n",
      "note_off channel=1 note=51 velocity=0 time=853\n",
      "note_on channel=1 note=41 velocity=110 time=171\n",
      "note_off channel=1 note=41 velocity=0 time=501\n",
      "note_on channel=1 note=48 velocity=110 time=11\n",
      "note_off channel=1 note=48 velocity=0 time=501\n",
      "note_on channel=1 note=53 velocity=110 time=11\n",
      "note_off channel=1 note=53 velocity=0 time=853\n",
      "note_on channel=1 note=48 velocity=110 time=1195\n",
      "note_off channel=1 note=48 velocity=0 time=501\n",
      "note_on channel=1 note=53 velocity=110 time=11\n",
      "note_off channel=1 note=53 velocity=0 time=501\n",
      "note_on channel=1 note=43 velocity=110 time=11\n",
      "note_off channel=1 note=43 velocity=0 time=501\n",
      "note_on channel=1 note=50 velocity=110 time=11\n",
      "note_off channel=1 note=50 velocity=0 time=501\n",
      "note_on channel=1 note=55 velocity=110 time=11\n",
      "note_off channel=1 note=55 velocity=0 time=853\n",
      "note_on channel=1 note=55 velocity=110 time=1707\n",
      "note_off channel=1 note=55 velocity=0 time=501\n",
      "note_on channel=1 note=43 velocity=110 time=11\n",
      "note_off channel=1 note=43 velocity=0 time=501\n",
      "note_on channel=1 note=50 velocity=110 time=11\n",
      "note_off channel=1 note=50 velocity=0 time=501\n",
      "note_on channel=1 note=55 velocity=110 time=11\n",
      "note_off channel=1 note=55 velocity=0 time=853\n",
      "note_on channel=1 note=43 velocity=110 time=2219\n",
      "note_off channel=1 note=43 velocity=0 time=501\n",
      "note_on channel=1 note=50 velocity=110 time=11\n",
      "note_off channel=1 note=50 velocity=0 time=501\n",
      "note_on channel=1 note=55 velocity=110 time=2059\n",
      "note_off channel=1 note=55 velocity=0 time=501\n",
      "note_on channel=1 note=50 velocity=110 time=11\n",
      "note_off channel=1 note=50 velocity=0 time=501\n",
      "note_on channel=1 note=41 velocity=110 time=11\n",
      "note_off channel=1 note=41 velocity=0 time=501\n",
      "note_on channel=1 note=48 velocity=110 time=11\n",
      "note_off channel=1 note=48 velocity=0 time=501\n",
      "note_on channel=1 note=53 velocity=110 time=11\n",
      "note_off channel=1 note=53 velocity=0 time=853\n",
      "note_on channel=1 note=39 velocity=110 time=2219\n",
      "note_off channel=1 note=39 velocity=0 time=501\n",
      "note_on channel=1 note=46 velocity=110 time=11\n",
      "note_off channel=1 note=46 velocity=0 time=501\n",
      "note_on channel=1 note=51 velocity=110 time=11\n",
      "note_off channel=1 note=51 velocity=0 time=853\n",
      "note_on channel=1 note=51 velocity=110 time=1195\n",
      "note_off channel=1 note=51 velocity=0 time=853\n",
      "note_on channel=1 note=41 velocity=110 time=171\n",
      "note_off channel=1 note=41 velocity=0 time=501\n",
      "note_on channel=1 note=48 velocity=110 time=11\n",
      "note_off channel=1 note=48 velocity=0 time=501\n",
      "note_on channel=1 note=53 velocity=110 time=523\n",
      "note_off channel=1 note=53 velocity=0 time=501\n",
      "note_on channel=1 note=48 velocity=110 time=1035\n",
      "note_off channel=1 note=48 velocity=0 time=853\n",
      "note_on channel=1 note=43 velocity=110 time=171\n",
      "note_off channel=1 note=43 velocity=0 time=501\n",
      "note_on channel=1 note=50 velocity=110 time=11\n",
      "note_off channel=1 note=50 velocity=0 time=501\n",
      "note_on channel=1 note=55 velocity=110 time=523\n",
      "note_off channel=1 note=55 velocity=0 time=501\n",
      "note_on channel=1 note=50 velocity=110 time=1035\n",
      "note_off channel=1 note=50 velocity=0 time=853\n",
      "note_on channel=1 note=43 velocity=110 time=171\n",
      "note_off channel=1 note=43 velocity=0 time=501\n",
      "note_on channel=1 note=50 velocity=110 time=11\n",
      "note_off channel=1 note=50 velocity=0 time=501\n",
      "note_on channel=1 note=55 velocity=110 time=11\n",
      "note_off channel=1 note=55 velocity=0 time=853\n",
      "note_on channel=1 note=48 velocity=110 time=2219\n",
      "note_off channel=1 note=48 velocity=0 time=501\n",
      "note_on channel=1 note=55 velocity=110 time=11\n",
      "note_off channel=1 note=55 velocity=0 time=501\n",
      "note_on channel=1 note=60 velocity=110 time=11\n",
      "note_off channel=1 note=60 velocity=0 time=853\n",
      "note_on channel=1 note=47 velocity=110 time=2219\n",
      "note_off channel=1 note=47 velocity=0 time=501\n",
      "note_on channel=1 note=55 velocity=110 time=11\n",
      "note_off channel=1 note=55 velocity=0 time=501\n",
      "note_on channel=1 note=59 velocity=110 time=11\n",
      "note_off channel=1 note=59 velocity=0 time=853\n",
      "note_on channel=1 note=55 velocity=110 time=683\n",
      "note_off channel=1 note=55 velocity=0 time=501\n",
      "note_on channel=1 note=59 velocity=110 time=11\n",
      "note_off channel=1 note=59 velocity=0 time=853\n",
      "note_on channel=1 note=45 velocity=110 time=171\n",
      "note_off channel=1 note=45 velocity=0 time=501\n",
      "note_on channel=1 note=52 velocity=110 time=11\n",
      "note_off channel=1 note=52 velocity=0 time=501\n",
      "note_on channel=1 note=57 velocity=110 time=11\n",
      "note_off channel=1 note=57 velocity=0 time=853\n",
      "note_on channel=1 note=52 velocity=110 time=1195\n",
      "note_off channel=1 note=52 velocity=0 time=853\n",
      "note_on channel=1 note=43 velocity=110 time=171\n",
      "note_off channel=1 note=43 velocity=0 time=501\n",
      "note_on channel=1 note=50 velocity=110 time=11\n",
      "note_off channel=1 note=50 velocity=0 time=501\n",
      "note_on channel=1 note=55 velocity=110 time=11\n",
      "note_off channel=1 note=55 velocity=0 time=853\n",
      "note_on channel=1 note=50 velocity=110 time=1195\n",
      "note_off channel=1 note=50 velocity=0 time=853\n",
      "note_on channel=1 note=48 velocity=110 time=171\n",
      "note_off channel=1 note=48 velocity=0 time=501\n",
      "note_on channel=1 note=55 velocity=110 time=11\n",
      "note_off channel=1 note=55 velocity=0 time=501\n",
      "note_on channel=1 note=60 velocity=110 time=11\n",
      "note_off channel=1 note=60 velocity=0 time=853\n",
      "note_on channel=1 note=47 velocity=110 time=2219\n",
      "note_off channel=1 note=47 velocity=0 time=501\n",
      "note_on channel=1 note=55 velocity=110 time=11\n",
      "note_off channel=1 note=55 velocity=0 time=501\n",
      "note_on channel=1 note=59 velocity=110 time=11\n",
      "note_off channel=1 note=59 velocity=0 time=853\n",
      "note_on channel=1 note=59 velocity=110 time=1195\n",
      "note_off channel=1 note=59 velocity=0 time=853\n",
      "note_on channel=1 note=46 velocity=110 time=171\n",
      "note_off channel=1 note=46 velocity=0 time=501\n",
      "note_on channel=1 note=53 velocity=110 time=11\n",
      "note_off channel=1 note=53 velocity=0 time=501\n",
      "note_on channel=1 note=58 velocity=110 time=11\n",
      "note_off channel=1 note=58 velocity=0 time=853\n",
      "note_on channel=1 note=58 velocity=110 time=1195\n",
      "note_off channel=1 note=58 velocity=0 time=853\n",
      "note_on channel=1 note=45 velocity=110 time=171\n",
      "note_off channel=1 note=45 velocity=0 time=501\n",
      "note_on channel=1 note=57 velocity=110 time=11\n",
      "note_off channel=1 note=57 velocity=0 time=501\n",
      "note_on channel=1 note=50 velocity=110 time=1035\n",
      "note_off channel=1 note=50 velocity=0 time=501\n",
      "note_on channel=1 note=57 velocity=110 time=11\n",
      "note_off channel=1 note=57 velocity=0 time=501\n",
      "note_on channel=1 note=43 velocity=110 time=1035\n",
      "note_off channel=1 note=43 velocity=0 time=501\n",
      "note_on channel=1 note=50 velocity=110 time=11\n",
      "note_off channel=1 note=50 velocity=0 time=501\n",
      "note_on channel=1 note=55 velocity=110 time=2059\n",
      "note_off channel=1 note=55 velocity=0 time=853\n",
      "note_on channel=1 note=41 velocity=110 time=171\n",
      "note_off channel=1 note=41 velocity=0 time=501\n",
      "note_on channel=1 note=48 velocity=110 time=11\n",
      "note_off channel=1 note=48 velocity=0 time=501\n",
      "note_on channel=1 note=53 velocity=110 time=11\n",
      "note_off channel=1 note=53 velocity=0 time=853\n",
      "note_on channel=1 note=48 velocity=110 time=683\n",
      "note_off channel=1 note=48 velocity=0 time=501\n",
      "note_on channel=1 note=53 velocity=110 time=11\n",
      "note_off channel=1 note=53 velocity=0 time=853\n",
      "note_on channel=1 note=39 velocity=110 time=171\n",
      "note_off channel=1 note=39 velocity=0 time=501\n",
      "note_on channel=1 note=46 velocity=110 time=11\n",
      "note_off channel=1 note=46 velocity=0 time=501\n",
      "note_on channel=1 note=51 velocity=110 time=11\n",
      "note_off channel=1 note=51 velocity=0 time=853\n",
      "note_on channel=1 note=46 velocity=110 time=1195\n",
      "note_off channel=1 note=46 velocity=0 time=853\n",
      "note_on channel=1 note=41 velocity=110 time=171\n",
      "note_off channel=1 note=41 velocity=0 time=501\n",
      "note_on channel=1 note=48 velocity=110 time=11\n",
      "note_off channel=1 note=48 velocity=0 time=501\n",
      "note_on channel=1 note=53 velocity=110 time=11\n",
      "note_off channel=1 note=53 velocity=0 time=853\n",
      "note_on channel=1 note=48 velocity=110 time=1195\n",
      "note_off channel=1 note=48 velocity=0 time=853\n",
      "note_on channel=1 note=43 velocity=110 time=171\n",
      "note_off channel=1 note=43 velocity=0 time=501\n",
      "note_on channel=1 note=50 velocity=110 time=11\n",
      "note_off channel=1 note=50 velocity=0 time=501\n",
      "note_on channel=1 note=55 velocity=110 time=11\n",
      "note_off channel=1 note=55 velocity=0 time=853\n",
      "note_on channel=1 note=55 velocity=110 time=1195\n",
      "note_off channel=1 note=55 velocity=0 time=853\n",
      "note_on channel=1 note=43 velocity=110 time=171\n",
      "note_off channel=1 note=43 velocity=0 time=853\n",
      "note_on channel=1 note=50 velocity=110 time=171\n",
      "note_off channel=1 note=50 velocity=0 time=853\n",
      "note_on channel=1 note=43 velocity=110 time=2219\n",
      "note_off channel=1 note=43 velocity=0 time=501\n",
      "note_on channel=1 note=50 velocity=110 time=11\n",
      "note_off channel=1 note=50 velocity=0 time=501\n",
      "note_on channel=1 note=55 velocity=110 time=2059\n",
      "note_off channel=1 note=55 velocity=0 time=501\n",
      "note_on channel=1 note=50 velocity=110 time=11\n",
      "note_off channel=1 note=50 velocity=0 time=501\n",
      "note_on channel=1 note=41 velocity=110 time=11\n",
      "note_off channel=1 note=41 velocity=0 time=501\n",
      "note_on channel=1 note=48 velocity=110 time=11\n",
      "note_off channel=1 note=48 velocity=0 time=501\n",
      "note_on channel=1 note=53 velocity=110 time=11\n",
      "note_off channel=1 note=53 velocity=0 time=853\n",
      "note_on channel=1 note=48 velocity=110 time=683\n",
      "note_off channel=1 note=48 velocity=0 time=501\n",
      "note_on channel=1 note=39 velocity=110 time=1035\n",
      "note_off channel=1 note=39 velocity=0 time=501\n",
      "note_on channel=1 note=46 velocity=110 time=11\n",
      "note_off channel=1 note=46 velocity=0 time=501\n",
      "note_on channel=1 note=51 velocity=110 time=11\n",
      "note_off channel=1 note=51 velocity=0 time=853\n",
      "note_on channel=1 note=51 velocity=110 time=1195\n",
      "note_off channel=1 note=51 velocity=0 time=853\n",
      "note_on channel=1 note=41 velocity=110 time=171\n",
      "note_off channel=1 note=41 velocity=0 time=501\n",
      "note_on channel=1 note=48 velocity=110 time=11\n",
      "note_off channel=1 note=48 velocity=0 time=501\n",
      "note_on channel=1 note=53 velocity=110 time=11\n",
      "note_off channel=1 note=53 velocity=0 time=853\n",
      "note_on channel=1 note=48 velocity=110 time=1195\n",
      "note_off channel=1 note=48 velocity=0 time=853\n",
      "note_on channel=1 note=43 velocity=110 time=171\n",
      "note_off channel=1 note=43 velocity=0 time=501\n",
      "note_on channel=1 note=50 velocity=110 time=11\n",
      "note_off channel=1 note=50 velocity=0 time=501\n",
      "note_on channel=1 note=55 velocity=110 time=11\n",
      "note_off channel=1 note=55 velocity=0 time=853\n",
      "note_on channel=1 note=55 velocity=110 time=1195\n",
      "note_off channel=1 note=55 velocity=0 time=853\n",
      "note_on channel=1 note=43 velocity=110 time=171\n",
      "note_off channel=1 note=43 velocity=0 time=501\n",
      "note_on channel=1 note=50 velocity=110 time=11\n",
      "note_off channel=1 note=50 velocity=0 time=501\n",
      "note_on channel=1 note=55 velocity=110 time=11\n",
      "note_off channel=1 note=55 velocity=0 time=853\n",
      "note_on channel=1 note=41 velocity=110 time=2219\n",
      "note_off channel=1 note=41 velocity=0 time=501\n",
      "note_on channel=1 note=48 velocity=110 time=11\n",
      "note_off channel=1 note=48 velocity=0 time=501\n",
      "note_on channel=1 note=53 velocity=110 time=11\n",
      "note_off channel=1 note=53 velocity=0 time=853\n",
      "note_on channel=1 note=41 velocity=110 time=2219\n",
      "note_off channel=1 note=41 velocity=0 time=853\n",
      "note_on channel=1 note=48 velocity=110 time=1195\n",
      "note_off channel=1 note=48 velocity=0 time=853\n",
      "note_on channel=1 note=53 velocity=110 time=171\n",
      "note_off channel=1 note=53 velocity=0 time=853\n",
      "note_on channel=1 note=39 velocity=110 time=171\n",
      "note_off channel=1 note=39 velocity=0 time=501\n",
      "note_on channel=1 note=46 velocity=110 time=11\n",
      "note_off channel=1 note=46 velocity=0 time=501\n",
      "note_on channel=1 note=51 velocity=110 time=11\n",
      "note_off channel=1 note=51 velocity=0 time=853\n",
      "note_on channel=1 note=51 velocity=110 time=1195\n",
      "note_off channel=1 note=51 velocity=0 time=853\n",
      "note_on channel=1 note=39 velocity=110 time=171\n",
      "note_off channel=1 note=39 velocity=0 time=853\n",
      "note_on channel=1 note=51 velocity=110 time=939\n",
      "note_off channel=1 note=51 velocity=0 time=245\n",
      "note_on channel=1 note=38 velocity=110 time=2059\n",
      "note_off channel=1 note=38 velocity=0 time=501\n",
      "note_on channel=1 note=45 velocity=110 time=11\n",
      "note_off channel=1 note=45 velocity=0 time=501\n",
      "note_on channel=1 note=50 velocity=110 time=11\n",
      "note_off channel=1 note=50 velocity=0 time=853\n",
      "note_on channel=1 note=50 velocity=110 time=1195\n",
      "note_off channel=1 note=50 velocity=0 time=853\n",
      "note_on channel=1 note=38 velocity=110 time=171\n",
      "note_off channel=1 note=38 velocity=0 time=853\n",
      "note_on channel=1 note=50 velocity=110 time=171\n",
      "note_off channel=1 note=50 velocity=0 time=853\n",
      "note_on channel=1 note=50 velocity=110 time=683\n",
      "note_off channel=1 note=50 velocity=0 time=501\n",
      "note_on channel=1 note=50 velocity=110 time=523\n",
      "note_off channel=1 note=50 velocity=0 time=501\n",
      "note_on channel=1 note=45 velocity=110 time=11\n",
      "note_on channel=1 note=50 velocity=110 time=0\n",
      "note_off channel=1 note=45 velocity=0 time=501\n",
      "note_off channel=1 note=50 velocity=0 time=0\n",
      "note_on channel=1 note=38 velocity=110 time=11\n",
      "note_on channel=1 note=53 velocity=110 time=0\n",
      "note_off channel=1 note=38 velocity=0 time=501\n",
      "note_off channel=1 note=53 velocity=0 time=0\n",
      "note_on channel=1 note=45 velocity=110 time=11\n",
      "note_on channel=1 note=57 velocity=110 time=0\n",
      "note_off channel=1 note=45 velocity=0 time=501\n",
      "note_off channel=1 note=57 velocity=0 time=0\n",
      "note_on channel=1 note=44 velocity=110 time=11\n",
      "note_on channel=1 note=56 velocity=110 time=0\n",
      "note_off channel=1 note=44 velocity=0 time=2389\n",
      "note_off channel=1 note=56 velocity=0 time=0\n",
      "note_on channel=1 note=62 velocity=110 time=171\n",
      "note_off channel=1 note=62 velocity=0 time=373\n",
      "note_on channel=1 note=60 velocity=110 time=11\n",
      "note_off channel=1 note=60 velocity=0 time=373\n",
      "note_on channel=1 note=55 velocity=110 time=11\n",
      "note_off channel=1 note=55 velocity=0 time=245\n",
      "note_on channel=1 note=50 velocity=110 time=11\n",
      "note_off channel=1 note=50 velocity=0 time=373\n",
      "note_on channel=1 note=48 velocity=110 time=11\n",
      "note_off channel=1 note=48 velocity=0 time=373\n",
      "note_on channel=1 note=43 velocity=110 time=11\n",
      "note_off channel=1 note=43 velocity=0 time=245\n",
      "note_on channel=1 note=38 velocity=110 time=11\n",
      "note_on channel=1 note=45 velocity=110 time=0\n",
      "note_on channel=1 note=50 velocity=110 time=0\n",
      "note_off channel=1 note=38 velocity=0 time=5888\n",
      "note_off channel=1 note=45 velocity=0 time=0\n",
      "note_off channel=1 note=50 velocity=0 time=0\n",
      "note_on channel=1 note=38 velocity=110 time=256\n",
      "note_on channel=1 note=45 velocity=110 time=0\n",
      "note_on channel=1 note=50 velocity=110 time=0\n",
      "note_off channel=1 note=38 velocity=0 time=16128\n",
      "note_off channel=1 note=45 velocity=0 time=0\n",
      "note_off channel=1 note=50 velocity=0 time=0\n",
      "note_on channel=1 note=38 velocity=110 time=256\n",
      "note_on channel=1 note=45 velocity=110 time=0\n",
      "note_on channel=1 note=50 velocity=110 time=0\n",
      "note_off channel=1 note=38 velocity=0 time=14080\n",
      "note_off channel=1 note=45 velocity=0 time=0\n",
      "note_off channel=1 note=50 velocity=0 time=0\n",
      "note_on channel=1 note=50 velocity=110 time=2304\n",
      "note_on channel=1 note=57 velocity=110 time=0\n",
      "note_on channel=1 note=62 velocity=110 time=0\n",
      "note_off channel=1 note=50 velocity=0 time=853\n",
      "note_off channel=1 note=57 velocity=0 time=0\n",
      "note_off channel=1 note=62 velocity=0 time=0\n",
      "note_on channel=1 note=50 velocity=110 time=171\n",
      "note_on channel=1 note=57 velocity=110 time=0\n",
      "note_on channel=1 note=62 velocity=110 time=0\n",
      "note_off channel=1 note=50 velocity=0 time=853\n",
      "note_off channel=1 note=57 velocity=0 time=0\n",
      "note_off channel=1 note=62 velocity=0 time=0\n",
      "note_on channel=1 note=50 velocity=110 time=683\n",
      "note_on channel=1 note=57 velocity=110 time=0\n",
      "note_on channel=1 note=62 velocity=110 time=0\n",
      "note_off channel=1 note=50 velocity=0 time=501\n",
      "note_off channel=1 note=57 velocity=0 time=0\n",
      "note_off channel=1 note=62 velocity=0 time=0\n",
      "note_on channel=1 note=50 velocity=110 time=11\n",
      "note_on channel=1 note=57 velocity=110 time=0\n",
      "note_on channel=1 note=62 velocity=110 time=0\n",
      "note_off channel=1 note=50 velocity=0 time=245\n",
      "note_off channel=1 note=57 velocity=0 time=0\n",
      "note_off channel=1 note=62 velocity=0 time=0\n",
      "note_on channel=1 note=50 velocity=110 time=11\n",
      "note_on channel=1 note=57 velocity=110 time=0\n",
      "note_on channel=1 note=62 velocity=110 time=0\n",
      "note_off channel=1 note=50 velocity=0 time=245\n",
      "note_off channel=1 note=57 velocity=0 time=0\n",
      "note_off channel=1 note=62 velocity=0 time=0\n",
      "note_on channel=1 note=50 velocity=110 time=11\n",
      "note_on channel=1 note=57 velocity=110 time=0\n",
      "note_on channel=1 note=62 velocity=110 time=0\n",
      "note_off channel=1 note=50 velocity=0 time=245\n",
      "note_off channel=1 note=57 velocity=0 time=0\n",
      "note_off channel=1 note=62 velocity=0 time=0\n",
      "note_on channel=1 note=50 velocity=110 time=11\n",
      "note_on channel=1 note=57 velocity=110 time=0\n",
      "note_on channel=1 note=62 velocity=110 time=0\n",
      "note_off channel=1 note=50 velocity=0 time=245\n",
      "note_off channel=1 note=57 velocity=0 time=0\n",
      "note_off channel=1 note=62 velocity=0 time=0\n",
      "note_on channel=1 note=52 velocity=110 time=11\n",
      "note_on channel=1 note=59 velocity=110 time=0\n",
      "note_on channel=1 note=64 velocity=110 time=0\n",
      "note_off channel=1 note=52 velocity=0 time=853\n",
      "note_off channel=1 note=59 velocity=0 time=0\n",
      "note_off channel=1 note=64 velocity=0 time=0\n",
      "note_on channel=1 note=52 velocity=110 time=171\n",
      "note_on channel=1 note=59 velocity=110 time=0\n",
      "note_on channel=1 note=64 velocity=110 time=0\n",
      "note_off channel=1 note=52 velocity=0 time=853\n",
      "note_off channel=1 note=59 velocity=0 time=0\n",
      "note_off channel=1 note=64 velocity=0 time=0\n",
      "note_on channel=1 note=52 velocity=110 time=683\n",
      "note_on channel=1 note=59 velocity=110 time=0\n",
      "note_on channel=1 note=64 velocity=110 time=0\n",
      "note_off channel=1 note=52 velocity=0 time=501\n",
      "note_off channel=1 note=59 velocity=0 time=0\n",
      "note_off channel=1 note=64 velocity=0 time=0\n",
      "note_on channel=1 note=52 velocity=110 time=11\n",
      "note_on channel=1 note=59 velocity=110 time=0\n",
      "note_on channel=1 note=64 velocity=110 time=0\n",
      "note_off channel=1 note=52 velocity=0 time=245\n",
      "note_off channel=1 note=59 velocity=0 time=0\n",
      "note_off channel=1 note=64 velocity=0 time=0\n",
      "note_on channel=1 note=52 velocity=110 time=11\n",
      "note_on channel=1 note=59 velocity=110 time=0\n",
      "note_on channel=1 note=64 velocity=110 time=0\n",
      "note_off channel=1 note=52 velocity=0 time=245\n",
      "note_off channel=1 note=59 velocity=0 time=0\n",
      "note_off channel=1 note=64 velocity=0 time=0\n",
      "note_on channel=1 note=52 velocity=110 time=11\n",
      "note_on channel=1 note=59 velocity=110 time=0\n",
      "note_on channel=1 note=64 velocity=110 time=0\n",
      "note_off channel=1 note=52 velocity=0 time=245\n",
      "note_off channel=1 note=59 velocity=0 time=0\n",
      "note_off channel=1 note=64 velocity=0 time=0\n",
      "note_on channel=1 note=52 velocity=110 time=11\n",
      "note_on channel=1 note=59 velocity=110 time=0\n",
      "note_on channel=1 note=64 velocity=110 time=0\n",
      "note_off channel=1 note=52 velocity=0 time=245\n",
      "note_off channel=1 note=59 velocity=0 time=0\n",
      "note_off channel=1 note=64 velocity=0 time=0\n",
      "note_on channel=1 note=53 velocity=110 time=11\n",
      "note_on channel=1 note=60 velocity=110 time=0\n",
      "note_on channel=1 note=65 velocity=110 time=0\n",
      "note_off channel=1 note=53 velocity=0 time=853\n",
      "note_off channel=1 note=60 velocity=0 time=0\n",
      "note_off channel=1 note=65 velocity=0 time=0\n",
      "note_on channel=1 note=53 velocity=110 time=171\n",
      "note_on channel=1 note=60 velocity=110 time=0\n",
      "note_on channel=1 note=65 velocity=110 time=0\n",
      "note_off channel=1 note=53 velocity=0 time=853\n",
      "note_off channel=1 note=60 velocity=0 time=0\n",
      "note_off channel=1 note=65 velocity=0 time=0\n",
      "note_on channel=1 note=53 velocity=110 time=683\n",
      "note_on channel=1 note=60 velocity=110 time=0\n",
      "note_on channel=1 note=65 velocity=110 time=0\n",
      "note_off channel=1 note=53 velocity=0 time=501\n",
      "note_off channel=1 note=60 velocity=0 time=0\n",
      "note_off channel=1 note=65 velocity=0 time=0\n",
      "note_on channel=1 note=53 velocity=110 time=11\n",
      "note_on channel=1 note=60 velocity=110 time=0\n",
      "note_on channel=1 note=65 velocity=110 time=0\n",
      "note_off channel=1 note=53 velocity=0 time=245\n",
      "note_off channel=1 note=60 velocity=0 time=0\n",
      "note_off channel=1 note=65 velocity=0 time=0\n",
      "note_on channel=1 note=53 velocity=110 time=11\n",
      "note_on channel=1 note=60 velocity=110 time=0\n",
      "note_on channel=1 note=65 velocity=110 time=0\n",
      "note_off channel=1 note=53 velocity=0 time=245\n",
      "note_off channel=1 note=60 velocity=0 time=0\n",
      "note_off channel=1 note=65 velocity=0 time=0\n",
      "note_on channel=1 note=53 velocity=110 time=11\n",
      "note_on channel=1 note=60 velocity=110 time=0\n",
      "note_on channel=1 note=65 velocity=110 time=0\n",
      "note_off channel=1 note=53 velocity=0 time=245\n",
      "note_off channel=1 note=60 velocity=0 time=0\n",
      "note_off channel=1 note=65 velocity=0 time=0\n",
      "note_on channel=1 note=53 velocity=110 time=11\n",
      "note_on channel=1 note=60 velocity=110 time=0\n",
      "note_on channel=1 note=65 velocity=110 time=0\n",
      "note_off channel=1 note=53 velocity=0 time=245\n",
      "note_off channel=1 note=60 velocity=0 time=0\n",
      "note_off channel=1 note=65 velocity=0 time=0\n",
      "note_on channel=1 note=55 velocity=110 time=11\n",
      "note_on channel=1 note=62 velocity=110 time=0\n",
      "note_on channel=1 note=67 velocity=110 time=0\n",
      "note_off channel=1 note=55 velocity=0 time=853\n",
      "note_off channel=1 note=62 velocity=0 time=0\n",
      "note_off channel=1 note=67 velocity=0 time=0\n",
      "note_on channel=1 note=55 velocity=110 time=171\n",
      "note_on channel=1 note=62 velocity=110 time=0\n",
      "note_on channel=1 note=67 velocity=110 time=0\n",
      "note_off channel=1 note=55 velocity=0 time=853\n",
      "note_off channel=1 note=62 velocity=0 time=0\n",
      "note_off channel=1 note=67 velocity=0 time=0\n",
      "note_on channel=1 note=55 velocity=110 time=683\n",
      "note_on channel=1 note=62 velocity=110 time=0\n",
      "note_on channel=1 note=67 velocity=110 time=0\n",
      "note_off channel=1 note=55 velocity=0 time=501\n",
      "note_off channel=1 note=62 velocity=0 time=0\n",
      "note_off channel=1 note=67 velocity=0 time=0\n",
      "note_on channel=1 note=55 velocity=110 time=11\n",
      "note_on channel=1 note=62 velocity=110 time=0\n",
      "note_on channel=1 note=67 velocity=110 time=0\n",
      "note_off channel=1 note=55 velocity=0 time=245\n",
      "note_off channel=1 note=62 velocity=0 time=0\n",
      "note_off channel=1 note=67 velocity=0 time=0\n",
      "note_on channel=1 note=55 velocity=110 time=11\n",
      "note_on channel=1 note=62 velocity=110 time=0\n",
      "note_on channel=1 note=67 velocity=110 time=0\n",
      "note_off channel=1 note=55 velocity=0 time=245\n",
      "note_off channel=1 note=62 velocity=0 time=0\n",
      "note_off channel=1 note=67 velocity=0 time=0\n",
      "note_on channel=1 note=55 velocity=110 time=11\n",
      "note_on channel=1 note=62 velocity=110 time=0\n",
      "note_on channel=1 note=67 velocity=110 time=0\n",
      "note_off channel=1 note=55 velocity=0 time=245\n",
      "note_off channel=1 note=62 velocity=0 time=0\n",
      "note_off channel=1 note=67 velocity=0 time=0\n",
      "note_on channel=1 note=55 velocity=110 time=11\n",
      "note_on channel=1 note=62 velocity=110 time=0\n",
      "note_on channel=1 note=67 velocity=110 time=0\n",
      "note_off channel=1 note=55 velocity=0 time=245\n",
      "note_off channel=1 note=62 velocity=0 time=0\n",
      "note_off channel=1 note=67 velocity=0 time=0\n",
      "note_on channel=1 note=50 velocity=110 time=11\n",
      "note_on channel=1 note=57 velocity=110 time=0\n",
      "note_on channel=1 note=62 velocity=110 time=0\n",
      "note_off channel=1 note=50 velocity=0 time=853\n",
      "note_off channel=1 note=57 velocity=0 time=0\n",
      "note_off channel=1 note=62 velocity=0 time=0\n",
      "note_on channel=1 note=50 velocity=110 time=171\n",
      "note_on channel=1 note=57 velocity=110 time=0\n",
      "note_on channel=1 note=62 velocity=110 time=0\n",
      "note_off channel=1 note=50 velocity=0 time=853\n",
      "note_off channel=1 note=57 velocity=0 time=0\n",
      "note_off channel=1 note=62 velocity=0 time=0\n",
      "note_on channel=1 note=50 velocity=110 time=683\n",
      "note_on channel=1 note=57 velocity=110 time=0\n",
      "note_on channel=1 note=62 velocity=110 time=0\n",
      "note_off channel=1 note=50 velocity=0 time=501\n",
      "note_off channel=1 note=57 velocity=0 time=0\n",
      "note_off channel=1 note=62 velocity=0 time=0\n",
      "note_on channel=1 note=50 velocity=110 time=11\n",
      "note_on channel=1 note=57 velocity=110 time=0\n",
      "note_on channel=1 note=62 velocity=110 time=0\n",
      "note_off channel=1 note=50 velocity=0 time=245\n",
      "note_off channel=1 note=57 velocity=0 time=0\n",
      "note_off channel=1 note=62 velocity=0 time=0\n",
      "note_on channel=1 note=50 velocity=110 time=11\n",
      "note_on channel=1 note=57 velocity=110 time=0\n",
      "note_on channel=1 note=62 velocity=110 time=0\n",
      "note_off channel=1 note=50 velocity=0 time=245\n",
      "note_off channel=1 note=57 velocity=0 time=0\n",
      "note_off channel=1 note=62 velocity=0 time=0\n",
      "note_on channel=1 note=50 velocity=110 time=11\n",
      "note_on channel=1 note=57 velocity=110 time=0\n",
      "note_on channel=1 note=62 velocity=110 time=0\n",
      "note_off channel=1 note=50 velocity=0 time=245\n",
      "note_off channel=1 note=57 velocity=0 time=0\n",
      "note_off channel=1 note=62 velocity=0 time=0\n",
      "note_on channel=1 note=50 velocity=110 time=11\n",
      "note_on channel=1 note=57 velocity=110 time=0\n",
      "note_on channel=1 note=62 velocity=110 time=0\n",
      "note_off channel=1 note=50 velocity=0 time=245\n",
      "note_off channel=1 note=57 velocity=0 time=0\n",
      "note_off channel=1 note=62 velocity=0 time=0\n",
      "note_on channel=1 note=52 velocity=110 time=11\n",
      "note_on channel=1 note=59 velocity=110 time=0\n",
      "note_on channel=1 note=64 velocity=110 time=0\n",
      "note_off channel=1 note=52 velocity=0 time=853\n",
      "note_off channel=1 note=59 velocity=0 time=0\n",
      "note_off channel=1 note=64 velocity=0 time=0\n",
      "note_on channel=1 note=52 velocity=110 time=171\n",
      "note_on channel=1 note=59 velocity=110 time=0\n",
      "note_on channel=1 note=64 velocity=110 time=0\n",
      "note_off channel=1 note=52 velocity=0 time=853\n",
      "note_off channel=1 note=59 velocity=0 time=0\n",
      "note_off channel=1 note=64 velocity=0 time=0\n",
      "note_on channel=1 note=52 velocity=110 time=683\n",
      "note_on channel=1 note=59 velocity=110 time=0\n",
      "note_on channel=1 note=64 velocity=110 time=0\n",
      "note_off channel=1 note=52 velocity=0 time=501\n",
      "note_off channel=1 note=59 velocity=0 time=0\n",
      "note_off channel=1 note=64 velocity=0 time=0\n",
      "note_on channel=1 note=52 velocity=110 time=11\n",
      "note_on channel=1 note=59 velocity=110 time=0\n",
      "note_on channel=1 note=64 velocity=110 time=0\n",
      "note_off channel=1 note=52 velocity=0 time=245\n",
      "note_off channel=1 note=59 velocity=0 time=0\n",
      "note_off channel=1 note=64 velocity=0 time=0\n",
      "note_on channel=1 note=52 velocity=110 time=11\n",
      "note_on channel=1 note=59 velocity=110 time=0\n",
      "note_on channel=1 note=64 velocity=110 time=0\n",
      "note_off channel=1 note=52 velocity=0 time=245\n",
      "note_off channel=1 note=59 velocity=0 time=0\n",
      "note_off channel=1 note=64 velocity=0 time=0\n",
      "note_on channel=1 note=52 velocity=110 time=11\n",
      "note_on channel=1 note=59 velocity=110 time=0\n",
      "note_on channel=1 note=64 velocity=110 time=0\n",
      "note_off channel=1 note=52 velocity=0 time=245\n",
      "note_off channel=1 note=59 velocity=0 time=0\n",
      "note_off channel=1 note=64 velocity=0 time=0\n",
      "note_on channel=1 note=52 velocity=110 time=11\n",
      "note_on channel=1 note=59 velocity=110 time=0\n",
      "note_on channel=1 note=64 velocity=110 time=0\n",
      "note_off channel=1 note=52 velocity=0 time=245\n",
      "note_off channel=1 note=59 velocity=0 time=0\n",
      "note_off channel=1 note=64 velocity=0 time=0\n",
      "note_on channel=1 note=53 velocity=110 time=11\n",
      "note_on channel=1 note=60 velocity=110 time=0\n",
      "note_on channel=1 note=65 velocity=110 time=0\n",
      "note_off channel=1 note=53 velocity=0 time=853\n",
      "note_off channel=1 note=60 velocity=0 time=0\n",
      "note_off channel=1 note=65 velocity=0 time=0\n",
      "note_on channel=1 note=53 velocity=110 time=171\n",
      "note_on channel=1 note=60 velocity=110 time=0\n",
      "note_on channel=1 note=65 velocity=110 time=0\n",
      "note_off channel=1 note=53 velocity=0 time=853\n",
      "note_off channel=1 note=60 velocity=0 time=0\n",
      "note_off channel=1 note=65 velocity=0 time=0\n",
      "note_on channel=1 note=53 velocity=110 time=683\n",
      "note_on channel=1 note=60 velocity=110 time=0\n",
      "note_on channel=1 note=65 velocity=110 time=0\n",
      "note_off channel=1 note=53 velocity=0 time=501\n",
      "note_off channel=1 note=60 velocity=0 time=0\n",
      "note_off channel=1 note=65 velocity=0 time=0\n",
      "note_on channel=1 note=53 velocity=110 time=11\n",
      "note_on channel=1 note=60 velocity=110 time=0\n",
      "note_on channel=1 note=65 velocity=110 time=0\n",
      "note_off channel=1 note=53 velocity=0 time=245\n",
      "note_off channel=1 note=60 velocity=0 time=0\n",
      "note_off channel=1 note=65 velocity=0 time=0\n",
      "note_on channel=1 note=53 velocity=110 time=11\n",
      "note_on channel=1 note=60 velocity=110 time=0\n",
      "note_on channel=1 note=65 velocity=110 time=0\n",
      "note_off channel=1 note=53 velocity=0 time=245\n",
      "note_off channel=1 note=60 velocity=0 time=0\n",
      "note_off channel=1 note=65 velocity=0 time=0\n",
      "note_on channel=1 note=53 velocity=110 time=11\n",
      "note_on channel=1 note=60 velocity=110 time=0\n",
      "note_on channel=1 note=65 velocity=110 time=0\n",
      "note_off channel=1 note=53 velocity=0 time=245\n",
      "note_off channel=1 note=60 velocity=0 time=0\n",
      "note_off channel=1 note=65 velocity=0 time=0\n",
      "note_on channel=1 note=53 velocity=110 time=11\n",
      "note_on channel=1 note=60 velocity=110 time=0\n",
      "note_on channel=1 note=65 velocity=110 time=0\n",
      "note_off channel=1 note=53 velocity=0 time=245\n",
      "note_off channel=1 note=60 velocity=0 time=0\n",
      "note_off channel=1 note=65 velocity=0 time=0\n",
      "note_on channel=1 note=55 velocity=110 time=11\n",
      "note_on channel=1 note=62 velocity=110 time=0\n",
      "note_on channel=1 note=67 velocity=110 time=0\n",
      "note_off channel=1 note=55 velocity=0 time=853\n",
      "note_off channel=1 note=62 velocity=0 time=0\n",
      "note_off channel=1 note=67 velocity=0 time=0\n",
      "note_on channel=1 note=55 velocity=110 time=171\n",
      "note_on channel=1 note=62 velocity=110 time=0\n",
      "note_on channel=1 note=67 velocity=110 time=0\n",
      "note_off channel=1 note=55 velocity=0 time=853\n",
      "note_off channel=1 note=62 velocity=0 time=0\n",
      "note_off channel=1 note=67 velocity=0 time=0\n",
      "note_on channel=1 note=55 velocity=110 time=683\n",
      "note_on channel=1 note=62 velocity=110 time=0\n",
      "note_on channel=1 note=67 velocity=110 time=0\n",
      "note_off channel=1 note=55 velocity=0 time=501\n",
      "note_off channel=1 note=62 velocity=0 time=0\n",
      "note_off channel=1 note=67 velocity=0 time=0\n",
      "note_on channel=1 note=55 velocity=110 time=11\n",
      "note_on channel=1 note=62 velocity=110 time=0\n",
      "note_on channel=1 note=67 velocity=110 time=0\n",
      "note_off channel=1 note=55 velocity=0 time=245\n",
      "note_off channel=1 note=62 velocity=0 time=0\n",
      "note_off channel=1 note=67 velocity=0 time=0\n",
      "note_on channel=1 note=55 velocity=110 time=11\n",
      "note_on channel=1 note=62 velocity=110 time=0\n",
      "note_on channel=1 note=67 velocity=110 time=0\n",
      "note_off channel=1 note=55 velocity=0 time=245\n",
      "note_off channel=1 note=62 velocity=0 time=0\n",
      "note_off channel=1 note=67 velocity=0 time=0\n",
      "note_on channel=1 note=55 velocity=110 time=11\n",
      "note_on channel=1 note=62 velocity=110 time=0\n",
      "note_on channel=1 note=67 velocity=110 time=0\n",
      "note_off channel=1 note=55 velocity=0 time=245\n",
      "note_off channel=1 note=62 velocity=0 time=0\n",
      "note_off channel=1 note=67 velocity=0 time=0\n",
      "note_on channel=1 note=55 velocity=110 time=11\n",
      "note_on channel=1 note=62 velocity=110 time=0\n",
      "note_on channel=1 note=67 velocity=110 time=0\n",
      "note_off channel=1 note=55 velocity=0 time=245\n",
      "note_off channel=1 note=62 velocity=0 time=0\n",
      "note_off channel=1 note=67 velocity=0 time=0\n",
      "note_on channel=1 note=53 velocity=110 time=11\n",
      "note_on channel=1 note=60 velocity=110 time=0\n",
      "note_on channel=1 note=65 velocity=110 time=0\n",
      "note_off channel=1 note=53 velocity=0 time=853\n",
      "note_off channel=1 note=60 velocity=0 time=0\n",
      "note_off channel=1 note=65 velocity=0 time=0\n",
      "note_on channel=1 note=53 velocity=110 time=171\n",
      "note_on channel=1 note=60 velocity=110 time=0\n",
      "note_on channel=1 note=65 velocity=110 time=0\n",
      "note_off channel=1 note=53 velocity=0 time=853\n",
      "note_off channel=1 note=60 velocity=0 time=0\n",
      "note_off channel=1 note=65 velocity=0 time=0\n",
      "note_on channel=1 note=53 velocity=110 time=683\n",
      "note_on channel=1 note=60 velocity=110 time=0\n",
      "note_on channel=1 note=65 velocity=110 time=0\n",
      "note_off channel=1 note=53 velocity=0 time=501\n",
      "note_off channel=1 note=60 velocity=0 time=0\n",
      "note_off channel=1 note=65 velocity=0 time=0\n",
      "note_on channel=1 note=53 velocity=110 time=11\n",
      "note_on channel=1 note=60 velocity=110 time=0\n",
      "note_on channel=1 note=65 velocity=110 time=0\n",
      "note_off channel=1 note=53 velocity=0 time=245\n",
      "note_off channel=1 note=60 velocity=0 time=0\n",
      "note_off channel=1 note=65 velocity=0 time=0\n",
      "note_on channel=1 note=53 velocity=110 time=11\n",
      "note_on channel=1 note=60 velocity=110 time=0\n",
      "note_on channel=1 note=65 velocity=110 time=0\n",
      "note_off channel=1 note=53 velocity=0 time=245\n",
      "note_off channel=1 note=60 velocity=0 time=0\n",
      "note_off channel=1 note=65 velocity=0 time=0\n",
      "note_on channel=1 note=53 velocity=110 time=11\n",
      "note_on channel=1 note=60 velocity=110 time=0\n",
      "note_on channel=1 note=65 velocity=110 time=0\n",
      "note_off channel=1 note=53 velocity=0 time=245\n",
      "note_off channel=1 note=60 velocity=0 time=0\n",
      "note_off channel=1 note=65 velocity=0 time=0\n",
      "note_on channel=1 note=53 velocity=110 time=11\n",
      "note_on channel=1 note=60 velocity=110 time=0\n",
      "note_on channel=1 note=65 velocity=110 time=0\n",
      "note_off channel=1 note=53 velocity=0 time=245\n",
      "note_off channel=1 note=60 velocity=0 time=0\n",
      "note_off channel=1 note=65 velocity=0 time=0\n",
      "note_on channel=1 note=55 velocity=110 time=11\n",
      "note_on channel=1 note=62 velocity=110 time=0\n",
      "note_on channel=1 note=67 velocity=110 time=0\n",
      "note_off channel=1 note=55 velocity=0 time=853\n",
      "note_off channel=1 note=62 velocity=0 time=0\n",
      "note_off channel=1 note=67 velocity=0 time=0\n",
      "note_on channel=1 note=55 velocity=110 time=171\n",
      "note_on channel=1 note=62 velocity=110 time=0\n",
      "note_on channel=1 note=67 velocity=110 time=0\n",
      "note_off channel=1 note=55 velocity=0 time=853\n",
      "note_off channel=1 note=62 velocity=0 time=0\n",
      "note_off channel=1 note=67 velocity=0 time=0\n",
      "note_on channel=1 note=55 velocity=110 time=683\n",
      "note_on channel=1 note=62 velocity=110 time=0\n",
      "note_on channel=1 note=67 velocity=110 time=0\n",
      "note_off channel=1 note=55 velocity=0 time=501\n",
      "note_off channel=1 note=62 velocity=0 time=0\n",
      "note_off channel=1 note=67 velocity=0 time=0\n",
      "note_on channel=1 note=55 velocity=110 time=11\n",
      "note_on channel=1 note=62 velocity=110 time=0\n",
      "note_on channel=1 note=67 velocity=110 time=0\n",
      "note_off channel=1 note=55 velocity=0 time=245\n",
      "note_off channel=1 note=62 velocity=0 time=0\n",
      "note_off channel=1 note=67 velocity=0 time=0\n",
      "note_on channel=1 note=55 velocity=110 time=11\n",
      "note_on channel=1 note=62 velocity=110 time=0\n",
      "note_on channel=1 note=67 velocity=110 time=0\n",
      "note_off channel=1 note=55 velocity=0 time=245\n",
      "note_off channel=1 note=62 velocity=0 time=0\n",
      "note_off channel=1 note=67 velocity=0 time=0\n",
      "note_on channel=1 note=55 velocity=110 time=11\n",
      "note_on channel=1 note=62 velocity=110 time=0\n",
      "note_on channel=1 note=67 velocity=110 time=0\n",
      "note_off channel=1 note=55 velocity=0 time=245\n",
      "note_off channel=1 note=62 velocity=0 time=0\n",
      "note_off channel=1 note=67 velocity=0 time=0\n",
      "note_on channel=1 note=55 velocity=110 time=11\n",
      "note_on channel=1 note=62 velocity=110 time=0\n",
      "note_on channel=1 note=67 velocity=110 time=0\n",
      "note_off channel=1 note=55 velocity=0 time=245\n",
      "note_off channel=1 note=62 velocity=0 time=0\n",
      "note_off channel=1 note=67 velocity=0 time=0\n",
      "note_on channel=1 note=56 velocity=110 time=11\n",
      "note_on channel=1 note=63 velocity=110 time=0\n",
      "note_on channel=1 note=68 velocity=110 time=0\n",
      "note_off channel=1 note=56 velocity=0 time=853\n",
      "note_off channel=1 note=63 velocity=0 time=0\n",
      "note_off channel=1 note=68 velocity=0 time=0\n",
      "note_on channel=1 note=56 velocity=110 time=171\n",
      "note_on channel=1 note=63 velocity=110 time=0\n",
      "note_on channel=1 note=68 velocity=110 time=0\n",
      "note_off channel=1 note=56 velocity=0 time=853\n",
      "note_off channel=1 note=63 velocity=0 time=0\n",
      "note_off channel=1 note=68 velocity=0 time=0\n",
      "note_on channel=1 note=56 velocity=110 time=683\n",
      "note_on channel=1 note=63 velocity=110 time=0\n",
      "note_on channel=1 note=68 velocity=110 time=0\n",
      "note_off channel=1 note=56 velocity=0 time=501\n",
      "note_off channel=1 note=63 velocity=0 time=0\n",
      "note_off channel=1 note=68 velocity=0 time=0\n",
      "note_on channel=1 note=56 velocity=110 time=11\n",
      "note_on channel=1 note=63 velocity=110 time=0\n",
      "note_on channel=1 note=68 velocity=110 time=0\n",
      "note_off channel=1 note=56 velocity=0 time=245\n",
      "note_off channel=1 note=63 velocity=0 time=0\n",
      "note_off channel=1 note=68 velocity=0 time=0\n",
      "note_on channel=1 note=56 velocity=110 time=11\n",
      "note_on channel=1 note=63 velocity=110 time=0\n",
      "note_on channel=1 note=68 velocity=110 time=0\n",
      "note_off channel=1 note=56 velocity=0 time=245\n",
      "note_off channel=1 note=63 velocity=0 time=0\n",
      "note_off channel=1 note=68 velocity=0 time=0\n",
      "note_on channel=1 note=56 velocity=110 time=11\n",
      "note_on channel=1 note=63 velocity=110 time=0\n",
      "note_on channel=1 note=68 velocity=110 time=0\n",
      "note_off channel=1 note=56 velocity=0 time=245\n",
      "note_off channel=1 note=63 velocity=0 time=0\n",
      "note_off channel=1 note=68 velocity=0 time=0\n",
      "note_on channel=1 note=56 velocity=110 time=11\n",
      "note_on channel=1 note=63 velocity=110 time=0\n",
      "note_on channel=1 note=68 velocity=110 time=0\n",
      "note_off channel=1 note=56 velocity=0 time=245\n",
      "note_off channel=1 note=63 velocity=0 time=0\n",
      "note_off channel=1 note=68 velocity=0 time=0\n",
      "note_on channel=1 note=58 velocity=110 time=11\n",
      "note_on channel=1 note=65 velocity=110 time=0\n",
      "note_on channel=1 note=70 velocity=110 time=0\n",
      "note_off channel=1 note=58 velocity=0 time=853\n",
      "note_off channel=1 note=65 velocity=0 time=0\n",
      "note_off channel=1 note=70 velocity=0 time=0\n",
      "note_on channel=1 note=58 velocity=110 time=171\n",
      "note_on channel=1 note=65 velocity=110 time=0\n",
      "note_on channel=1 note=70 velocity=110 time=0\n",
      "note_off channel=1 note=58 velocity=0 time=853\n",
      "note_off channel=1 note=65 velocity=0 time=0\n",
      "note_off channel=1 note=70 velocity=0 time=0\n",
      "note_on channel=1 note=58 velocity=110 time=683\n",
      "note_on channel=1 note=65 velocity=110 time=0\n",
      "note_on channel=1 note=70 velocity=110 time=0\n",
      "note_off channel=1 note=58 velocity=0 time=501\n",
      "note_off channel=1 note=65 velocity=0 time=0\n",
      "note_off channel=1 note=70 velocity=0 time=0\n",
      "note_on channel=1 note=58 velocity=110 time=11\n",
      "note_on channel=1 note=65 velocity=110 time=0\n",
      "note_on channel=1 note=70 velocity=110 time=0\n",
      "note_off channel=1 note=58 velocity=0 time=245\n",
      "note_off channel=1 note=65 velocity=0 time=0\n",
      "note_off channel=1 note=70 velocity=0 time=0\n",
      "note_on channel=1 note=58 velocity=110 time=11\n",
      "note_on channel=1 note=65 velocity=110 time=0\n",
      "note_on channel=1 note=70 velocity=110 time=0\n",
      "note_off channel=1 note=58 velocity=0 time=245\n",
      "note_off channel=1 note=65 velocity=0 time=0\n",
      "note_off channel=1 note=70 velocity=0 time=0\n",
      "note_on channel=1 note=58 velocity=110 time=11\n",
      "note_on channel=1 note=65 velocity=110 time=0\n",
      "note_on channel=1 note=70 velocity=110 time=0\n",
      "note_off channel=1 note=58 velocity=0 time=245\n",
      "note_off channel=1 note=65 velocity=0 time=0\n",
      "note_off channel=1 note=70 velocity=0 time=0\n",
      "note_on channel=1 note=58 velocity=110 time=11\n",
      "note_on channel=1 note=65 velocity=110 time=0\n",
      "note_on channel=1 note=70 velocity=110 time=0\n",
      "note_off channel=1 note=58 velocity=0 time=245\n",
      "note_off channel=1 note=65 velocity=0 time=0\n",
      "note_off channel=1 note=70 velocity=0 time=0\n",
      "note_on channel=1 note=50 velocity=110 time=11\n",
      "note_on channel=1 note=57 velocity=110 time=0\n",
      "note_on channel=1 note=62 velocity=110 time=0\n",
      "note_off channel=1 note=50 velocity=0 time=853\n",
      "note_off channel=1 note=57 velocity=0 time=0\n",
      "note_off channel=1 note=62 velocity=0 time=0\n",
      "note_on channel=1 note=50 velocity=110 time=171\n",
      "note_on channel=1 note=57 velocity=110 time=0\n",
      "note_on channel=1 note=62 velocity=110 time=0\n",
      "note_off channel=1 note=50 velocity=0 time=853\n",
      "note_off channel=1 note=57 velocity=0 time=0\n",
      "note_off channel=1 note=62 velocity=0 time=0\n",
      "note_on channel=1 note=50 velocity=110 time=683\n",
      "note_on channel=1 note=57 velocity=110 time=0\n",
      "note_on channel=1 note=62 velocity=110 time=0\n",
      "note_off channel=1 note=50 velocity=0 time=501\n",
      "note_off channel=1 note=57 velocity=0 time=0\n",
      "note_off channel=1 note=62 velocity=0 time=0\n",
      "note_on channel=1 note=50 velocity=110 time=11\n",
      "note_on channel=1 note=57 velocity=110 time=0\n",
      "note_on channel=1 note=62 velocity=110 time=0\n",
      "note_off channel=1 note=50 velocity=0 time=245\n",
      "note_off channel=1 note=57 velocity=0 time=0\n",
      "note_off channel=1 note=62 velocity=0 time=0\n",
      "note_on channel=1 note=50 velocity=110 time=11\n",
      "note_on channel=1 note=57 velocity=110 time=0\n",
      "note_on channel=1 note=62 velocity=110 time=0\n",
      "note_off channel=1 note=50 velocity=0 time=245\n",
      "note_off channel=1 note=57 velocity=0 time=0\n",
      "note_off channel=1 note=62 velocity=0 time=0\n",
      "note_on channel=1 note=50 velocity=110 time=11\n",
      "note_on channel=1 note=57 velocity=110 time=0\n",
      "note_on channel=1 note=62 velocity=110 time=0\n",
      "note_off channel=1 note=50 velocity=0 time=245\n",
      "note_off channel=1 note=57 velocity=0 time=0\n",
      "note_off channel=1 note=62 velocity=0 time=0\n",
      "note_on channel=1 note=50 velocity=110 time=11\n",
      "note_on channel=1 note=57 velocity=110 time=0\n",
      "note_on channel=1 note=62 velocity=110 time=0\n",
      "note_off channel=1 note=50 velocity=0 time=245\n",
      "note_off channel=1 note=57 velocity=0 time=0\n",
      "note_off channel=1 note=62 velocity=0 time=0\n",
      "note_on channel=1 note=52 velocity=110 time=11\n",
      "note_on channel=1 note=59 velocity=110 time=0\n",
      "note_on channel=1 note=64 velocity=110 time=0\n",
      "note_off channel=1 note=52 velocity=0 time=853\n",
      "note_off channel=1 note=59 velocity=0 time=0\n",
      "note_off channel=1 note=64 velocity=0 time=0\n",
      "note_on channel=1 note=52 velocity=110 time=171\n",
      "note_on channel=1 note=59 velocity=110 time=0\n",
      "note_on channel=1 note=64 velocity=110 time=0\n",
      "note_off channel=1 note=52 velocity=0 time=853\n",
      "note_off channel=1 note=59 velocity=0 time=0\n",
      "note_off channel=1 note=64 velocity=0 time=0\n",
      "note_on channel=1 note=52 velocity=110 time=683\n",
      "note_on channel=1 note=59 velocity=110 time=0\n",
      "note_on channel=1 note=64 velocity=110 time=0\n",
      "note_off channel=1 note=52 velocity=0 time=501\n",
      "note_off channel=1 note=59 velocity=0 time=0\n",
      "note_off channel=1 note=64 velocity=0 time=0\n",
      "note_on channel=1 note=52 velocity=110 time=11\n",
      "note_on channel=1 note=59 velocity=110 time=0\n",
      "note_on channel=1 note=64 velocity=110 time=0\n",
      "note_off channel=1 note=52 velocity=0 time=245\n",
      "note_off channel=1 note=59 velocity=0 time=0\n",
      "note_off channel=1 note=64 velocity=0 time=0\n",
      "note_on channel=1 note=52 velocity=110 time=11\n",
      "note_on channel=1 note=59 velocity=110 time=0\n",
      "note_on channel=1 note=64 velocity=110 time=0\n",
      "note_off channel=1 note=52 velocity=0 time=245\n",
      "note_off channel=1 note=59 velocity=0 time=0\n",
      "note_off channel=1 note=64 velocity=0 time=0\n",
      "note_on channel=1 note=52 velocity=110 time=11\n",
      "note_on channel=1 note=59 velocity=110 time=0\n",
      "note_on channel=1 note=64 velocity=110 time=0\n",
      "note_off channel=1 note=52 velocity=0 time=245\n",
      "note_off channel=1 note=59 velocity=0 time=0\n",
      "note_off channel=1 note=64 velocity=0 time=0\n",
      "note_on channel=1 note=52 velocity=110 time=11\n",
      "note_on channel=1 note=59 velocity=110 time=0\n",
      "note_on channel=1 note=64 velocity=110 time=0\n",
      "note_off channel=1 note=52 velocity=0 time=245\n",
      "note_off channel=1 note=59 velocity=0 time=0\n",
      "note_off channel=1 note=64 velocity=0 time=0\n",
      "note_on channel=1 note=53 velocity=110 time=11\n",
      "note_on channel=1 note=60 velocity=110 time=0\n",
      "note_on channel=1 note=65 velocity=110 time=0\n",
      "note_off channel=1 note=53 velocity=0 time=853\n",
      "note_off channel=1 note=60 velocity=0 time=0\n",
      "note_off channel=1 note=65 velocity=0 time=0\n",
      "note_on channel=1 note=53 velocity=110 time=171\n",
      "note_on channel=1 note=60 velocity=110 time=0\n",
      "note_on channel=1 note=65 velocity=110 time=0\n",
      "note_off channel=1 note=53 velocity=0 time=853\n",
      "note_off channel=1 note=60 velocity=0 time=0\n",
      "note_off channel=1 note=65 velocity=0 time=0\n",
      "note_on channel=1 note=53 velocity=110 time=683\n",
      "note_on channel=1 note=60 velocity=110 time=0\n",
      "note_on channel=1 note=65 velocity=110 time=0\n",
      "note_off channel=1 note=53 velocity=0 time=501\n",
      "note_off channel=1 note=60 velocity=0 time=0\n",
      "note_off channel=1 note=65 velocity=0 time=0\n",
      "note_on channel=1 note=53 velocity=110 time=11\n",
      "note_on channel=1 note=60 velocity=110 time=0\n",
      "note_on channel=1 note=65 velocity=110 time=0\n",
      "note_off channel=1 note=53 velocity=0 time=245\n",
      "note_off channel=1 note=60 velocity=0 time=0\n",
      "note_off channel=1 note=65 velocity=0 time=0\n",
      "note_on channel=1 note=53 velocity=110 time=11\n",
      "note_on channel=1 note=60 velocity=110 time=0\n",
      "note_on channel=1 note=65 velocity=110 time=0\n",
      "note_off channel=1 note=53 velocity=0 time=245\n",
      "note_off channel=1 note=60 velocity=0 time=0\n",
      "note_off channel=1 note=65 velocity=0 time=0\n",
      "note_on channel=1 note=53 velocity=110 time=11\n",
      "note_on channel=1 note=60 velocity=110 time=0\n",
      "note_on channel=1 note=65 velocity=110 time=0\n",
      "note_off channel=1 note=53 velocity=0 time=245\n",
      "note_off channel=1 note=60 velocity=0 time=0\n",
      "note_off channel=1 note=65 velocity=0 time=0\n",
      "note_on channel=1 note=53 velocity=110 time=11\n",
      "note_on channel=1 note=60 velocity=110 time=0\n",
      "note_on channel=1 note=65 velocity=110 time=0\n",
      "note_off channel=1 note=53 velocity=0 time=245\n",
      "note_off channel=1 note=60 velocity=0 time=0\n",
      "note_off channel=1 note=65 velocity=0 time=0\n",
      "note_on channel=1 note=55 velocity=110 time=11\n",
      "note_on channel=1 note=62 velocity=110 time=0\n",
      "note_on channel=1 note=67 velocity=110 time=0\n",
      "note_off channel=1 note=55 velocity=0 time=853\n",
      "note_off channel=1 note=62 velocity=0 time=0\n",
      "note_off channel=1 note=67 velocity=0 time=0\n",
      "note_on channel=1 note=55 velocity=110 time=171\n",
      "note_on channel=1 note=62 velocity=110 time=0\n",
      "note_on channel=1 note=67 velocity=110 time=0\n",
      "note_off channel=1 note=55 velocity=0 time=853\n",
      "note_off channel=1 note=62 velocity=0 time=0\n",
      "note_off channel=1 note=67 velocity=0 time=0\n",
      "note_on channel=1 note=55 velocity=110 time=683\n",
      "note_on channel=1 note=62 velocity=110 time=0\n",
      "note_on channel=1 note=67 velocity=110 time=0\n",
      "note_off channel=1 note=55 velocity=0 time=501\n",
      "note_off channel=1 note=62 velocity=0 time=0\n",
      "note_off channel=1 note=67 velocity=0 time=0\n",
      "note_on channel=1 note=55 velocity=110 time=11\n",
      "note_on channel=1 note=62 velocity=110 time=0\n",
      "note_on channel=1 note=67 velocity=110 time=0\n",
      "note_off channel=1 note=55 velocity=0 time=245\n",
      "note_off channel=1 note=62 velocity=0 time=0\n",
      "note_off channel=1 note=67 velocity=0 time=0\n",
      "note_on channel=1 note=55 velocity=110 time=11\n",
      "note_on channel=1 note=62 velocity=110 time=0\n",
      "note_on channel=1 note=67 velocity=110 time=0\n",
      "note_off channel=1 note=55 velocity=0 time=245\n",
      "note_off channel=1 note=62 velocity=0 time=0\n",
      "note_off channel=1 note=67 velocity=0 time=0\n",
      "note_on channel=1 note=55 velocity=110 time=11\n",
      "note_on channel=1 note=62 velocity=110 time=0\n",
      "note_on channel=1 note=67 velocity=110 time=0\n",
      "note_off channel=1 note=55 velocity=0 time=245\n",
      "note_off channel=1 note=62 velocity=0 time=0\n",
      "note_off channel=1 note=67 velocity=0 time=0\n",
      "note_on channel=1 note=55 velocity=110 time=11\n",
      "note_on channel=1 note=62 velocity=110 time=0\n",
      "note_on channel=1 note=67 velocity=110 time=0\n",
      "note_off channel=1 note=55 velocity=0 time=245\n",
      "note_off channel=1 note=62 velocity=0 time=0\n",
      "note_off channel=1 note=67 velocity=0 time=0\n",
      "note_on channel=1 note=33 velocity=110 time=57355\n",
      "note_off channel=1 note=33 velocity=0 time=501\n",
      "note_on channel=1 note=38 velocity=110 time=11\n",
      "note_off channel=1 note=38 velocity=0 time=501\n",
      "note_on channel=1 note=45 velocity=110 time=11\n",
      "note_off channel=1 note=45 velocity=0 time=501\n",
      "note_on channel=1 note=44 velocity=110 time=11\n",
      "note_off channel=1 note=44 velocity=0 time=2304\n",
      "note_on channel=1 note=33 velocity=110 time=256\n",
      "note_off channel=1 note=33 velocity=0 time=501\n",
      "note_on channel=1 note=38 velocity=110 time=11\n",
      "note_off channel=1 note=38 velocity=0 time=501\n",
      "note_on channel=1 note=43 velocity=110 time=11\n",
      "note_off channel=1 note=43 velocity=0 time=501\n",
      "note_on channel=1 note=41 velocity=110 time=11\n",
      "note_off channel=1 note=41 velocity=0 time=2304\n",
      "note_on channel=1 note=33 velocity=110 time=256\n",
      "note_off channel=1 note=33 velocity=0 time=501\n",
      "note_on channel=1 note=38 velocity=110 time=11\n",
      "note_off channel=1 note=38 velocity=0 time=501\n",
      "note_on channel=1 note=45 velocity=110 time=11\n",
      "note_off channel=1 note=45 velocity=0 time=501\n",
      "note_on channel=1 note=44 velocity=110 time=11\n",
      "note_off channel=1 note=44 velocity=0 time=1013\n",
      "note_on channel=1 note=43 velocity=110 time=11\n",
      "note_off channel=1 note=43 velocity=0 time=1013\n",
      "note_on channel=1 note=41 velocity=110 time=11\n",
      "note_off channel=1 note=41 velocity=0 time=1013\n",
      "note_on channel=1 note=38 velocity=110 time=11\n",
      "note_off channel=1 note=38 velocity=0 time=3328\n",
      "note_on channel=1 note=33 velocity=110 time=256\n",
      "note_off channel=1 note=33 velocity=0 time=501\n",
      "note_on channel=1 note=38 velocity=110 time=11\n",
      "note_off channel=1 note=38 velocity=0 time=501\n",
      "note_on channel=1 note=45 velocity=110 time=11\n",
      "note_off channel=1 note=45 velocity=0 time=501\n",
      "note_on channel=1 note=44 velocity=110 time=11\n",
      "note_off channel=1 note=44 velocity=0 time=2304\n",
      "note_on channel=1 note=33 velocity=110 time=256\n",
      "note_off channel=1 note=33 velocity=0 time=501\n",
      "note_on channel=1 note=38 velocity=110 time=11\n",
      "note_off channel=1 note=38 velocity=0 time=501\n",
      "note_on channel=1 note=43 velocity=110 time=11\n",
      "note_off channel=1 note=43 velocity=0 time=501\n",
      "note_on channel=1 note=41 velocity=110 time=11\n",
      "note_off channel=1 note=41 velocity=0 time=2304\n",
      "note_on channel=1 note=33 velocity=110 time=256\n",
      "note_off channel=1 note=33 velocity=0 time=501\n",
      "note_on channel=1 note=38 velocity=110 time=11\n",
      "note_off channel=1 note=38 velocity=0 time=501\n",
      "note_on channel=1 note=45 velocity=110 time=11\n",
      "note_off channel=1 note=45 velocity=0 time=501\n",
      "note_on channel=1 note=44 velocity=110 time=11\n",
      "note_off channel=1 note=44 velocity=0 time=1013\n",
      "note_on channel=1 note=43 velocity=110 time=11\n",
      "note_off channel=1 note=43 velocity=0 time=1013\n",
      "note_on channel=1 note=41 velocity=110 time=11\n",
      "note_off channel=1 note=41 velocity=0 time=1013\n",
      "note_on channel=1 note=38 velocity=110 time=11\n",
      "note_off channel=1 note=38 velocity=0 time=3328\n",
      "note_on channel=1 note=33 velocity=110 time=256\n",
      "note_off channel=1 note=33 velocity=0 time=501\n",
      "note_on channel=1 note=38 velocity=110 time=11\n",
      "note_off channel=1 note=38 velocity=0 time=501\n",
      "note_on channel=1 note=45 velocity=110 time=11\n",
      "note_off channel=1 note=45 velocity=0 time=501\n",
      "note_on channel=1 note=44 velocity=110 time=11\n",
      "note_off channel=1 note=44 velocity=0 time=2304\n",
      "note_on channel=1 note=33 velocity=110 time=256\n",
      "note_off channel=1 note=33 velocity=0 time=501\n",
      "note_on channel=1 note=38 velocity=110 time=11\n",
      "note_off channel=1 note=38 velocity=0 time=501\n",
      "note_on channel=1 note=43 velocity=110 time=11\n",
      "note_off channel=1 note=43 velocity=0 time=501\n",
      "note_on channel=1 note=41 velocity=110 time=11\n",
      "note_off channel=1 note=41 velocity=0 time=2304\n",
      "note_on channel=1 note=33 velocity=110 time=256\n",
      "note_off channel=1 note=33 velocity=0 time=501\n",
      "note_on channel=1 note=38 velocity=110 time=11\n",
      "note_off channel=1 note=38 velocity=0 time=501\n",
      "note_on channel=1 note=45 velocity=110 time=11\n",
      "note_off channel=1 note=45 velocity=0 time=501\n",
      "note_on channel=1 note=44 velocity=110 time=11\n",
      "note_off channel=1 note=44 velocity=0 time=1013\n",
      "note_on channel=1 note=43 velocity=110 time=11\n",
      "note_off channel=1 note=43 velocity=0 time=1013\n",
      "note_on channel=1 note=41 velocity=110 time=11\n",
      "note_off channel=1 note=41 velocity=0 time=1013\n",
      "note_on channel=1 note=38 velocity=110 time=11\n",
      "note_off channel=1 note=38 velocity=0 time=3328\n",
      "note_on channel=1 note=38 velocity=110 time=256\n",
      "note_off channel=1 note=38 velocity=0 time=501\n",
      "note_on channel=1 note=33 velocity=110 time=11\n",
      "note_off channel=1 note=33 velocity=0 time=501\n",
      "note_on channel=1 note=38 velocity=110 time=11\n",
      "note_off channel=1 note=38 velocity=0 time=501\n",
      "note_on channel=1 note=37 velocity=110 time=11\n",
      "note_off channel=1 note=37 velocity=0 time=2304\n",
      "note_on channel=1 note=36 velocity=110 time=256\n",
      "note_off channel=1 note=36 velocity=0 time=501\n",
      "note_on channel=1 note=33 velocity=110 time=11\n",
      "note_off channel=1 note=33 velocity=0 time=501\n",
      "note_on channel=1 note=36 velocity=110 time=11\n",
      "note_off channel=1 note=36 velocity=0 time=501\n",
      "note_on channel=1 note=35 velocity=110 time=11\n",
      "note_off channel=1 note=35 velocity=0 time=2304\n",
      "note_on channel=1 note=38 velocity=110 time=256\n",
      "note_off channel=1 note=38 velocity=0 time=501\n",
      "note_on channel=1 note=33 velocity=110 time=11\n",
      "note_off channel=1 note=33 velocity=0 time=501\n",
      "note_on channel=1 note=38 velocity=110 time=11\n",
      "note_off channel=1 note=38 velocity=0 time=501\n",
      "note_on channel=1 note=37 velocity=110 time=11\n",
      "note_off channel=1 note=37 velocity=0 time=2304\n",
      "note_on channel=1 note=36 velocity=110 time=256\n",
      "note_off channel=1 note=36 velocity=0 time=501\n",
      "note_on channel=1 note=33 velocity=110 time=11\n",
      "note_off channel=1 note=33 velocity=0 time=501\n",
      "note_on channel=1 note=36 velocity=110 time=11\n",
      "note_off channel=1 note=36 velocity=0 time=501\n",
      "note_on channel=1 note=35 velocity=110 time=11\n",
      "note_off channel=1 note=35 velocity=0 time=2304\n",
      "note_on channel=1 note=38 velocity=110 time=256\n",
      "note_off channel=1 note=38 velocity=0 time=501\n",
      "note_on channel=1 note=33 velocity=110 time=11\n",
      "note_off channel=1 note=33 velocity=0 time=501\n",
      "note_on channel=1 note=38 velocity=110 time=11\n",
      "note_off channel=1 note=38 velocity=0 time=501\n",
      "note_on channel=1 note=37 velocity=110 time=11\n",
      "note_off channel=1 note=37 velocity=0 time=1013\n",
      "note_on channel=1 note=40 velocity=110 time=11\n",
      "note_off channel=1 note=40 velocity=0 time=1365\n",
      "note_on channel=1 note=38 velocity=110 time=171\n",
      "note_off channel=1 note=38 velocity=0 time=501\n",
      "note_on channel=1 note=33 velocity=110 time=11\n",
      "note_off channel=1 note=33 velocity=0 time=501\n",
      "note_on channel=1 note=38 velocity=110 time=11\n",
      "note_off channel=1 note=38 velocity=0 time=501\n",
      "note_on channel=1 note=37 velocity=110 time=11\n",
      "note_off channel=1 note=37 velocity=0 time=2304\n",
      "note_on channel=1 note=38 velocity=110 time=256\n",
      "note_off channel=1 note=38 velocity=0 time=501\n",
      "note_on channel=1 note=33 velocity=110 time=11\n",
      "note_off channel=1 note=33 velocity=0 time=501\n",
      "note_on channel=1 note=38 velocity=110 time=11\n",
      "note_off channel=1 note=38 velocity=0 time=501\n",
      "note_on channel=1 note=37 velocity=110 time=11\n",
      "note_off channel=1 note=37 velocity=0 time=2304\n",
      "note_on channel=1 note=36 velocity=110 time=256\n",
      "note_off channel=1 note=36 velocity=0 time=501\n",
      "note_on channel=1 note=33 velocity=110 time=11\n",
      "note_off channel=1 note=33 velocity=0 time=501\n",
      "note_on channel=1 note=36 velocity=110 time=11\n",
      "note_off channel=1 note=36 velocity=0 time=501\n",
      "note_on channel=1 note=35 velocity=110 time=11\n",
      "note_off channel=1 note=35 velocity=0 time=2304\n",
      "note_on channel=1 note=26 velocity=110 time=256\n",
      "note_off channel=1 note=26 velocity=0 time=501\n",
      "note_on channel=1 note=33 velocity=110 time=11\n",
      "note_off channel=1 note=33 velocity=0 time=501\n",
      "note_on channel=1 note=38 velocity=110 time=11\n",
      "note_off channel=1 note=38 velocity=0 time=501\n",
      "note_on channel=1 note=26 velocity=110 time=11\n",
      "note_off channel=1 note=26 velocity=0 time=501\n",
      "note_on channel=1 note=33 velocity=110 time=11\n",
      "note_off channel=1 note=33 velocity=0 time=501\n",
      "note_on channel=1 note=37 velocity=110 time=11\n",
      "note_off channel=1 note=37 velocity=0 time=501\n",
      "note_on channel=1 note=26 velocity=110 time=11\n",
      "note_off channel=1 note=26 velocity=0 time=501\n",
      "note_on channel=1 note=33 velocity=110 time=11\n",
      "note_off channel=1 note=33 velocity=0 time=501\n",
      "note_on channel=1 note=36 velocity=110 time=11\n",
      "note_off channel=1 note=36 velocity=0 time=501\n",
      "note_on channel=1 note=26 velocity=110 time=11\n",
      "note_off channel=1 note=26 velocity=0 time=501\n",
      "note_on channel=1 note=29 velocity=110 time=11\n",
      "note_off channel=1 note=29 velocity=0 time=501\n",
      "note_on channel=1 note=36 velocity=110 time=11\n",
      "note_off channel=1 note=36 velocity=0 time=501\n",
      "note_on channel=1 note=35 velocity=110 time=11\n",
      "note_off channel=1 note=35 velocity=0 time=501\n",
      "note_on channel=1 note=31 velocity=110 time=11\n",
      "note_off channel=1 note=31 velocity=0 time=1365\n",
      "note_on channel=1 note=26 velocity=110 time=171\n",
      "note_off channel=1 note=26 velocity=0 time=501\n",
      "note_on channel=1 note=33 velocity=110 time=11\n",
      "note_off channel=1 note=33 velocity=0 time=501\n",
      "note_on channel=1 note=38 velocity=110 time=11\n",
      "note_off channel=1 note=38 velocity=0 time=501\n",
      "note_on channel=1 note=26 velocity=110 time=11\n",
      "note_off channel=1 note=26 velocity=0 time=501\n",
      "note_on channel=1 note=33 velocity=110 time=11\n",
      "note_off channel=1 note=33 velocity=0 time=501\n",
      "note_on channel=1 note=37 velocity=110 time=11\n",
      "note_off channel=1 note=37 velocity=0 time=501\n",
      "note_on channel=1 note=26 velocity=110 time=11\n",
      "note_off channel=1 note=26 velocity=0 time=501\n",
      "note_on channel=1 note=33 velocity=110 time=11\n",
      "note_off channel=1 note=33 velocity=0 time=501\n",
      "note_on channel=1 note=36 velocity=110 time=11\n",
      "note_off channel=1 note=36 velocity=0 time=501\n",
      "note_on channel=1 note=26 velocity=110 time=11\n",
      "note_off channel=1 note=26 velocity=0 time=501\n",
      "note_on channel=1 note=29 velocity=110 time=11\n",
      "note_off channel=1 note=29 velocity=0 time=501\n",
      "note_on channel=1 note=36 velocity=110 time=11\n",
      "note_off channel=1 note=36 velocity=0 time=501\n",
      "note_on channel=1 note=35 velocity=110 time=11\n",
      "note_off channel=1 note=35 velocity=0 time=501\n",
      "note_on channel=1 note=31 velocity=110 time=11\n",
      "note_off channel=1 note=31 velocity=0 time=1365\n",
      "note_on channel=1 note=48 velocity=110 time=171\n",
      "note_off channel=1 note=48 velocity=0 time=853\n",
      "note_on channel=1 note=46 velocity=110 time=1195\n",
      "note_off channel=1 note=46 velocity=0 time=853\n",
      "note_on channel=1 note=43 velocity=110 time=171\n",
      "note_off channel=1 note=43 velocity=0 time=853\n",
      "note_on channel=1 note=48 velocity=110 time=171\n",
      "note_off channel=1 note=48 velocity=0 time=853\n",
      "note_on channel=1 note=46 velocity=110 time=1195\n",
      "note_off channel=1 note=46 velocity=0 time=853\n",
      "note_on channel=1 note=43 velocity=110 time=171\n",
      "note_off channel=1 note=43 velocity=0 time=853\n",
      "note_on channel=1 note=48 velocity=110 time=171\n",
      "note_off channel=1 note=48 velocity=0 time=853\n",
      "note_on channel=1 note=46 velocity=110 time=1195\n",
      "note_off channel=1 note=46 velocity=0 time=853\n",
      "note_on channel=1 note=43 velocity=110 time=171\n",
      "note_off channel=1 note=43 velocity=0 time=853\n",
      "note_on channel=1 note=48 velocity=110 time=171\n",
      "note_off channel=1 note=48 velocity=0 time=853\n",
      "note_on channel=1 note=46 velocity=110 time=1195\n",
      "note_off channel=1 note=46 velocity=0 time=853\n",
      "note_on channel=1 note=43 velocity=110 time=171\n",
      "note_off channel=1 note=43 velocity=0 time=853\n",
      "note_on channel=1 note=48 velocity=110 time=171\n",
      "note_off channel=1 note=48 velocity=0 time=853\n",
      "note_on channel=1 note=46 velocity=110 time=1195\n",
      "note_off channel=1 note=46 velocity=0 time=853\n",
      "note_on channel=1 note=43 velocity=110 time=171\n",
      "note_off channel=1 note=43 velocity=0 time=853\n",
      "note_on channel=1 note=48 velocity=110 time=171\n",
      "note_off channel=1 note=48 velocity=0 time=853\n",
      "note_on channel=1 note=46 velocity=110 time=1195\n",
      "note_off channel=1 note=46 velocity=0 time=853\n",
      "note_on channel=1 note=43 velocity=110 time=171\n",
      "note_off channel=1 note=43 velocity=0 time=853\n",
      "note_on channel=1 note=48 velocity=110 time=171\n",
      "note_off channel=1 note=48 velocity=0 time=853\n",
      "note_on channel=1 note=46 velocity=110 time=1195\n",
      "note_off channel=1 note=46 velocity=0 time=853\n",
      "note_on channel=1 note=43 velocity=110 time=171\n",
      "note_off channel=1 note=43 velocity=0 time=853\n",
      "note_on channel=1 note=48 velocity=110 time=171\n",
      "note_off channel=1 note=48 velocity=0 time=853\n",
      "note_on channel=1 note=46 velocity=110 time=1195\n",
      "note_off channel=1 note=46 velocity=0 time=853\n",
      "note_on channel=1 note=43 velocity=110 time=171\n",
      "note_off channel=1 note=43 velocity=0 time=853\n",
      "note_on channel=1 note=48 velocity=110 time=171\n",
      "note_off channel=1 note=48 velocity=0 time=853\n",
      "note_on channel=1 note=46 velocity=110 time=1195\n",
      "note_off channel=1 note=46 velocity=0 time=853\n",
      "note_on channel=1 note=43 velocity=110 time=171\n",
      "note_off channel=1 note=43 velocity=0 time=853\n",
      "note_on channel=1 note=48 velocity=110 time=171\n",
      "note_off channel=1 note=48 velocity=0 time=853\n",
      "note_on channel=1 note=46 velocity=110 time=1195\n",
      "note_off channel=1 note=46 velocity=0 time=853\n",
      "note_on channel=1 note=43 velocity=110 time=171\n",
      "note_off channel=1 note=43 velocity=0 time=853\n",
      "note_on channel=1 note=48 velocity=110 time=171\n",
      "note_off channel=1 note=48 velocity=0 time=853\n",
      "note_on channel=1 note=46 velocity=110 time=1195\n",
      "note_off channel=1 note=46 velocity=0 time=853\n",
      "note_on channel=1 note=43 velocity=110 time=171\n",
      "note_off channel=1 note=43 velocity=0 time=853\n",
      "note_on channel=1 note=48 velocity=110 time=171\n",
      "note_off channel=1 note=48 velocity=0 time=853\n",
      "note_on channel=1 note=46 velocity=110 time=1195\n",
      "note_off channel=1 note=46 velocity=0 time=853\n",
      "note_on channel=1 note=43 velocity=110 time=171\n",
      "note_off channel=1 note=43 velocity=0 time=853\n",
      "note_on channel=1 note=48 velocity=110 time=171\n",
      "note_off channel=1 note=48 velocity=0 time=853\n",
      "note_on channel=1 note=46 velocity=110 time=1195\n",
      "note_off channel=1 note=46 velocity=0 time=853\n",
      "note_on channel=1 note=43 velocity=110 time=171\n",
      "note_off channel=1 note=43 velocity=0 time=853\n",
      "note_on channel=1 note=48 velocity=110 time=171\n",
      "note_off channel=1 note=48 velocity=0 time=853\n",
      "note_on channel=1 note=46 velocity=110 time=1195\n",
      "note_off channel=1 note=46 velocity=0 time=853\n",
      "note_on channel=1 note=43 velocity=110 time=171\n",
      "note_off channel=1 note=43 velocity=0 time=853\n",
      "note_on channel=1 note=48 velocity=110 time=171\n",
      "note_off channel=1 note=48 velocity=0 time=853\n",
      "note_on channel=1 note=46 velocity=110 time=1195\n",
      "note_off channel=1 note=46 velocity=0 time=853\n",
      "note_on channel=1 note=43 velocity=110 time=171\n",
      "note_off channel=1 note=43 velocity=0 time=853\n",
      "note_on channel=1 note=48 velocity=110 time=171\n",
      "note_off channel=1 note=48 velocity=0 time=853\n",
      "note_on channel=1 note=46 velocity=110 time=1195\n",
      "note_off channel=1 note=46 velocity=0 time=853\n",
      "note_on channel=1 note=43 velocity=110 time=171\n",
      "note_off channel=1 note=43 velocity=0 time=853\n",
      "note_on channel=1 note=48 velocity=110 time=171\n",
      "note_off channel=1 note=48 velocity=0 time=853\n",
      "note_on channel=1 note=46 velocity=110 time=1195\n",
      "note_off channel=1 note=46 velocity=0 time=853\n",
      "note_on channel=1 note=43 velocity=110 time=171\n",
      "note_off channel=1 note=43 velocity=0 time=853\n",
      "note_on channel=1 note=48 velocity=110 time=171\n",
      "note_off channel=1 note=48 velocity=0 time=853\n",
      "note_on channel=1 note=46 velocity=110 time=1195\n",
      "note_off channel=1 note=46 velocity=0 time=853\n",
      "note_on channel=1 note=43 velocity=110 time=171\n",
      "note_off channel=1 note=43 velocity=0 time=853\n",
      "note_on channel=1 note=41 velocity=110 time=171\n",
      "note_off channel=1 note=41 velocity=0 time=853\n",
      "note_on channel=1 note=39 velocity=110 time=1195\n",
      "note_off channel=1 note=39 velocity=0 time=853\n",
      "note_on channel=1 note=43 velocity=110 time=171\n",
      "note_off channel=1 note=43 velocity=0 time=853\n",
      "note_on channel=1 note=48 velocity=110 time=171\n",
      "note_off channel=1 note=48 velocity=0 time=853\n",
      "note_on channel=1 note=46 velocity=110 time=1195\n",
      "note_off channel=1 note=46 velocity=0 time=853\n",
      "note_on channel=1 note=43 velocity=110 time=171\n",
      "note_off channel=1 note=43 velocity=0 time=853\n",
      "note_on channel=1 note=41 velocity=110 time=171\n",
      "note_off channel=1 note=41 velocity=0 time=853\n",
      "note_on channel=1 note=39 velocity=110 time=1195\n",
      "note_off channel=1 note=39 velocity=0 time=853\n",
      "note_on channel=1 note=43 velocity=110 time=171\n",
      "note_off channel=1 note=43 velocity=0 time=853\n",
      "note_on channel=1 note=48 velocity=110 time=171\n",
      "note_off channel=1 note=48 velocity=0 time=853\n",
      "note_on channel=1 note=46 velocity=110 time=1195\n",
      "note_off channel=1 note=46 velocity=0 time=853\n",
      "note_on channel=1 note=43 velocity=110 time=171\n",
      "note_off channel=1 note=43 velocity=0 time=853\n",
      "note_on channel=1 note=48 velocity=110 time=171\n",
      "note_off channel=1 note=48 velocity=0 time=853\n",
      "note_on channel=1 note=46 velocity=110 time=1195\n",
      "note_off channel=1 note=46 velocity=0 time=853\n",
      "note_on channel=1 note=43 velocity=110 time=171\n",
      "note_off channel=1 note=43 velocity=0 time=853\n",
      "note_on channel=1 note=41 velocity=110 time=171\n",
      "note_off channel=1 note=41 velocity=0 time=853\n",
      "note_on channel=1 note=39 velocity=110 time=1195\n",
      "note_off channel=1 note=39 velocity=0 time=853\n",
      "note_on channel=1 note=43 velocity=110 time=171\n",
      "note_off channel=1 note=43 velocity=0 time=853\n",
      "note_on channel=1 note=48 velocity=110 time=171\n",
      "note_off channel=1 note=48 velocity=0 time=853\n",
      "note_on channel=1 note=46 velocity=110 time=1195\n",
      "note_off channel=1 note=46 velocity=0 time=853\n",
      "note_on channel=1 note=43 velocity=110 time=171\n",
      "note_off channel=1 note=43 velocity=0 time=853\n",
      "note_on channel=1 note=48 velocity=110 time=171\n",
      "note_off channel=1 note=48 velocity=0 time=853\n",
      "note_on channel=1 note=46 velocity=110 time=1195\n",
      "note_off channel=1 note=46 velocity=0 time=853\n",
      "note_on channel=1 note=43 velocity=110 time=171\n",
      "note_off channel=1 note=43 velocity=0 time=853\n",
      "note_on channel=1 note=48 velocity=110 time=171\n",
      "note_off channel=1 note=48 velocity=0 time=853\n",
      "note_on channel=1 note=46 velocity=110 time=1195\n",
      "note_off channel=1 note=46 velocity=0 time=853\n",
      "note_on channel=1 note=43 velocity=110 time=171\n",
      "note_off channel=1 note=43 velocity=0 time=853\n",
      "note_on channel=1 note=48 velocity=110 time=171\n",
      "note_off channel=1 note=48 velocity=0 time=853\n",
      "note_on channel=1 note=46 velocity=110 time=1195\n",
      "note_off channel=1 note=46 velocity=0 time=853\n",
      "note_on channel=1 note=43 velocity=110 time=171\n",
      "note_off channel=1 note=43 velocity=0 time=853\n",
      "note_on channel=1 note=48 velocity=110 time=171\n",
      "note_off channel=1 note=48 velocity=0 time=853\n",
      "note_on channel=1 note=46 velocity=110 time=1195\n",
      "note_off channel=1 note=46 velocity=0 time=853\n",
      "note_on channel=1 note=43 velocity=110 time=171\n",
      "note_off channel=1 note=43 velocity=0 time=853\n",
      "note_on channel=1 note=48 velocity=110 time=171\n",
      "note_off channel=1 note=48 velocity=0 time=853\n",
      "note_on channel=1 note=46 velocity=110 time=1195\n",
      "note_off channel=1 note=46 velocity=0 time=853\n",
      "note_on channel=1 note=43 velocity=110 time=171\n",
      "note_off channel=1 note=43 velocity=0 time=853\n",
      "note_on channel=1 note=41 velocity=110 time=171\n",
      "note_off channel=1 note=41 velocity=0 time=853\n",
      "note_on channel=1 note=39 velocity=110 time=1195\n",
      "note_off channel=1 note=39 velocity=0 time=853\n",
      "note_on channel=1 note=43 velocity=110 time=171\n",
      "note_off channel=1 note=43 velocity=0 time=853\n",
      "note_on channel=1 note=48 velocity=110 time=171\n",
      "note_off channel=1 note=48 velocity=0 time=853\n",
      "note_on channel=1 note=46 velocity=110 time=1195\n",
      "note_off channel=1 note=46 velocity=0 time=853\n",
      "note_on channel=1 note=43 velocity=110 time=171\n",
      "note_off channel=1 note=43 velocity=0 time=853\n",
      "note_on channel=1 note=41 velocity=110 time=171\n",
      "note_off channel=1 note=41 velocity=0 time=853\n",
      "note_on channel=1 note=39 velocity=110 time=1195\n",
      "note_off channel=1 note=39 velocity=0 time=853\n",
      "note_on channel=1 note=43 velocity=110 time=171\n",
      "note_off channel=1 note=43 velocity=0 time=853\n",
      "note_on channel=1 note=48 velocity=110 time=171\n",
      "note_off channel=1 note=48 velocity=0 time=853\n",
      "note_on channel=1 note=46 velocity=110 time=1195\n",
      "note_off channel=1 note=46 velocity=0 time=853\n",
      "note_on channel=1 note=43 velocity=110 time=171\n",
      "note_off channel=1 note=43 velocity=0 time=853\n",
      "note_on channel=1 note=48 velocity=110 time=171\n",
      "note_off channel=1 note=48 velocity=0 time=853\n",
      "note_on channel=1 note=46 velocity=110 time=1195\n",
      "note_off channel=1 note=46 velocity=0 time=853\n",
      "note_on channel=1 note=43 velocity=110 time=171\n",
      "note_off channel=1 note=43 velocity=0 time=853\n",
      "note_on channel=1 note=41 velocity=110 time=171\n",
      "note_off channel=1 note=41 velocity=0 time=853\n",
      "note_on channel=1 note=39 velocity=110 time=1195\n",
      "note_off channel=1 note=39 velocity=0 time=853\n",
      "note_on channel=1 note=43 velocity=110 time=171\n",
      "note_off channel=1 note=43 velocity=0 time=853\n",
      "note_on channel=1 note=48 velocity=110 time=171\n",
      "note_off channel=1 note=48 velocity=0 time=853\n",
      "note_on channel=1 note=46 velocity=110 time=1195\n",
      "note_off channel=1 note=46 velocity=0 time=853\n",
      "note_on channel=1 note=43 velocity=110 time=171\n",
      "note_off channel=1 note=43 velocity=0 time=853\n",
      "note_on channel=1 note=48 velocity=110 time=171\n",
      "note_off channel=1 note=48 velocity=0 time=853\n",
      "note_on channel=1 note=46 velocity=110 time=1195\n",
      "note_off channel=1 note=46 velocity=0 time=853\n",
      "note_on channel=1 note=43 velocity=110 time=171\n",
      "note_off channel=1 note=43 velocity=0 time=853\n",
      "note_on channel=1 note=52 velocity=110 time=171\n",
      "note_on channel=1 note=60 velocity=110 time=0\n",
      "note_off channel=1 note=52 velocity=0 time=853\n",
      "note_off channel=1 note=60 velocity=0 time=0\n",
      "note_on channel=1 note=53 velocity=110 time=683\n",
      "note_on channel=1 note=60 velocity=110 time=0\n",
      "note_off channel=1 note=53 velocity=0 time=501\n",
      "note_off channel=1 note=60 velocity=0 time=0\n",
      "note_on channel=1 note=52 velocity=110 time=523\n",
      "note_on channel=1 note=60 velocity=110 time=0\n",
      "note_off channel=1 note=52 velocity=0 time=501\n",
      "note_off channel=1 note=60 velocity=0 time=0\n",
      "note_on channel=1 note=51 velocity=110 time=523\n",
      "note_on channel=1 note=55 velocity=110 time=0\n",
      "note_off channel=1 note=51 velocity=0 time=501\n",
      "note_off channel=1 note=55 velocity=0 time=0\n",
      "note_on channel=1 note=52 velocity=110 time=11\n",
      "note_on channel=1 note=60 velocity=110 time=0\n",
      "note_off channel=1 note=52 velocity=0 time=501\n",
      "note_off channel=1 note=60 velocity=0 time=0\n",
      "note_on channel=1 note=55 velocity=110 time=11\n",
      "note_on channel=1 note=60 velocity=110 time=0\n",
      "note_off channel=1 note=55 velocity=0 time=501\n",
      "note_off channel=1 note=60 velocity=0 time=0\n",
      "note_on channel=1 note=60 velocity=110 time=11\n",
      "note_off channel=1 note=60 velocity=0 time=853\n",
      "note_on channel=1 note=50 velocity=110 time=2219\n",
      "note_on channel=1 note=59 velocity=110 time=0\n",
      "note_off channel=1 note=50 velocity=0 time=853\n",
      "note_off channel=1 note=59 velocity=0 time=0\n",
      "note_on channel=1 note=52 velocity=110 time=683\n",
      "note_on channel=1 note=59 velocity=110 time=0\n",
      "note_off channel=1 note=52 velocity=0 time=501\n",
      "note_off channel=1 note=59 velocity=0 time=0\n",
      "note_on channel=1 note=50 velocity=110 time=523\n",
      "note_on channel=1 note=59 velocity=110 time=0\n",
      "note_off channel=1 note=50 velocity=0 time=501\n",
      "note_off channel=1 note=59 velocity=0 time=0\n",
      "note_on channel=1 note=49 velocity=110 time=523\n",
      "note_on channel=1 note=55 velocity=110 time=0\n",
      "note_off channel=1 note=49 velocity=0 time=501\n",
      "note_off channel=1 note=55 velocity=0 time=0\n",
      "note_on channel=1 note=50 velocity=110 time=11\n",
      "note_on channel=1 note=59 velocity=110 time=0\n",
      "note_off channel=1 note=50 velocity=0 time=501\n",
      "note_off channel=1 note=59 velocity=0 time=0\n",
      "note_on channel=1 note=55 velocity=110 time=11\n",
      "note_on channel=1 note=59 velocity=110 time=0\n",
      "note_off channel=1 note=55 velocity=0 time=501\n",
      "note_off channel=1 note=59 velocity=0 time=0\n",
      "note_on channel=1 note=59 velocity=110 time=11\n",
      "note_off channel=1 note=59 velocity=0 time=853\n",
      "note_on channel=1 note=48 velocity=110 time=2219\n",
      "note_on channel=1 note=57 velocity=110 time=0\n",
      "note_off channel=1 note=48 velocity=0 time=853\n",
      "note_off channel=1 note=57 velocity=0 time=0\n",
      "note_on channel=1 note=50 velocity=110 time=683\n",
      "note_on channel=1 note=57 velocity=110 time=0\n",
      "note_off channel=1 note=50 velocity=0 time=501\n",
      "note_off channel=1 note=57 velocity=0 time=0\n",
      "note_on channel=1 note=48 velocity=110 time=523\n",
      "note_on channel=1 note=57 velocity=110 time=0\n",
      "note_off channel=1 note=48 velocity=0 time=501\n",
      "note_off channel=1 note=57 velocity=0 time=0\n",
      "note_on channel=1 note=47 velocity=110 time=523\n",
      "note_on channel=1 note=52 velocity=110 time=0\n",
      "note_off channel=1 note=47 velocity=0 time=501\n",
      "note_off channel=1 note=52 velocity=0 time=0\n",
      "note_on channel=1 note=48 velocity=110 time=11\n",
      "note_on channel=1 note=57 velocity=110 time=0\n",
      "note_off channel=1 note=48 velocity=0 time=501\n",
      "note_off channel=1 note=57 velocity=0 time=0\n",
      "note_on channel=1 note=52 velocity=110 time=11\n",
      "note_on channel=1 note=57 velocity=110 time=0\n",
      "note_off channel=1 note=52 velocity=0 time=501\n",
      "note_off channel=1 note=57 velocity=0 time=0\n",
      "note_on channel=1 note=57 velocity=110 time=11\n",
      "note_off channel=1 note=57 velocity=0 time=853\n",
      "note_on channel=1 note=48 velocity=110 time=683\n",
      "note_on channel=1 note=57 velocity=110 time=0\n",
      "note_off channel=1 note=48 velocity=0 time=501\n",
      "note_off channel=1 note=57 velocity=0 time=0\n",
      "note_on channel=1 note=50 velocity=110 time=11\n",
      "note_on channel=1 note=59 velocity=110 time=0\n",
      "note_off channel=1 note=50 velocity=0 time=501\n",
      "note_off channel=1 note=59 velocity=0 time=0\n",
      "note_on channel=1 note=52 velocity=110 time=11\n",
      "note_on channel=1 note=60 velocity=110 time=0\n",
      "note_off channel=1 note=52 velocity=0 time=501\n",
      "note_off channel=1 note=60 velocity=0 time=0\n",
      "note_on channel=1 note=54 velocity=110 time=11\n",
      "note_on channel=1 note=62 velocity=110 time=0\n",
      "note_off channel=1 note=54 velocity=0 time=501\n",
      "note_off channel=1 note=62 velocity=0 time=0\n",
      "note_on channel=1 note=54 velocity=110 time=11\n",
      "note_on channel=1 note=60 velocity=110 time=0\n",
      "note_off channel=1 note=54 velocity=0 time=501\n",
      "note_off channel=1 note=60 velocity=0 time=0\n",
      "note_on channel=1 note=54 velocity=110 time=11\n",
      "note_on channel=1 note=62 velocity=110 time=0\n",
      "note_off channel=1 note=54 velocity=0 time=501\n",
      "note_off channel=1 note=62 velocity=0 time=0\n",
      "note_on channel=1 note=54 velocity=110 time=11\n",
      "note_on channel=1 note=60 velocity=110 time=0\n",
      "note_off channel=1 note=54 velocity=0 time=1013\n",
      "note_off channel=1 note=60 velocity=0 time=0\n",
      "note_on channel=1 note=50 velocity=110 time=11\n",
      "note_on channel=1 note=57 velocity=110 time=0\n",
      "note_off channel=1 note=50 velocity=0 time=501\n",
      "note_off channel=1 note=57 velocity=0 time=0\n",
      "note_on channel=1 note=48 velocity=110 time=11\n",
      "note_on channel=1 note=54 velocity=110 time=0\n",
      "note_off channel=1 note=48 velocity=0 time=501\n",
      "note_off channel=1 note=54 velocity=0 time=0\n",
      "note_on channel=1 note=45 velocity=110 time=11\n",
      "note_on channel=1 note=50 velocity=110 time=0\n",
      "note_off channel=1 note=45 velocity=0 time=501\n",
      "note_off channel=1 note=50 velocity=0 time=0\n",
      "note_on channel=1 note=45 velocity=110 time=11\n",
      "note_on channel=1 note=50 velocity=110 time=0\n",
      "note_off channel=1 note=45 velocity=0 time=501\n",
      "note_off channel=1 note=50 velocity=0 time=0\n",
      "note_on channel=1 note=47 velocity=110 time=11\n",
      "note_on channel=1 note=52 velocity=110 time=0\n",
      "note_off channel=1 note=47 velocity=0 time=501\n",
      "note_off channel=1 note=52 velocity=0 time=0\n",
      "note_on channel=1 note=49 velocity=110 time=11\n",
      "note_on channel=1 note=53 velocity=110 time=0\n",
      "note_off channel=1 note=49 velocity=0 time=501\n",
      "note_off channel=1 note=53 velocity=0 time=0\n",
      "note_on channel=1 note=50 velocity=110 time=11\n",
      "note_on channel=1 note=54 velocity=110 time=0\n",
      "note_off channel=1 note=50 velocity=0 time=2304\n",
      "note_off channel=1 note=54 velocity=0 time=0\n",
      "note_on channel=1 note=57 velocity=110 time=1280\n",
      "note_off channel=1 note=57 velocity=0 time=853\n",
      "note_on channel=1 note=57 velocity=110 time=1195\n",
      "note_off channel=1 note=57 velocity=0 time=853\n",
      "note_on channel=1 note=57 velocity=110 time=1195\n",
      "note_off channel=1 note=57 velocity=0 time=853\n",
      "note_on channel=1 note=59 velocity=110 time=171\n",
      "note_off channel=1 note=59 velocity=0 time=501\n",
      "note_on channel=1 note=59 velocity=110 time=11\n",
      "note_off channel=1 note=59 velocity=0 time=501\n",
      "note_on channel=1 note=60 velocity=110 time=11\n",
      "note_off channel=1 note=60 velocity=0 time=501\n",
      "note_on channel=1 note=60 velocity=110 time=11\n",
      "note_off channel=1 note=60 velocity=0 time=501\n",
      "note_on channel=1 note=57 velocity=110 time=11\n",
      "note_off channel=1 note=57 velocity=0 time=501\n",
      "note_on channel=1 note=50 velocity=110 time=11\n",
      "note_on channel=1 note=54 velocity=110 time=0\n",
      "note_on channel=1 note=57 velocity=110 time=0\n",
      "note_off channel=1 note=50 velocity=0 time=501\n",
      "note_off channel=1 note=54 velocity=0 time=0\n",
      "note_off channel=1 note=57 velocity=0 time=0\n",
      "note_on channel=1 note=50 velocity=110 time=11\n",
      "note_off channel=1 note=50 velocity=0 time=501\n",
      "note_on channel=1 note=50 velocity=110 time=11\n",
      "note_on channel=1 note=54 velocity=110 time=0\n",
      "note_on channel=1 note=57 velocity=110 time=0\n",
      "note_off channel=1 note=50 velocity=0 time=501\n",
      "note_off channel=1 note=54 velocity=0 time=0\n",
      "note_off channel=1 note=57 velocity=0 time=0\n",
      "note_on channel=1 note=50 velocity=110 time=11\n",
      "note_on channel=1 note=54 velocity=110 time=0\n",
      "note_on channel=1 note=57 velocity=110 time=0\n",
      "note_off channel=1 note=50 velocity=0 time=853\n",
      "note_off channel=1 note=54 velocity=0 time=0\n",
      "note_off channel=1 note=57 velocity=0 time=0\n",
      "note_on channel=1 note=50 velocity=110 time=171\n",
      "note_off channel=1 note=50 velocity=0 time=501\n",
      "note_on channel=1 note=57 velocity=110 time=11\n",
      "note_off channel=1 note=57 velocity=0 time=501\n",
      "note_on channel=1 note=57 velocity=110 time=11\n",
      "note_off channel=1 note=57 velocity=0 time=501\n",
      "note_on channel=1 note=50 velocity=110 time=11\n",
      "note_on channel=1 note=54 velocity=110 time=0\n",
      "note_on channel=1 note=57 velocity=110 time=0\n",
      "note_off channel=1 note=50 velocity=0 time=501\n",
      "note_off channel=1 note=54 velocity=0 time=0\n",
      "note_off channel=1 note=57 velocity=0 time=0\n",
      "note_on channel=1 note=50 velocity=110 time=11\n",
      "note_off channel=1 note=50 velocity=0 time=501\n",
      "note_on channel=1 note=50 velocity=110 time=11\n",
      "note_on channel=1 note=54 velocity=110 time=0\n",
      "note_on channel=1 note=57 velocity=110 time=0\n",
      "note_off channel=1 note=50 velocity=0 time=501\n",
      "note_off channel=1 note=54 velocity=0 time=0\n",
      "note_off channel=1 note=57 velocity=0 time=0\n",
      "note_on channel=1 note=50 velocity=110 time=11\n",
      "note_on channel=1 note=54 velocity=110 time=0\n",
      "note_on channel=1 note=57 velocity=110 time=0\n",
      "note_off channel=1 note=50 velocity=0 time=853\n",
      "note_off channel=1 note=54 velocity=0 time=0\n",
      "note_off channel=1 note=57 velocity=0 time=0\n",
      "note_on channel=1 note=50 velocity=110 time=171\n",
      "note_on channel=1 note=54 velocity=110 time=0\n",
      "note_on channel=1 note=57 velocity=110 time=0\n",
      "note_off channel=1 note=50 velocity=0 time=501\n",
      "note_off channel=1 note=54 velocity=0 time=0\n",
      "note_off channel=1 note=57 velocity=0 time=0\n",
      "note_on channel=1 note=48 velocity=110 time=11\n",
      "note_off channel=1 note=48 velocity=0 time=501\n",
      "note_on channel=1 note=43 velocity=110 time=11\n",
      "note_off channel=1 note=43 velocity=0 time=501\n",
      "note_on channel=1 note=50 velocity=110 time=11\n",
      "note_on channel=1 note=55 velocity=110 time=0\n",
      "note_on channel=1 note=59 velocity=110 time=0\n",
      "note_off channel=1 note=50 velocity=0 time=501\n",
      "note_off channel=1 note=55 velocity=0 time=0\n",
      "note_off channel=1 note=59 velocity=0 time=0\n",
      "note_on channel=1 note=38 velocity=110 time=11\n",
      "note_off channel=1 note=38 velocity=0 time=245\n",
      "note_on channel=1 note=50 velocity=110 time=11\n",
      "note_on channel=1 note=55 velocity=110 time=0\n",
      "note_on channel=1 note=59 velocity=110 time=0\n",
      "note_off channel=1 note=50 velocity=0 time=757\n",
      "note_off channel=1 note=55 velocity=0 time=0\n",
      "note_off channel=1 note=59 velocity=0 time=0\n",
      "note_on channel=1 note=43 velocity=110 time=11\n",
      "note_on channel=1 note=50 velocity=110 time=0\n",
      "note_on channel=1 note=55 velocity=110 time=0\n",
      "note_on channel=1 note=59 velocity=110 time=0\n",
      "note_off channel=1 note=43 velocity=0 time=757\n",
      "note_off channel=1 note=50 velocity=0 time=0\n",
      "note_off channel=1 note=55 velocity=0 time=0\n",
      "note_off channel=1 note=59 velocity=0 time=0\n",
      "note_on channel=1 note=50 velocity=110 time=11\n",
      "note_on channel=1 note=55 velocity=110 time=0\n",
      "note_on channel=1 note=59 velocity=110 time=0\n",
      "note_off channel=1 note=50 velocity=0 time=245\n",
      "note_off channel=1 note=55 velocity=0 time=0\n",
      "note_off channel=1 note=59 velocity=0 time=0\n",
      "note_on channel=1 note=38 velocity=110 time=11\n",
      "note_off channel=1 note=38 velocity=0 time=501\n",
      "note_on channel=1 note=50 velocity=110 time=11\n",
      "note_on channel=1 note=55 velocity=110 time=0\n",
      "note_on channel=1 note=59 velocity=110 time=0\n",
      "note_off channel=1 note=50 velocity=0 time=501\n",
      "note_off channel=1 note=55 velocity=0 time=0\n",
      "note_off channel=1 note=59 velocity=0 time=0\n",
      "note_on channel=1 note=44 velocity=110 time=11\n",
      "note_off channel=1 note=44 velocity=0 time=501\n",
      "note_on channel=1 note=52 velocity=110 time=11\n",
      "note_on channel=1 note=56 velocity=110 time=0\n",
      "note_on channel=1 note=59 velocity=110 time=0\n",
      "note_off channel=1 note=52 velocity=0 time=501\n",
      "note_off channel=1 note=56 velocity=0 time=0\n",
      "note_off channel=1 note=59 velocity=0 time=0\n",
      "note_on channel=1 note=38 velocity=110 time=11\n",
      "note_off channel=1 note=38 velocity=0 time=501\n",
      "note_on channel=1 note=52 velocity=110 time=11\n",
      "note_on channel=1 note=56 velocity=110 time=0\n",
      "note_on channel=1 note=59 velocity=110 time=0\n",
      "note_off channel=1 note=52 velocity=0 time=501\n",
      "note_off channel=1 note=56 velocity=0 time=0\n",
      "note_off channel=1 note=59 velocity=0 time=0\n",
      "note_on channel=1 note=44 velocity=110 time=11\n",
      "note_on channel=1 note=52 velocity=110 time=0\n",
      "note_on channel=1 note=56 velocity=110 time=0\n",
      "note_on channel=1 note=59 velocity=110 time=0\n",
      "note_off channel=1 note=44 velocity=0 time=853\n",
      "note_off channel=1 note=52 velocity=0 time=0\n",
      "note_off channel=1 note=56 velocity=0 time=0\n",
      "note_off channel=1 note=59 velocity=0 time=0\n",
      "note_on channel=1 note=38 velocity=110 time=171\n",
      "note_on channel=1 note=52 velocity=110 time=0\n",
      "note_on channel=1 note=56 velocity=110 time=0\n",
      "note_on channel=1 note=59 velocity=110 time=0\n",
      "note_off channel=1 note=38 velocity=0 time=853\n",
      "note_off channel=1 note=52 velocity=0 time=0\n",
      "note_off channel=1 note=56 velocity=0 time=0\n",
      "note_off channel=1 note=59 velocity=0 time=0\n",
      "note_on channel=1 note=45 velocity=110 time=171\n",
      "note_off channel=1 note=45 velocity=0 time=501\n",
      "note_on channel=1 note=50 velocity=110 time=11\n",
      "note_on channel=1 note=54 velocity=110 time=0\n",
      "note_on channel=1 note=57 velocity=110 time=0\n",
      "note_off channel=1 note=50 velocity=0 time=501\n",
      "note_off channel=1 note=54 velocity=0 time=0\n",
      "note_off channel=1 note=57 velocity=0 time=0\n",
      "note_on channel=1 note=38 velocity=110 time=11\n",
      "note_off channel=1 note=38 velocity=0 time=501\n",
      "note_on channel=1 note=50 velocity=110 time=11\n",
      "note_on channel=1 note=54 velocity=110 time=0\n",
      "note_on channel=1 note=57 velocity=110 time=0\n",
      "note_off channel=1 note=50 velocity=0 time=501\n",
      "note_off channel=1 note=54 velocity=0 time=0\n",
      "note_off channel=1 note=57 velocity=0 time=0\n",
      "note_on channel=1 note=45 velocity=110 time=11\n",
      "note_off channel=1 note=45 velocity=0 time=501\n",
      "note_on channel=1 note=50 velocity=110 time=11\n",
      "note_on channel=1 note=54 velocity=110 time=0\n",
      "note_on channel=1 note=57 velocity=110 time=0\n",
      "note_off channel=1 note=50 velocity=0 time=501\n",
      "note_off channel=1 note=54 velocity=0 time=0\n",
      "note_off channel=1 note=57 velocity=0 time=0\n",
      "note_on channel=1 note=45 velocity=110 time=11\n",
      "note_off channel=1 note=45 velocity=0 time=501\n",
      "note_on channel=1 note=50 velocity=110 time=11\n",
      "note_on channel=1 note=54 velocity=110 time=0\n",
      "note_on channel=1 note=57 velocity=110 time=0\n",
      "note_off channel=1 note=50 velocity=0 time=501\n",
      "note_off channel=1 note=54 velocity=0 time=0\n",
      "note_off channel=1 note=57 velocity=0 time=0\n",
      "note_on channel=1 note=45 velocity=110 time=11\n",
      "note_off channel=1 note=45 velocity=0 time=501\n",
      "note_on channel=1 note=50 velocity=110 time=11\n",
      "note_on channel=1 note=54 velocity=110 time=0\n",
      "note_on channel=1 note=57 velocity=110 time=0\n",
      "note_off channel=1 note=50 velocity=0 time=501\n",
      "note_off channel=1 note=54 velocity=0 time=0\n",
      "note_off channel=1 note=57 velocity=0 time=0\n",
      "note_on channel=1 note=38 velocity=110 time=11\n",
      "note_off channel=1 note=38 velocity=0 time=501\n",
      "note_on channel=1 note=50 velocity=110 time=11\n",
      "note_on channel=1 note=54 velocity=110 time=0\n",
      "note_on channel=1 note=57 velocity=110 time=0\n",
      "note_off channel=1 note=50 velocity=0 time=501\n",
      "note_off channel=1 note=54 velocity=0 time=0\n",
      "note_off channel=1 note=57 velocity=0 time=0\n",
      "note_on channel=1 note=45 velocity=110 time=11\n",
      "note_off channel=1 note=45 velocity=0 time=501\n",
      "note_on channel=1 note=50 velocity=110 time=11\n",
      "note_on channel=1 note=54 velocity=110 time=0\n",
      "note_on channel=1 note=57 velocity=110 time=0\n",
      "note_off channel=1 note=50 velocity=0 time=501\n",
      "note_off channel=1 note=54 velocity=0 time=0\n",
      "note_off channel=1 note=57 velocity=0 time=0\n",
      "note_on channel=1 note=45 velocity=110 time=11\n",
      "note_off channel=1 note=45 velocity=0 time=501\n",
      "note_on channel=1 note=50 velocity=110 time=11\n",
      "note_on channel=1 note=54 velocity=110 time=0\n",
      "note_on channel=1 note=57 velocity=110 time=0\n",
      "note_off channel=1 note=50 velocity=0 time=501\n",
      "note_off channel=1 note=54 velocity=0 time=0\n",
      "note_off channel=1 note=57 velocity=0 time=0\n",
      "note_on channel=1 note=45 velocity=110 time=11\n",
      "note_off channel=1 note=45 velocity=0 time=501\n",
      "note_on channel=1 note=50 velocity=110 time=11\n",
      "note_on channel=1 note=54 velocity=110 time=0\n",
      "note_on channel=1 note=57 velocity=110 time=0\n",
      "note_off channel=1 note=50 velocity=0 time=501\n",
      "note_off channel=1 note=54 velocity=0 time=0\n",
      "note_off channel=1 note=57 velocity=0 time=0\n",
      "note_on channel=1 note=38 velocity=110 time=11\n",
      "note_off channel=1 note=38 velocity=0 time=501\n",
      "note_on channel=1 note=50 velocity=110 time=11\n",
      "note_on channel=1 note=54 velocity=110 time=0\n",
      "note_on channel=1 note=57 velocity=110 time=0\n",
      "note_off channel=1 note=50 velocity=0 time=501\n",
      "note_off channel=1 note=54 velocity=0 time=0\n",
      "note_off channel=1 note=57 velocity=0 time=0\n",
      "note_on channel=1 note=45 velocity=110 time=11\n",
      "note_off channel=1 note=45 velocity=0 time=501\n",
      "note_on channel=1 note=50 velocity=110 time=11\n",
      "note_on channel=1 note=54 velocity=110 time=0\n",
      "note_on channel=1 note=57 velocity=110 time=0\n",
      "note_off channel=1 note=50 velocity=0 time=501\n",
      "note_off channel=1 note=54 velocity=0 time=0\n",
      "note_off channel=1 note=57 velocity=0 time=0\n",
      "note_on channel=1 note=45 velocity=110 time=11\n",
      "note_off channel=1 note=45 velocity=0 time=501\n",
      "note_on channel=1 note=50 velocity=110 time=11\n",
      "note_on channel=1 note=54 velocity=110 time=0\n",
      "note_on channel=1 note=57 velocity=110 time=0\n",
      "note_off channel=1 note=50 velocity=0 time=501\n",
      "note_off channel=1 note=54 velocity=0 time=0\n",
      "note_off channel=1 note=57 velocity=0 time=0\n",
      "note_on channel=1 note=52 velocity=110 time=11\n",
      "note_off channel=1 note=52 velocity=0 time=501\n",
      "note_on channel=1 note=49 velocity=110 time=11\n",
      "note_on channel=1 note=52 velocity=110 time=0\n",
      "note_on channel=1 note=57 velocity=110 time=0\n",
      "note_off channel=1 note=49 velocity=0 time=501\n",
      "note_off channel=1 note=52 velocity=0 time=0\n",
      "note_off channel=1 note=57 velocity=0 time=0\n",
      "note_on channel=1 note=45 velocity=110 time=11\n",
      "note_off channel=1 note=45 velocity=0 time=501\n",
      "note_on channel=1 note=49 velocity=110 time=11\n",
      "note_on channel=1 note=52 velocity=110 time=0\n",
      "note_on channel=1 note=57 velocity=110 time=0\n",
      "note_off channel=1 note=49 velocity=0 time=501\n",
      "note_off channel=1 note=52 velocity=0 time=0\n",
      "note_off channel=1 note=57 velocity=0 time=0\n",
      "note_on channel=1 note=49 velocity=110 time=11\n",
      "note_on channel=1 note=52 velocity=110 time=0\n",
      "note_on channel=1 note=57 velocity=110 time=0\n",
      "note_off channel=1 note=49 velocity=0 time=853\n",
      "note_off channel=1 note=52 velocity=0 time=0\n",
      "note_off channel=1 note=57 velocity=0 time=0\n",
      "note_on channel=1 note=49 velocity=110 time=171\n",
      "note_on channel=1 note=52 velocity=110 time=0\n",
      "note_on channel=1 note=57 velocity=110 time=0\n",
      "note_off channel=1 note=49 velocity=0 time=501\n",
      "note_off channel=1 note=52 velocity=0 time=0\n",
      "note_off channel=1 note=57 velocity=0 time=0\n",
      "note_on channel=1 note=49 velocity=110 time=11\n",
      "note_on channel=1 note=52 velocity=110 time=0\n",
      "note_on channel=1 note=57 velocity=110 time=0\n",
      "note_off channel=1 note=49 velocity=0 time=501\n",
      "note_off channel=1 note=52 velocity=0 time=0\n",
      "note_off channel=1 note=57 velocity=0 time=0\n",
      "note_on channel=1 note=54 velocity=110 time=11\n",
      "note_on channel=1 note=57 velocity=110 time=0\n",
      "note_off channel=1 note=54 velocity=0 time=245\n",
      "note_off channel=1 note=57 velocity=0 time=0\n",
      "note_on channel=1 note=50 velocity=110 time=11\n",
      "note_off channel=1 note=50 velocity=0 time=245\n",
      "note_on channel=1 note=54 velocity=110 time=11\n",
      "note_off channel=1 note=54 velocity=0 time=245\n",
      "note_on channel=1 note=50 velocity=110 time=11\n",
      "note_off channel=1 note=50 velocity=0 time=245\n",
      "note_on channel=1 note=50 velocity=110 time=11\n",
      "note_on channel=1 note=57 velocity=110 time=0\n",
      "note_off channel=1 note=50 velocity=0 time=501\n",
      "note_off channel=1 note=57 velocity=0 time=0\n",
      "note_on channel=1 note=50 velocity=110 time=11\n",
      "note_on channel=1 note=54 velocity=110 time=0\n",
      "note_on channel=1 note=57 velocity=110 time=0\n",
      "note_off channel=1 note=50 velocity=0 time=501\n",
      "note_off channel=1 note=54 velocity=0 time=0\n",
      "note_off channel=1 note=57 velocity=0 time=0\n",
      "note_on channel=1 note=57 velocity=110 time=11\n",
      "note_off channel=1 note=57 velocity=0 time=501\n",
      "note_on channel=1 note=50 velocity=110 time=11\n",
      "note_on channel=1 note=54 velocity=110 time=0\n",
      "note_on channel=1 note=57 velocity=110 time=0\n",
      "note_off channel=1 note=50 velocity=0 time=501\n",
      "note_off channel=1 note=54 velocity=0 time=0\n",
      "note_off channel=1 note=57 velocity=0 time=0\n",
      "note_on channel=1 note=50 velocity=110 time=11\n",
      "note_off channel=1 note=50 velocity=0 time=501\n",
      "note_on channel=1 note=50 velocity=110 time=11\n",
      "note_on channel=1 note=54 velocity=110 time=0\n",
      "note_on channel=1 note=57 velocity=110 time=0\n",
      "note_off channel=1 note=50 velocity=0 time=501\n",
      "note_off channel=1 note=54 velocity=0 time=0\n",
      "note_off channel=1 note=57 velocity=0 time=0\n",
      "note_on channel=1 note=54 velocity=110 time=11\n",
      "note_on channel=1 note=57 velocity=110 time=0\n",
      "note_off channel=1 note=54 velocity=0 time=245\n",
      "note_off channel=1 note=57 velocity=0 time=0\n",
      "note_on channel=1 note=50 velocity=110 time=11\n",
      "note_off channel=1 note=50 velocity=0 time=245\n",
      "note_on channel=1 note=54 velocity=110 time=11\n",
      "note_off channel=1 note=54 velocity=0 time=245\n",
      "note_on channel=1 note=50 velocity=110 time=11\n",
      "note_off channel=1 note=50 velocity=0 time=245\n",
      "note_on channel=1 note=50 velocity=110 time=11\n",
      "note_on channel=1 note=57 velocity=110 time=0\n",
      "note_off channel=1 note=50 velocity=0 time=501\n",
      "note_off channel=1 note=57 velocity=0 time=0\n",
      "note_on channel=1 note=50 velocity=110 time=11\n",
      "note_on channel=1 note=54 velocity=110 time=0\n",
      "note_on channel=1 note=57 velocity=110 time=0\n",
      "note_off channel=1 note=50 velocity=0 time=501\n",
      "note_off channel=1 note=54 velocity=0 time=0\n",
      "note_off channel=1 note=57 velocity=0 time=0\n",
      "note_on channel=1 note=57 velocity=110 time=11\n",
      "note_off channel=1 note=57 velocity=0 time=501\n",
      "note_on channel=1 note=50 velocity=110 time=11\n",
      "note_on channel=1 note=54 velocity=110 time=0\n",
      "note_on channel=1 note=57 velocity=110 time=0\n",
      "note_off channel=1 note=50 velocity=0 time=501\n",
      "note_off channel=1 note=54 velocity=0 time=0\n",
      "note_off channel=1 note=57 velocity=0 time=0\n",
      "note_on channel=1 note=50 velocity=110 time=11\n",
      "note_off channel=1 note=50 velocity=0 time=501\n",
      "note_on channel=1 note=50 velocity=110 time=11\n",
      "note_on channel=1 note=54 velocity=110 time=0\n",
      "note_on channel=1 note=57 velocity=110 time=0\n",
      "note_off channel=1 note=50 velocity=0 time=501\n",
      "note_off channel=1 note=54 velocity=0 time=0\n",
      "note_off channel=1 note=57 velocity=0 time=0\n",
      "note_on channel=1 note=56 velocity=110 time=11\n",
      "note_on channel=1 note=59 velocity=110 time=0\n",
      "note_off channel=1 note=56 velocity=0 time=245\n",
      "note_off channel=1 note=59 velocity=0 time=0\n",
      "note_on channel=1 note=52 velocity=110 time=11\n",
      "note_off channel=1 note=52 velocity=0 time=245\n",
      "note_on channel=1 note=56 velocity=110 time=11\n",
      "note_off channel=1 note=56 velocity=0 time=245\n",
      "note_on channel=1 note=52 velocity=110 time=11\n",
      "note_off channel=1 note=52 velocity=0 time=245\n",
      "note_on channel=1 note=52 velocity=110 time=11\n",
      "note_on channel=1 note=59 velocity=110 time=0\n",
      "note_off channel=1 note=52 velocity=0 time=501\n",
      "note_off channel=1 note=59 velocity=0 time=0\n",
      "note_on channel=1 note=52 velocity=110 time=11\n",
      "note_on channel=1 note=56 velocity=110 time=0\n",
      "note_on channel=1 note=59 velocity=110 time=0\n",
      "note_off channel=1 note=52 velocity=0 time=501\n",
      "note_off channel=1 note=56 velocity=0 time=0\n",
      "note_off channel=1 note=59 velocity=0 time=0\n",
      "note_on channel=1 note=59 velocity=110 time=11\n",
      "note_off channel=1 note=59 velocity=0 time=501\n",
      "note_on channel=1 note=52 velocity=110 time=11\n",
      "note_on channel=1 note=56 velocity=110 time=0\n",
      "note_on channel=1 note=59 velocity=110 time=0\n",
      "note_off channel=1 note=52 velocity=0 time=501\n",
      "note_off channel=1 note=56 velocity=0 time=0\n",
      "note_off channel=1 note=59 velocity=0 time=0\n",
      "note_on channel=1 note=52 velocity=110 time=11\n",
      "note_off channel=1 note=52 velocity=0 time=501\n",
      "note_on channel=1 note=52 velocity=110 time=11\n",
      "note_on channel=1 note=56 velocity=110 time=0\n",
      "note_on channel=1 note=59 velocity=110 time=0\n",
      "note_off channel=1 note=52 velocity=0 time=501\n",
      "note_off channel=1 note=56 velocity=0 time=0\n",
      "note_off channel=1 note=59 velocity=0 time=0\n",
      "note_on channel=1 note=56 velocity=110 time=11\n",
      "note_on channel=1 note=62 velocity=110 time=0\n",
      "note_off channel=1 note=56 velocity=0 time=245\n",
      "note_off channel=1 note=62 velocity=0 time=0\n",
      "note_on channel=1 note=52 velocity=110 time=11\n",
      "note_off channel=1 note=52 velocity=0 time=245\n",
      "note_on channel=1 note=56 velocity=110 time=11\n",
      "note_off channel=1 note=56 velocity=0 time=245\n",
      "note_on channel=1 note=52 velocity=110 time=11\n",
      "note_off channel=1 note=52 velocity=0 time=245\n",
      "note_on channel=1 note=52 velocity=110 time=11\n",
      "note_on channel=1 note=62 velocity=110 time=0\n",
      "note_off channel=1 note=52 velocity=0 time=501\n",
      "note_off channel=1 note=62 velocity=0 time=0\n",
      "note_on channel=1 note=52 velocity=110 time=11\n",
      "note_on channel=1 note=56 velocity=110 time=0\n",
      "note_on channel=1 note=62 velocity=110 time=0\n",
      "note_off channel=1 note=52 velocity=0 time=501\n",
      "note_off channel=1 note=56 velocity=0 time=0\n",
      "note_off channel=1 note=62 velocity=0 time=0\n",
      "note_on channel=1 note=62 velocity=110 time=11\n",
      "note_off channel=1 note=62 velocity=0 time=501\n",
      "note_on channel=1 note=52 velocity=110 time=11\n",
      "note_on channel=1 note=56 velocity=110 time=0\n",
      "note_on channel=1 note=62 velocity=110 time=0\n",
      "note_off channel=1 note=52 velocity=0 time=501\n",
      "note_off channel=1 note=56 velocity=0 time=0\n",
      "note_off channel=1 note=62 velocity=0 time=0\n",
      "note_on channel=1 note=52 velocity=110 time=11\n",
      "note_off channel=1 note=52 velocity=0 time=501\n",
      "note_on channel=1 note=52 velocity=110 time=11\n",
      "note_on channel=1 note=56 velocity=110 time=0\n",
      "note_on channel=1 note=62 velocity=110 time=0\n",
      "note_off channel=1 note=52 velocity=0 time=501\n",
      "note_off channel=1 note=56 velocity=0 time=0\n",
      "note_off channel=1 note=62 velocity=0 time=0\n",
      "note_on channel=1 note=50 velocity=110 time=11\n",
      "note_on channel=1 note=54 velocity=110 time=0\n",
      "note_on channel=1 note=57 velocity=110 time=0\n",
      "note_off channel=1 note=50 velocity=0 time=853\n",
      "note_off channel=1 note=54 velocity=0 time=0\n",
      "note_off channel=1 note=57 velocity=0 time=0\n",
      "note_on channel=1 note=50 velocity=110 time=171\n",
      "note_on channel=1 note=54 velocity=110 time=0\n",
      "note_on channel=1 note=57 velocity=110 time=0\n",
      "note_off channel=1 note=50 velocity=0 time=853\n",
      "note_off channel=1 note=54 velocity=0 time=0\n",
      "note_off channel=1 note=57 velocity=0 time=0\n",
      "note_on channel=1 note=53 velocity=110 time=171\n",
      "note_off channel=1 note=53 velocity=0 time=501\n",
      "note_on channel=1 note=50 velocity=110 time=11\n",
      "note_on channel=1 note=53 velocity=110 time=0\n",
      "note_on channel=1 note=57 velocity=110 time=0\n",
      "note_off channel=1 note=50 velocity=0 time=501\n",
      "note_off channel=1 note=53 velocity=0 time=0\n",
      "note_off channel=1 note=57 velocity=0 time=0\n",
      "note_on channel=1 note=53 velocity=110 time=11\n",
      "note_off channel=1 note=53 velocity=0 time=501\n",
      "note_on channel=1 note=50 velocity=110 time=11\n",
      "note_on channel=1 note=53 velocity=110 time=0\n",
      "note_on channel=1 note=57 velocity=110 time=0\n",
      "note_off channel=1 note=50 velocity=0 time=501\n",
      "note_off channel=1 note=53 velocity=0 time=0\n",
      "note_off channel=1 note=57 velocity=0 time=0\n",
      "note_on channel=1 note=52 velocity=110 time=11\n",
      "note_off channel=1 note=52 velocity=0 time=501\n",
      "note_on channel=1 note=50 velocity=110 time=11\n",
      "note_on channel=1 note=57 velocity=110 time=0\n",
      "note_on channel=1 note=59 velocity=110 time=0\n",
      "note_off channel=1 note=50 velocity=0 time=501\n",
      "note_off channel=1 note=57 velocity=0 time=0\n",
      "note_off channel=1 note=59 velocity=0 time=0\n",
      "note_on channel=1 note=52 velocity=110 time=11\n",
      "note_off channel=1 note=52 velocity=0 time=501\n",
      "note_on channel=1 note=50 velocity=110 time=11\n",
      "note_on channel=1 note=57 velocity=110 time=0\n",
      "note_on channel=1 note=59 velocity=110 time=0\n",
      "note_off channel=1 note=50 velocity=0 time=501\n",
      "note_off channel=1 note=57 velocity=0 time=0\n",
      "note_off channel=1 note=59 velocity=0 time=0\n",
      "note_on channel=1 note=51 velocity=110 time=11\n",
      "note_off channel=1 note=51 velocity=0 time=501\n",
      "note_on channel=1 note=52 velocity=110 time=11\n",
      "note_on channel=1 note=57 velocity=110 time=0\n",
      "note_on channel=1 note=59 velocity=110 time=0\n",
      "note_off channel=1 note=52 velocity=0 time=501\n",
      "note_off channel=1 note=57 velocity=0 time=0\n",
      "note_off channel=1 note=59 velocity=0 time=0\n",
      "note_on channel=1 note=51 velocity=110 time=11\n",
      "note_off channel=1 note=51 velocity=0 time=853\n",
      "note_on channel=1 note=50 velocity=110 time=171\n",
      "note_on channel=1 note=54 velocity=110 time=0\n",
      "note_on channel=1 note=57 velocity=110 time=0\n",
      "note_off channel=1 note=50 velocity=0 time=853\n",
      "note_off channel=1 note=54 velocity=0 time=0\n",
      "note_off channel=1 note=57 velocity=0 time=0\n",
      "note_on channel=1 note=50 velocity=110 time=171\n",
      "note_on channel=1 note=54 velocity=110 time=0\n",
      "note_on channel=1 note=57 velocity=110 time=0\n",
      "note_off channel=1 note=50 velocity=0 time=853\n",
      "note_off channel=1 note=54 velocity=0 time=0\n",
      "note_off channel=1 note=57 velocity=0 time=0\n",
      "note_on channel=1 note=47 velocity=110 time=171\n",
      "note_off channel=1 note=47 velocity=0 time=501\n",
      "note_on channel=1 note=50 velocity=110 time=11\n",
      "note_on channel=1 note=54 velocity=110 time=0\n",
      "note_on channel=1 note=57 velocity=110 time=0\n",
      "note_off channel=1 note=50 velocity=0 time=501\n",
      "note_off channel=1 note=54 velocity=0 time=0\n",
      "note_off channel=1 note=57 velocity=0 time=0\n",
      "note_on channel=1 note=47 velocity=110 time=11\n",
      "note_off channel=1 note=47 velocity=0 time=501\n",
      "note_on channel=1 note=50 velocity=110 time=11\n",
      "note_on channel=1 note=54 velocity=110 time=0\n",
      "note_on channel=1 note=57 velocity=110 time=0\n",
      "note_off channel=1 note=50 velocity=0 time=501\n",
      "note_off channel=1 note=54 velocity=0 time=0\n",
      "note_off channel=1 note=57 velocity=0 time=0\n",
      "note_on channel=1 note=46 velocity=110 time=11\n",
      "note_off channel=1 note=46 velocity=0 time=501\n",
      "note_on channel=1 note=50 velocity=110 time=11\n",
      "note_on channel=1 note=53 velocity=110 time=0\n",
      "note_on channel=1 note=57 velocity=110 time=0\n",
      "note_off channel=1 note=50 velocity=0 time=501\n",
      "note_off channel=1 note=53 velocity=0 time=0\n",
      "note_off channel=1 note=57 velocity=0 time=0\n",
      "note_on channel=1 note=46 velocity=110 time=11\n",
      "note_off channel=1 note=46 velocity=0 time=501\n",
      "note_on channel=1 note=50 velocity=110 time=11\n",
      "note_on channel=1 note=53 velocity=110 time=0\n",
      "note_on channel=1 note=57 velocity=110 time=0\n",
      "note_off channel=1 note=50 velocity=0 time=501\n",
      "note_off channel=1 note=53 velocity=0 time=0\n",
      "note_off channel=1 note=57 velocity=0 time=0\n",
      "note_on channel=1 note=51 velocity=110 time=11\n",
      "note_off channel=1 note=51 velocity=0 time=501\n",
      "note_on channel=1 note=50 velocity=110 time=11\n",
      "note_on channel=1 note=53 velocity=110 time=0\n",
      "note_on channel=1 note=57 velocity=110 time=0\n",
      "note_off channel=1 note=50 velocity=0 time=501\n",
      "note_off channel=1 note=53 velocity=0 time=0\n",
      "note_off channel=1 note=57 velocity=0 time=0\n",
      "note_on channel=1 note=51 velocity=110 time=11\n",
      "note_off channel=1 note=51 velocity=0 time=853\n",
      "note_on channel=1 note=57 velocity=110 time=171\n",
      "note_off channel=1 note=57 velocity=0 time=501\n",
      "note_on channel=1 note=50 velocity=110 time=11\n",
      "note_on channel=1 note=54 velocity=110 time=0\n",
      "note_on channel=1 note=57 velocity=110 time=0\n",
      "note_off channel=1 note=50 velocity=0 time=501\n",
      "note_off channel=1 note=54 velocity=0 time=0\n",
      "note_off channel=1 note=57 velocity=0 time=0\n",
      "note_on channel=1 note=50 velocity=110 time=11\n",
      "note_off channel=1 note=50 velocity=0 time=501\n",
      "note_on channel=1 note=50 velocity=110 time=11\n",
      "note_on channel=1 note=54 velocity=110 time=0\n",
      "note_on channel=1 note=57 velocity=110 time=0\n",
      "note_off channel=1 note=50 velocity=0 time=501\n",
      "note_off channel=1 note=54 velocity=0 time=0\n",
      "note_off channel=1 note=57 velocity=0 time=0\n",
      "note_on channel=1 note=50 velocity=110 time=11\n",
      "note_on channel=1 note=54 velocity=110 time=0\n",
      "note_on channel=1 note=57 velocity=110 time=0\n",
      "note_off channel=1 note=50 velocity=0 time=853\n",
      "note_off channel=1 note=54 velocity=0 time=0\n",
      "note_off channel=1 note=57 velocity=0 time=0\n",
      "note_on channel=1 note=50 velocity=110 time=171\n",
      "note_off channel=1 note=50 velocity=0 time=501\n",
      "note_on channel=1 note=57 velocity=110 time=11\n",
      "note_off channel=1 note=57 velocity=0 time=501\n",
      "note_on channel=1 note=57 velocity=110 time=11\n",
      "note_off channel=1 note=57 velocity=0 time=501\n",
      "note_on channel=1 note=50 velocity=110 time=11\n",
      "note_on channel=1 note=54 velocity=110 time=0\n",
      "note_on channel=1 note=57 velocity=110 time=0\n",
      "note_off channel=1 note=50 velocity=0 time=501\n",
      "note_off channel=1 note=54 velocity=0 time=0\n",
      "note_off channel=1 note=57 velocity=0 time=0\n",
      "note_on channel=1 note=50 velocity=110 time=11\n",
      "note_off channel=1 note=50 velocity=0 time=501\n",
      "note_on channel=1 note=50 velocity=110 time=11\n",
      "note_on channel=1 note=54 velocity=110 time=0\n",
      "note_on channel=1 note=57 velocity=110 time=0\n",
      "note_off channel=1 note=50 velocity=0 time=501\n",
      "note_off channel=1 note=54 velocity=0 time=0\n",
      "note_off channel=1 note=57 velocity=0 time=0\n",
      "note_on channel=1 note=50 velocity=110 time=11\n",
      "note_on channel=1 note=54 velocity=110 time=0\n",
      "note_on channel=1 note=57 velocity=110 time=0\n",
      "note_off channel=1 note=50 velocity=0 time=853\n",
      "note_off channel=1 note=54 velocity=0 time=0\n",
      "note_off channel=1 note=57 velocity=0 time=0\n",
      "note_on channel=1 note=50 velocity=110 time=171\n",
      "note_on channel=1 note=54 velocity=110 time=0\n",
      "note_on channel=1 note=57 velocity=110 time=0\n",
      "note_off channel=1 note=50 velocity=0 time=501\n",
      "note_off channel=1 note=54 velocity=0 time=0\n",
      "note_off channel=1 note=57 velocity=0 time=0\n",
      "note_on channel=1 note=48 velocity=110 time=11\n",
      "note_off channel=1 note=48 velocity=0 time=501\n",
      "note_on channel=1 note=43 velocity=110 time=11\n",
      "note_off channel=1 note=43 velocity=0 time=501\n",
      "note_on channel=1 note=50 velocity=110 time=11\n",
      "note_on channel=1 note=55 velocity=110 time=0\n",
      "note_on channel=1 note=59 velocity=110 time=0\n",
      "note_off channel=1 note=50 velocity=0 time=501\n",
      "note_off channel=1 note=55 velocity=0 time=0\n",
      "note_off channel=1 note=59 velocity=0 time=0\n",
      "note_on channel=1 note=38 velocity=110 time=11\n",
      "note_off channel=1 note=38 velocity=0 time=245\n",
      "note_on channel=1 note=50 velocity=110 time=11\n",
      "note_on channel=1 note=55 velocity=110 time=0\n",
      "note_on channel=1 note=59 velocity=110 time=0\n",
      "note_off channel=1 note=50 velocity=0 time=757\n",
      "note_off channel=1 note=55 velocity=0 time=0\n",
      "note_off channel=1 note=59 velocity=0 time=0\n",
      "note_on channel=1 note=43 velocity=110 time=11\n",
      "note_on channel=1 note=50 velocity=110 time=0\n",
      "note_on channel=1 note=55 velocity=110 time=0\n",
      "note_on channel=1 note=59 velocity=110 time=0\n",
      "note_off channel=1 note=43 velocity=0 time=757\n",
      "note_off channel=1 note=50 velocity=0 time=0\n",
      "note_off channel=1 note=55 velocity=0 time=0\n",
      "note_off channel=1 note=59 velocity=0 time=0\n",
      "note_on channel=1 note=50 velocity=110 time=11\n",
      "note_on channel=1 note=55 velocity=110 time=0\n",
      "note_on channel=1 note=59 velocity=110 time=0\n",
      "note_off channel=1 note=50 velocity=0 time=245\n",
      "note_off channel=1 note=55 velocity=0 time=0\n",
      "note_off channel=1 note=59 velocity=0 time=0\n",
      "note_on channel=1 note=38 velocity=110 time=11\n",
      "note_off channel=1 note=38 velocity=0 time=501\n",
      "note_on channel=1 note=50 velocity=110 time=11\n",
      "note_on channel=1 note=55 velocity=110 time=0\n",
      "note_on channel=1 note=59 velocity=110 time=0\n",
      "note_off channel=1 note=50 velocity=0 time=501\n",
      "note_off channel=1 note=55 velocity=0 time=0\n",
      "note_off channel=1 note=59 velocity=0 time=0\n",
      "note_on channel=1 note=44 velocity=110 time=11\n",
      "note_off channel=1 note=44 velocity=0 time=501\n",
      "note_on channel=1 note=52 velocity=110 time=11\n",
      "note_on channel=1 note=56 velocity=110 time=0\n",
      "note_on channel=1 note=59 velocity=110 time=0\n",
      "note_off channel=1 note=52 velocity=0 time=501\n",
      "note_off channel=1 note=56 velocity=0 time=0\n",
      "note_off channel=1 note=59 velocity=0 time=0\n",
      "note_on channel=1 note=38 velocity=110 time=11\n",
      "note_off channel=1 note=38 velocity=0 time=501\n",
      "note_on channel=1 note=52 velocity=110 time=11\n",
      "note_on channel=1 note=56 velocity=110 time=0\n",
      "note_on channel=1 note=59 velocity=110 time=0\n",
      "note_off channel=1 note=52 velocity=0 time=501\n",
      "note_off channel=1 note=56 velocity=0 time=0\n",
      "note_off channel=1 note=59 velocity=0 time=0\n",
      "note_on channel=1 note=44 velocity=110 time=11\n",
      "note_on channel=1 note=52 velocity=110 time=0\n",
      "note_on channel=1 note=56 velocity=110 time=0\n",
      "note_on channel=1 note=59 velocity=110 time=0\n",
      "note_off channel=1 note=44 velocity=0 time=853\n",
      "note_off channel=1 note=52 velocity=0 time=0\n",
      "note_off channel=1 note=56 velocity=0 time=0\n",
      "note_off channel=1 note=59 velocity=0 time=0\n",
      "note_on channel=1 note=38 velocity=110 time=171\n",
      "note_on channel=1 note=52 velocity=110 time=0\n",
      "note_on channel=1 note=56 velocity=110 time=0\n",
      "note_on channel=1 note=59 velocity=110 time=0\n",
      "note_off channel=1 note=38 velocity=0 time=853\n",
      "note_off channel=1 note=52 velocity=0 time=0\n",
      "note_off channel=1 note=56 velocity=0 time=0\n",
      "note_off channel=1 note=59 velocity=0 time=0\n",
      "note_on channel=1 note=45 velocity=110 time=171\n",
      "note_off channel=1 note=45 velocity=0 time=501\n",
      "note_on channel=1 note=50 velocity=110 time=11\n",
      "note_on channel=1 note=54 velocity=110 time=0\n",
      "note_on channel=1 note=57 velocity=110 time=0\n",
      "note_off channel=1 note=50 velocity=0 time=501\n",
      "note_off channel=1 note=54 velocity=0 time=0\n",
      "note_off channel=1 note=57 velocity=0 time=0\n",
      "note_on channel=1 note=38 velocity=110 time=11\n",
      "note_off channel=1 note=38 velocity=0 time=501\n",
      "note_on channel=1 note=50 velocity=110 time=11\n",
      "note_on channel=1 note=54 velocity=110 time=0\n",
      "note_on channel=1 note=57 velocity=110 time=0\n",
      "note_off channel=1 note=50 velocity=0 time=501\n",
      "note_off channel=1 note=54 velocity=0 time=0\n",
      "note_off channel=1 note=57 velocity=0 time=0\n",
      "note_on channel=1 note=45 velocity=110 time=11\n",
      "note_off channel=1 note=45 velocity=0 time=501\n",
      "note_on channel=1 note=50 velocity=110 time=11\n",
      "note_on channel=1 note=54 velocity=110 time=0\n",
      "note_on channel=1 note=57 velocity=110 time=0\n",
      "note_off channel=1 note=50 velocity=0 time=501\n",
      "note_off channel=1 note=54 velocity=0 time=0\n",
      "note_off channel=1 note=57 velocity=0 time=0\n",
      "note_on channel=1 note=45 velocity=110 time=11\n",
      "note_off channel=1 note=45 velocity=0 time=501\n",
      "note_on channel=1 note=50 velocity=110 time=11\n",
      "note_on channel=1 note=54 velocity=110 time=0\n",
      "note_on channel=1 note=57 velocity=110 time=0\n",
      "note_off channel=1 note=50 velocity=0 time=501\n",
      "note_off channel=1 note=54 velocity=0 time=0\n",
      "note_off channel=1 note=57 velocity=0 time=0\n",
      "note_on channel=1 note=45 velocity=110 time=11\n",
      "note_off channel=1 note=45 velocity=0 time=501\n",
      "note_on channel=1 note=50 velocity=110 time=11\n",
      "note_on channel=1 note=54 velocity=110 time=0\n",
      "note_on channel=1 note=57 velocity=110 time=0\n",
      "note_off channel=1 note=50 velocity=0 time=501\n",
      "note_off channel=1 note=54 velocity=0 time=0\n",
      "note_off channel=1 note=57 velocity=0 time=0\n",
      "note_on channel=1 note=38 velocity=110 time=11\n",
      "note_off channel=1 note=38 velocity=0 time=501\n",
      "note_on channel=1 note=50 velocity=110 time=11\n",
      "note_on channel=1 note=54 velocity=110 time=0\n",
      "note_on channel=1 note=57 velocity=110 time=0\n",
      "note_off channel=1 note=50 velocity=0 time=501\n",
      "note_off channel=1 note=54 velocity=0 time=0\n",
      "note_off channel=1 note=57 velocity=0 time=0\n",
      "note_on channel=1 note=45 velocity=110 time=11\n",
      "note_off channel=1 note=45 velocity=0 time=501\n",
      "note_on channel=1 note=50 velocity=110 time=11\n",
      "note_on channel=1 note=54 velocity=110 time=0\n",
      "note_on channel=1 note=57 velocity=110 time=0\n",
      "note_off channel=1 note=50 velocity=0 time=501\n",
      "note_off channel=1 note=54 velocity=0 time=0\n",
      "note_off channel=1 note=57 velocity=0 time=0\n",
      "note_on channel=1 note=45 velocity=110 time=11\n",
      "note_off channel=1 note=45 velocity=0 time=501\n",
      "note_on channel=1 note=50 velocity=110 time=11\n",
      "note_on channel=1 note=54 velocity=110 time=0\n",
      "note_on channel=1 note=57 velocity=110 time=0\n",
      "note_off channel=1 note=50 velocity=0 time=501\n",
      "note_off channel=1 note=54 velocity=0 time=0\n",
      "note_off channel=1 note=57 velocity=0 time=0\n",
      "note_on channel=1 note=45 velocity=110 time=11\n",
      "note_off channel=1 note=45 velocity=0 time=501\n",
      "note_on channel=1 note=50 velocity=110 time=11\n",
      "note_on channel=1 note=54 velocity=110 time=0\n",
      "note_on channel=1 note=57 velocity=110 time=0\n",
      "note_off channel=1 note=50 velocity=0 time=501\n",
      "note_off channel=1 note=54 velocity=0 time=0\n",
      "note_off channel=1 note=57 velocity=0 time=0\n",
      "note_on channel=1 note=38 velocity=110 time=11\n",
      "note_off channel=1 note=38 velocity=0 time=501\n",
      "note_on channel=1 note=50 velocity=110 time=11\n",
      "note_on channel=1 note=54 velocity=110 time=0\n",
      "note_on channel=1 note=57 velocity=110 time=0\n",
      "note_off channel=1 note=50 velocity=0 time=501\n",
      "note_off channel=1 note=54 velocity=0 time=0\n",
      "note_off channel=1 note=57 velocity=0 time=0\n",
      "note_on channel=1 note=45 velocity=110 time=11\n",
      "note_off channel=1 note=45 velocity=0 time=501\n",
      "note_on channel=1 note=50 velocity=110 time=11\n",
      "note_on channel=1 note=54 velocity=110 time=0\n",
      "note_on channel=1 note=57 velocity=110 time=0\n",
      "note_off channel=1 note=50 velocity=0 time=501\n",
      "note_off channel=1 note=54 velocity=0 time=0\n",
      "note_off channel=1 note=57 velocity=0 time=0\n",
      "note_on channel=1 note=45 velocity=110 time=11\n",
      "note_off channel=1 note=45 velocity=0 time=501\n",
      "note_on channel=1 note=50 velocity=110 time=11\n",
      "note_on channel=1 note=54 velocity=110 time=0\n",
      "note_on channel=1 note=57 velocity=110 time=0\n",
      "note_off channel=1 note=50 velocity=0 time=501\n",
      "note_off channel=1 note=54 velocity=0 time=0\n",
      "note_off channel=1 note=57 velocity=0 time=0\n",
      "note_on channel=1 note=52 velocity=110 time=11\n",
      "note_off channel=1 note=52 velocity=0 time=501\n",
      "note_on channel=1 note=49 velocity=110 time=11\n",
      "note_on channel=1 note=52 velocity=110 time=0\n",
      "note_on channel=1 note=57 velocity=110 time=0\n",
      "note_off channel=1 note=49 velocity=0 time=501\n",
      "note_off channel=1 note=52 velocity=0 time=0\n",
      "note_off channel=1 note=57 velocity=0 time=0\n",
      "note_on channel=1 note=45 velocity=110 time=11\n",
      "note_off channel=1 note=45 velocity=0 time=501\n",
      "note_on channel=1 note=49 velocity=110 time=11\n",
      "note_on channel=1 note=52 velocity=110 time=0\n",
      "note_on channel=1 note=57 velocity=110 time=0\n",
      "note_off channel=1 note=49 velocity=0 time=501\n",
      "note_off channel=1 note=52 velocity=0 time=0\n",
      "note_off channel=1 note=57 velocity=0 time=0\n",
      "note_on channel=1 note=49 velocity=110 time=11\n",
      "note_on channel=1 note=52 velocity=110 time=0\n",
      "note_on channel=1 note=57 velocity=110 time=0\n",
      "note_off channel=1 note=49 velocity=0 time=853\n",
      "note_off channel=1 note=52 velocity=0 time=0\n",
      "note_off channel=1 note=57 velocity=0 time=0\n",
      "note_on channel=1 note=49 velocity=110 time=171\n",
      "note_on channel=1 note=52 velocity=110 time=0\n",
      "note_on channel=1 note=57 velocity=110 time=0\n",
      "note_off channel=1 note=49 velocity=0 time=501\n",
      "note_off channel=1 note=52 velocity=0 time=0\n",
      "note_off channel=1 note=57 velocity=0 time=0\n",
      "note_on channel=1 note=49 velocity=110 time=11\n",
      "note_on channel=1 note=52 velocity=110 time=0\n",
      "note_on channel=1 note=57 velocity=110 time=0\n",
      "note_off channel=1 note=49 velocity=0 time=501\n",
      "note_off channel=1 note=52 velocity=0 time=0\n",
      "note_off channel=1 note=57 velocity=0 time=0\n",
      "note_on channel=1 note=54 velocity=110 time=11\n",
      "note_on channel=1 note=57 velocity=110 time=0\n",
      "note_off channel=1 note=54 velocity=0 time=245\n",
      "note_off channel=1 note=57 velocity=0 time=0\n",
      "note_on channel=1 note=50 velocity=110 time=11\n",
      "note_off channel=1 note=50 velocity=0 time=245\n",
      "note_on channel=1 note=54 velocity=110 time=11\n",
      "note_off channel=1 note=54 velocity=0 time=245\n",
      "note_on channel=1 note=50 velocity=110 time=11\n",
      "note_off channel=1 note=50 velocity=0 time=245\n",
      "note_on channel=1 note=50 velocity=110 time=11\n",
      "note_on channel=1 note=57 velocity=110 time=0\n",
      "note_off channel=1 note=50 velocity=0 time=501\n",
      "note_off channel=1 note=57 velocity=0 time=0\n",
      "note_on channel=1 note=50 velocity=110 time=11\n",
      "note_on channel=1 note=54 velocity=110 time=0\n",
      "note_on channel=1 note=57 velocity=110 time=0\n",
      "note_off channel=1 note=50 velocity=0 time=501\n",
      "note_off channel=1 note=54 velocity=0 time=0\n",
      "note_off channel=1 note=57 velocity=0 time=0\n",
      "note_on channel=1 note=57 velocity=110 time=11\n",
      "note_off channel=1 note=57 velocity=0 time=501\n",
      "note_on channel=1 note=50 velocity=110 time=11\n",
      "note_on channel=1 note=54 velocity=110 time=0\n",
      "note_on channel=1 note=57 velocity=110 time=0\n",
      "note_off channel=1 note=50 velocity=0 time=501\n",
      "note_off channel=1 note=54 velocity=0 time=0\n",
      "note_off channel=1 note=57 velocity=0 time=0\n",
      "note_on channel=1 note=50 velocity=110 time=11\n",
      "note_off channel=1 note=50 velocity=0 time=501\n",
      "note_on channel=1 note=50 velocity=110 time=11\n",
      "note_on channel=1 note=54 velocity=110 time=0\n",
      "note_on channel=1 note=57 velocity=110 time=0\n",
      "note_off channel=1 note=50 velocity=0 time=501\n",
      "note_off channel=1 note=54 velocity=0 time=0\n",
      "note_off channel=1 note=57 velocity=0 time=0\n",
      "note_on channel=1 note=54 velocity=110 time=11\n",
      "note_on channel=1 note=57 velocity=110 time=0\n",
      "note_off channel=1 note=54 velocity=0 time=245\n",
      "note_off channel=1 note=57 velocity=0 time=0\n",
      "note_on channel=1 note=50 velocity=110 time=11\n",
      "note_off channel=1 note=50 velocity=0 time=245\n",
      "note_on channel=1 note=54 velocity=110 time=11\n",
      "note_off channel=1 note=54 velocity=0 time=245\n",
      "note_on channel=1 note=50 velocity=110 time=11\n",
      "note_off channel=1 note=50 velocity=0 time=245\n",
      "note_on channel=1 note=50 velocity=110 time=11\n",
      "note_on channel=1 note=57 velocity=110 time=0\n",
      "note_off channel=1 note=50 velocity=0 time=501\n",
      "note_off channel=1 note=57 velocity=0 time=0\n",
      "note_on channel=1 note=50 velocity=110 time=11\n",
      "note_on channel=1 note=54 velocity=110 time=0\n",
      "note_on channel=1 note=57 velocity=110 time=0\n",
      "note_off channel=1 note=50 velocity=0 time=501\n",
      "note_off channel=1 note=54 velocity=0 time=0\n",
      "note_off channel=1 note=57 velocity=0 time=0\n",
      "note_on channel=1 note=57 velocity=110 time=11\n",
      "note_off channel=1 note=57 velocity=0 time=501\n",
      "note_on channel=1 note=50 velocity=110 time=11\n",
      "note_on channel=1 note=54 velocity=110 time=0\n",
      "note_on channel=1 note=57 velocity=110 time=0\n",
      "note_off channel=1 note=50 velocity=0 time=501\n",
      "note_off channel=1 note=54 velocity=0 time=0\n",
      "note_off channel=1 note=57 velocity=0 time=0\n",
      "note_on channel=1 note=50 velocity=110 time=11\n",
      "note_off channel=1 note=50 velocity=0 time=501\n",
      "note_on channel=1 note=50 velocity=110 time=11\n",
      "note_on channel=1 note=54 velocity=110 time=0\n",
      "note_on channel=1 note=57 velocity=110 time=0\n",
      "note_off channel=1 note=50 velocity=0 time=501\n",
      "note_off channel=1 note=54 velocity=0 time=0\n",
      "note_off channel=1 note=57 velocity=0 time=0\n",
      "note_on channel=1 note=56 velocity=110 time=11\n",
      "note_on channel=1 note=59 velocity=110 time=0\n",
      "note_off channel=1 note=56 velocity=0 time=245\n",
      "note_off channel=1 note=59 velocity=0 time=0\n",
      "note_on channel=1 note=52 velocity=110 time=11\n",
      "note_off channel=1 note=52 velocity=0 time=245\n",
      "note_on channel=1 note=56 velocity=110 time=11\n",
      "note_off channel=1 note=56 velocity=0 time=245\n",
      "note_on channel=1 note=52 velocity=110 time=11\n",
      "note_off channel=1 note=52 velocity=0 time=245\n",
      "note_on channel=1 note=52 velocity=110 time=11\n",
      "note_on channel=1 note=59 velocity=110 time=0\n",
      "note_off channel=1 note=52 velocity=0 time=501\n",
      "note_off channel=1 note=59 velocity=0 time=0\n",
      "note_on channel=1 note=52 velocity=110 time=11\n",
      "note_on channel=1 note=56 velocity=110 time=0\n",
      "note_on channel=1 note=59 velocity=110 time=0\n",
      "note_off channel=1 note=52 velocity=0 time=501\n",
      "note_off channel=1 note=56 velocity=0 time=0\n",
      "note_off channel=1 note=59 velocity=0 time=0\n",
      "note_on channel=1 note=59 velocity=110 time=11\n",
      "note_off channel=1 note=59 velocity=0 time=501\n",
      "note_on channel=1 note=52 velocity=110 time=11\n",
      "note_on channel=1 note=56 velocity=110 time=0\n",
      "note_on channel=1 note=59 velocity=110 time=0\n",
      "note_off channel=1 note=52 velocity=0 time=501\n",
      "note_off channel=1 note=56 velocity=0 time=0\n",
      "note_off channel=1 note=59 velocity=0 time=0\n",
      "note_on channel=1 note=52 velocity=110 time=11\n",
      "note_off channel=1 note=52 velocity=0 time=501\n",
      "note_on channel=1 note=52 velocity=110 time=11\n",
      "note_on channel=1 note=56 velocity=110 time=0\n",
      "note_on channel=1 note=59 velocity=110 time=0\n",
      "note_off channel=1 note=52 velocity=0 time=501\n",
      "note_off channel=1 note=56 velocity=0 time=0\n",
      "note_off channel=1 note=59 velocity=0 time=0\n",
      "note_on channel=1 note=56 velocity=110 time=11\n",
      "note_on channel=1 note=62 velocity=110 time=0\n",
      "note_off channel=1 note=56 velocity=0 time=245\n",
      "note_off channel=1 note=62 velocity=0 time=0\n",
      "note_on channel=1 note=52 velocity=110 time=11\n",
      "note_off channel=1 note=52 velocity=0 time=245\n",
      "note_on channel=1 note=56 velocity=110 time=11\n",
      "note_off channel=1 note=56 velocity=0 time=245\n",
      "note_on channel=1 note=52 velocity=110 time=11\n",
      "note_off channel=1 note=52 velocity=0 time=245\n",
      "note_on channel=1 note=52 velocity=110 time=11\n",
      "note_on channel=1 note=62 velocity=110 time=0\n",
      "note_off channel=1 note=52 velocity=0 time=501\n",
      "note_off channel=1 note=62 velocity=0 time=0\n",
      "note_on channel=1 note=52 velocity=110 time=11\n",
      "note_on channel=1 note=56 velocity=110 time=0\n",
      "note_on channel=1 note=62 velocity=110 time=0\n",
      "note_off channel=1 note=52 velocity=0 time=501\n",
      "note_off channel=1 note=56 velocity=0 time=0\n",
      "note_off channel=1 note=62 velocity=0 time=0\n",
      "note_on channel=1 note=62 velocity=110 time=11\n",
      "note_off channel=1 note=62 velocity=0 time=501\n",
      "note_on channel=1 note=52 velocity=110 time=11\n",
      "note_on channel=1 note=56 velocity=110 time=0\n",
      "note_on channel=1 note=62 velocity=110 time=0\n",
      "note_off channel=1 note=52 velocity=0 time=501\n",
      "note_off channel=1 note=56 velocity=0 time=0\n",
      "note_off channel=1 note=62 velocity=0 time=0\n",
      "note_on channel=1 note=52 velocity=110 time=11\n",
      "note_off channel=1 note=52 velocity=0 time=501\n",
      "note_on channel=1 note=52 velocity=110 time=11\n",
      "note_on channel=1 note=56 velocity=110 time=0\n",
      "note_on channel=1 note=62 velocity=110 time=0\n",
      "note_off channel=1 note=52 velocity=0 time=501\n",
      "note_off channel=1 note=56 velocity=0 time=0\n",
      "note_off channel=1 note=62 velocity=0 time=0\n",
      "note_on channel=1 note=50 velocity=110 time=11\n",
      "note_on channel=1 note=54 velocity=110 time=0\n",
      "note_on channel=1 note=57 velocity=110 time=0\n",
      "note_off channel=1 note=50 velocity=0 time=853\n",
      "note_off channel=1 note=54 velocity=0 time=0\n",
      "note_off channel=1 note=57 velocity=0 time=0\n",
      "note_on channel=1 note=50 velocity=110 time=171\n",
      "note_on channel=1 note=54 velocity=110 time=0\n",
      "note_on channel=1 note=57 velocity=110 time=0\n",
      "note_off channel=1 note=50 velocity=0 time=853\n",
      "note_off channel=1 note=54 velocity=0 time=0\n",
      "note_off channel=1 note=57 velocity=0 time=0\n",
      "note_on channel=1 note=53 velocity=110 time=171\n",
      "note_off channel=1 note=53 velocity=0 time=501\n",
      "note_on channel=1 note=50 velocity=110 time=11\n",
      "note_on channel=1 note=53 velocity=110 time=0\n",
      "note_on channel=1 note=57 velocity=110 time=0\n",
      "note_off channel=1 note=50 velocity=0 time=501\n",
      "note_off channel=1 note=53 velocity=0 time=0\n",
      "note_off channel=1 note=57 velocity=0 time=0\n",
      "note_on channel=1 note=53 velocity=110 time=11\n",
      "note_off channel=1 note=53 velocity=0 time=501\n",
      "note_on channel=1 note=50 velocity=110 time=11\n",
      "note_on channel=1 note=53 velocity=110 time=0\n",
      "note_on channel=1 note=57 velocity=110 time=0\n",
      "note_off channel=1 note=50 velocity=0 time=501\n",
      "note_off channel=1 note=53 velocity=0 time=0\n",
      "note_off channel=1 note=57 velocity=0 time=0\n",
      "note_on channel=1 note=52 velocity=110 time=11\n",
      "note_off channel=1 note=52 velocity=0 time=501\n",
      "note_on channel=1 note=50 velocity=110 time=11\n",
      "note_on channel=1 note=57 velocity=110 time=0\n",
      "note_on channel=1 note=59 velocity=110 time=0\n",
      "note_off channel=1 note=50 velocity=0 time=501\n",
      "note_off channel=1 note=57 velocity=0 time=0\n",
      "note_off channel=1 note=59 velocity=0 time=0\n",
      "note_on channel=1 note=52 velocity=110 time=11\n",
      "note_off channel=1 note=52 velocity=0 time=501\n",
      "note_on channel=1 note=50 velocity=110 time=11\n",
      "note_on channel=1 note=57 velocity=110 time=0\n",
      "note_on channel=1 note=59 velocity=110 time=0\n",
      "note_off channel=1 note=50 velocity=0 time=501\n",
      "note_off channel=1 note=57 velocity=0 time=0\n",
      "note_off channel=1 note=59 velocity=0 time=0\n",
      "note_on channel=1 note=51 velocity=110 time=11\n",
      "note_off channel=1 note=51 velocity=0 time=501\n",
      "note_on channel=1 note=52 velocity=110 time=11\n",
      "note_on channel=1 note=57 velocity=110 time=0\n",
      "note_on channel=1 note=59 velocity=110 time=0\n",
      "note_off channel=1 note=52 velocity=0 time=501\n",
      "note_off channel=1 note=57 velocity=0 time=0\n",
      "note_off channel=1 note=59 velocity=0 time=0\n",
      "note_on channel=1 note=51 velocity=110 time=11\n",
      "note_off channel=1 note=51 velocity=0 time=853\n",
      "note_on channel=1 note=50 velocity=110 time=171\n",
      "note_on channel=1 note=54 velocity=110 time=0\n",
      "note_on channel=1 note=57 velocity=110 time=0\n",
      "note_off channel=1 note=50 velocity=0 time=853\n",
      "note_off channel=1 note=54 velocity=0 time=0\n",
      "note_off channel=1 note=57 velocity=0 time=0\n",
      "note_on channel=1 note=47 velocity=110 time=171\n",
      "note_on channel=1 note=50 velocity=110 time=0\n",
      "note_on channel=1 note=54 velocity=110 time=0\n",
      "note_on channel=1 note=57 velocity=110 time=0\n",
      "note_off channel=1 note=47 velocity=0 time=501\n",
      "note_off channel=1 note=50 velocity=0 time=0\n",
      "note_off channel=1 note=54 velocity=0 time=0\n",
      "note_off channel=1 note=57 velocity=0 time=0\n",
      "note_on channel=1 note=49 velocity=110 time=11\n",
      "note_off channel=1 note=49 velocity=0 time=501\n",
      "note_on channel=1 note=50 velocity=110 time=11\n",
      "note_off channel=1 note=50 velocity=0 time=501\n",
      "note_on channel=1 note=50 velocity=110 time=11\n",
      "note_on channel=1 note=54 velocity=110 time=0\n",
      "note_on channel=1 note=57 velocity=110 time=0\n",
      "note_off channel=1 note=50 velocity=0 time=501\n",
      "note_off channel=1 note=54 velocity=0 time=0\n",
      "note_off channel=1 note=57 velocity=0 time=0\n",
      "note_on channel=1 note=45 velocity=110 time=11\n",
      "note_off channel=1 note=45 velocity=0 time=501\n",
      "note_on channel=1 note=50 velocity=110 time=11\n",
      "note_on channel=1 note=54 velocity=110 time=0\n",
      "note_on channel=1 note=57 velocity=110 time=0\n",
      "note_off channel=1 note=50 velocity=0 time=501\n",
      "note_off channel=1 note=54 velocity=0 time=0\n",
      "note_off channel=1 note=57 velocity=0 time=0\n",
      "note_on channel=1 note=50 velocity=110 time=11\n",
      "note_off channel=1 note=50 velocity=0 time=501\n",
      "note_on channel=1 note=50 velocity=110 time=11\n",
      "note_on channel=1 note=54 velocity=110 time=0\n",
      "note_on channel=1 note=57 velocity=110 time=0\n",
      "note_off channel=1 note=50 velocity=0 time=501\n",
      "note_off channel=1 note=54 velocity=0 time=0\n",
      "note_off channel=1 note=57 velocity=0 time=0\n",
      "note_on channel=1 note=47 velocity=110 time=11\n",
      "note_off channel=1 note=47 velocity=0 time=501\n",
      "note_on channel=1 note=49 velocity=110 time=11\n",
      "note_on channel=1 note=50 velocity=110 time=0\n",
      "note_on channel=1 note=54 velocity=110 time=0\n",
      "note_on channel=1 note=57 velocity=110 time=0\n",
      "note_off channel=1 note=49 velocity=0 time=501\n",
      "note_off channel=1 note=50 velocity=0 time=0\n",
      "note_off channel=1 note=54 velocity=0 time=0\n",
      "note_off channel=1 note=57 velocity=0 time=0\n",
      "note_on channel=1 note=50 velocity=110 time=11\n",
      "note_off channel=1 note=50 velocity=0 time=501\n",
      "note_on channel=1 note=50 velocity=110 time=11\n",
      "note_on channel=1 note=54 velocity=110 time=0\n",
      "note_on channel=1 note=57 velocity=110 time=0\n",
      "note_off channel=1 note=50 velocity=0 time=501\n",
      "note_off channel=1 note=54 velocity=0 time=0\n",
      "note_off channel=1 note=57 velocity=0 time=0\n",
      "note_on channel=1 note=52 velocity=110 time=11\n",
      "note_off channel=1 note=52 velocity=0 time=501\n",
      "note_on channel=1 note=54 velocity=110 time=11\n",
      "note_off channel=1 note=54 velocity=0 time=501\n",
      "note_on channel=1 note=50 velocity=110 time=11\n",
      "note_on channel=1 note=55 velocity=110 time=0\n",
      "note_on channel=1 note=59 velocity=110 time=0\n",
      "note_off channel=1 note=50 velocity=0 time=757\n",
      "note_off channel=1 note=55 velocity=0 time=0\n",
      "note_off channel=1 note=59 velocity=0 time=0\n",
      "note_on channel=1 note=50 velocity=110 time=11\n",
      "note_on channel=1 note=55 velocity=110 time=0\n",
      "note_on channel=1 note=59 velocity=110 time=0\n",
      "note_off channel=1 note=50 velocity=0 time=245\n",
      "note_off channel=1 note=55 velocity=0 time=0\n",
      "note_off channel=1 note=59 velocity=0 time=0\n",
      "note_on channel=1 note=55 velocity=110 time=11\n",
      "note_off channel=1 note=55 velocity=0 time=501\n",
      "note_on channel=1 note=50 velocity=110 time=11\n",
      "note_on channel=1 note=55 velocity=110 time=0\n",
      "note_on channel=1 note=59 velocity=110 time=0\n",
      "note_off channel=1 note=50 velocity=0 time=501\n",
      "note_off channel=1 note=55 velocity=0 time=0\n",
      "note_off channel=1 note=59 velocity=0 time=0\n",
      "note_on channel=1 note=50 velocity=110 time=11\n",
      "note_on channel=1 note=55 velocity=110 time=0\n",
      "note_on channel=1 note=59 velocity=110 time=0\n",
      "note_off channel=1 note=50 velocity=0 time=853\n",
      "note_off channel=1 note=55 velocity=0 time=0\n",
      "note_off channel=1 note=59 velocity=0 time=0\n",
      "note_on channel=1 note=55 velocity=110 time=171\n",
      "note_off channel=1 note=55 velocity=0 time=853\n",
      "note_on channel=1 note=50 velocity=110 time=171\n",
      "note_on channel=1 note=54 velocity=110 time=0\n",
      "note_on channel=1 note=57 velocity=110 time=0\n",
      "note_off channel=1 note=50 velocity=0 time=757\n",
      "note_off channel=1 note=54 velocity=0 time=0\n",
      "note_off channel=1 note=57 velocity=0 time=0\n",
      "note_on channel=1 note=50 velocity=110 time=11\n",
      "note_on channel=1 note=54 velocity=110 time=0\n",
      "note_on channel=1 note=57 velocity=110 time=0\n",
      "note_off channel=1 note=50 velocity=0 time=245\n",
      "note_off channel=1 note=54 velocity=0 time=0\n",
      "note_off channel=1 note=57 velocity=0 time=0\n",
      "note_on channel=1 note=54 velocity=110 time=11\n",
      "note_off channel=1 note=54 velocity=0 time=501\n",
      "note_on channel=1 note=50 velocity=110 time=11\n",
      "note_on channel=1 note=54 velocity=110 time=0\n",
      "note_on channel=1 note=57 velocity=110 time=0\n",
      "note_off channel=1 note=50 velocity=0 time=501\n",
      "note_off channel=1 note=54 velocity=0 time=0\n",
      "note_off channel=1 note=57 velocity=0 time=0\n",
      "note_on channel=1 note=53 velocity=110 time=11\n",
      "note_off channel=1 note=53 velocity=0 time=501\n",
      "note_on channel=1 note=50 velocity=110 time=11\n",
      "note_on channel=1 note=53 velocity=110 time=0\n",
      "note_on channel=1 note=56 velocity=110 time=0\n",
      "note_off channel=1 note=50 velocity=0 time=501\n",
      "note_off channel=1 note=53 velocity=0 time=0\n",
      "note_off channel=1 note=56 velocity=0 time=0\n",
      "note_on channel=1 note=53 velocity=110 time=11\n",
      "note_off channel=1 note=53 velocity=0 time=245\n",
      "note_on channel=1 note=50 velocity=110 time=11\n",
      "note_on channel=1 note=53 velocity=110 time=0\n",
      "note_on channel=1 note=56 velocity=110 time=0\n",
      "note_off channel=1 note=50 velocity=0 time=757\n",
      "note_off channel=1 note=53 velocity=0 time=0\n",
      "note_off channel=1 note=56 velocity=0 time=0\n",
      "note_on channel=1 note=52 velocity=110 time=11\n",
      "note_off channel=1 note=52 velocity=0 time=757\n",
      "note_on channel=1 note=45 velocity=110 time=11\n",
      "note_on channel=1 note=49 velocity=110 time=0\n",
      "note_on channel=1 note=55 velocity=110 time=0\n",
      "note_off channel=1 note=45 velocity=0 time=245\n",
      "note_off channel=1 note=49 velocity=0 time=0\n",
      "note_off channel=1 note=55 velocity=0 time=0\n",
      "note_on channel=1 note=52 velocity=110 time=11\n",
      "note_off channel=1 note=52 velocity=0 time=501\n",
      "note_on channel=1 note=45 velocity=110 time=11\n",
      "note_on channel=1 note=49 velocity=110 time=0\n",
      "note_on channel=1 note=55 velocity=110 time=0\n",
      "note_off channel=1 note=45 velocity=0 time=501\n",
      "note_off channel=1 note=49 velocity=0 time=0\n",
      "note_off channel=1 note=55 velocity=0 time=0\n",
      "note_on channel=1 note=45 velocity=110 time=11\n",
      "note_on channel=1 note=49 velocity=110 time=0\n",
      "note_on channel=1 note=51 velocity=110 time=0\n",
      "note_on channel=1 note=54 velocity=110 time=0\n",
      "note_off channel=1 note=45 velocity=0 time=853\n",
      "note_off channel=1 note=49 velocity=0 time=0\n",
      "note_off channel=1 note=51 velocity=0 time=0\n",
      "note_off channel=1 note=54 velocity=0 time=0\n",
      "note_on channel=1 note=51 velocity=110 time=171\n",
      "note_off channel=1 note=51 velocity=0 time=853\n",
      "note_on channel=1 note=50 velocity=110 time=171\n",
      "note_off channel=1 note=50 velocity=0 time=501\n",
      "note_on channel=1 note=45 velocity=110 time=11\n",
      "note_on channel=1 note=50 velocity=110 time=0\n",
      "note_on channel=1 note=54 velocity=110 time=0\n",
      "note_off channel=1 note=45 velocity=0 time=501\n",
      "note_off channel=1 note=50 velocity=0 time=0\n",
      "note_off channel=1 note=54 velocity=0 time=0\n",
      "note_on channel=1 note=45 velocity=110 time=11\n",
      "note_off channel=1 note=45 velocity=0 time=501\n",
      "note_on channel=1 note=45 velocity=110 time=11\n",
      "note_on channel=1 note=50 velocity=110 time=0\n",
      "note_on channel=1 note=54 velocity=110 time=0\n",
      "note_off channel=1 note=45 velocity=0 time=501\n",
      "note_off channel=1 note=50 velocity=0 time=0\n",
      "note_off channel=1 note=54 velocity=0 time=0\n",
      "note_on channel=1 note=50 velocity=110 time=11\n",
      "note_off channel=1 note=50 velocity=0 time=501\n",
      "note_on channel=1 note=45 velocity=110 time=11\n",
      "note_on channel=1 note=50 velocity=110 time=0\n",
      "note_on channel=1 note=54 velocity=110 time=0\n",
      "note_off channel=1 note=45 velocity=0 time=501\n",
      "note_off channel=1 note=50 velocity=0 time=0\n",
      "note_off channel=1 note=54 velocity=0 time=0\n",
      "note_on channel=1 note=52 velocity=110 time=11\n",
      "note_off channel=1 note=52 velocity=0 time=501\n",
      "note_on channel=1 note=45 velocity=110 time=11\n",
      "note_on channel=1 note=50 velocity=110 time=0\n",
      "note_on channel=1 note=54 velocity=110 time=0\n",
      "note_off channel=1 note=45 velocity=0 time=501\n",
      "note_off channel=1 note=50 velocity=0 time=0\n",
      "note_off channel=1 note=54 velocity=0 time=0\n",
      "note_on channel=1 note=43 velocity=110 time=11\n",
      "note_on channel=1 note=47 velocity=110 time=0\n",
      "note_on channel=1 note=50 velocity=110 time=0\n",
      "note_on channel=1 note=55 velocity=110 time=0\n",
      "note_off channel=1 note=43 velocity=0 time=853\n",
      "note_off channel=1 note=47 velocity=0 time=0\n",
      "note_off channel=1 note=50 velocity=0 time=0\n",
      "note_off channel=1 note=55 velocity=0 time=0\n",
      "note_on channel=1 note=55 velocity=110 time=171\n",
      "note_off channel=1 note=55 velocity=0 time=853\n",
      "note_on channel=1 note=43 velocity=110 time=171\n",
      "note_on channel=1 note=46 velocity=110 time=0\n",
      "note_on channel=1 note=49 velocity=110 time=0\n",
      "note_on channel=1 note=55 velocity=110 time=0\n",
      "note_off channel=1 note=43 velocity=0 time=853\n",
      "note_off channel=1 note=46 velocity=0 time=0\n",
      "note_off channel=1 note=49 velocity=0 time=0\n",
      "note_off channel=1 note=55 velocity=0 time=0\n",
      "note_on channel=1 note=43 velocity=110 time=171\n",
      "note_on channel=1 note=46 velocity=110 time=0\n",
      "note_on channel=1 note=49 velocity=110 time=0\n",
      "note_on channel=1 note=55 velocity=110 time=0\n",
      "note_off channel=1 note=43 velocity=0 time=853\n",
      "note_off channel=1 note=46 velocity=0 time=0\n",
      "note_off channel=1 note=49 velocity=0 time=0\n",
      "note_off channel=1 note=55 velocity=0 time=0\n",
      "note_on channel=1 note=54 velocity=110 time=171\n",
      "note_off channel=1 note=54 velocity=0 time=501\n",
      "note_on channel=1 note=42 velocity=110 time=11\n",
      "note_on channel=1 note=45 velocity=110 time=0\n",
      "note_on channel=1 note=50 velocity=110 time=0\n",
      "note_off channel=1 note=42 velocity=0 time=501\n",
      "note_off channel=1 note=45 velocity=0 time=0\n",
      "note_off channel=1 note=50 velocity=0 time=0\n",
      "note_on channel=1 note=49 velocity=110 time=11\n",
      "note_off channel=1 note=49 velocity=0 time=501\n",
      "note_on channel=1 note=51 velocity=110 time=11\n",
      "note_off channel=1 note=51 velocity=0 time=501\n",
      "note_on channel=1 note=42 velocity=110 time=11\n",
      "note_on channel=1 note=45 velocity=110 time=0\n",
      "note_on channel=1 note=50 velocity=110 time=0\n",
      "note_on channel=1 note=54 velocity=110 time=0\n",
      "note_off channel=1 note=42 velocity=0 time=853\n",
      "note_off channel=1 note=45 velocity=0 time=0\n",
      "note_off channel=1 note=50 velocity=0 time=0\n",
      "note_off channel=1 note=54 velocity=0 time=0\n",
      "note_on channel=1 note=42 velocity=110 time=171\n",
      "note_on channel=1 note=45 velocity=110 time=0\n",
      "note_on channel=1 note=50 velocity=110 time=0\n",
      "note_on channel=1 note=54 velocity=110 time=0\n",
      "note_off channel=1 note=42 velocity=0 time=853\n",
      "note_off channel=1 note=45 velocity=0 time=0\n",
      "note_off channel=1 note=50 velocity=0 time=0\n",
      "note_off channel=1 note=54 velocity=0 time=0\n",
      "note_on channel=1 note=52 velocity=110 time=171\n",
      "note_off channel=1 note=52 velocity=0 time=501\n",
      "note_on channel=1 note=43 velocity=110 time=11\n",
      "note_on channel=1 note=47 velocity=110 time=0\n",
      "note_on channel=1 note=50 velocity=110 time=0\n",
      "note_off channel=1 note=43 velocity=0 time=501\n",
      "note_off channel=1 note=47 velocity=0 time=0\n",
      "note_off channel=1 note=50 velocity=0 time=0\n",
      "note_on channel=1 note=52 velocity=110 time=11\n",
      "note_off channel=1 note=52 velocity=0 time=501\n",
      "note_on channel=1 note=43 velocity=110 time=11\n",
      "note_on channel=1 note=47 velocity=110 time=0\n",
      "note_on channel=1 note=50 velocity=110 time=0\n",
      "note_off channel=1 note=43 velocity=0 time=501\n",
      "note_off channel=1 note=47 velocity=0 time=0\n",
      "note_off channel=1 note=50 velocity=0 time=0\n",
      "note_on channel=1 note=50 velocity=110 time=11\n",
      "note_off channel=1 note=50 velocity=0 time=501\n",
      "note_on channel=1 note=43 velocity=110 time=11\n",
      "note_on channel=1 note=47 velocity=110 time=0\n",
      "note_on channel=1 note=50 velocity=110 time=0\n",
      "note_off channel=1 note=43 velocity=0 time=501\n",
      "note_off channel=1 note=47 velocity=0 time=0\n",
      "note_off channel=1 note=50 velocity=0 time=0\n",
      "note_on channel=1 note=50 velocity=110 time=11\n",
      "note_off channel=1 note=50 velocity=0 time=501\n",
      "note_on channel=1 note=43 velocity=110 time=11\n",
      "note_on channel=1 note=46 velocity=110 time=0\n",
      "note_on channel=1 note=50 velocity=110 time=0\n",
      "note_off channel=1 note=43 velocity=0 time=501\n",
      "note_off channel=1 note=46 velocity=0 time=0\n",
      "note_off channel=1 note=50 velocity=0 time=0\n",
      "note_on channel=1 note=42 velocity=110 time=11\n",
      "note_on channel=1 note=45 velocity=110 time=0\n",
      "note_on channel=1 note=50 velocity=110 time=0\n",
      "note_off channel=1 note=42 velocity=0 time=853\n",
      "note_off channel=1 note=45 velocity=0 time=0\n",
      "note_off channel=1 note=50 velocity=0 time=0\n",
      "note_on channel=1 note=45 velocity=110 time=171\n",
      "note_off channel=1 note=45 velocity=0 time=853\n",
      "note_on channel=1 note=50 velocity=110 time=171\n",
      "note_off channel=1 note=50 velocity=0 time=501\n",
      "note_on channel=1 note=42 velocity=110 time=11\n",
      "note_on channel=1 note=45 velocity=110 time=0\n",
      "note_on channel=1 note=50 velocity=110 time=0\n",
      "note_off channel=1 note=42 velocity=0 time=501\n",
      "note_off channel=1 note=45 velocity=0 time=0\n",
      "note_off channel=1 note=50 velocity=0 time=0\n",
      "note_on channel=1 note=45 velocity=110 time=11\n",
      "note_off channel=1 note=45 velocity=0 time=245\n",
      "note_on channel=1 note=42 velocity=110 time=11\n",
      "note_on channel=1 note=45 velocity=110 time=0\n",
      "note_on channel=1 note=50 velocity=110 time=0\n",
      "note_off channel=1 note=42 velocity=0 time=757\n",
      "note_off channel=1 note=45 velocity=0 time=0\n",
      "note_off channel=1 note=50 velocity=0 time=0\n",
      "note_on channel=1 note=50 velocity=110 time=11\n",
      "note_off channel=1 note=50 velocity=0 time=501\n",
      "note_on channel=1 note=45 velocity=110 time=11\n",
      "note_on channel=1 note=50 velocity=110 time=0\n",
      "note_on channel=1 note=54 velocity=110 time=0\n",
      "note_off channel=1 note=45 velocity=0 time=501\n",
      "note_off channel=1 note=50 velocity=0 time=0\n",
      "note_off channel=1 note=54 velocity=0 time=0\n",
      "note_on channel=1 note=49 velocity=110 time=11\n",
      "note_off channel=1 note=49 velocity=0 time=501\n",
      "note_on channel=1 note=45 velocity=110 time=11\n",
      "note_on channel=1 note=50 velocity=110 time=0\n",
      "note_on channel=1 note=54 velocity=110 time=0\n",
      "note_off channel=1 note=45 velocity=0 time=501\n",
      "note_off channel=1 note=50 velocity=0 time=0\n",
      "note_off channel=1 note=54 velocity=0 time=0\n",
      "note_on channel=1 note=47 velocity=110 time=11\n",
      "note_off channel=1 note=47 velocity=0 time=501\n",
      "note_on channel=1 note=45 velocity=110 time=11\n",
      "note_on channel=1 note=50 velocity=110 time=0\n",
      "note_on channel=1 note=54 velocity=110 time=0\n",
      "note_off channel=1 note=45 velocity=0 time=501\n",
      "note_off channel=1 note=50 velocity=0 time=0\n",
      "note_off channel=1 note=54 velocity=0 time=0\n",
      "note_on channel=1 note=45 velocity=110 time=11\n",
      "note_off channel=1 note=45 velocity=0 time=501\n",
      "note_on channel=1 note=45 velocity=110 time=11\n",
      "note_on channel=1 note=50 velocity=110 time=0\n",
      "note_on channel=1 note=54 velocity=110 time=0\n",
      "note_off channel=1 note=45 velocity=0 time=501\n",
      "note_off channel=1 note=50 velocity=0 time=0\n",
      "note_off channel=1 note=54 velocity=0 time=0\n",
      "note_on channel=1 note=50 velocity=110 time=11\n",
      "note_off channel=1 note=50 velocity=0 time=501\n",
      "note_on channel=1 note=45 velocity=110 time=11\n",
      "note_on channel=1 note=50 velocity=110 time=0\n",
      "note_on channel=1 note=54 velocity=110 time=0\n",
      "note_off channel=1 note=45 velocity=0 time=501\n",
      "note_off channel=1 note=50 velocity=0 time=0\n",
      "note_off channel=1 note=54 velocity=0 time=0\n",
      "note_on channel=1 note=45 velocity=110 time=11\n",
      "note_off channel=1 note=45 velocity=0 time=501\n",
      "note_on channel=1 note=45 velocity=110 time=11\n",
      "note_on channel=1 note=50 velocity=110 time=0\n",
      "note_on channel=1 note=54 velocity=110 time=0\n",
      "note_off channel=1 note=45 velocity=0 time=501\n",
      "note_off channel=1 note=50 velocity=0 time=0\n",
      "note_off channel=1 note=54 velocity=0 time=0\n",
      "note_on channel=1 note=50 velocity=110 time=11\n",
      "note_off channel=1 note=50 velocity=0 time=501\n",
      "note_on channel=1 note=45 velocity=110 time=11\n",
      "note_on channel=1 note=50 velocity=110 time=0\n",
      "note_on channel=1 note=54 velocity=110 time=0\n",
      "note_off channel=1 note=45 velocity=0 time=501\n",
      "note_off channel=1 note=50 velocity=0 time=0\n",
      "note_off channel=1 note=54 velocity=0 time=0\n",
      "note_on channel=1 note=52 velocity=110 time=11\n",
      "note_off channel=1 note=52 velocity=0 time=501\n",
      "note_on channel=1 note=45 velocity=110 time=11\n",
      "note_on channel=1 note=50 velocity=110 time=0\n",
      "note_on channel=1 note=54 velocity=110 time=0\n",
      "note_off channel=1 note=45 velocity=0 time=501\n",
      "note_off channel=1 note=50 velocity=0 time=0\n",
      "note_off channel=1 note=54 velocity=0 time=0\n",
      "note_on channel=1 note=47 velocity=110 time=11\n",
      "note_on channel=1 note=50 velocity=110 time=0\n",
      "note_on channel=1 note=55 velocity=110 time=0\n",
      "note_off channel=1 note=47 velocity=0 time=853\n",
      "note_off channel=1 note=50 velocity=0 time=0\n",
      "note_off channel=1 note=55 velocity=0 time=0\n",
      "note_on channel=1 note=54 velocity=110 time=171\n",
      "note_off channel=1 note=54 velocity=0 time=501\n",
      "note_on channel=1 note=47 velocity=110 time=11\n",
      "note_on channel=1 note=50 velocity=110 time=0\n",
      "note_on channel=1 note=55 velocity=110 time=0\n",
      "note_off channel=1 note=47 velocity=0 time=501\n",
      "note_off channel=1 note=50 velocity=0 time=0\n",
      "note_off channel=1 note=55 velocity=0 time=0\n",
      "note_on channel=1 note=52 velocity=110 time=11\n",
      "note_off channel=1 note=52 velocity=0 time=501\n",
      "note_on channel=1 note=47 velocity=110 time=11\n",
      "note_on channel=1 note=50 velocity=110 time=0\n",
      "note_on channel=1 note=55 velocity=110 time=0\n",
      "note_off channel=1 note=47 velocity=0 time=501\n",
      "note_off channel=1 note=50 velocity=0 time=0\n",
      "note_off channel=1 note=55 velocity=0 time=0\n",
      "note_on channel=1 note=50 velocity=110 time=11\n",
      "note_off channel=1 note=50 velocity=0 time=501\n",
      "note_on channel=1 note=47 velocity=110 time=11\n",
      "note_on channel=1 note=50 velocity=110 time=0\n",
      "note_on channel=1 note=55 velocity=110 time=0\n",
      "note_off channel=1 note=47 velocity=0 time=501\n",
      "note_off channel=1 note=50 velocity=0 time=0\n",
      "note_off channel=1 note=55 velocity=0 time=0\n",
      "note_on channel=1 note=55 velocity=110 time=11\n",
      "note_off channel=1 note=55 velocity=0 time=501\n",
      "note_on channel=1 note=47 velocity=110 time=11\n",
      "note_on channel=1 note=50 velocity=110 time=0\n",
      "note_on channel=1 note=55 velocity=110 time=0\n",
      "note_off channel=1 note=47 velocity=0 time=501\n",
      "note_off channel=1 note=50 velocity=0 time=0\n",
      "note_off channel=1 note=55 velocity=0 time=0\n",
      "note_on channel=1 note=50 velocity=110 time=11\n",
      "note_off channel=1 note=50 velocity=0 time=501\n",
      "note_on channel=1 note=47 velocity=110 time=11\n",
      "note_on channel=1 note=50 velocity=110 time=0\n",
      "note_on channel=1 note=55 velocity=110 time=0\n",
      "note_off channel=1 note=47 velocity=0 time=501\n",
      "note_off channel=1 note=50 velocity=0 time=0\n",
      "note_off channel=1 note=55 velocity=0 time=0\n",
      "note_on channel=1 note=55 velocity=110 time=11\n",
      "note_off channel=1 note=55 velocity=0 time=501\n",
      "note_on channel=1 note=47 velocity=110 time=11\n",
      "note_on channel=1 note=50 velocity=110 time=0\n",
      "note_on channel=1 note=55 velocity=110 time=0\n",
      "note_off channel=1 note=47 velocity=0 time=245\n",
      "note_off channel=1 note=50 velocity=0 time=0\n",
      "note_off channel=1 note=55 velocity=0 time=0\n",
      "note_on channel=1 note=55 velocity=110 time=11\n",
      "note_off channel=1 note=55 velocity=0 time=245\n",
      "note_on channel=1 note=54 velocity=110 time=11\n",
      "note_off channel=1 note=54 velocity=0 time=501\n",
      "note_on channel=1 note=47 velocity=110 time=11\n",
      "note_on channel=1 note=50 velocity=110 time=0\n",
      "note_on channel=1 note=52 velocity=110 time=0\n",
      "note_on channel=1 note=55 velocity=110 time=0\n",
      "note_off channel=1 note=47 velocity=0 time=501\n",
      "note_off channel=1 note=50 velocity=0 time=0\n",
      "note_off channel=1 note=52 velocity=0 time=0\n",
      "note_off channel=1 note=55 velocity=0 time=0\n",
      "note_on channel=1 note=45 velocity=110 time=11\n",
      "note_on channel=1 note=50 velocity=110 time=0\n",
      "note_on channel=1 note=54 velocity=110 time=0\n",
      "note_off channel=1 note=45 velocity=0 time=757\n",
      "note_off channel=1 note=50 velocity=0 time=0\n",
      "note_off channel=1 note=54 velocity=0 time=0\n",
      "note_on channel=1 note=45 velocity=110 time=11\n",
      "note_on channel=1 note=50 velocity=110 time=0\n",
      "note_on channel=1 note=54 velocity=110 time=0\n",
      "note_off channel=1 note=45 velocity=0 time=245\n",
      "note_off channel=1 note=50 velocity=0 time=0\n",
      "note_off channel=1 note=54 velocity=0 time=0\n",
      "note_on channel=1 note=49 velocity=110 time=11\n",
      "note_off channel=1 note=49 velocity=0 time=501\n",
      "note_on channel=1 note=45 velocity=110 time=11\n",
      "note_on channel=1 note=50 velocity=110 time=0\n",
      "note_on channel=1 note=54 velocity=110 time=0\n",
      "note_off channel=1 note=45 velocity=0 time=501\n",
      "note_off channel=1 note=50 velocity=0 time=0\n",
      "note_off channel=1 note=54 velocity=0 time=0\n",
      "note_on channel=1 note=47 velocity=110 time=11\n",
      "note_off channel=1 note=47 velocity=0 time=501\n",
      "note_on channel=1 note=45 velocity=110 time=11\n",
      "note_on channel=1 note=50 velocity=110 time=0\n",
      "note_on channel=1 note=54 velocity=110 time=0\n",
      "note_off channel=1 note=45 velocity=0 time=501\n",
      "note_off channel=1 note=50 velocity=0 time=0\n",
      "note_off channel=1 note=54 velocity=0 time=0\n",
      "note_on channel=1 note=45 velocity=110 time=11\n",
      "note_off channel=1 note=45 velocity=0 time=501\n",
      "note_on channel=1 note=45 velocity=110 time=11\n",
      "note_on channel=1 note=50 velocity=110 time=0\n",
      "note_on channel=1 note=54 velocity=110 time=0\n",
      "note_off channel=1 note=45 velocity=0 time=501\n",
      "note_off channel=1 note=50 velocity=0 time=0\n",
      "note_off channel=1 note=54 velocity=0 time=0\n",
      "note_on channel=1 note=45 velocity=110 time=11\n",
      "note_on channel=1 note=50 velocity=110 time=0\n",
      "note_on channel=1 note=54 velocity=110 time=0\n",
      "note_off channel=1 note=45 velocity=0 time=853\n",
      "note_off channel=1 note=50 velocity=0 time=0\n",
      "note_off channel=1 note=54 velocity=0 time=0\n",
      "note_on channel=1 note=45 velocity=110 time=171\n",
      "note_off channel=1 note=45 velocity=0 time=501\n",
      "note_on channel=1 note=45 velocity=110 time=11\n",
      "note_on channel=1 note=50 velocity=110 time=0\n",
      "note_on channel=1 note=54 velocity=110 time=0\n",
      "note_off channel=1 note=45 velocity=0 time=501\n",
      "note_off channel=1 note=50 velocity=0 time=0\n",
      "note_off channel=1 note=54 velocity=0 time=0\n",
      "note_on channel=1 note=50 velocity=110 time=11\n",
      "note_off channel=1 note=50 velocity=0 time=501\n",
      "note_on channel=1 note=45 velocity=110 time=11\n",
      "note_on channel=1 note=50 velocity=110 time=0\n",
      "note_on channel=1 note=54 velocity=110 time=0\n",
      "note_off channel=1 note=45 velocity=0 time=501\n",
      "note_off channel=1 note=50 velocity=0 time=0\n",
      "note_off channel=1 note=54 velocity=0 time=0\n",
      "note_on channel=1 note=52 velocity=110 time=11\n",
      "note_off channel=1 note=52 velocity=0 time=501\n",
      "note_on channel=1 note=45 velocity=110 time=11\n",
      "note_on channel=1 note=50 velocity=110 time=0\n",
      "note_on channel=1 note=54 velocity=110 time=0\n",
      "note_off channel=1 note=45 velocity=0 time=501\n",
      "note_off channel=1 note=50 velocity=0 time=0\n",
      "note_off channel=1 note=54 velocity=0 time=0\n",
      "note_on channel=1 note=47 velocity=110 time=11\n",
      "note_on channel=1 note=50 velocity=110 time=0\n",
      "note_on channel=1 note=55 velocity=110 time=0\n",
      "note_off channel=1 note=47 velocity=0 time=757\n",
      "note_off channel=1 note=50 velocity=0 time=0\n",
      "note_off channel=1 note=55 velocity=0 time=0\n",
      "note_on channel=1 note=47 velocity=110 time=11\n",
      "note_on channel=1 note=50 velocity=110 time=0\n",
      "note_on channel=1 note=55 velocity=110 time=0\n",
      "note_off channel=1 note=47 velocity=0 time=245\n",
      "note_off channel=1 note=50 velocity=0 time=0\n",
      "note_off channel=1 note=55 velocity=0 time=0\n",
      "note_on channel=1 note=50 velocity=110 time=11\n",
      "note_off channel=1 note=50 velocity=0 time=501\n",
      "note_on channel=1 note=47 velocity=110 time=11\n",
      "note_on channel=1 note=50 velocity=110 time=0\n",
      "note_on channel=1 note=55 velocity=110 time=0\n",
      "note_off channel=1 note=47 velocity=0 time=501\n",
      "note_off channel=1 note=50 velocity=0 time=0\n",
      "note_off channel=1 note=55 velocity=0 time=0\n",
      "note_on channel=1 note=55 velocity=110 time=11\n",
      "note_off channel=1 note=55 velocity=0 time=501\n",
      "note_on channel=1 note=47 velocity=110 time=11\n",
      "note_on channel=1 note=50 velocity=110 time=0\n",
      "note_on channel=1 note=55 velocity=110 time=0\n",
      "note_off channel=1 note=47 velocity=0 time=501\n",
      "note_off channel=1 note=50 velocity=0 time=0\n",
      "note_off channel=1 note=55 velocity=0 time=0\n",
      "note_on channel=1 note=50 velocity=110 time=11\n",
      "note_off channel=1 note=50 velocity=0 time=501\n",
      "note_on channel=1 note=47 velocity=110 time=11\n",
      "note_on channel=1 note=50 velocity=110 time=0\n",
      "note_on channel=1 note=55 velocity=110 time=0\n",
      "note_off channel=1 note=47 velocity=0 time=501\n",
      "note_off channel=1 note=50 velocity=0 time=0\n",
      "note_off channel=1 note=55 velocity=0 time=0\n",
      "note_on channel=1 note=55 velocity=110 time=11\n",
      "note_off channel=1 note=55 velocity=0 time=501\n",
      "note_on channel=1 note=47 velocity=110 time=11\n",
      "note_on channel=1 note=50 velocity=110 time=0\n",
      "note_on channel=1 note=55 velocity=110 time=0\n",
      "note_off channel=1 note=47 velocity=0 time=501\n",
      "note_off channel=1 note=50 velocity=0 time=0\n",
      "note_off channel=1 note=55 velocity=0 time=0\n",
      "note_on channel=1 note=50 velocity=110 time=11\n",
      "note_off channel=1 note=50 velocity=0 time=501\n",
      "note_on channel=1 note=47 velocity=110 time=11\n",
      "note_on channel=1 note=50 velocity=110 time=0\n",
      "note_on channel=1 note=55 velocity=110 time=0\n",
      "note_off channel=1 note=47 velocity=0 time=501\n",
      "note_off channel=1 note=50 velocity=0 time=0\n",
      "note_off channel=1 note=55 velocity=0 time=0\n",
      "note_on channel=1 note=55 velocity=110 time=11\n",
      "note_off channel=1 note=55 velocity=0 time=501\n",
      "note_on channel=1 note=47 velocity=110 time=11\n",
      "note_on channel=1 note=50 velocity=110 time=0\n",
      "note_on channel=1 note=55 velocity=110 time=0\n",
      "note_off channel=1 note=47 velocity=0 time=501\n",
      "note_off channel=1 note=50 velocity=0 time=0\n",
      "note_off channel=1 note=55 velocity=0 time=0\n",
      "note_on channel=1 note=54 velocity=110 time=11\n",
      "note_off channel=1 note=54 velocity=0 time=501\n",
      "note_on channel=1 note=47 velocity=110 time=11\n",
      "note_on channel=1 note=50 velocity=110 time=0\n",
      "note_on channel=1 note=55 velocity=110 time=0\n",
      "note_off channel=1 note=47 velocity=0 time=501\n",
      "note_off channel=1 note=50 velocity=0 time=0\n",
      "note_off channel=1 note=55 velocity=0 time=0\n",
      "note_on channel=1 note=42 velocity=110 time=11\n",
      "note_on channel=1 note=45 velocity=110 time=0\n",
      "note_on channel=1 note=50 velocity=110 time=0\n",
      "note_off channel=1 note=42 velocity=0 time=853\n",
      "note_off channel=1 note=45 velocity=0 time=0\n",
      "note_off channel=1 note=50 velocity=0 time=0\n",
      "note_on channel=1 note=45 velocity=110 time=171\n",
      "note_off channel=1 note=45 velocity=0 time=853\n",
      "note_on channel=1 note=50 velocity=110 time=171\n",
      "note_off channel=1 note=50 velocity=0 time=501\n",
      "note_on channel=1 note=42 velocity=110 time=11\n",
      "note_on channel=1 note=45 velocity=110 time=0\n",
      "note_on channel=1 note=50 velocity=110 time=0\n",
      "note_off channel=1 note=42 velocity=0 time=501\n",
      "note_off channel=1 note=45 velocity=0 time=0\n",
      "note_off channel=1 note=50 velocity=0 time=0\n",
      "note_on channel=1 note=45 velocity=110 time=11\n",
      "note_off channel=1 note=45 velocity=0 time=245\n",
      "note_on channel=1 note=42 velocity=110 time=11\n",
      "note_on channel=1 note=45 velocity=110 time=0\n",
      "note_on channel=1 note=50 velocity=110 time=0\n",
      "note_off channel=1 note=42 velocity=0 time=757\n",
      "note_off channel=1 note=45 velocity=0 time=0\n",
      "note_off channel=1 note=50 velocity=0 time=0\n",
      "note_on channel=1 note=42 velocity=110 time=11\n",
      "note_on channel=1 note=45 velocity=110 time=0\n",
      "note_on channel=1 note=50 velocity=110 time=0\n",
      "note_off channel=1 note=42 velocity=0 time=853\n",
      "note_off channel=1 note=45 velocity=0 time=0\n",
      "note_off channel=1 note=50 velocity=0 time=0\n",
      "note_on channel=1 note=45 velocity=110 time=171\n",
      "note_off channel=1 note=45 velocity=0 time=501\n",
      "note_on channel=1 note=42 velocity=110 time=11\n",
      "note_on channel=1 note=45 velocity=110 time=0\n",
      "note_on channel=1 note=50 velocity=110 time=0\n",
      "note_off channel=1 note=42 velocity=0 time=501\n",
      "note_off channel=1 note=45 velocity=0 time=0\n",
      "note_off channel=1 note=50 velocity=0 time=0\n",
      "note_on channel=1 note=50 velocity=110 time=11\n",
      "note_off channel=1 note=50 velocity=0 time=501\n",
      "note_on channel=1 note=42 velocity=110 time=11\n",
      "note_on channel=1 note=45 velocity=110 time=0\n",
      "note_on channel=1 note=50 velocity=110 time=0\n",
      "note_off channel=1 note=42 velocity=0 time=501\n",
      "note_off channel=1 note=45 velocity=0 time=0\n",
      "note_off channel=1 note=50 velocity=0 time=0\n",
      "note_on channel=1 note=52 velocity=110 time=11\n",
      "note_off channel=1 note=52 velocity=0 time=501\n",
      "note_on channel=1 note=42 velocity=110 time=11\n",
      "note_on channel=1 note=45 velocity=110 time=0\n",
      "note_on channel=1 note=50 velocity=110 time=0\n",
      "note_on channel=1 note=54 velocity=110 time=0\n",
      "note_off channel=1 note=42 velocity=0 time=501\n",
      "note_off channel=1 note=45 velocity=0 time=0\n",
      "note_off channel=1 note=50 velocity=0 time=0\n",
      "note_off channel=1 note=54 velocity=0 time=0\n",
      "note_on channel=1 note=47 velocity=110 time=11\n",
      "note_on channel=1 note=50 velocity=110 time=0\n",
      "note_on channel=1 note=55 velocity=110 time=0\n",
      "note_off channel=1 note=47 velocity=0 time=853\n",
      "note_off channel=1 note=50 velocity=0 time=0\n",
      "note_off channel=1 note=55 velocity=0 time=0\n",
      "note_on channel=1 note=50 velocity=110 time=171\n",
      "note_off channel=1 note=50 velocity=0 time=501\n",
      "note_on channel=1 note=47 velocity=110 time=11\n",
      "note_on channel=1 note=50 velocity=110 time=0\n",
      "note_on channel=1 note=55 velocity=110 time=0\n",
      "note_off channel=1 note=47 velocity=0 time=501\n",
      "note_off channel=1 note=50 velocity=0 time=0\n",
      "note_off channel=1 note=55 velocity=0 time=0\n",
      "note_on channel=1 note=47 velocity=110 time=11\n",
      "note_on channel=1 note=50 velocity=110 time=0\n",
      "note_on channel=1 note=55 velocity=110 time=0\n",
      "note_off channel=1 note=47 velocity=0 time=853\n",
      "note_off channel=1 note=50 velocity=0 time=0\n",
      "note_off channel=1 note=55 velocity=0 time=0\n",
      "note_on channel=1 note=47 velocity=110 time=171\n",
      "note_on channel=1 note=50 velocity=110 time=0\n",
      "note_on channel=1 note=55 velocity=110 time=0\n",
      "note_off channel=1 note=47 velocity=0 time=853\n",
      "note_off channel=1 note=50 velocity=0 time=0\n",
      "note_off channel=1 note=55 velocity=0 time=0\n",
      "note_on channel=1 note=57 velocity=110 time=171\n",
      "note_off channel=1 note=57 velocity=0 time=501\n",
      "note_on channel=1 note=47 velocity=110 time=11\n",
      "note_on channel=1 note=50 velocity=110 time=0\n",
      "note_on channel=1 note=55 velocity=110 time=0\n",
      "note_off channel=1 note=47 velocity=0 time=501\n",
      "note_off channel=1 note=50 velocity=0 time=0\n",
      "note_off channel=1 note=55 velocity=0 time=0\n",
      "note_on channel=1 note=52 velocity=110 time=11\n",
      "note_off channel=1 note=52 velocity=0 time=501\n",
      "note_on channel=1 note=47 velocity=110 time=11\n",
      "note_on channel=1 note=50 velocity=110 time=0\n",
      "note_on channel=1 note=55 velocity=110 time=0\n",
      "note_off channel=1 note=47 velocity=0 time=501\n",
      "note_off channel=1 note=50 velocity=0 time=0\n",
      "note_off channel=1 note=55 velocity=0 time=0\n",
      "note_on channel=1 note=57 velocity=110 time=11\n",
      "note_off channel=1 note=57 velocity=0 time=501\n",
      "note_on channel=1 note=47 velocity=110 time=11\n",
      "note_on channel=1 note=50 velocity=110 time=0\n",
      "note_on channel=1 note=55 velocity=110 time=0\n",
      "note_off channel=1 note=47 velocity=0 time=501\n",
      "note_off channel=1 note=50 velocity=0 time=0\n",
      "note_off channel=1 note=55 velocity=0 time=0\n",
      "note_on channel=1 note=52 velocity=110 time=11\n",
      "note_off channel=1 note=52 velocity=0 time=501\n",
      "note_on channel=1 note=47 velocity=110 time=11\n",
      "note_on channel=1 note=50 velocity=110 time=0\n",
      "note_on channel=1 note=55 velocity=110 time=0\n",
      "note_off channel=1 note=47 velocity=0 time=501\n",
      "note_off channel=1 note=50 velocity=0 time=0\n",
      "note_off channel=1 note=55 velocity=0 time=0\n",
      "note_on channel=1 note=38 velocity=110 time=11\n",
      "note_on channel=1 note=50 velocity=110 time=0\n",
      "note_off channel=1 note=38 velocity=0 time=17237\n",
      "note_off channel=1 note=50 velocity=0 time=0\n",
      "note_on channel=1 note=38 velocity=110 time=171\n",
      "note_on channel=1 note=50 velocity=110 time=0\n",
      "note_off channel=1 note=38 velocity=0 time=15104\n",
      "note_off channel=1 note=50 velocity=0 time=0\n",
      "note_on channel=1 note=38 velocity=110 time=256\n",
      "note_on channel=1 note=50 velocity=110 time=0\n",
      "note_off channel=1 note=38 velocity=0 time=7936\n",
      "note_off channel=1 note=50 velocity=0 time=0\n",
      "note_on channel=1 note=38 velocity=110 time=256\n",
      "note_on channel=1 note=50 velocity=110 time=0\n",
      "note_off channel=1 note=38 velocity=0 time=4949\n",
      "note_off channel=1 note=50 velocity=0 time=0\n",
      "note_on channel=1 note=40 velocity=110 time=171\n",
      "note_on channel=1 note=52 velocity=110 time=0\n",
      "note_off channel=1 note=40 velocity=0 time=853\n",
      "note_off channel=1 note=52 velocity=0 time=0\n",
      "note_on channel=1 note=41 velocity=110 time=171\n",
      "note_on channel=1 note=53 velocity=110 time=0\n",
      "note_off channel=1 note=41 velocity=0 time=1792\n",
      "note_off channel=1 note=53 velocity=0 time=0\n",
      "note_on channel=1 note=43 velocity=110 time=256\n",
      "note_off channel=1 note=43 velocity=0 time=1792\n",
      "note_on channel=1 note=45 velocity=110 time=256\n",
      "note_off channel=1 note=45 velocity=0 time=1792\n",
      "note_on channel=1 note=43 velocity=110 time=256\n",
      "note_off channel=1 note=43 velocity=0 time=1792\n",
      "note_on channel=1 note=41 velocity=110 time=256\n",
      "note_on channel=1 note=53 velocity=110 time=0\n",
      "note_off channel=1 note=41 velocity=0 time=1792\n",
      "note_off channel=1 note=53 velocity=0 time=0\n",
      "note_on channel=1 note=40 velocity=110 time=256\n",
      "note_on channel=1 note=52 velocity=110 time=0\n",
      "note_off channel=1 note=40 velocity=0 time=501\n",
      "note_off channel=1 note=52 velocity=0 time=0\n",
      "note_on channel=1 note=43 velocity=110 time=11\n",
      "note_off channel=1 note=43 velocity=0 time=501\n",
      "note_on channel=1 note=46 velocity=110 time=11\n",
      "note_off channel=1 note=46 velocity=0 time=501\n",
      "note_on channel=1 note=44 velocity=110 time=11\n",
      "note_off channel=1 note=44 velocity=0 time=501\n",
      "note_on channel=1 note=45 velocity=110 time=11\n",
      "note_off channel=1 note=45 velocity=0 time=1792\n",
      "note_on channel=1 note=38 velocity=110 time=256\n",
      "note_on channel=1 note=50 velocity=110 time=0\n",
      "note_off channel=1 note=38 velocity=0 time=5877\n",
      "note_off channel=1 note=50 velocity=0 time=0\n",
      "note_on channel=1 note=52 velocity=110 time=11\n",
      "note_off channel=1 note=52 velocity=0 time=245\n",
      "note_on channel=1 note=53 velocity=110 time=11\n",
      "note_off channel=1 note=53 velocity=0 time=245\n",
      "note_on channel=1 note=50 velocity=110 time=11\n",
      "note_off channel=1 note=50 velocity=0 time=245\n",
      "note_on channel=1 note=49 velocity=110 time=11\n",
      "note_off channel=1 note=49 velocity=0 time=245\n",
      "note_on channel=1 note=50 velocity=110 time=11\n",
      "note_off channel=1 note=50 velocity=0 time=245\n",
      "note_on channel=1 note=51 velocity=110 time=11\n",
      "note_off channel=1 note=51 velocity=0 time=245\n",
      "note_on channel=1 note=50 velocity=110 time=11\n",
      "note_off channel=1 note=50 velocity=0 time=245\n",
      "note_on channel=1 note=49 velocity=110 time=11\n",
      "note_off channel=1 note=49 velocity=0 time=245\n",
      "note_on channel=1 note=44 velocity=110 time=11\n",
      "note_off channel=1 note=44 velocity=0 time=245\n",
      "note_on channel=1 note=45 velocity=110 time=11\n",
      "note_on channel=1 note=50 velocity=110 time=0\n",
      "note_off channel=1 note=45 velocity=0 time=501\n",
      "note_off channel=1 note=50 velocity=0 time=0\n",
      "note_on channel=1 note=50 velocity=110 time=11\n",
      "note_on channel=1 note=53 velocity=110 time=0\n",
      "note_off channel=1 note=50 velocity=0 time=501\n",
      "note_off channel=1 note=53 velocity=0 time=0\n",
      "note_on channel=1 note=40 velocity=110 time=11\n",
      "note_on channel=1 note=49 velocity=110 time=0\n",
      "note_on channel=1 note=52 velocity=110 time=0\n",
      "note_off channel=1 note=40 velocity=0 time=501\n",
      "note_off channel=1 note=49 velocity=0 time=0\n",
      "note_off channel=1 note=52 velocity=0 time=0\n",
      "note_on channel=1 note=52 velocity=110 time=11\n",
      "note_off channel=1 note=52 velocity=0 time=501\n",
      "note_on channel=1 note=41 velocity=110 time=11\n",
      "note_on channel=1 note=50 velocity=110 time=0\n",
      "note_on channel=1 note=53 velocity=110 time=0\n",
      "note_off channel=1 note=41 velocity=0 time=501\n",
      "note_off channel=1 note=50 velocity=0 time=0\n",
      "note_off channel=1 note=53 velocity=0 time=0\n",
      "note_on channel=1 note=53 velocity=110 time=11\n",
      "note_off channel=1 note=53 velocity=0 time=501\n",
      "note_on channel=1 note=43 velocity=110 time=11\n",
      "note_off channel=1 note=43 velocity=0 time=501\n",
      "note_on channel=1 note=52 velocity=110 time=11\n",
      "note_off channel=1 note=52 velocity=0 time=501\n",
      "note_on channel=1 note=45 velocity=110 time=11\n",
      "note_off channel=1 note=45 velocity=0 time=853\n",
      "note_on channel=1 note=38 velocity=110 time=13483\n",
      "note_on channel=1 note=50 velocity=110 time=0\n",
      "note_off channel=1 note=38 velocity=0 time=1792\n",
      "note_off channel=1 note=50 velocity=0 time=0\n",
      "note_on channel=1 note=39 velocity=110 time=256\n",
      "note_on channel=1 note=51 velocity=110 time=0\n",
      "note_off channel=1 note=39 velocity=0 time=501\n",
      "note_off channel=1 note=51 velocity=0 time=0\n",
      "note_on channel=1 note=38 velocity=110 time=11\n",
      "note_on channel=1 note=50 velocity=110 time=0\n",
      "note_off channel=1 note=38 velocity=0 time=501\n",
      "note_off channel=1 note=50 velocity=0 time=0\n",
      "note_on channel=1 note=49 velocity=110 time=11\n",
      "note_off channel=1 note=49 velocity=0 time=501\n",
      "note_on channel=1 note=44 velocity=110 time=11\n",
      "note_off channel=1 note=44 velocity=0 time=501\n",
      "note_on channel=1 note=45 velocity=110 time=11\n",
      "note_off channel=1 note=45 velocity=0 time=3840\n",
      "note_on channel=1 note=44 velocity=110 time=256\n",
      "note_off channel=1 note=44 velocity=0 time=1792\n",
      "note_on channel=1 note=45 velocity=110 time=256\n",
      "note_off channel=1 note=45 velocity=0 time=501\n",
      "note_on channel=1 note=44 velocity=110 time=11\n",
      "note_off channel=1 note=44 velocity=0 time=501\n",
      "note_on channel=1 note=43 velocity=110 time=11\n",
      "note_off channel=1 note=43 velocity=0 time=501\n",
      "note_on channel=1 note=49 velocity=110 time=11\n",
      "note_off channel=1 note=49 velocity=0 time=501\n",
      "note_on channel=1 note=38 velocity=110 time=11\n",
      "note_on channel=1 note=50 velocity=110 time=0\n",
      "note_off channel=1 note=38 velocity=0 time=3840\n",
      "note_off channel=1 note=50 velocity=0 time=0\n",
      "note_on channel=1 note=38 velocity=110 time=256\n",
      "note_on channel=1 note=50 velocity=110 time=0\n",
      "note_off channel=1 note=38 velocity=0 time=1792\n",
      "note_off channel=1 note=50 velocity=0 time=0\n",
      "note_on channel=1 note=51 velocity=110 time=256\n",
      "note_off channel=1 note=51 velocity=0 time=501\n",
      "note_on channel=1 note=50 velocity=110 time=11\n",
      "note_off channel=1 note=50 velocity=0 time=501\n",
      "note_on channel=1 note=49 velocity=110 time=11\n",
      "note_off channel=1 note=49 velocity=0 time=501\n",
      "note_on channel=1 note=44 velocity=110 time=11\n",
      "note_off channel=1 note=44 velocity=0 time=501\n",
      "note_on channel=1 note=40 velocity=110 time=11\n",
      "note_on channel=1 note=45 velocity=110 time=0\n",
      "note_on channel=1 note=52 velocity=110 time=0\n",
      "note_off channel=1 note=40 velocity=0 time=3840\n",
      "note_off channel=1 note=45 velocity=0 time=0\n",
      "note_off channel=1 note=52 velocity=0 time=0\n",
      "note_on channel=1 note=41 velocity=110 time=256\n",
      "note_on channel=1 note=44 velocity=110 time=0\n",
      "note_on channel=1 note=53 velocity=110 time=0\n",
      "note_off channel=1 note=41 velocity=0 time=1792\n",
      "note_off channel=1 note=44 velocity=0 time=0\n",
      "note_off channel=1 note=53 velocity=0 time=0\n",
      "note_on channel=1 note=45 velocity=110 time=256\n",
      "note_off channel=1 note=45 velocity=0 time=501\n",
      "note_on channel=1 note=44 velocity=110 time=11\n",
      "note_off channel=1 note=44 velocity=0 time=501\n",
      "note_on channel=1 note=40 velocity=110 time=11\n",
      "note_on channel=1 note=43 velocity=110 time=0\n",
      "note_on channel=1 note=52 velocity=110 time=0\n",
      "note_off channel=1 note=40 velocity=0 time=501\n",
      "note_off channel=1 note=43 velocity=0 time=0\n",
      "note_off channel=1 note=52 velocity=0 time=0\n",
      "note_on channel=1 note=49 velocity=110 time=11\n",
      "note_off channel=1 note=49 velocity=0 time=501\n",
      "note_on channel=1 note=38 velocity=110 time=11\n",
      "note_on channel=1 note=50 velocity=110 time=0\n",
      "note_on channel=1 note=53 velocity=110 time=0\n",
      "note_off channel=1 note=38 velocity=0 time=3840\n",
      "note_off channel=1 note=50 velocity=0 time=0\n",
      "note_off channel=1 note=53 velocity=0 time=0\n",
      "note_on channel=1 note=38 velocity=110 time=8448\n",
      "note_on channel=1 note=50 velocity=110 time=0\n",
      "note_off channel=1 note=38 velocity=0 time=4864\n",
      "note_off channel=1 note=50 velocity=0 time=0\n",
      "note_on channel=1 note=40 velocity=110 time=256\n",
      "note_on channel=1 note=52 velocity=110 time=0\n",
      "note_off channel=1 note=40 velocity=0 time=853\n",
      "note_off channel=1 note=52 velocity=0 time=0\n",
      "note_on channel=1 note=41 velocity=110 time=171\n",
      "note_on channel=1 note=53 velocity=110 time=0\n",
      "note_off channel=1 note=41 velocity=0 time=1792\n",
      "note_off channel=1 note=53 velocity=0 time=0\n",
      "note_on channel=1 note=43 velocity=110 time=256\n",
      "note_off channel=1 note=43 velocity=0 time=1792\n",
      "note_on channel=1 note=45 velocity=110 time=256\n",
      "note_off channel=1 note=45 velocity=0 time=1792\n",
      "note_on channel=1 note=43 velocity=110 time=256\n",
      "note_off channel=1 note=43 velocity=0 time=1792\n",
      "note_on channel=1 note=41 velocity=110 time=256\n",
      "note_on channel=1 note=53 velocity=110 time=0\n",
      "note_off channel=1 note=41 velocity=0 time=1792\n",
      "note_off channel=1 note=53 velocity=0 time=0\n",
      "note_on channel=1 note=40 velocity=110 time=256\n",
      "note_on channel=1 note=52 velocity=110 time=0\n",
      "note_off channel=1 note=40 velocity=0 time=501\n",
      "note_off channel=1 note=52 velocity=0 time=0\n",
      "note_on channel=1 note=43 velocity=110 time=11\n",
      "note_off channel=1 note=43 velocity=0 time=501\n",
      "note_on channel=1 note=46 velocity=110 time=11\n",
      "note_off channel=1 note=46 velocity=0 time=501\n",
      "note_on channel=1 note=44 velocity=110 time=11\n",
      "note_off channel=1 note=44 velocity=0 time=501\n",
      "note_on channel=1 note=45 velocity=110 time=11\n",
      "note_off channel=1 note=45 velocity=0 time=1792\n",
      "note_on channel=1 note=38 velocity=110 time=256\n",
      "note_on channel=1 note=50 velocity=110 time=0\n",
      "note_off channel=1 note=38 velocity=0 time=5877\n",
      "note_off channel=1 note=50 velocity=0 time=0\n",
      "note_on channel=1 note=52 velocity=110 time=11\n",
      "note_off channel=1 note=52 velocity=0 time=245\n",
      "note_on channel=1 note=53 velocity=110 time=11\n",
      "note_off channel=1 note=53 velocity=0 time=245\n",
      "note_on channel=1 note=50 velocity=110 time=11\n",
      "note_off channel=1 note=50 velocity=0 time=245\n",
      "note_on channel=1 note=49 velocity=110 time=11\n",
      "note_off channel=1 note=49 velocity=0 time=245\n",
      "note_on channel=1 note=50 velocity=110 time=11\n",
      "note_off channel=1 note=50 velocity=0 time=245\n",
      "note_on channel=1 note=51 velocity=110 time=11\n",
      "note_off channel=1 note=51 velocity=0 time=245\n",
      "note_on channel=1 note=50 velocity=110 time=11\n",
      "note_off channel=1 note=50 velocity=0 time=245\n",
      "note_on channel=1 note=49 velocity=110 time=11\n",
      "note_off channel=1 note=49 velocity=0 time=245\n",
      "note_on channel=1 note=44 velocity=110 time=11\n",
      "note_off channel=1 note=44 velocity=0 time=245\n",
      "note_on channel=1 note=45 velocity=110 time=11\n",
      "note_on channel=1 note=50 velocity=110 time=0\n",
      "note_off channel=1 note=45 velocity=0 time=501\n",
      "note_off channel=1 note=50 velocity=0 time=0\n",
      "note_on channel=1 note=50 velocity=110 time=11\n",
      "note_on channel=1 note=53 velocity=110 time=0\n",
      "note_off channel=1 note=50 velocity=0 time=501\n",
      "note_off channel=1 note=53 velocity=0 time=0\n",
      "note_on channel=1 note=40 velocity=110 time=11\n",
      "note_on channel=1 note=49 velocity=110 time=0\n",
      "note_on channel=1 note=52 velocity=110 time=0\n",
      "note_off channel=1 note=40 velocity=0 time=501\n",
      "note_off channel=1 note=49 velocity=0 time=0\n",
      "note_off channel=1 note=52 velocity=0 time=0\n",
      "note_on channel=1 note=52 velocity=110 time=11\n",
      "note_off channel=1 note=52 velocity=0 time=501\n",
      "note_on channel=1 note=41 velocity=110 time=11\n",
      "note_on channel=1 note=50 velocity=110 time=0\n",
      "note_on channel=1 note=53 velocity=110 time=0\n",
      "note_off channel=1 note=41 velocity=0 time=501\n",
      "note_off channel=1 note=50 velocity=0 time=0\n",
      "note_off channel=1 note=53 velocity=0 time=0\n",
      "note_on channel=1 note=53 velocity=110 time=11\n",
      "note_off channel=1 note=53 velocity=0 time=501\n",
      "note_on channel=1 note=43 velocity=110 time=11\n",
      "note_off channel=1 note=43 velocity=0 time=501\n",
      "note_on channel=1 note=52 velocity=110 time=11\n",
      "note_off channel=1 note=52 velocity=0 time=501\n",
      "note_on channel=1 note=45 velocity=110 time=11\n",
      "note_off channel=1 note=45 velocity=0 time=853\n",
      "note_on channel=1 note=38 velocity=110 time=13483\n",
      "note_on channel=1 note=50 velocity=110 time=0\n",
      "note_off channel=1 note=38 velocity=0 time=1792\n",
      "note_off channel=1 note=50 velocity=0 time=0\n",
      "note_on channel=1 note=39 velocity=110 time=256\n",
      "note_on channel=1 note=51 velocity=110 time=0\n",
      "note_off channel=1 note=39 velocity=0 time=501\n",
      "note_off channel=1 note=51 velocity=0 time=0\n",
      "note_on channel=1 note=38 velocity=110 time=11\n",
      "note_on channel=1 note=50 velocity=110 time=0\n",
      "note_off channel=1 note=38 velocity=0 time=501\n",
      "note_off channel=1 note=50 velocity=0 time=0\n",
      "note_on channel=1 note=49 velocity=110 time=11\n",
      "note_off channel=1 note=49 velocity=0 time=501\n",
      "note_on channel=1 note=44 velocity=110 time=11\n",
      "note_off channel=1 note=44 velocity=0 time=501\n",
      "note_on channel=1 note=45 velocity=110 time=11\n",
      "note_off channel=1 note=45 velocity=0 time=3840\n",
      "note_on channel=1 note=44 velocity=110 time=256\n",
      "note_off channel=1 note=44 velocity=0 time=1792\n",
      "note_on channel=1 note=45 velocity=110 time=256\n",
      "note_off channel=1 note=45 velocity=0 time=501\n",
      "note_on channel=1 note=44 velocity=110 time=11\n",
      "note_off channel=1 note=44 velocity=0 time=501\n",
      "note_on channel=1 note=43 velocity=110 time=11\n",
      "note_off channel=1 note=43 velocity=0 time=501\n",
      "note_on channel=1 note=49 velocity=110 time=11\n",
      "note_off channel=1 note=49 velocity=0 time=501\n",
      "note_on channel=1 note=38 velocity=110 time=11\n",
      "note_on channel=1 note=50 velocity=110 time=0\n",
      "note_off channel=1 note=38 velocity=0 time=3840\n",
      "note_off channel=1 note=50 velocity=0 time=0\n",
      "note_on channel=1 note=38 velocity=110 time=256\n",
      "note_on channel=1 note=50 velocity=110 time=0\n",
      "note_off channel=1 note=38 velocity=0 time=1792\n",
      "note_off channel=1 note=50 velocity=0 time=0\n",
      "note_on channel=1 note=51 velocity=110 time=256\n",
      "note_off channel=1 note=51 velocity=0 time=501\n",
      "note_on channel=1 note=50 velocity=110 time=11\n",
      "note_off channel=1 note=50 velocity=0 time=501\n",
      "note_on channel=1 note=49 velocity=110 time=11\n",
      "note_off channel=1 note=49 velocity=0 time=501\n",
      "note_on channel=1 note=44 velocity=110 time=11\n",
      "note_off channel=1 note=44 velocity=0 time=501\n",
      "note_on channel=1 note=40 velocity=110 time=11\n",
      "note_on channel=1 note=45 velocity=110 time=0\n",
      "note_on channel=1 note=52 velocity=110 time=0\n",
      "note_off channel=1 note=40 velocity=0 time=3840\n",
      "note_off channel=1 note=45 velocity=0 time=0\n",
      "note_off channel=1 note=52 velocity=0 time=0\n",
      "note_on channel=1 note=41 velocity=110 time=256\n",
      "note_on channel=1 note=44 velocity=110 time=0\n",
      "note_on channel=1 note=53 velocity=110 time=0\n",
      "note_off channel=1 note=41 velocity=0 time=1792\n",
      "note_off channel=1 note=44 velocity=0 time=0\n",
      "note_off channel=1 note=53 velocity=0 time=0\n",
      "note_on channel=1 note=45 velocity=110 time=256\n",
      "note_off channel=1 note=45 velocity=0 time=501\n",
      "note_on channel=1 note=44 velocity=110 time=11\n",
      "note_off channel=1 note=44 velocity=0 time=501\n",
      "note_on channel=1 note=40 velocity=110 time=11\n",
      "note_on channel=1 note=43 velocity=110 time=0\n",
      "note_on channel=1 note=52 velocity=110 time=0\n",
      "note_off channel=1 note=40 velocity=0 time=501\n",
      "note_off channel=1 note=43 velocity=0 time=0\n",
      "note_off channel=1 note=52 velocity=0 time=0\n",
      "note_on channel=1 note=49 velocity=110 time=11\n",
      "note_off channel=1 note=49 velocity=0 time=501\n",
      "note_on channel=1 note=38 velocity=110 time=11\n",
      "note_on channel=1 note=50 velocity=110 time=0\n",
      "note_on channel=1 note=53 velocity=110 time=0\n",
      "note_off channel=1 note=38 velocity=0 time=3840\n",
      "note_off channel=1 note=50 velocity=0 time=0\n",
      "note_off channel=1 note=53 velocity=0 time=0\n",
      "note_on channel=1 note=36 velocity=110 time=33024\n",
      "note_off channel=1 note=36 velocity=0 time=3840\n",
      "note_on channel=1 note=41 velocity=110 time=256\n",
      "note_off channel=1 note=41 velocity=0 time=3840\n",
      "note_on channel=1 note=36 velocity=110 time=256\n",
      "note_off channel=1 note=36 velocity=0 time=3840\n",
      "note_on channel=1 note=41 velocity=110 time=256\n",
      "note_off channel=1 note=41 velocity=0 time=1792\n",
      "note_on channel=1 note=43 velocity=110 time=256\n",
      "note_off channel=1 note=43 velocity=0 time=1792\n",
      "note_on channel=1 note=36 velocity=110 time=256\n",
      "note_off channel=1 note=36 velocity=0 time=3840\n",
      "note_on channel=1 note=41 velocity=110 time=256\n",
      "note_off channel=1 note=41 velocity=0 time=1792\n",
      "note_on channel=1 note=43 velocity=110 time=256\n",
      "note_off channel=1 note=43 velocity=0 time=501\n",
      "note_on channel=1 note=43 velocity=110 time=11\n",
      "note_off channel=1 note=43 velocity=0 time=501\n",
      "note_on channel=1 note=43 velocity=110 time=395\n",
      "note_off channel=1 note=43 velocity=0 time=629\n",
      "note_on channel=1 note=36 velocity=110 time=11\n",
      "note_off channel=1 note=36 velocity=0 time=501\n",
      "note_on channel=1 note=36 velocity=110 time=11\n",
      "note_off channel=1 note=36 velocity=0 time=501\n",
      "note_on channel=1 note=36 velocity=110 time=11\n",
      "note_off channel=1 note=36 velocity=0 time=501\n",
      "note_on channel=1 note=36 velocity=110 time=11\n",
      "note_off channel=1 note=36 velocity=0 time=501\n",
      "note_on channel=1 note=38 velocity=110 time=11\n",
      "note_off channel=1 note=38 velocity=0 time=501\n",
      "note_on channel=1 note=38 velocity=110 time=11\n",
      "note_off channel=1 note=38 velocity=0 time=501\n",
      "note_on channel=1 note=38 velocity=110 time=11\n",
      "note_off channel=1 note=38 velocity=0 time=501\n",
      "note_on channel=1 note=38 velocity=110 time=11\n",
      "note_off channel=1 note=38 velocity=0 time=501\n",
      "note_on channel=1 note=40 velocity=110 time=11\n",
      "note_off channel=1 note=40 velocity=0 time=501\n",
      "note_on channel=1 note=40 velocity=110 time=11\n",
      "note_off channel=1 note=40 velocity=0 time=501\n",
      "note_on channel=1 note=40 velocity=110 time=11\n",
      "note_off channel=1 note=40 velocity=0 time=501\n",
      "note_on channel=1 note=40 velocity=110 time=11\n",
      "note_off channel=1 note=40 velocity=0 time=501\n",
      "note_on channel=1 note=36 velocity=110 time=11\n",
      "note_off channel=1 note=36 velocity=0 time=501\n",
      "note_on channel=1 note=36 velocity=110 time=11\n",
      "note_off channel=1 note=36 velocity=0 time=501\n",
      "note_on channel=1 note=36 velocity=110 time=11\n",
      "note_off channel=1 note=36 velocity=0 time=501\n",
      "note_on channel=1 note=36 velocity=110 time=11\n",
      "note_off channel=1 note=36 velocity=0 time=501\n",
      "note_on channel=1 note=41 velocity=110 time=11\n",
      "note_off channel=1 note=41 velocity=0 time=501\n",
      "note_on channel=1 note=41 velocity=110 time=11\n",
      "note_off channel=1 note=41 velocity=0 time=501\n",
      "note_on channel=1 note=41 velocity=110 time=11\n",
      "note_off channel=1 note=41 velocity=0 time=501\n",
      "note_on channel=1 note=41 velocity=110 time=11\n",
      "note_off channel=1 note=41 velocity=0 time=501\n",
      "note_on channel=1 note=43 velocity=110 time=11\n",
      "note_off channel=1 note=43 velocity=0 time=501\n",
      "note_on channel=1 note=43 velocity=110 time=11\n",
      "note_off channel=1 note=43 velocity=0 time=501\n",
      "note_on channel=1 note=43 velocity=110 time=11\n",
      "note_off channel=1 note=43 velocity=0 time=501\n",
      "note_on channel=1 note=43 velocity=110 time=11\n",
      "note_off channel=1 note=43 velocity=0 time=501\n",
      "note_on channel=1 note=36 velocity=110 time=11\n",
      "note_off channel=1 note=36 velocity=0 time=501\n",
      "note_on channel=1 note=36 velocity=110 time=11\n",
      "note_off channel=1 note=36 velocity=0 time=501\n",
      "note_on channel=1 note=36 velocity=110 time=11\n",
      "note_off channel=1 note=36 velocity=0 time=501\n",
      "note_on channel=1 note=36 velocity=110 time=11\n",
      "note_off channel=1 note=36 velocity=0 time=501\n",
      "note_on channel=1 note=36 velocity=110 time=11\n",
      "note_off channel=1 note=36 velocity=0 time=501\n",
      "note_on channel=1 note=36 velocity=110 time=11\n",
      "note_off channel=1 note=36 velocity=0 time=501\n",
      "note_on channel=1 note=38 velocity=110 time=11\n",
      "note_off channel=1 note=38 velocity=0 time=245\n",
      "note_on channel=1 note=40 velocity=110 time=11\n",
      "note_off channel=1 note=40 velocity=0 time=757\n",
      "note_on channel=1 note=41 velocity=110 time=11\n",
      "note_off channel=1 note=41 velocity=0 time=501\n",
      "note_on channel=1 note=41 velocity=110 time=11\n",
      "note_off channel=1 note=41 velocity=0 time=501\n",
      "note_on channel=1 note=41 velocity=110 time=11\n",
      "note_off channel=1 note=41 velocity=0 time=501\n",
      "note_on channel=1 note=41 velocity=110 time=11\n",
      "note_off channel=1 note=41 velocity=0 time=501\n",
      "note_on channel=1 note=43 velocity=110 time=11\n",
      "note_off channel=1 note=43 velocity=0 time=501\n",
      "note_on channel=1 note=43 velocity=110 time=11\n",
      "note_off channel=1 note=43 velocity=0 time=501\n",
      "note_on channel=1 note=43 velocity=110 time=11\n",
      "note_off channel=1 note=43 velocity=0 time=501\n",
      "note_on channel=1 note=43 velocity=110 time=11\n",
      "note_off channel=1 note=43 velocity=0 time=501\n",
      "note_on channel=1 note=40 velocity=110 time=11\n",
      "note_off channel=1 note=40 velocity=0 time=501\n",
      "note_on channel=1 note=40 velocity=110 time=11\n",
      "note_off channel=1 note=40 velocity=0 time=501\n",
      "note_on channel=1 note=40 velocity=110 time=11\n",
      "note_off channel=1 note=40 velocity=0 time=501\n",
      "note_on channel=1 note=40 velocity=110 time=11\n",
      "note_off channel=1 note=40 velocity=0 time=501\n",
      "note_on channel=1 note=36 velocity=110 time=11\n",
      "note_off channel=1 note=36 velocity=0 time=501\n",
      "note_on channel=1 note=36 velocity=110 time=11\n",
      "note_off channel=1 note=36 velocity=0 time=501\n",
      "note_on channel=1 note=36 velocity=110 time=11\n",
      "note_off channel=1 note=36 velocity=0 time=501\n",
      "note_on channel=1 note=36 velocity=110 time=11\n",
      "note_off channel=1 note=36 velocity=0 time=501\n",
      "note_on channel=1 note=34 velocity=110 time=11\n",
      "note_off channel=1 note=34 velocity=0 time=501\n",
      "note_on channel=1 note=34 velocity=110 time=11\n",
      "note_off channel=1 note=34 velocity=0 time=501\n",
      "note_on channel=1 note=34 velocity=110 time=11\n",
      "note_off channel=1 note=34 velocity=0 time=501\n",
      "note_on channel=1 note=34 velocity=110 time=11\n",
      "note_off channel=1 note=34 velocity=0 time=501\n",
      "note_on channel=1 note=34 velocity=110 time=11\n",
      "note_off channel=1 note=34 velocity=0 time=501\n",
      "note_on channel=1 note=34 velocity=110 time=11\n",
      "note_off channel=1 note=34 velocity=0 time=501\n",
      "note_on channel=1 note=34 velocity=110 time=11\n",
      "note_off channel=1 note=34 velocity=0 time=501\n",
      "note_on channel=1 note=34 velocity=110 time=11\n",
      "note_off channel=1 note=34 velocity=0 time=501\n",
      "note_on channel=1 note=38 velocity=110 time=11\n",
      "note_off channel=1 note=38 velocity=0 time=501\n",
      "note_on channel=1 note=38 velocity=110 time=11\n",
      "note_off channel=1 note=38 velocity=0 time=501\n",
      "note_on channel=1 note=38 velocity=110 time=11\n",
      "note_off channel=1 note=38 velocity=0 time=501\n",
      "note_on channel=1 note=38 velocity=110 time=11\n",
      "note_off channel=1 note=38 velocity=0 time=501\n",
      "note_on channel=1 note=43 velocity=110 time=11\n",
      "note_off channel=1 note=43 velocity=0 time=501\n",
      "note_on channel=1 note=43 velocity=110 time=11\n",
      "note_off channel=1 note=43 velocity=0 time=501\n",
      "note_on channel=1 note=43 velocity=110 time=11\n",
      "note_off channel=1 note=43 velocity=0 time=501\n",
      "note_on channel=1 note=43 velocity=110 time=11\n",
      "note_off channel=1 note=43 velocity=0 time=501\n",
      "note_on channel=1 note=36 velocity=110 time=11\n",
      "note_off channel=1 note=36 velocity=0 time=501\n",
      "note_on channel=1 note=36 velocity=110 time=11\n",
      "note_off channel=1 note=36 velocity=0 time=501\n",
      "note_on channel=1 note=36 velocity=110 time=11\n",
      "note_off channel=1 note=36 velocity=0 time=501\n",
      "note_on channel=1 note=36 velocity=110 time=11\n",
      "note_off channel=1 note=36 velocity=0 time=501\n",
      "note_on channel=1 note=38 velocity=110 time=11\n",
      "note_off channel=1 note=38 velocity=0 time=501\n",
      "note_on channel=1 note=38 velocity=110 time=11\n",
      "note_off channel=1 note=38 velocity=0 time=501\n",
      "note_on channel=1 note=38 velocity=110 time=11\n",
      "note_off channel=1 note=38 velocity=0 time=501\n",
      "note_on channel=1 note=38 velocity=110 time=11\n",
      "note_off channel=1 note=38 velocity=0 time=501\n",
      "note_on channel=1 note=40 velocity=110 time=11\n",
      "note_off channel=1 note=40 velocity=0 time=501\n",
      "note_on channel=1 note=40 velocity=110 time=11\n",
      "note_off channel=1 note=40 velocity=0 time=501\n",
      "note_on channel=1 note=40 velocity=110 time=11\n",
      "note_off channel=1 note=40 velocity=0 time=501\n",
      "note_on channel=1 note=40 velocity=110 time=11\n",
      "note_off channel=1 note=40 velocity=0 time=501\n",
      "note_on channel=1 note=36 velocity=110 time=11\n",
      "note_off channel=1 note=36 velocity=0 time=501\n",
      "note_on channel=1 note=36 velocity=110 time=11\n",
      "note_off channel=1 note=36 velocity=0 time=501\n",
      "note_on channel=1 note=36 velocity=110 time=11\n",
      "note_off channel=1 note=36 velocity=0 time=501\n",
      "note_on channel=1 note=36 velocity=110 time=11\n",
      "note_off channel=1 note=36 velocity=0 time=501\n",
      "note_on channel=1 note=41 velocity=110 time=11\n",
      "note_off channel=1 note=41 velocity=0 time=501\n",
      "note_on channel=1 note=41 velocity=110 time=11\n",
      "note_off channel=1 note=41 velocity=0 time=501\n",
      "note_on channel=1 note=41 velocity=110 time=11\n",
      "note_off channel=1 note=41 velocity=0 time=501\n",
      "note_on channel=1 note=41 velocity=110 time=11\n",
      "note_off channel=1 note=41 velocity=0 time=501\n",
      "note_on channel=1 note=43 velocity=110 time=11\n",
      "note_off channel=1 note=43 velocity=0 time=501\n",
      "note_on channel=1 note=43 velocity=110 time=11\n",
      "note_off channel=1 note=43 velocity=0 time=501\n",
      "note_on channel=1 note=43 velocity=110 time=11\n",
      "note_off channel=1 note=43 velocity=0 time=501\n",
      "note_on channel=1 note=43 velocity=110 time=11\n",
      "note_off channel=1 note=43 velocity=0 time=501\n",
      "note_on channel=1 note=36 velocity=110 time=11\n",
      "note_off channel=1 note=36 velocity=0 time=501\n",
      "note_on channel=1 note=36 velocity=110 time=11\n",
      "note_off channel=1 note=36 velocity=0 time=501\n",
      "note_on channel=1 note=36 velocity=110 time=11\n",
      "note_off channel=1 note=36 velocity=0 time=501\n",
      "note_on channel=1 note=36 velocity=110 time=11\n",
      "note_off channel=1 note=36 velocity=0 time=501\n",
      "note_on channel=1 note=36 velocity=110 time=11\n",
      "note_off channel=1 note=36 velocity=0 time=501\n",
      "note_on channel=1 note=36 velocity=110 time=11\n",
      "note_off channel=1 note=36 velocity=0 time=501\n",
      "note_on channel=1 note=38 velocity=110 time=11\n",
      "note_off channel=1 note=38 velocity=0 time=245\n",
      "note_on channel=1 note=40 velocity=110 time=11\n",
      "note_off channel=1 note=40 velocity=0 time=757\n",
      "note_on channel=1 note=41 velocity=110 time=11\n",
      "note_off channel=1 note=41 velocity=0 time=501\n",
      "note_on channel=1 note=41 velocity=110 time=11\n",
      "note_off channel=1 note=41 velocity=0 time=501\n",
      "note_on channel=1 note=41 velocity=110 time=11\n",
      "note_off channel=1 note=41 velocity=0 time=501\n",
      "note_on channel=1 note=41 velocity=110 time=11\n",
      "note_off channel=1 note=41 velocity=0 time=501\n",
      "note_on channel=1 note=43 velocity=110 time=11\n",
      "note_off channel=1 note=43 velocity=0 time=501\n",
      "note_on channel=1 note=43 velocity=110 time=11\n",
      "note_off channel=1 note=43 velocity=0 time=501\n",
      "note_on channel=1 note=43 velocity=110 time=11\n",
      "note_off channel=1 note=43 velocity=0 time=501\n",
      "note_on channel=1 note=43 velocity=110 time=11\n",
      "note_off channel=1 note=43 velocity=0 time=501\n",
      "note_on channel=1 note=40 velocity=110 time=11\n",
      "note_off channel=1 note=40 velocity=0 time=501\n",
      "note_on channel=1 note=40 velocity=110 time=11\n",
      "note_off channel=1 note=40 velocity=0 time=501\n",
      "note_on channel=1 note=40 velocity=110 time=11\n",
      "note_off channel=1 note=40 velocity=0 time=501\n",
      "note_on channel=1 note=40 velocity=110 time=11\n",
      "note_off channel=1 note=40 velocity=0 time=501\n",
      "note_on channel=1 note=36 velocity=110 time=11\n",
      "note_off channel=1 note=36 velocity=0 time=501\n",
      "note_on channel=1 note=36 velocity=110 time=11\n",
      "note_off channel=1 note=36 velocity=0 time=501\n",
      "note_on channel=1 note=36 velocity=110 time=11\n",
      "note_off channel=1 note=36 velocity=0 time=501\n",
      "note_on channel=1 note=36 velocity=110 time=11\n",
      "note_off channel=1 note=36 velocity=0 time=501\n",
      "note_on channel=1 note=38 velocity=110 time=11\n",
      "note_off channel=1 note=38 velocity=0 time=501\n",
      "note_on channel=1 note=38 velocity=110 time=11\n",
      "note_off channel=1 note=38 velocity=0 time=501\n",
      "note_on channel=1 note=38 velocity=110 time=11\n",
      "note_off channel=1 note=38 velocity=0 time=501\n",
      "note_on channel=1 note=38 velocity=110 time=11\n",
      "note_off channel=1 note=38 velocity=0 time=501\n",
      "note_on channel=1 note=43 velocity=110 time=11\n",
      "note_off channel=1 note=43 velocity=0 time=501\n",
      "note_on channel=1 note=43 velocity=110 time=11\n",
      "note_off channel=1 note=43 velocity=0 time=501\n",
      "note_on channel=1 note=43 velocity=110 time=11\n",
      "note_off channel=1 note=43 velocity=0 time=501\n",
      "note_on channel=1 note=43 velocity=110 time=11\n",
      "note_off channel=1 note=43 velocity=0 time=501\n",
      "note_on channel=1 note=36 velocity=110 time=11\n",
      "note_off channel=1 note=36 velocity=0 time=501\n",
      "note_on channel=1 note=36 velocity=110 time=11\n",
      "note_off channel=1 note=36 velocity=0 time=501\n",
      "note_on channel=1 note=36 velocity=110 time=11\n",
      "note_off channel=1 note=36 velocity=0 time=501\n",
      "note_on channel=1 note=36 velocity=110 time=11\n",
      "note_off channel=1 note=36 velocity=0 time=501\n",
      "note_on channel=1 note=36 velocity=110 time=11\n",
      "note_off channel=1 note=36 velocity=0 time=501\n",
      "note_on channel=1 note=36 velocity=110 time=11\n",
      "note_off channel=1 note=36 velocity=0 time=501\n",
      "note_on channel=1 note=36 velocity=110 time=11\n",
      "note_off channel=1 note=36 velocity=0 time=501\n",
      "note_on channel=1 note=36 velocity=110 time=11\n",
      "note_off channel=1 note=36 velocity=0 time=501\n",
      "note_on channel=1 note=45 velocity=110 time=11\n",
      "note_off channel=1 note=45 velocity=0 time=1365\n",
      "note_on channel=1 note=45 velocity=110 time=171\n",
      "note_off channel=1 note=45 velocity=0 time=2304\n",
      "note_on channel=1 note=43 velocity=110 time=256\n",
      "note_off channel=1 note=43 velocity=0 time=1365\n",
      "note_on channel=1 note=43 velocity=110 time=171\n",
      "note_off channel=1 note=43 velocity=0 time=2304\n",
      "note_on channel=1 note=41 velocity=110 time=256\n",
      "note_off channel=1 note=41 velocity=0 time=1365\n",
      "note_on channel=1 note=41 velocity=110 time=171\n",
      "note_off channel=1 note=41 velocity=0 time=2304\n",
      "note_on channel=1 note=40 velocity=110 time=256\n",
      "note_off channel=1 note=40 velocity=0 time=1365\n",
      "note_on channel=1 note=40 velocity=110 time=171\n",
      "note_off channel=1 note=40 velocity=0 time=2304\n",
      "note_on channel=1 note=38 velocity=110 time=256\n",
      "note_off channel=1 note=38 velocity=0 time=2816\n",
      "note_on channel=1 note=38 velocity=110 time=256\n",
      "note_off channel=1 note=38 velocity=0 time=853\n",
      "note_on channel=1 note=40 velocity=110 time=171\n",
      "note_off channel=1 note=40 velocity=0 time=2816\n",
      "note_on channel=1 note=40 velocity=110 time=256\n",
      "note_off channel=1 note=40 velocity=0 time=853\n",
      "note_on channel=1 note=41 velocity=110 time=171\n",
      "note_off channel=1 note=41 velocity=0 time=2816\n",
      "note_on channel=1 note=41 velocity=110 time=256\n",
      "note_off channel=1 note=41 velocity=0 time=853\n",
      "note_on channel=1 note=43 velocity=110 time=171\n",
      "note_off channel=1 note=43 velocity=0 time=3840\n",
      "note_on channel=1 note=48 velocity=110 time=256\n",
      "note_off channel=1 note=48 velocity=0 time=501\n",
      "note_on channel=1 note=48 velocity=110 time=11\n",
      "note_off channel=1 note=48 velocity=0 time=501\n",
      "note_on channel=1 note=48 velocity=110 time=11\n",
      "note_off channel=1 note=48 velocity=0 time=501\n",
      "note_on channel=1 note=48 velocity=110 time=11\n",
      "note_off channel=1 note=48 velocity=0 time=501\n",
      "note_on channel=1 note=47 velocity=110 time=11\n",
      "note_off channel=1 note=47 velocity=0 time=501\n",
      "note_on channel=1 note=47 velocity=110 time=11\n",
      "note_off channel=1 note=47 velocity=0 time=501\n",
      "note_on channel=1 note=47 velocity=110 time=11\n",
      "note_off channel=1 note=47 velocity=0 time=501\n",
      "note_on channel=1 note=47 velocity=110 time=11\n",
      "note_off channel=1 note=47 velocity=0 time=501\n",
      "note_on channel=1 note=45 velocity=110 time=11\n",
      "note_off channel=1 note=45 velocity=0 time=501\n",
      "note_on channel=1 note=45 velocity=110 time=11\n",
      "note_off channel=1 note=45 velocity=0 time=501\n",
      "note_on channel=1 note=45 velocity=110 time=11\n",
      "note_off channel=1 note=45 velocity=0 time=501\n",
      "note_on channel=1 note=45 velocity=110 time=11\n",
      "note_off channel=1 note=45 velocity=0 time=501\n",
      "note_on channel=1 note=43 velocity=110 time=11\n",
      "note_off channel=1 note=43 velocity=0 time=501\n",
      "note_on channel=1 note=43 velocity=110 time=11\n",
      "note_off channel=1 note=43 velocity=0 time=501\n",
      "note_on channel=1 note=43 velocity=110 time=11\n",
      "note_off channel=1 note=43 velocity=0 time=501\n",
      "note_on channel=1 note=43 velocity=110 time=11\n",
      "note_off channel=1 note=43 velocity=0 time=501\n",
      "note_on channel=1 note=41 velocity=110 time=11\n",
      "note_off channel=1 note=41 velocity=0 time=501\n",
      "note_on channel=1 note=41 velocity=110 time=11\n",
      "note_off channel=1 note=41 velocity=0 time=501\n",
      "note_on channel=1 note=41 velocity=110 time=11\n",
      "note_off channel=1 note=41 velocity=0 time=501\n",
      "note_on channel=1 note=41 velocity=110 time=11\n",
      "note_off channel=1 note=41 velocity=0 time=501\n",
      "note_on channel=1 note=40 velocity=110 time=11\n",
      "note_off channel=1 note=40 velocity=0 time=501\n",
      "note_on channel=1 note=40 velocity=110 time=11\n",
      "note_off channel=1 note=40 velocity=0 time=501\n",
      "note_on channel=1 note=40 velocity=110 time=11\n",
      "note_off channel=1 note=40 velocity=0 time=501\n",
      "note_on channel=1 note=40 velocity=110 time=11\n",
      "note_off channel=1 note=40 velocity=0 time=501\n",
      "note_on channel=1 note=38 velocity=110 time=11\n",
      "note_off channel=1 note=38 velocity=0 time=501\n",
      "note_on channel=1 note=38 velocity=110 time=11\n",
      "note_off channel=1 note=38 velocity=0 time=501\n",
      "note_on channel=1 note=38 velocity=110 time=11\n",
      "note_off channel=1 note=38 velocity=0 time=501\n",
      "note_on channel=1 note=38 velocity=110 time=11\n",
      "note_off channel=1 note=38 velocity=0 time=501\n",
      "note_on channel=1 note=43 velocity=110 time=11\n",
      "note_off channel=1 note=43 velocity=0 time=501\n",
      "note_on channel=1 note=43 velocity=110 time=11\n",
      "note_off channel=1 note=43 velocity=0 time=501\n",
      "note_on channel=1 note=43 velocity=110 time=11\n",
      "note_off channel=1 note=43 velocity=0 time=501\n",
      "note_on channel=1 note=43 velocity=110 time=11\n",
      "note_off channel=1 note=43 velocity=0 time=501\n",
      "note_on channel=1 note=48 velocity=110 time=11\n",
      "note_off channel=1 note=48 velocity=0 time=501\n",
      "note_on channel=1 note=48 velocity=110 time=11\n",
      "note_off channel=1 note=48 velocity=0 time=501\n",
      "note_on channel=1 note=48 velocity=110 time=11\n",
      "note_off channel=1 note=48 velocity=0 time=501\n",
      "note_on channel=1 note=48 velocity=110 time=11\n",
      "note_off channel=1 note=48 velocity=0 time=501\n",
      "note_on channel=1 note=47 velocity=110 time=11\n",
      "note_off channel=1 note=47 velocity=0 time=501\n",
      "note_on channel=1 note=47 velocity=110 time=11\n",
      "note_off channel=1 note=47 velocity=0 time=501\n",
      "note_on channel=1 note=47 velocity=110 time=11\n",
      "note_off channel=1 note=47 velocity=0 time=501\n",
      "note_on channel=1 note=47 velocity=110 time=11\n",
      "note_off channel=1 note=47 velocity=0 time=501\n",
      "note_on channel=1 note=45 velocity=110 time=11\n",
      "note_off channel=1 note=45 velocity=0 time=501\n",
      "note_on channel=1 note=45 velocity=110 time=11\n",
      "note_off channel=1 note=45 velocity=0 time=501\n",
      "note_on channel=1 note=45 velocity=110 time=11\n",
      "note_off channel=1 note=45 velocity=0 time=501\n",
      "note_on channel=1 note=45 velocity=110 time=11\n",
      "note_off channel=1 note=45 velocity=0 time=501\n",
      "note_on channel=1 note=43 velocity=110 time=11\n",
      "note_off channel=1 note=43 velocity=0 time=501\n",
      "note_on channel=1 note=43 velocity=110 time=11\n",
      "note_off channel=1 note=43 velocity=0 time=501\n",
      "note_on channel=1 note=43 velocity=110 time=11\n",
      "note_off channel=1 note=43 velocity=0 time=501\n",
      "note_on channel=1 note=43 velocity=110 time=11\n",
      "note_off channel=1 note=43 velocity=0 time=501\n",
      "note_on channel=1 note=41 velocity=110 time=11\n",
      "note_off channel=1 note=41 velocity=0 time=501\n",
      "note_on channel=1 note=41 velocity=110 time=11\n",
      "note_off channel=1 note=41 velocity=0 time=501\n",
      "note_on channel=1 note=41 velocity=110 time=11\n",
      "note_off channel=1 note=41 velocity=0 time=501\n",
      "note_on channel=1 note=41 velocity=110 time=11\n",
      "note_off channel=1 note=41 velocity=0 time=501\n",
      "note_on channel=1 note=40 velocity=110 time=11\n",
      "note_off channel=1 note=40 velocity=0 time=501\n",
      "note_on channel=1 note=40 velocity=110 time=11\n",
      "note_off channel=1 note=40 velocity=0 time=501\n",
      "note_on channel=1 note=40 velocity=110 time=11\n",
      "note_off channel=1 note=40 velocity=0 time=501\n",
      "note_on channel=1 note=40 velocity=110 time=11\n",
      "note_off channel=1 note=40 velocity=0 time=501\n",
      "note_on channel=1 note=38 velocity=110 time=11\n",
      "note_off channel=1 note=38 velocity=0 time=501\n",
      "note_on channel=1 note=38 velocity=110 time=11\n",
      "note_off channel=1 note=38 velocity=0 time=501\n",
      "note_on channel=1 note=38 velocity=110 time=11\n",
      "note_off channel=1 note=38 velocity=0 time=501\n",
      "note_on channel=1 note=38 velocity=110 time=11\n",
      "note_off channel=1 note=38 velocity=0 time=501\n",
      "note_on channel=1 note=43 velocity=110 time=11\n",
      "note_off channel=1 note=43 velocity=0 time=501\n",
      "note_on channel=1 note=43 velocity=110 time=11\n",
      "note_off channel=1 note=43 velocity=0 time=501\n",
      "note_on channel=1 note=43 velocity=110 time=11\n",
      "note_off channel=1 note=43 velocity=0 time=501\n",
      "note_on channel=1 note=43 velocity=110 time=11\n",
      "note_off channel=1 note=43 velocity=0 time=501\n",
      "note_on channel=1 note=36 velocity=110 time=11\n",
      "note_off channel=1 note=36 velocity=0 time=501\n",
      "note_on channel=1 note=36 velocity=110 time=11\n",
      "note_off channel=1 note=36 velocity=0 time=501\n",
      "note_on channel=1 note=36 velocity=110 time=11\n",
      "note_off channel=1 note=36 velocity=0 time=501\n",
      "note_on channel=1 note=36 velocity=110 time=11\n",
      "note_off channel=1 note=36 velocity=0 time=501\n",
      "note_on channel=1 note=38 velocity=110 time=11\n",
      "note_off channel=1 note=38 velocity=0 time=501\n",
      "note_on channel=1 note=38 velocity=110 time=11\n",
      "note_off channel=1 note=38 velocity=0 time=501\n",
      "note_on channel=1 note=38 velocity=110 time=11\n",
      "note_off channel=1 note=38 velocity=0 time=501\n",
      "note_on channel=1 note=38 velocity=110 time=11\n",
      "note_off channel=1 note=38 velocity=0 time=501\n",
      "note_on channel=1 note=40 velocity=110 time=11\n",
      "note_off channel=1 note=40 velocity=0 time=501\n",
      "note_on channel=1 note=40 velocity=110 time=11\n",
      "note_off channel=1 note=40 velocity=0 time=501\n",
      "note_on channel=1 note=40 velocity=110 time=11\n",
      "note_off channel=1 note=40 velocity=0 time=501\n",
      "note_on channel=1 note=40 velocity=110 time=11\n",
      "note_off channel=1 note=40 velocity=0 time=501\n",
      "note_on channel=1 note=36 velocity=110 time=11\n",
      "note_off channel=1 note=36 velocity=0 time=501\n",
      "note_on channel=1 note=36 velocity=110 time=11\n",
      "note_off channel=1 note=36 velocity=0 time=501\n",
      "note_on channel=1 note=36 velocity=110 time=11\n",
      "note_off channel=1 note=36 velocity=0 time=501\n",
      "note_on channel=1 note=36 velocity=110 time=11\n",
      "note_off channel=1 note=36 velocity=0 time=501\n",
      "note_on channel=1 note=41 velocity=110 time=11\n",
      "note_off channel=1 note=41 velocity=0 time=501\n",
      "note_on channel=1 note=41 velocity=110 time=11\n",
      "note_off channel=1 note=41 velocity=0 time=501\n",
      "note_on channel=1 note=41 velocity=110 time=11\n",
      "note_off channel=1 note=41 velocity=0 time=501\n",
      "note_on channel=1 note=41 velocity=110 time=11\n",
      "note_off channel=1 note=41 velocity=0 time=501\n",
      "note_on channel=1 note=43 velocity=110 time=11\n",
      "note_off channel=1 note=43 velocity=0 time=501\n",
      "note_on channel=1 note=43 velocity=110 time=11\n",
      "note_off channel=1 note=43 velocity=0 time=501\n",
      "note_on channel=1 note=43 velocity=110 time=11\n",
      "note_off channel=1 note=43 velocity=0 time=501\n",
      "note_on channel=1 note=43 velocity=110 time=11\n",
      "note_off channel=1 note=43 velocity=0 time=501\n",
      "note_on channel=1 note=36 velocity=110 time=11\n",
      "note_off channel=1 note=36 velocity=0 time=501\n",
      "note_on channel=1 note=36 velocity=110 time=11\n",
      "note_off channel=1 note=36 velocity=0 time=501\n",
      "note_on channel=1 note=36 velocity=110 time=11\n",
      "note_off channel=1 note=36 velocity=0 time=501\n",
      "note_on channel=1 note=36 velocity=110 time=11\n",
      "note_off channel=1 note=36 velocity=0 time=501\n",
      "note_on channel=1 note=36 velocity=110 time=11\n",
      "note_off channel=1 note=36 velocity=0 time=501\n",
      "note_on channel=1 note=36 velocity=110 time=11\n",
      "note_off channel=1 note=36 velocity=0 time=501\n",
      "note_on channel=1 note=38 velocity=110 time=11\n",
      "note_off channel=1 note=38 velocity=0 time=245\n",
      "note_on channel=1 note=40 velocity=110 time=11\n",
      "note_off channel=1 note=40 velocity=0 time=757\n",
      "note_on channel=1 note=41 velocity=110 time=11\n",
      "note_off channel=1 note=41 velocity=0 time=501\n",
      "note_on channel=1 note=41 velocity=110 time=11\n",
      "note_off channel=1 note=41 velocity=0 time=501\n",
      "note_on channel=1 note=41 velocity=110 time=11\n",
      "note_off channel=1 note=41 velocity=0 time=501\n",
      "note_on channel=1 note=41 velocity=110 time=11\n",
      "note_off channel=1 note=41 velocity=0 time=501\n",
      "note_on channel=1 note=43 velocity=110 time=11\n",
      "note_off channel=1 note=43 velocity=0 time=501\n",
      "note_on channel=1 note=43 velocity=110 time=11\n",
      "note_off channel=1 note=43 velocity=0 time=501\n",
      "note_on channel=1 note=43 velocity=110 time=11\n",
      "note_off channel=1 note=43 velocity=0 time=501\n",
      "note_on channel=1 note=43 velocity=110 time=11\n",
      "note_off channel=1 note=43 velocity=0 time=501\n",
      "note_on channel=1 note=40 velocity=110 time=11\n",
      "note_off channel=1 note=40 velocity=0 time=501\n",
      "note_on channel=1 note=40 velocity=110 time=11\n",
      "note_off channel=1 note=40 velocity=0 time=501\n",
      "note_on channel=1 note=40 velocity=110 time=11\n",
      "note_off channel=1 note=40 velocity=0 time=501\n",
      "note_on channel=1 note=40 velocity=110 time=11\n",
      "note_off channel=1 note=40 velocity=0 time=501\n",
      "note_on channel=1 note=36 velocity=110 time=11\n",
      "note_off channel=1 note=36 velocity=0 time=501\n",
      "note_on channel=1 note=36 velocity=110 time=11\n",
      "note_off channel=1 note=36 velocity=0 time=501\n",
      "note_on channel=1 note=36 velocity=110 time=11\n",
      "note_off channel=1 note=36 velocity=0 time=501\n",
      "note_on channel=1 note=36 velocity=110 time=11\n",
      "note_off channel=1 note=36 velocity=0 time=501\n",
      "note_on channel=1 note=34 velocity=110 time=11\n",
      "note_off channel=1 note=34 velocity=0 time=501\n",
      "note_on channel=1 note=34 velocity=110 time=11\n",
      "note_off channel=1 note=34 velocity=0 time=501\n",
      "note_on channel=1 note=34 velocity=110 time=11\n",
      "note_off channel=1 note=34 velocity=0 time=501\n",
      "note_on channel=1 note=34 velocity=110 time=11\n",
      "note_off channel=1 note=34 velocity=0 time=501\n",
      "note_on channel=1 note=34 velocity=110 time=11\n",
      "note_off channel=1 note=34 velocity=0 time=501\n",
      "note_on channel=1 note=34 velocity=110 time=11\n",
      "note_off channel=1 note=34 velocity=0 time=501\n",
      "note_on channel=1 note=34 velocity=110 time=11\n",
      "note_off channel=1 note=34 velocity=0 time=501\n",
      "note_on channel=1 note=34 velocity=110 time=11\n",
      "note_off channel=1 note=34 velocity=0 time=501\n",
      "note_on channel=1 note=38 velocity=110 time=11\n",
      "note_off channel=1 note=38 velocity=0 time=501\n",
      "note_on channel=1 note=38 velocity=110 time=11\n",
      "note_off channel=1 note=38 velocity=0 time=501\n",
      "note_on channel=1 note=38 velocity=110 time=11\n",
      "note_off channel=1 note=38 velocity=0 time=501\n",
      "note_on channel=1 note=38 velocity=110 time=11\n",
      "note_off channel=1 note=38 velocity=0 time=501\n",
      "note_on channel=1 note=43 velocity=110 time=11\n",
      "note_off channel=1 note=43 velocity=0 time=501\n",
      "note_on channel=1 note=43 velocity=110 time=11\n",
      "note_off channel=1 note=43 velocity=0 time=501\n",
      "note_on channel=1 note=43 velocity=110 time=11\n",
      "note_off channel=1 note=43 velocity=0 time=501\n",
      "note_on channel=1 note=43 velocity=110 time=11\n",
      "note_off channel=1 note=43 velocity=0 time=501\n",
      "note_on channel=1 note=36 velocity=110 time=11\n",
      "note_off channel=1 note=36 velocity=0 time=501\n",
      "note_on channel=1 note=36 velocity=110 time=11\n",
      "note_off channel=1 note=36 velocity=0 time=501\n",
      "note_on channel=1 note=36 velocity=110 time=11\n",
      "note_off channel=1 note=36 velocity=0 time=501\n",
      "note_on channel=1 note=36 velocity=110 time=11\n",
      "note_off channel=1 note=36 velocity=0 time=501\n",
      "note_on channel=1 note=38 velocity=110 time=11\n",
      "note_off channel=1 note=38 velocity=0 time=501\n",
      "note_on channel=1 note=38 velocity=110 time=11\n",
      "note_off channel=1 note=38 velocity=0 time=501\n",
      "note_on channel=1 note=38 velocity=110 time=11\n",
      "note_off channel=1 note=38 velocity=0 time=501\n",
      "note_on channel=1 note=38 velocity=110 time=11\n",
      "note_off channel=1 note=38 velocity=0 time=501\n",
      "note_on channel=1 note=40 velocity=110 time=11\n",
      "note_off channel=1 note=40 velocity=0 time=501\n",
      "note_on channel=1 note=40 velocity=110 time=11\n",
      "note_off channel=1 note=40 velocity=0 time=501\n",
      "note_on channel=1 note=40 velocity=110 time=11\n",
      "note_off channel=1 note=40 velocity=0 time=501\n",
      "note_on channel=1 note=40 velocity=110 time=11\n",
      "note_off channel=1 note=40 velocity=0 time=501\n",
      "note_on channel=1 note=36 velocity=110 time=11\n",
      "note_off channel=1 note=36 velocity=0 time=501\n",
      "note_on channel=1 note=36 velocity=110 time=11\n",
      "note_off channel=1 note=36 velocity=0 time=501\n",
      "note_on channel=1 note=36 velocity=110 time=11\n",
      "note_off channel=1 note=36 velocity=0 time=501\n",
      "note_on channel=1 note=36 velocity=110 time=11\n",
      "note_off channel=1 note=36 velocity=0 time=501\n",
      "note_on channel=1 note=41 velocity=110 time=11\n",
      "note_off channel=1 note=41 velocity=0 time=501\n",
      "note_on channel=1 note=41 velocity=110 time=11\n",
      "note_off channel=1 note=41 velocity=0 time=501\n",
      "note_on channel=1 note=41 velocity=110 time=11\n",
      "note_off channel=1 note=41 velocity=0 time=501\n",
      "note_on channel=1 note=41 velocity=110 time=11\n",
      "note_off channel=1 note=41 velocity=0 time=501\n",
      "note_on channel=1 note=43 velocity=110 time=11\n",
      "note_off channel=1 note=43 velocity=0 time=501\n",
      "note_on channel=1 note=43 velocity=110 time=11\n",
      "note_off channel=1 note=43 velocity=0 time=501\n",
      "note_on channel=1 note=43 velocity=110 time=11\n",
      "note_off channel=1 note=43 velocity=0 time=501\n",
      "note_on channel=1 note=43 velocity=110 time=11\n",
      "note_off channel=1 note=43 velocity=0 time=501\n",
      "note_on channel=1 note=36 velocity=110 time=11\n",
      "note_off channel=1 note=36 velocity=0 time=501\n",
      "note_on channel=1 note=36 velocity=110 time=11\n",
      "note_off channel=1 note=36 velocity=0 time=501\n",
      "note_on channel=1 note=36 velocity=110 time=11\n",
      "note_off channel=1 note=36 velocity=0 time=501\n",
      "note_on channel=1 note=36 velocity=110 time=11\n",
      "note_off channel=1 note=36 velocity=0 time=501\n",
      "note_on channel=1 note=36 velocity=110 time=11\n",
      "note_off channel=1 note=36 velocity=0 time=501\n",
      "note_on channel=1 note=36 velocity=110 time=11\n",
      "note_off channel=1 note=36 velocity=0 time=501\n",
      "note_on channel=1 note=38 velocity=110 time=11\n",
      "note_off channel=1 note=38 velocity=0 time=245\n",
      "note_on channel=1 note=40 velocity=110 time=11\n",
      "note_off channel=1 note=40 velocity=0 time=757\n",
      "note_on channel=1 note=41 velocity=110 time=11\n",
      "note_off channel=1 note=41 velocity=0 time=501\n",
      "note_on channel=1 note=41 velocity=110 time=11\n",
      "note_off channel=1 note=41 velocity=0 time=501\n",
      "note_on channel=1 note=41 velocity=110 time=11\n",
      "note_off channel=1 note=41 velocity=0 time=501\n",
      "note_on channel=1 note=41 velocity=110 time=11\n",
      "note_off channel=1 note=41 velocity=0 time=501\n",
      "note_on channel=1 note=43 velocity=110 time=11\n",
      "note_off channel=1 note=43 velocity=0 time=501\n",
      "note_on channel=1 note=43 velocity=110 time=11\n",
      "note_off channel=1 note=43 velocity=0 time=501\n",
      "note_on channel=1 note=43 velocity=110 time=11\n",
      "note_off channel=1 note=43 velocity=0 time=501\n",
      "note_on channel=1 note=43 velocity=110 time=11\n",
      "note_off channel=1 note=43 velocity=0 time=501\n",
      "note_on channel=1 note=40 velocity=110 time=11\n",
      "note_off channel=1 note=40 velocity=0 time=501\n",
      "note_on channel=1 note=40 velocity=110 time=11\n",
      "note_off channel=1 note=40 velocity=0 time=501\n",
      "note_on channel=1 note=40 velocity=110 time=11\n",
      "note_off channel=1 note=40 velocity=0 time=501\n",
      "note_on channel=1 note=40 velocity=110 time=11\n",
      "note_off channel=1 note=40 velocity=0 time=501\n",
      "note_on channel=1 note=36 velocity=110 time=11\n",
      "note_off channel=1 note=36 velocity=0 time=501\n",
      "note_on channel=1 note=36 velocity=110 time=11\n",
      "note_off channel=1 note=36 velocity=0 time=501\n",
      "note_on channel=1 note=36 velocity=110 time=11\n",
      "note_off channel=1 note=36 velocity=0 time=501\n",
      "note_on channel=1 note=36 velocity=110 time=11\n",
      "note_off channel=1 note=36 velocity=0 time=501\n",
      "note_on channel=1 note=38 velocity=110 time=11\n",
      "note_off channel=1 note=38 velocity=0 time=501\n",
      "note_on channel=1 note=38 velocity=110 time=11\n",
      "note_off channel=1 note=38 velocity=0 time=501\n",
      "note_on channel=1 note=38 velocity=110 time=11\n",
      "note_off channel=1 note=38 velocity=0 time=501\n",
      "note_on channel=1 note=38 velocity=110 time=11\n",
      "note_off channel=1 note=38 velocity=0 time=501\n",
      "note_on channel=1 note=43 velocity=110 time=11\n",
      "note_off channel=1 note=43 velocity=0 time=501\n",
      "note_on channel=1 note=43 velocity=110 time=11\n",
      "note_off channel=1 note=43 velocity=0 time=501\n",
      "note_on channel=1 note=43 velocity=110 time=11\n",
      "note_off channel=1 note=43 velocity=0 time=501\n",
      "note_on channel=1 note=43 velocity=110 time=11\n",
      "note_off channel=1 note=43 velocity=0 time=501\n",
      "note_on channel=1 note=36 velocity=110 time=11\n",
      "note_off channel=1 note=36 velocity=0 time=501\n",
      "note_on channel=1 note=36 velocity=110 time=11\n",
      "note_off channel=1 note=36 velocity=0 time=501\n",
      "note_on channel=1 note=36 velocity=110 time=11\n",
      "note_off channel=1 note=36 velocity=0 time=501\n",
      "note_on channel=1 note=36 velocity=110 time=11\n",
      "note_off channel=1 note=36 velocity=0 time=501\n",
      "note_on channel=1 note=36 velocity=110 time=11\n",
      "note_off channel=1 note=36 velocity=0 time=501\n",
      "note_on channel=1 note=36 velocity=110 time=11\n",
      "note_off channel=1 note=36 velocity=0 time=501\n",
      "note_on channel=1 note=36 velocity=110 time=11\n",
      "note_off channel=1 note=36 velocity=0 time=501\n",
      "note_on channel=1 note=36 velocity=110 time=11\n",
      "note_off channel=1 note=36 velocity=0 time=501\n",
      "note_on channel=1 note=45 velocity=110 time=11\n",
      "note_off channel=1 note=45 velocity=0 time=1365\n",
      "note_on channel=1 note=45 velocity=110 time=171\n",
      "note_off channel=1 note=45 velocity=0 time=2304\n",
      "note_on channel=1 note=43 velocity=110 time=256\n",
      "note_off channel=1 note=43 velocity=0 time=1365\n",
      "note_on channel=1 note=43 velocity=110 time=171\n",
      "note_off channel=1 note=43 velocity=0 time=2304\n",
      "note_on channel=1 note=41 velocity=110 time=256\n",
      "note_off channel=1 note=41 velocity=0 time=1365\n",
      "note_on channel=1 note=41 velocity=110 time=171\n",
      "note_off channel=1 note=41 velocity=0 time=2304\n",
      "note_on channel=1 note=40 velocity=110 time=256\n",
      "note_off channel=1 note=40 velocity=0 time=1365\n",
      "note_on channel=1 note=40 velocity=110 time=171\n",
      "note_off channel=1 note=40 velocity=0 time=2304\n",
      "note_on channel=1 note=38 velocity=110 time=256\n",
      "note_off channel=1 note=38 velocity=0 time=2816\n",
      "note_on channel=1 note=38 velocity=110 time=256\n",
      "note_off channel=1 note=38 velocity=0 time=853\n",
      "note_on channel=1 note=40 velocity=110 time=171\n",
      "note_off channel=1 note=40 velocity=0 time=2816\n",
      "note_on channel=1 note=40 velocity=110 time=256\n",
      "note_off channel=1 note=40 velocity=0 time=853\n",
      "note_on channel=1 note=41 velocity=110 time=171\n",
      "note_off channel=1 note=41 velocity=0 time=2816\n",
      "note_on channel=1 note=41 velocity=110 time=256\n",
      "note_off channel=1 note=41 velocity=0 time=853\n",
      "note_on channel=1 note=43 velocity=110 time=171\n",
      "note_off channel=1 note=43 velocity=0 time=3840\n",
      "note_on channel=1 note=48 velocity=110 time=256\n",
      "note_off channel=1 note=48 velocity=0 time=501\n",
      "note_on channel=1 note=48 velocity=110 time=11\n",
      "note_off channel=1 note=48 velocity=0 time=501\n",
      "note_on channel=1 note=48 velocity=110 time=11\n",
      "note_off channel=1 note=48 velocity=0 time=501\n",
      "note_on channel=1 note=48 velocity=110 time=11\n",
      "note_off channel=1 note=48 velocity=0 time=501\n",
      "note_on channel=1 note=47 velocity=110 time=11\n",
      "note_off channel=1 note=47 velocity=0 time=501\n",
      "note_on channel=1 note=47 velocity=110 time=11\n",
      "note_off channel=1 note=47 velocity=0 time=501\n",
      "note_on channel=1 note=47 velocity=110 time=11\n",
      "note_off channel=1 note=47 velocity=0 time=501\n",
      "note_on channel=1 note=47 velocity=110 time=11\n",
      "note_off channel=1 note=47 velocity=0 time=501\n",
      "note_on channel=1 note=45 velocity=110 time=11\n",
      "note_off channel=1 note=45 velocity=0 time=501\n",
      "note_on channel=1 note=45 velocity=110 time=11\n",
      "note_off channel=1 note=45 velocity=0 time=501\n",
      "note_on channel=1 note=45 velocity=110 time=11\n",
      "note_off channel=1 note=45 velocity=0 time=501\n",
      "note_on channel=1 note=45 velocity=110 time=11\n",
      "note_off channel=1 note=45 velocity=0 time=501\n",
      "note_on channel=1 note=43 velocity=110 time=11\n",
      "note_off channel=1 note=43 velocity=0 time=501\n",
      "note_on channel=1 note=43 velocity=110 time=11\n",
      "note_off channel=1 note=43 velocity=0 time=501\n",
      "note_on channel=1 note=43 velocity=110 time=11\n",
      "note_off channel=1 note=43 velocity=0 time=501\n",
      "note_on channel=1 note=43 velocity=110 time=11\n",
      "note_off channel=1 note=43 velocity=0 time=501\n",
      "note_on channel=1 note=41 velocity=110 time=11\n",
      "note_off channel=1 note=41 velocity=0 time=501\n",
      "note_on channel=1 note=41 velocity=110 time=11\n",
      "note_off channel=1 note=41 velocity=0 time=501\n",
      "note_on channel=1 note=41 velocity=110 time=11\n",
      "note_off channel=1 note=41 velocity=0 time=501\n",
      "note_on channel=1 note=41 velocity=110 time=11\n",
      "note_off channel=1 note=41 velocity=0 time=501\n",
      "note_on channel=1 note=40 velocity=110 time=11\n",
      "note_off channel=1 note=40 velocity=0 time=501\n",
      "note_on channel=1 note=40 velocity=110 time=11\n",
      "note_off channel=1 note=40 velocity=0 time=501\n",
      "note_on channel=1 note=40 velocity=110 time=11\n",
      "note_off channel=1 note=40 velocity=0 time=501\n",
      "note_on channel=1 note=40 velocity=110 time=11\n",
      "note_off channel=1 note=40 velocity=0 time=501\n",
      "note_on channel=1 note=38 velocity=110 time=11\n",
      "note_off channel=1 note=38 velocity=0 time=501\n",
      "note_on channel=1 note=38 velocity=110 time=11\n",
      "note_off channel=1 note=38 velocity=0 time=501\n",
      "note_on channel=1 note=38 velocity=110 time=11\n",
      "note_off channel=1 note=38 velocity=0 time=501\n",
      "note_on channel=1 note=38 velocity=110 time=11\n",
      "note_off channel=1 note=38 velocity=0 time=501\n",
      "note_on channel=1 note=43 velocity=110 time=11\n",
      "note_off channel=1 note=43 velocity=0 time=501\n",
      "note_on channel=1 note=43 velocity=110 time=11\n",
      "note_off channel=1 note=43 velocity=0 time=501\n",
      "note_on channel=1 note=43 velocity=110 time=11\n",
      "note_off channel=1 note=43 velocity=0 time=501\n",
      "note_on channel=1 note=43 velocity=110 time=11\n",
      "note_off channel=1 note=43 velocity=0 time=501\n",
      "note_on channel=1 note=48 velocity=110 time=11\n",
      "note_off channel=1 note=48 velocity=0 time=501\n",
      "note_on channel=1 note=48 velocity=110 time=11\n",
      "note_off channel=1 note=48 velocity=0 time=501\n",
      "note_on channel=1 note=48 velocity=110 time=11\n",
      "note_off channel=1 note=48 velocity=0 time=501\n",
      "note_on channel=1 note=48 velocity=110 time=11\n",
      "note_off channel=1 note=48 velocity=0 time=501\n",
      "note_on channel=1 note=47 velocity=110 time=11\n",
      "note_off channel=1 note=47 velocity=0 time=501\n",
      "note_on channel=1 note=47 velocity=110 time=11\n",
      "note_off channel=1 note=47 velocity=0 time=501\n",
      "note_on channel=1 note=47 velocity=110 time=11\n",
      "note_off channel=1 note=47 velocity=0 time=501\n",
      "note_on channel=1 note=47 velocity=110 time=11\n",
      "note_off channel=1 note=47 velocity=0 time=501\n",
      "note_on channel=1 note=45 velocity=110 time=11\n",
      "note_off channel=1 note=45 velocity=0 time=501\n",
      "note_on channel=1 note=45 velocity=110 time=11\n",
      "note_off channel=1 note=45 velocity=0 time=501\n",
      "note_on channel=1 note=45 velocity=110 time=11\n",
      "note_off channel=1 note=45 velocity=0 time=501\n",
      "note_on channel=1 note=45 velocity=110 time=11\n",
      "note_off channel=1 note=45 velocity=0 time=501\n",
      "note_on channel=1 note=43 velocity=110 time=11\n",
      "note_off channel=1 note=43 velocity=0 time=501\n",
      "note_on channel=1 note=43 velocity=110 time=11\n",
      "note_off channel=1 note=43 velocity=0 time=501\n",
      "note_on channel=1 note=43 velocity=110 time=11\n",
      "note_off channel=1 note=43 velocity=0 time=501\n",
      "note_on channel=1 note=43 velocity=110 time=11\n",
      "note_off channel=1 note=43 velocity=0 time=501\n",
      "note_on channel=1 note=41 velocity=110 time=11\n",
      "note_off channel=1 note=41 velocity=0 time=501\n",
      "note_on channel=1 note=41 velocity=110 time=11\n",
      "note_off channel=1 note=41 velocity=0 time=501\n",
      "note_on channel=1 note=41 velocity=110 time=11\n",
      "note_off channel=1 note=41 velocity=0 time=501\n",
      "note_on channel=1 note=41 velocity=110 time=11\n",
      "note_off channel=1 note=41 velocity=0 time=501\n",
      "note_on channel=1 note=40 velocity=110 time=11\n",
      "note_off channel=1 note=40 velocity=0 time=501\n",
      "note_on channel=1 note=40 velocity=110 time=11\n",
      "note_off channel=1 note=40 velocity=0 time=501\n",
      "note_on channel=1 note=40 velocity=110 time=11\n",
      "note_off channel=1 note=40 velocity=0 time=501\n",
      "note_on channel=1 note=40 velocity=110 time=11\n",
      "note_off channel=1 note=40 velocity=0 time=501\n",
      "note_on channel=1 note=38 velocity=110 time=11\n",
      "note_off channel=1 note=38 velocity=0 time=501\n",
      "note_on channel=1 note=38 velocity=110 time=11\n",
      "note_off channel=1 note=38 velocity=0 time=501\n",
      "note_on channel=1 note=38 velocity=110 time=11\n",
      "note_off channel=1 note=38 velocity=0 time=501\n",
      "note_on channel=1 note=38 velocity=110 time=11\n",
      "note_off channel=1 note=38 velocity=0 time=501\n",
      "note_on channel=1 note=43 velocity=110 time=11\n",
      "note_off channel=1 note=43 velocity=0 time=501\n",
      "note_on channel=1 note=43 velocity=110 time=11\n",
      "note_off channel=1 note=43 velocity=0 time=501\n",
      "note_on channel=1 note=43 velocity=110 time=11\n",
      "note_off channel=1 note=43 velocity=0 time=501\n",
      "note_on channel=1 note=43 velocity=110 time=11\n",
      "note_off channel=1 note=43 velocity=0 time=501\n",
      "note_on channel=1 note=49 velocity=110 time=11\n",
      "note_off channel=1 note=49 velocity=0 time=501\n",
      "note_on channel=1 note=49 velocity=110 time=11\n",
      "note_off channel=1 note=49 velocity=0 time=501\n",
      "note_on channel=1 note=49 velocity=110 time=11\n",
      "note_off channel=1 note=49 velocity=0 time=501\n",
      "note_on channel=1 note=49 velocity=110 time=11\n",
      "note_off channel=1 note=49 velocity=0 time=501\n",
      "note_on channel=1 note=48 velocity=110 time=11\n",
      "note_off channel=1 note=48 velocity=0 time=501\n",
      "note_on channel=1 note=48 velocity=110 time=11\n",
      "note_off channel=1 note=48 velocity=0 time=501\n",
      "note_on channel=1 note=48 velocity=110 time=11\n",
      "note_off channel=1 note=48 velocity=0 time=501\n",
      "note_on channel=1 note=48 velocity=110 time=11\n",
      "note_off channel=1 note=48 velocity=0 time=501\n",
      "note_on channel=1 note=46 velocity=110 time=11\n",
      "note_off channel=1 note=46 velocity=0 time=501\n",
      "note_on channel=1 note=46 velocity=110 time=11\n",
      "note_off channel=1 note=46 velocity=0 time=501\n",
      "note_on channel=1 note=46 velocity=110 time=11\n",
      "note_off channel=1 note=46 velocity=0 time=501\n",
      "note_on channel=1 note=46 velocity=110 time=11\n",
      "note_off channel=1 note=46 velocity=0 time=501\n",
      "note_on channel=1 note=44 velocity=110 time=11\n",
      "note_off channel=1 note=44 velocity=0 time=501\n",
      "note_on channel=1 note=44 velocity=110 time=11\n",
      "note_off channel=1 note=44 velocity=0 time=501\n",
      "note_on channel=1 note=44 velocity=110 time=11\n",
      "note_off channel=1 note=44 velocity=0 time=501\n",
      "note_on channel=1 note=44 velocity=110 time=11\n",
      "note_off channel=1 note=44 velocity=0 time=501\n",
      "note_on channel=1 note=42 velocity=110 time=11\n",
      "note_off channel=1 note=42 velocity=0 time=501\n",
      "note_on channel=1 note=42 velocity=110 time=11\n",
      "note_off channel=1 note=42 velocity=0 time=501\n",
      "note_on channel=1 note=42 velocity=110 time=11\n",
      "note_off channel=1 note=42 velocity=0 time=501\n",
      "note_on channel=1 note=42 velocity=110 time=11\n",
      "note_off channel=1 note=42 velocity=0 time=501\n",
      "note_on channel=1 note=41 velocity=110 time=11\n",
      "note_off channel=1 note=41 velocity=0 time=501\n",
      "note_on channel=1 note=41 velocity=110 time=11\n",
      "note_off channel=1 note=41 velocity=0 time=501\n",
      "note_on channel=1 note=41 velocity=110 time=11\n",
      "note_off channel=1 note=41 velocity=0 time=501\n",
      "note_on channel=1 note=41 velocity=110 time=11\n",
      "note_off channel=1 note=41 velocity=0 time=501\n",
      "note_on channel=1 note=39 velocity=110 time=11\n",
      "note_off channel=1 note=39 velocity=0 time=501\n",
      "note_on channel=1 note=39 velocity=110 time=11\n",
      "note_off channel=1 note=39 velocity=0 time=501\n",
      "note_on channel=1 note=39 velocity=110 time=11\n",
      "note_off channel=1 note=39 velocity=0 time=501\n",
      "note_on channel=1 note=39 velocity=110 time=11\n",
      "note_off channel=1 note=39 velocity=0 time=501\n",
      "note_on channel=1 note=44 velocity=110 time=11\n",
      "note_off channel=1 note=44 velocity=0 time=501\n",
      "note_on channel=1 note=44 velocity=110 time=11\n",
      "note_off channel=1 note=44 velocity=0 time=501\n",
      "note_on channel=1 note=44 velocity=110 time=11\n",
      "note_off channel=1 note=44 velocity=0 time=501\n",
      "note_on channel=1 note=44 velocity=110 time=11\n",
      "note_off channel=1 note=44 velocity=0 time=501\n",
      "note_on channel=1 note=49 velocity=110 time=11\n",
      "note_off channel=1 note=49 velocity=0 time=501\n",
      "note_on channel=1 note=49 velocity=110 time=11\n",
      "note_off channel=1 note=49 velocity=0 time=501\n",
      "note_on channel=1 note=49 velocity=110 time=11\n",
      "note_off channel=1 note=49 velocity=0 time=501\n",
      "note_on channel=1 note=49 velocity=110 time=11\n",
      "note_off channel=1 note=49 velocity=0 time=501\n",
      "note_on channel=1 note=48 velocity=110 time=11\n",
      "note_off channel=1 note=48 velocity=0 time=501\n",
      "note_on channel=1 note=48 velocity=110 time=11\n",
      "note_off channel=1 note=48 velocity=0 time=501\n",
      "note_on channel=1 note=48 velocity=110 time=11\n",
      "note_off channel=1 note=48 velocity=0 time=501\n",
      "note_on channel=1 note=48 velocity=110 time=11\n",
      "note_off channel=1 note=48 velocity=0 time=501\n",
      "note_on channel=1 note=46 velocity=110 time=11\n",
      "note_off channel=1 note=46 velocity=0 time=501\n",
      "note_on channel=1 note=46 velocity=110 time=11\n",
      "note_off channel=1 note=46 velocity=0 time=501\n",
      "note_on channel=1 note=46 velocity=110 time=11\n",
      "note_off channel=1 note=46 velocity=0 time=501\n",
      "note_on channel=1 note=46 velocity=110 time=11\n",
      "note_off channel=1 note=46 velocity=0 time=501\n",
      "note_on channel=1 note=44 velocity=110 time=11\n",
      "note_off channel=1 note=44 velocity=0 time=501\n",
      "note_on channel=1 note=44 velocity=110 time=11\n",
      "note_off channel=1 note=44 velocity=0 time=501\n",
      "note_on channel=1 note=44 velocity=110 time=11\n",
      "note_off channel=1 note=44 velocity=0 time=501\n",
      "note_on channel=1 note=44 velocity=110 time=11\n",
      "note_off channel=1 note=44 velocity=0 time=501\n",
      "note_on channel=1 note=42 velocity=110 time=11\n",
      "note_off channel=1 note=42 velocity=0 time=501\n",
      "note_on channel=1 note=42 velocity=110 time=11\n",
      "note_off channel=1 note=42 velocity=0 time=501\n",
      "note_on channel=1 note=42 velocity=110 time=11\n",
      "note_off channel=1 note=42 velocity=0 time=501\n",
      "note_on channel=1 note=42 velocity=110 time=11\n",
      "note_off channel=1 note=42 velocity=0 time=501\n",
      "note_on channel=1 note=41 velocity=110 time=11\n",
      "note_off channel=1 note=41 velocity=0 time=501\n",
      "note_on channel=1 note=41 velocity=110 time=11\n",
      "note_off channel=1 note=41 velocity=0 time=501\n",
      "note_on channel=1 note=41 velocity=110 time=11\n",
      "note_off channel=1 note=41 velocity=0 time=501\n",
      "note_on channel=1 note=41 velocity=110 time=11\n",
      "note_off channel=1 note=41 velocity=0 time=501\n",
      "note_on channel=1 note=39 velocity=110 time=11\n",
      "note_off channel=1 note=39 velocity=0 time=501\n",
      "note_on channel=1 note=39 velocity=110 time=11\n",
      "note_off channel=1 note=39 velocity=0 time=501\n",
      "note_on channel=1 note=39 velocity=110 time=11\n",
      "note_off channel=1 note=39 velocity=0 time=501\n",
      "note_on channel=1 note=39 velocity=110 time=11\n",
      "note_off channel=1 note=39 velocity=0 time=501\n",
      "note_on channel=1 note=44 velocity=110 time=11\n",
      "note_off channel=1 note=44 velocity=0 time=501\n",
      "note_on channel=1 note=44 velocity=110 time=11\n",
      "note_off channel=1 note=44 velocity=0 time=501\n",
      "note_on channel=1 note=44 velocity=110 time=11\n",
      "note_off channel=1 note=44 velocity=0 time=501\n",
      "note_on channel=1 note=44 velocity=110 time=11\n",
      "note_off channel=1 note=44 velocity=0 time=501\n",
      "note_on channel=1 note=37 velocity=110 time=11\n",
      "note_off channel=1 note=37 velocity=0 time=3840\n",
      "note_on channel=1 note=42 velocity=110 time=256\n",
      "note_off channel=1 note=42 velocity=0 time=3840\n",
      "note_on channel=1 note=37 velocity=110 time=256\n",
      "note_off channel=1 note=37 velocity=0 time=3840\n",
      "note_on channel=1 note=42 velocity=110 time=256\n",
      "note_off channel=1 note=42 velocity=0 time=3840\n",
      "note_on channel=1 note=37 velocity=110 time=256\n",
      "note_off channel=1 note=37 velocity=0 time=3840\n",
      "note_on channel=1 note=42 velocity=110 time=256\n",
      "note_off channel=1 note=42 velocity=0 time=3840\n",
      "note_on channel=1 note=37 velocity=110 time=640\n",
      "note_off channel=1 note=37 velocity=0 time=640\n",
      "note_on channel=1 note=37 velocity=110 time=3072\n",
      "note_off channel=1 note=37 velocity=0 time=853\n",
      "<meta message end_of_track time=1>\n"
     ],
     "output_type": "stream"
    }
   ],
   "source": [
    "from mido import MidiFile\n",
    "mid = MidiFile('Super Mario 64 - Medley.mid')\n",
    "supermario = Song();\n",
    "\n",
    "for i, track in enumerate(mid.tracks):\n",
    "    print('Track {}: {}'.format(i, track.name))\n",
    "    for msg in track:\n",
    "        print(msg)\n",
    "        if msg.type == \"time_signature\":\n",
    "            supermario.time_signature = msg\n",
    "        elif msg.type == \"key_signature\":\n",
    "            supermario.key_signature = msg;\n",
    "    "
   ],
   "metadata": {
    "collapsed": false,
    "pycharm": {
     "name": "#%%\n",
     "is_executing": false
    }
   }
  },
  {
   "cell_type": "code",
   "execution_count": null,
   "outputs": [],
   "source": [
    "\n",
    "\n",
    "\n"
   ],
   "metadata": {
    "collapsed": false,
    "pycharm": {
     "name": "#%%\n"
    }
   }
  }
 ],
 "metadata": {
  "kernelspec": {
   "display_name": "Python 3",
   "language": "python",
   "name": "python3"
  },
  "language_info": {
   "codemirror_mode": {
    "name": "ipython",
    "version": 2
   },
   "file_extension": ".py",
   "mimetype": "text/x-python",
   "name": "python",
   "nbconvert_exporter": "python",
   "pygments_lexer": "ipython2",
   "version": "2.7.6"
  },
  "pycharm": {
   "stem_cell": {
    "cell_type": "raw",
    "source": [
     "asdasdad\n"
    ],
    "metadata": {
     "collapsed": false
    }
   }
  }
 },
 "nbformat": 4,
 "nbformat_minor": 0
}